<svg width="659" height="434" viewBox="0 0 659 434" fill="none" xmlns="http://www.w3.org/2000/svg">
<rect width="659" height="434" fill="url(#paint0_linear_807_2581)"/>
<path d="M423.863 296.668L397.382 338.178L433.003 360.58L461.066 313.024" fill="#D4D4D4" fill-opacity="0.22"/>
<path d="M485.672 287.647C438.971 281.43 402.908 241.417 402.908 192.991C402.908 144.565 438.971 104.538 485.672 98.3353V55C415.756 61.4739 360.999 120.281 360.999 191.879C360.999 263.477 415.756 322.227 485.672 328.701V287.633V287.647Z" fill="#D4D4D4" fill-opacity="0.22"/>
<path d="M512.653 287.469C558.712 280.681 594.091 240.925 594.091 192.97C594.091 145.014 558.712 105.258 512.653 98.4705V55.0781C581.927 62.1937 636 120.687 636 191.857C636 263.028 581.927 321.478 512.653 328.58V287.469Z" fill="#D4D4D4" fill-opacity="0.22"/>
<path d="M592.901 208.665H512.647V165.786H590.149C595.125 178.634 594.983 193.307 592.886 208.665H592.901Z" fill="#D4D4D4" fill-opacity="0.22"/>
<defs>
<linearGradient id="paint0_linear_807_2581" x1="329.5" y1="0" x2="329.5" y2="434" gradientUnits="userSpaceOnUse">
<stop stop-color="white"/>
<stop offset="1" stop-color="#F0FAF7"/>
</linearGradient>
</defs>
</svg>



