<svg width="24" height="24" viewBox="0 0 24 24" fill="none" xmlns="http://www.w3.org/2000/svg">
<rect x="2.93262" y="6" width="17.5913" height="15" rx="2" stroke="#0088FF"/>
<path d="M2.93262 10C2.93262 8.11438 2.93262 7.17157 3.5184 6.58579C4.10419 6 5.047 6 6.93262 6H16.5239C18.4095 6 19.3523 6 19.9381 6.58579C20.5239 7.17157 20.5239 8.11438 20.5239 10V10H2.93262V10Z" fill="#0088FF"/>
<path d="M6.8418 3L6.8418 6" stroke="#0088FF" stroke-linecap="round"/>
<path d="M16.6152 3L16.6152 6" stroke="#0088FF" stroke-linecap="round"/>
<rect x="6.8418" y="12" width="3.90917" height="2" rx="0.5" fill="#0088FF"/>
<rect x="6.8418" y="16" width="3.90917" height="2" rx="0.5" fill="#0088FF"/>
<rect x="12.7061" y="12" width="3.90917" height="2" rx="0.5" fill="#0088FF"/>
<rect x="12.7061" y="16" width="3.90917" height="2" rx="0.5" fill="#0088FF"/>
</svg>



