<svg width="19" height="22" viewBox="0 0 19 22" fill="none" xmlns="http://www.w3.org/2000/svg">
<path d="M0 8.58226C0 14.5971 5.56355 19.5711 8.02612 21.4781C8.37856 21.751 8.55689 21.8891 8.81982 21.9591C9.02456 22.0136 9.3259 22.0136 9.53064 21.9591C9.79407 21.889 9.97115 21.7522 10.3249 21.4783C12.7875 19.5713 18.3507 14.5976 18.3507 8.58282C18.3507 6.30658 17.3841 4.12331 15.6634 2.51377C13.9427 0.90423 11.609 0 9.17553 0C6.74206 0 4.40814 0.904366 2.68742 2.51391C0.966693 4.12344 0 6.30603 0 8.58226Z" fill="#0088FF"/>
<path d="M6.55387 7.4382C6.55387 8.80754 7.72758 9.91761 9.17542 9.91761C10.6233 9.91761 11.797 8.80754 11.797 7.4382C11.797 6.06887 10.6233 4.9588 9.17542 4.9588C7.72758 4.9588 6.55387 6.06887 6.55387 7.4382Z" fill="white"/>
</svg>



