<svg width="30" height="30" viewBox="0 0 30 30" fill="none" xmlns="http://www.w3.org/2000/svg">
<circle cx="14.999" cy="15" r="10" stroke="#0088FF" stroke-width="2"/>
<path d="M14.999 5C15.1502 5 15.4237 5.08138 15.7979 5.5166C16.1692 5.94858 16.549 6.63201 16.8877 7.56348C17.5623 9.41856 17.999 12.0477 17.999 15C17.999 17.9523 17.5623 20.5814 16.8877 22.4365C16.549 23.368 16.1692 24.0514 15.7979 24.4834C15.4237 24.9186 15.1502 25 14.999 25C14.8478 25 14.5744 24.9186 14.2002 24.4834C13.8289 24.0514 13.4491 23.368 13.1104 22.4365C12.4358 20.5814 11.999 17.9523 11.999 15C11.999 12.0477 12.4358 9.41856 13.1104 7.56348C13.4491 6.63201 13.8289 5.94858 14.2002 5.5166C14.5744 5.08138 14.8478 5 14.999 5Z" stroke="#0088FF" stroke-width="2"/>
<path d="M4.99902 15H24.999" stroke="#0088FF" stroke-linecap="round"/>
</svg>
