<svg width="15" height="18" viewBox="0 0 15 18" fill="none" xmlns="http://www.w3.org/2000/svg">
<path d="M9.81291 17.73C8.73957 17.73 7.76974 17.5268 6.90341 17.1205C6.03707 16.7142 5.29341 16.1315 4.67241 15.3725C4.05141 14.6135 3.57224 13.705 3.23491 12.647C2.90524 11.5813 2.74041 10.3968 2.74041 9.0935C2.74041 7.35317 3.03174 5.8505 3.61441 4.5855C4.20474 3.3205 5.02507 2.34683 6.07541 1.6645C7.12574 0.982166 8.35624 0.640999 9.76691 0.640999C10.7252 0.640999 11.6146 0.824999 12.4349 1.193C13.2552 1.55333 13.9529 2.04783 14.5279 2.6765L12.5959 4.229C12.2432 3.87633 11.8637 3.5735 11.4574 3.3205C11.0511 3.05983 10.5681 2.9295 10.0084 2.9295C9.16507 2.9295 8.44441 3.148 7.84641 3.585C7.24841 4.022 6.78841 4.7005 6.46641 5.6205C6.15207 6.53283 5.99491 7.702 5.99491 9.128C5.99491 10.5387 6.16357 11.704 6.50091 12.624C6.83824 13.5363 7.31741 14.2148 7.93841 14.6595C8.56707 15.1042 9.31074 15.3265 10.1694 15.3265C10.7291 15.3265 11.2619 15.1923 11.7679 14.924C12.2816 14.648 12.6994 14.3375 13.0214 13.9925L14.5394 15.6715C13.9797 16.2618 13.2897 16.7525 12.4694 17.1435C11.6491 17.5345 10.7636 17.73 9.81291 17.73ZM0.911906 11.819V10.209H10.3764V11.8075L0.911906 11.819ZM0.911906 8.116V6.5175L10.3764 6.506V8.1045L0.911906 8.116Z" fill="#0088FF"/>
</svg>



