<svg width="185" height="53" viewBox="0 0 185 53" fill="none" xmlns="http://www.w3.org/2000/svg">
<g clip-path="url(#clip0_639_3016)">
<mask id="mask0_639_3016" style="mask-type:luminance" maskUnits="userSpaceOnUse" x="0" y="0" width="185" height="53">
<path d="M184.934 0H0V53H184.934V0Z" fill="white"/>
</mask>
<g mask="url(#mask0_639_3016)">
<path d="M57.2774 15.1472V31.5413H53.914V15.1472H57.2774ZM63.1971 30.5343L63.7352 31.5413H57.2102V30.5343H63.1971ZM62.3675 22.9695V23.9531H57.2102V22.9695H62.3675ZM63.4662 15.1472V16.1542H57.2102V15.1472H63.4662ZM64.834 26.7401L63.8025 31.5413H59.4077L60.2148 30.5343C60.9623 30.5343 61.6201 30.3859 62.1881 30.0892C62.7561 29.7769 63.2419 29.3398 63.6456 28.7777C64.0492 28.2 64.3705 27.5208 64.6098 26.7401H64.834ZM62.3675 23.9063V26.1546H62.1433V25.9673C62.1433 25.3896 61.9639 24.9134 61.6051 24.5386C61.2463 24.1639 60.7904 23.9688 60.2373 23.9531V23.9063H62.3675ZM62.3675 20.768V23.0163H60.2373V22.9695C60.7904 22.9538 61.2463 22.7587 61.6051 22.384C61.9639 21.9937 62.1433 21.5096 62.1433 20.9319V20.768H62.3675ZM63.4662 16.0839V18.8241H63.2419V18.543C63.2419 17.8249 63.0326 17.2472 62.6141 16.8099C62.2105 16.3728 61.6574 16.1464 60.9548 16.1307V16.0839H63.4662ZM63.4662 14.7256V15.4048L60.7306 15.1472C61.0595 15.1472 61.4033 15.1237 61.762 15.0768C62.1357 15.03 62.4795 14.9753 62.7935 14.913C63.1074 14.8505 63.3316 14.788 63.4662 14.7256ZM53.9813 29.8316V31.5413H52.1875V31.3071C52.1875 31.3071 52.2323 31.3071 52.3221 31.3071C52.4266 31.3071 52.479 31.3071 52.479 31.3071C52.8677 31.3071 53.1965 31.1665 53.4656 30.8855C53.7496 30.5888 53.8991 30.2376 53.914 29.8316H53.9813ZM53.9813 16.8568H53.914C53.8991 16.4508 53.7496 16.1073 53.4656 15.8263C53.1965 15.5296 52.8677 15.3814 52.479 15.3814C52.479 15.3814 52.4266 15.3814 52.3221 15.3814C52.2323 15.3814 52.1875 15.3814 52.1875 15.3814V15.1472H53.9813V16.8568ZM70.4616 17.4891V26.3186C70.4616 27.755 70.7755 28.8792 71.4033 29.6911C72.0461 30.503 72.9355 30.9089 74.0716 30.9089C75.2526 30.9089 76.1644 30.5264 76.8072 29.7614C77.4649 28.9963 77.8013 27.9346 77.8162 26.5762V17.4891H79.2961V26.4357C79.2961 28.1063 78.8029 29.4257 77.8162 30.3937C76.8446 31.3617 75.4619 31.8458 73.668 31.8458C71.5004 31.8458 69.8861 31.3696 68.8247 30.4171C67.7633 29.4491 67.2327 28.1297 67.2327 26.4591V17.4891H70.4616ZM67.2775 17.4891V18.707H67.2327C67.2177 18.4103 67.1131 18.1684 66.9188 17.981C66.7244 17.7936 66.4853 17.6999 66.2012 17.6999C66.2012 17.6999 66.1489 17.6999 66.0443 17.6999C65.9397 17.6999 65.8873 17.6999 65.8873 17.6999V17.4891H67.2775ZM71.7845 17.4891V17.6999C71.7845 17.6999 71.7322 17.6999 71.6275 17.6999C71.523 17.6999 71.4706 17.6999 71.4706 17.6999C71.1866 17.6999 70.9473 17.7936 70.753 17.981C70.5587 18.1684 70.4616 18.4103 70.4616 18.707H70.4168V17.4891H71.7845ZM77.8611 17.4891V18.707H77.8162C77.8013 18.4103 77.6967 18.1684 77.5024 17.981C77.308 17.7936 77.0763 17.6999 76.8072 17.6999C76.8072 17.6999 76.7549 17.6999 76.6503 17.6999C76.5457 17.6999 76.4933 17.6999 76.4933 17.6999V17.4891H77.8611ZM80.6191 17.4891V17.6999C80.6191 17.6999 80.5668 17.6999 80.4622 17.6999C80.3724 17.6999 80.3276 17.6999 80.3276 17.6999C80.0436 17.6999 79.7969 17.7936 79.5877 17.981C79.3933 18.1684 79.2961 18.4103 79.2961 18.707H79.2513V17.4891H80.6191ZM86.4956 17.4891H88.9173C89.5302 17.4891 90.1281 17.5594 90.7112 17.6999C91.2942 17.8249 91.8174 18.0357 92.2807 18.3322C92.7441 18.6134 93.1104 19.0037 93.3795 19.5033C93.6634 19.9873 93.8055 20.5962 93.8055 21.33C93.8055 21.8765 93.6934 22.4231 93.4691 22.9695C93.2598 23.5003 92.9235 23.9609 92.4601 24.3513C92.0117 24.7416 91.4211 24.9992 90.6888 25.1242C91.1222 25.2646 91.5333 25.5379 91.922 25.9438C92.3255 26.3498 92.6395 26.7323 92.8637 27.0915C92.9236 27.2164 93.0282 27.4193 93.1777 27.7003C93.3272 27.9658 93.514 28.278 93.7382 28.6372C93.9774 28.9807 94.224 29.3398 94.4782 29.7145C94.7771 30.1361 95.0388 30.4639 95.263 30.6981C95.4872 30.9168 95.7188 31.0729 95.9581 31.1665C96.1972 31.2603 96.4738 31.3071 96.7877 31.3071V31.5413H94.9042C94.097 31.5413 93.4093 31.4789 92.8413 31.3539C92.2882 31.229 91.8023 31.0027 91.3838 30.6747C90.9802 30.3312 90.6065 29.8707 90.2627 29.293C90.1281 29.09 89.9862 28.848 89.8367 28.5669C89.6871 28.2703 89.5376 27.9736 89.3881 27.6769C89.2387 27.3803 89.1042 27.0915 88.9845 26.8104C88.88 26.5293 88.8052 26.2952 88.7603 26.1078C88.566 25.6081 88.3418 25.2491 88.0876 25.0304C87.8485 24.7962 87.6243 24.6792 87.415 24.6792V24.4684C87.415 24.4684 87.4673 24.4684 87.572 24.4684C87.6765 24.4684 87.8111 24.4684 87.9756 24.4684C88.2895 24.4684 88.5959 24.4138 88.8949 24.3045C89.2088 24.1796 89.4928 23.9531 89.7469 23.6253C90.0011 23.2818 90.188 22.7821 90.3075 22.1264C90.3375 22.0326 90.3599 21.8999 90.3748 21.7282C90.4047 21.5565 90.4122 21.3613 90.3972 21.1427C90.3673 20.565 90.2627 20.1044 90.0833 19.7609C89.9188 19.4018 89.7096 19.1364 89.4555 18.9646C89.2013 18.7772 88.9397 18.6523 88.6707 18.5899C88.4165 18.5119 88.1923 18.4728 87.998 18.4728C87.7139 18.4572 87.4523 18.4572 87.2132 18.4728C86.989 18.4728 86.8171 18.465 86.6974 18.4494C86.6825 18.4494 86.6601 18.3713 86.6302 18.2152C86.6002 18.0434 86.5703 17.8795 86.5405 17.7234C86.5106 17.5673 86.4956 17.4891 86.4956 17.4891ZM86.7199 17.4891V31.5413H83.4686V17.4891H86.7199ZM83.5358 30.0658L83.6256 31.5413H82.0111V31.3071C82.026 31.3071 82.0634 31.3071 82.1231 31.3071C82.1979 31.3071 82.2502 31.3071 82.2801 31.3071C82.609 31.3071 82.8856 31.19 83.1098 30.9557C83.349 30.706 83.4761 30.4093 83.491 30.0658H83.5358ZM83.5358 18.9412H83.491C83.4761 18.5821 83.349 18.2933 83.1098 18.0746C82.8856 17.8404 82.6165 17.7234 82.3025 17.7234C82.2577 17.7234 82.1979 17.7234 82.1231 17.7234C82.0634 17.7234 82.026 17.7234 82.0111 17.7234V17.4891H83.6256L83.5358 18.9412ZM86.675 30.0658H86.7199C86.7199 30.4562 86.8469 30.7606 87.101 30.9793C87.3702 31.1978 87.6541 31.3071 87.9531 31.3071C87.9531 31.3071 87.983 31.3071 88.0428 31.3071C88.1026 31.3071 88.1475 31.3071 88.1774 31.3071V31.5413H86.5629L86.675 30.0658ZM104.178 17.1847C105.374 17.1847 106.458 17.3565 107.429 17.6999C108.402 18.0278 109.238 18.5119 109.941 19.152C110.644 19.7922 111.182 20.565 111.555 21.4706C111.944 22.3761 112.139 23.3988 112.139 24.5386C112.139 25.6628 111.944 26.6776 111.555 27.5833C111.182 28.4732 110.644 29.2383 109.941 29.8785C109.238 30.5186 108.402 31.0104 107.429 31.3539C106.458 31.6818 105.374 31.8458 104.178 31.8458C102.997 31.8458 101.921 31.6818 100.949 31.3539C99.9778 31.0104 99.1406 30.5186 98.438 29.8785C97.7355 29.2383 97.1974 28.4732 96.8237 27.5833C96.45 26.6776 96.2631 25.6628 96.2631 24.5386C96.2631 23.3988 96.45 22.3761 96.8237 21.4706C97.1974 20.565 97.7355 19.7922 98.438 19.152C99.1406 18.5119 99.9778 18.0278 100.949 17.6999C101.921 17.3565 102.997 17.1847 104.178 17.1847ZM104.178 30.9323C105.09 30.9323 105.883 30.6747 106.555 30.1595C107.243 29.6286 107.766 28.887 108.125 27.9346C108.499 26.9822 108.685 25.8502 108.685 24.5386C108.685 23.2114 108.499 22.0717 108.125 21.1193C107.766 20.1512 107.243 19.4096 106.555 18.8944C105.883 18.3635 105.09 18.098 104.178 18.098C103.281 18.098 102.497 18.3635 101.824 18.8944C101.151 19.4096 100.628 20.1512 100.254 21.1193C99.8806 22.0717 99.6937 23.2114 99.6937 24.5386C99.6937 25.8502 99.8806 26.9822 100.254 27.9346C100.628 28.887 101.151 29.6286 101.824 30.1595C102.497 30.6747 103.281 30.9323 104.178 30.9323ZM122.859 31.8692L122.209 30.9323C123.076 30.9948 123.861 31.0807 124.563 31.19C125.266 31.2837 125.931 31.4008 126.559 31.5413C127.187 31.6974 127.822 31.8769 128.465 32.08C129.108 32.2985 129.796 32.5484 130.528 32.8294C131.26 33.1261 132.09 33.4617 133.017 33.8365C134.018 34.2424 135.005 34.5391 135.977 34.7265C136.964 34.9138 137.906 34.9841 138.802 34.9372C139.699 34.8904 140.536 34.7265 141.314 34.4455C142.091 34.1643 142.786 33.7584 143.398 33.2276L143.534 33.3212C143.488 34.055 143.264 34.742 142.86 35.3822C142.458 36.0223 141.896 36.5689 141.179 37.0216C140.462 37.4744 139.61 37.7789 138.622 37.9351C137.651 38.1068 136.575 38.0833 135.394 37.8647C134.213 37.6618 132.957 37.209 131.627 36.5064C130.79 36.0692 129.997 35.593 129.25 35.0777C128.502 34.5781 127.77 34.0941 127.053 33.6257C126.35 33.1573 125.655 32.7592 124.967 32.4312C124.28 32.119 123.577 31.9316 122.859 31.8692ZM122.995 14.8192C124.787 14.8192 126.342 15.1706 127.658 15.8731C128.989 16.5602 130.013 17.536 130.73 18.8007C131.447 20.0653 131.806 21.5799 131.806 23.3442C131.806 25.0929 131.447 26.6074 130.73 27.8877C130.013 29.1524 128.989 30.1361 127.658 30.8387C126.328 31.5257 124.773 31.8692 122.995 31.8692C121.201 31.8692 119.638 31.5257 118.308 30.8387C116.992 30.1361 115.976 29.1524 115.258 27.8877C114.541 26.6231 114.182 25.1085 114.182 23.3442C114.182 21.5955 114.541 20.0887 115.258 18.8241C115.976 17.5438 116.992 16.5602 118.308 15.8731C119.638 15.1706 121.201 14.8192 122.995 14.8192ZM122.995 30.8855C124.056 30.8855 124.967 30.5811 125.729 29.9721C126.507 29.3476 127.097 28.4732 127.501 27.3491C127.92 26.2249 128.129 24.89 128.129 23.3442C128.129 21.7984 127.92 20.4635 127.501 19.3393C127.097 18.2152 126.507 17.3486 125.729 16.7397C124.967 16.1152 124.056 15.8029 122.995 15.8029C121.933 15.8029 121.013 16.1152 120.236 16.7397C119.473 17.3486 118.883 18.2152 118.465 19.3393C118.061 20.4635 117.859 21.7984 117.859 23.3442C117.859 24.89 118.068 26.2249 118.487 27.3491C118.905 28.4732 119.496 29.3476 120.259 29.9721C121.036 30.5811 121.948 30.8855 122.995 30.8855ZM138.014 17.4891V26.3186C138.014 27.755 138.328 28.8792 138.956 29.6911C139.599 30.503 140.489 30.9089 141.625 30.9089C142.805 30.9089 143.718 30.5264 144.36 29.7614C145.018 28.9963 145.354 27.9346 145.369 26.5762V17.4891H146.849V26.4357C146.849 28.1063 146.356 29.4257 145.369 30.3937C144.397 31.3617 143.015 31.8458 141.221 31.8458C139.054 31.8458 137.439 31.3696 136.378 30.4171C135.317 29.4491 134.786 28.1297 134.786 26.4591V17.4891H138.014ZM134.83 17.4891V18.707H134.786C134.771 18.4103 134.666 18.1684 134.472 17.981C134.277 17.7936 134.038 17.6999 133.754 17.6999C133.754 17.6999 133.702 17.6999 133.598 17.6999C133.493 17.6999 133.44 17.6999 133.44 17.6999V17.4891H134.83ZM139.338 17.4891V17.6999C139.338 17.6999 139.285 17.6999 139.18 17.6999C139.076 17.6999 139.024 17.6999 139.024 17.6999C138.74 17.6999 138.501 17.7936 138.306 17.981C138.112 18.1684 138.014 18.4103 138.014 18.707H137.97V17.4891H139.338ZM145.414 17.4891V18.707H145.369C145.354 18.4103 145.249 18.1684 145.055 17.981C144.862 17.7936 144.629 17.6999 144.36 17.6999C144.36 17.6999 144.308 17.6999 144.203 17.6999C144.098 17.6999 144.046 17.6999 144.046 17.6999V17.4891H145.414ZM148.172 17.4891V17.6999C148.172 17.6999 148.12 17.6999 148.015 17.6999C147.925 17.6999 147.881 17.6999 147.881 17.6999C147.596 17.6999 147.35 17.7936 147.141 17.981C146.946 18.1684 146.849 18.4103 146.849 18.707H146.805V17.4891H148.172ZM154.139 17.4891V31.5413H150.909V17.4891H154.139ZM159.386 30.6045L159.901 31.5413H154.094V30.6045H159.386ZM158.623 24.1171V25.0539H154.094V24.1171H158.623ZM159.632 17.4891V18.426H154.094V17.4891H159.632ZM160.82 27.2319L159.968 31.5413H156.089L156.784 30.6045C157.427 30.6045 157.995 30.4718 158.488 30.2063C158.997 29.9253 159.43 29.535 159.789 29.0354C160.148 28.5201 160.425 27.9189 160.618 27.2319H160.82ZM158.623 25.007V27.0681H158.399V26.8807C158.399 26.3654 158.242 25.9361 157.928 25.5926C157.629 25.2491 157.217 25.0695 156.695 25.0539V25.007H158.623ZM158.623 22.103V24.1639H156.695V24.1171C157.217 24.1015 157.629 23.9219 157.928 23.5785C158.242 23.2193 158.399 22.7821 158.399 22.2668V22.103H158.623ZM159.632 18.3792V20.8617H159.408V20.6509C159.408 19.9639 159.228 19.4253 158.87 19.0349C158.526 18.6445 158.025 18.4415 157.368 18.426V18.3792H159.632ZM159.632 17.1379V17.6999L157.278 17.4891C157.711 17.4891 158.167 17.4501 158.646 17.3721C159.123 17.2784 159.452 17.2002 159.632 17.1379ZM150.955 30.0658L151.067 31.5413H149.407V31.3071C149.407 31.3071 149.452 31.3071 149.541 31.3071C149.631 31.3071 149.684 31.3071 149.699 31.3071C150.028 31.3071 150.304 31.19 150.529 30.9557C150.768 30.706 150.895 30.4093 150.909 30.0658H150.955ZM150.955 18.9646H150.909C150.895 18.6055 150.768 18.3088 150.529 18.0746C150.304 17.8404 150.028 17.7234 149.699 17.7234C149.684 17.7234 149.631 17.7234 149.541 17.7234C149.452 17.7234 149.407 17.7234 149.407 17.7234V17.4891H151.067L150.955 18.9646ZM166.639 17.1847C166.937 17.1847 167.296 17.2002 167.715 17.2315C168.148 17.2627 168.574 17.3018 168.993 17.3486C169.412 17.3799 169.777 17.4267 170.091 17.4891C170.42 17.536 170.644 17.5828 170.764 17.6297L170.473 20.4869H170.271C170.271 19.7688 170.031 19.1988 169.553 18.7772C169.074 18.3556 168.387 18.1449 167.491 18.1449C166.773 18.1449 166.189 18.3088 165.741 18.6368C165.308 18.9646 165.076 19.4018 165.047 19.9483C165.016 20.2293 165.061 20.4869 165.181 20.7211C165.315 20.9397 165.495 21.1349 165.719 21.3066C165.958 21.4784 166.22 21.6501 166.503 21.8218L170.024 24.0937C170.622 24.4059 171.092 24.8587 171.437 25.452C171.781 26.0454 171.93 26.7635 171.885 27.6067C171.84 28.4811 171.593 29.2383 171.145 29.8785C170.712 30.5186 170.106 31.0104 169.329 31.3539C168.567 31.6818 167.662 31.8458 166.615 31.8458C165.973 31.8458 165.375 31.7911 164.821 31.6818C164.269 31.5725 163.791 31.4242 163.387 31.2369C162.998 31.0495 162.7 30.8387 162.49 30.6045C162.37 30.2922 162.318 29.9175 162.333 29.4803C162.348 29.0275 162.415 28.5825 162.535 28.1454C162.654 27.6926 162.803 27.3178 162.983 27.0211H163.163C163.117 27.7238 163.238 28.3718 163.521 28.965C163.82 29.5584 164.254 30.0346 164.821 30.3937C165.39 30.7372 166.07 30.9089 166.863 30.9089C167.73 30.9089 168.38 30.6981 168.813 30.2766C169.247 29.855 169.463 29.3632 169.463 28.8012C169.463 28.3796 169.329 28.0048 169.06 27.6769C168.806 27.3334 168.38 26.9977 167.781 26.6699L164.597 24.5621C163.85 24.1562 163.304 23.6174 162.961 22.9461C162.632 22.2747 162.513 21.5408 162.602 20.7445C162.676 19.9951 162.886 19.3549 163.229 18.8241C163.589 18.2933 164.059 17.8873 164.643 17.6062C165.225 17.3252 165.891 17.1847 166.639 17.1847ZM170.764 17.3955L170.741 17.817H168.343V17.3955H170.764ZM180.92 17.5594V31.5413H177.669V17.5594H180.92ZM185.808 17.4657V18.4026H172.803V17.4657H185.808ZM185.808 18.3322V20.8148H185.562V20.6041C185.576 19.9326 185.397 19.4018 185.023 19.0114C184.665 18.6211 184.164 18.4181 183.521 18.4026V18.3322H185.808ZM185.808 17.1145V17.6999L183.431 17.4657C183.716 17.4657 184.021 17.4501 184.351 17.4189C184.68 17.3721 184.978 17.3252 185.248 17.2784C185.517 17.2159 185.703 17.1613 185.808 17.1145ZM177.713 30.0658V31.5413H176.211V31.3071C176.211 31.3071 176.248 31.3071 176.323 31.3071C176.413 31.3071 176.457 31.3071 176.457 31.3071C176.786 31.3071 177.063 31.19 177.287 30.9557C177.526 30.706 177.654 30.4093 177.669 30.0658H177.713ZM180.853 30.0658H180.92C180.92 30.4093 181.039 30.706 181.279 30.9557C181.518 31.19 181.81 31.3071 182.153 31.3071C182.153 31.3071 182.19 31.3071 182.265 31.3071C182.355 31.3071 182.4 31.3071 182.4 31.3071V31.5413H180.853V30.0658ZM175.09 18.3322V18.4026C174.432 18.4181 173.924 18.6211 173.565 19.0114C173.221 19.4018 173.049 19.9326 173.049 20.6041V20.8148H172.803V18.3322H175.09ZM172.803 17.1145C172.937 17.1457 173.132 17.1925 173.385 17.2549C173.655 17.3174 173.947 17.3721 174.261 17.4189C174.589 17.4501 174.889 17.4657 175.157 17.4657L172.803 17.6999V17.1145Z" fill="#969FAC"/>
<path d="M102.74 38.6519V46.3572H101.159V38.6519H102.74ZM101.191 45.5536V46.3572H100.348V46.2471C100.348 46.2471 100.369 46.2471 100.411 46.2471C100.46 46.2471 100.485 46.2471 100.485 46.2471C100.667 46.2471 100.822 46.1811 100.948 46.049C101.082 45.9095 101.152 45.7444 101.159 45.5536H101.191ZM101.191 39.4555H101.159C101.152 39.2647 101.082 39.1032 100.948 38.9711C100.822 38.8317 100.667 38.7619 100.485 38.7619C100.485 38.7619 100.46 38.7619 100.411 38.7619C100.369 38.7619 100.348 38.7619 100.348 38.7619V38.6519H101.191V39.4555ZM102.708 45.5536H102.74C102.747 45.7444 102.814 45.9095 102.94 46.049C103.074 46.1811 103.232 46.2471 103.414 46.2471C103.414 46.2471 103.436 46.2471 103.478 46.2471C103.52 46.2471 103.544 46.2471 103.551 46.2471V46.3572H102.708V45.5536ZM102.708 39.4555V38.6519H103.551V38.7619C103.544 38.7619 103.52 38.7619 103.478 38.7619C103.436 38.7619 103.414 38.7619 103.414 38.7619C103.232 38.7619 103.074 38.8317 102.94 38.9711C102.814 39.1032 102.747 39.2647 102.74 39.4555H102.708ZM104.847 39.5986L111.033 45.2784L111.139 46.5003L104.963 40.8203L104.847 39.5986ZM104.889 45.6857V46.3572H104.109V46.2471C104.109 46.2471 104.137 46.2471 104.194 46.2471C104.25 46.2471 104.278 46.2471 104.278 46.2471C104.44 46.2471 104.577 46.1957 104.689 46.0929C104.801 45.9829 104.858 45.8472 104.858 45.6857H104.889ZM106.301 45.6857C106.309 45.8472 106.368 45.9829 106.481 46.0929C106.593 46.1957 106.726 46.2471 106.881 46.2471C106.881 46.2471 106.909 46.2471 106.965 46.2471C107.029 46.2471 107.06 46.2471 107.06 46.2471V46.3572H106.28V45.6857H106.301ZM104.847 39.5986L106.301 41.2496V46.3572H104.858V40.8535C104.858 40.4791 104.84 40.1783 104.805 39.9508C104.77 39.7159 104.752 39.5986 104.752 39.5986H104.847ZM111.128 39.7526V45.2124C111.128 45.4692 111.136 45.6967 111.149 45.8949C111.17 46.0857 111.187 46.236 111.202 46.3461C111.223 46.4489 111.234 46.5003 111.234 46.5003H111.139L109.684 44.7501V39.7526H111.128ZM111.096 40.4242V39.7526H111.887V39.8627C111.887 39.8627 111.856 39.8627 111.792 39.8627C111.736 39.8627 111.707 39.8627 111.707 39.8627C111.553 39.8627 111.416 39.9178 111.296 40.0279C111.184 40.1306 111.128 40.2626 111.128 40.4242H111.096ZM109.684 40.4242C109.677 40.2626 109.618 40.1306 109.505 40.0279C109.4 39.9178 109.267 39.8627 109.105 39.8627C109.105 39.8627 109.073 39.8627 109.01 39.8627C108.954 39.8627 108.925 39.8627 108.925 39.8627V39.7526H109.705V40.4242H109.684ZM116.022 39.7857V46.3572H114.493V39.7857H116.022ZM118.319 39.7417V40.1819H112.206V39.7417H118.319ZM118.319 40.1489V41.3158H118.203V41.2166C118.21 40.9012 118.125 40.6516 117.95 40.4681C117.781 40.2847 117.546 40.1893 117.244 40.1819V40.1489H118.319ZM118.319 39.5765V39.8518L117.201 39.7417C117.335 39.7417 117.48 39.7343 117.634 39.7196C117.788 39.6976 117.929 39.6756 118.056 39.6536C118.181 39.6242 118.269 39.5986 118.319 39.5765ZM114.514 45.6636V46.3572H113.808V46.2471C113.808 46.2471 113.826 46.2471 113.861 46.2471C113.903 46.2471 113.924 46.2471 113.924 46.2471C114.079 46.2471 114.209 46.1921 114.314 46.082C114.426 45.9645 114.486 45.8251 114.493 45.6636H114.514ZM115.99 45.6636H116.022C116.022 45.8251 116.078 45.9645 116.19 46.082C116.302 46.1921 116.439 46.2471 116.601 46.2471C116.601 46.2471 116.618 46.2471 116.654 46.2471C116.696 46.2471 116.716 46.2471 116.716 46.2471V46.3572H115.99V45.6636ZM113.282 40.1489V40.1819C112.972 40.1893 112.733 40.2847 112.565 40.4681C112.403 40.6516 112.322 40.9012 112.322 41.2166V41.3158H112.206V40.1489H113.282ZM112.206 39.5765C112.27 39.5912 112.361 39.6133 112.48 39.6426C112.607 39.6719 112.744 39.6976 112.892 39.7196C113.046 39.7343 113.186 39.7417 113.312 39.7417L112.206 39.8518V39.5765ZM121.084 39.7526V46.3572H119.566V39.7526H121.084ZM123.551 45.9168L123.793 46.3572H121.063V45.9168H123.551ZM123.192 42.8678V43.3081H121.063V42.8678H123.192ZM123.666 39.7526V40.1929H121.063V39.7526H123.666ZM124.225 44.3318L123.824 46.3572H122.001L122.328 45.9168C122.63 45.9168 122.897 45.8544 123.129 45.7297C123.368 45.5976 123.572 45.4142 123.74 45.1794C123.909 44.9372 124.039 44.6547 124.13 44.3318H124.225ZM123.192 43.286V44.2547H123.087V44.1666C123.087 43.9245 123.013 43.7227 122.866 43.5612C122.725 43.3998 122.532 43.3154 122.285 43.3081V43.286H123.192ZM123.192 41.9212V42.8898H122.285V42.8678C122.532 42.8604 122.725 42.776 122.866 42.6146C123.013 42.4458 123.087 42.2404 123.087 41.9981V41.9212H123.192ZM123.666 40.171V41.3377H123.561V41.2387C123.561 40.9157 123.477 40.6627 123.308 40.4791C123.146 40.2957 122.911 40.2003 122.601 40.1929V40.171H123.666ZM123.666 39.5875V39.8518L122.56 39.7526C122.763 39.7526 122.978 39.7343 123.203 39.6976C123.427 39.6536 123.582 39.6169 123.666 39.5875ZM119.587 45.6636L119.64 46.3572H118.86V46.2471C118.86 46.2471 118.881 46.2471 118.924 46.2471C118.966 46.2471 118.99 46.2471 118.998 46.2471C119.152 46.2471 119.282 46.1921 119.388 46.082C119.5 45.9645 119.56 45.8251 119.566 45.6636H119.587ZM119.587 40.4461H119.566C119.56 40.2773 119.5 40.138 119.388 40.0279C119.282 39.9178 119.152 39.8627 118.998 39.8627C118.99 39.8627 118.966 39.8627 118.924 39.8627C118.881 39.8627 118.86 39.8627 118.86 39.8627V39.7526H119.64L119.587 40.4461ZM126.949 39.7526H128.088C128.375 39.7526 128.657 39.7857 128.93 39.8518C129.204 39.9104 129.451 40.0095 129.668 40.1489C129.886 40.2811 130.058 40.4645 130.185 40.6993C130.319 40.9268 130.385 41.213 130.385 41.5579C130.385 41.8147 130.332 42.0716 130.227 42.3284C130.128 42.5779 129.971 42.7944 129.753 42.9779C129.543 43.1613 129.265 43.2824 128.92 43.3411C129.124 43.4072 129.317 43.5356 129.5 43.7264C129.689 43.9172 129.837 44.0969 129.942 44.2658C129.971 44.3244 130.019 44.4198 130.09 44.552C130.16 44.6766 130.248 44.8235 130.353 44.9922C130.465 45.1536 130.582 45.3225 130.701 45.4986C130.842 45.6967 130.964 45.8508 131.07 45.9609C131.176 46.0636 131.285 46.137 131.397 46.1811C131.509 46.2251 131.639 46.2471 131.787 46.2471V46.3572H130.902C130.523 46.3572 130.199 46.3278 129.932 46.2691C129.672 46.2104 129.443 46.104 129.247 45.9498C129.057 45.7884 128.882 45.572 128.72 45.3005C128.657 45.2051 128.59 45.0912 128.52 44.9592C128.449 44.8197 128.38 44.6804 128.309 44.5409C128.239 44.4015 128.176 44.2658 128.12 44.1336C128.07 44.0015 128.035 43.8915 128.014 43.8035C127.923 43.5686 127.817 43.3998 127.698 43.2971C127.586 43.187 127.48 43.132 127.382 43.132V43.0329C127.382 43.0329 127.406 43.0329 127.456 43.0329C127.504 43.0329 127.568 43.0329 127.645 43.0329C127.793 43.0329 127.937 43.0072 128.077 42.9558C128.224 42.8972 128.359 42.7907 128.478 42.6366C128.597 42.4751 128.685 42.2404 128.741 41.9321C128.755 41.8881 128.766 41.8258 128.773 41.745C128.787 41.6642 128.79 41.5726 128.784 41.4698C128.769 41.1983 128.72 40.9819 128.636 40.8203C128.558 40.6516 128.46 40.5268 128.341 40.4461C128.221 40.358 128.098 40.2994 127.972 40.27C127.852 40.2334 127.746 40.2149 127.656 40.2149C127.522 40.2076 127.399 40.2076 127.287 40.2149C127.181 40.2149 127.101 40.2113 127.045 40.204C127.037 40.204 127.027 40.1672 127.013 40.0939C126.999 40.0132 126.984 39.9361 126.971 39.8627C126.957 39.7894 126.949 39.7526 126.949 39.7526ZM127.055 39.7526V46.3572H125.526V39.7526H127.055ZM125.558 45.6636L125.6 46.3572H124.841V46.2471C124.849 46.2471 124.867 46.2471 124.894 46.2471C124.929 46.2471 124.955 46.2471 124.968 46.2471C125.123 46.2471 125.253 46.1921 125.358 46.082C125.47 45.9645 125.531 45.8251 125.537 45.6636H125.558ZM125.558 40.4351H125.537C125.531 40.2664 125.47 40.1306 125.358 40.0279C125.253 39.9178 125.126 39.8627 124.979 39.8627C124.958 39.8627 124.929 39.8627 124.894 39.8627C124.867 39.8627 124.849 39.8627 124.841 39.8627V39.7526H125.6L125.558 40.4351ZM127.034 45.6636H127.055C127.055 45.8472 127.114 45.9903 127.234 46.0929C127.361 46.1957 127.494 46.2471 127.634 46.2471C127.634 46.2471 127.648 46.2471 127.677 46.2471C127.705 46.2471 127.726 46.2471 127.74 46.2471V46.3572H126.981L127.034 45.6636ZM132.305 39.5986L138.491 45.2784L138.597 46.5003L132.421 40.8203L132.305 39.5986ZM132.347 45.6857V46.3572H131.568V46.2471C131.568 46.2471 131.596 46.2471 131.652 46.2471C131.709 46.2471 131.736 46.2471 131.736 46.2471C131.898 46.2471 132.035 46.1957 132.147 46.0929C132.259 45.9829 132.315 45.8472 132.315 45.6857H132.347ZM133.759 45.6857C133.767 45.8472 133.826 45.9829 133.939 46.0929C134.051 46.1957 134.184 46.2471 134.339 46.2471C134.339 46.2471 134.367 46.2471 134.423 46.2471C134.487 46.2471 134.519 46.2471 134.519 46.2471V46.3572H133.738V45.6857H133.759ZM132.305 39.5986L133.759 41.2496V46.3572H132.315V40.8535C132.315 40.4791 132.299 40.1783 132.264 39.9508C132.228 39.7159 132.211 39.5986 132.211 39.5986H132.305ZM138.586 39.7526V45.2124C138.586 45.4692 138.594 45.6967 138.608 45.8949C138.629 46.0857 138.646 46.236 138.66 46.3461C138.682 46.4489 138.692 46.5003 138.692 46.5003H138.597L137.142 44.7501V39.7526H138.586ZM138.555 40.4242V39.7526H139.345V39.8627C139.345 39.8627 139.314 39.8627 139.25 39.8627C139.194 39.8627 139.166 39.8627 139.166 39.8627C139.011 39.8627 138.874 39.9178 138.754 40.0279C138.642 40.1306 138.586 40.2626 138.586 40.4242H138.555ZM137.142 40.4242C137.136 40.2626 137.076 40.1306 136.964 40.0279C136.858 39.9178 136.725 39.8627 136.563 39.8627C136.563 39.8627 136.531 39.8627 136.468 39.8627C136.412 39.8627 136.383 39.8627 136.383 39.8627V39.7526H137.164V40.4242H137.142ZM142.921 39.4555L146.04 46.3021H144.259L142.299 41.4698L142.921 39.4555ZM140.94 45.6306C140.862 45.8288 140.873 45.9829 140.971 46.0929C141.07 46.1957 141.179 46.2471 141.298 46.2471H141.383V46.3572H139.275V46.2471C139.275 46.2471 139.288 46.2471 139.317 46.2471C139.344 46.2471 139.359 46.2471 139.359 46.2471C139.5 46.2471 139.647 46.203 139.801 46.115C139.956 46.0196 140.082 45.8582 140.181 45.6306H140.94ZM142.921 39.4555L142.942 40.7764L140.655 46.3242H139.875L142.341 40.7873C142.355 40.7434 142.387 40.6663 142.437 40.5562C142.485 40.4388 142.538 40.3103 142.594 40.171C142.65 40.0242 142.703 39.8884 142.753 39.7636C142.801 39.6316 142.83 39.5288 142.836 39.4555H142.921ZM143.838 44.1996V44.6289H141.15V44.1996H143.838ZM143.996 45.6306H145.735C145.841 45.8582 145.971 46.0196 146.125 46.115C146.279 46.203 146.427 46.2471 146.568 46.2471C146.568 46.2471 146.582 46.2471 146.609 46.2471C146.638 46.2471 146.651 46.2471 146.651 46.2471V46.3572H143.553V46.2471H143.637C143.757 46.2471 143.866 46.1957 143.964 46.0929C144.062 45.9829 144.073 45.8288 143.996 45.6306ZM149.644 39.7857V46.3572H148.117V39.7857H149.644ZM151.941 39.7417V40.1819H145.829V39.7417H151.941ZM151.941 40.1489V41.3158H151.826V41.2166C151.832 40.9012 151.749 40.6516 151.572 40.4681C151.404 40.2847 151.169 40.1893 150.867 40.1819V40.1489H151.941ZM151.941 39.5765V39.8518L150.825 39.7417C150.958 39.7417 151.102 39.7343 151.256 39.7196C151.412 39.6976 151.552 39.6756 151.678 39.6536C151.805 39.6242 151.893 39.5986 151.941 39.5765ZM148.138 45.6636V46.3572H147.432V46.2471C147.432 46.2471 147.448 46.2471 147.483 46.2471C147.526 46.2471 147.547 46.2471 147.547 46.2471C147.701 46.2471 147.831 46.1921 147.937 46.082C148.049 45.9645 148.109 45.8251 148.117 45.6636H148.138ZM149.612 45.6636H149.644C149.644 45.8251 149.7 45.9645 149.813 46.082C149.925 46.1921 150.063 46.2471 150.223 46.2471C150.223 46.2471 150.241 46.2471 150.276 46.2471C150.319 46.2471 150.34 46.2471 150.34 46.2471V46.3572H149.612V45.6636ZM146.904 40.1489V40.1819C146.595 40.1893 146.356 40.2847 146.187 40.4681C146.026 40.6516 145.945 40.9012 145.945 41.2166V41.3158H145.829V40.1489H146.904ZM145.829 39.5765C145.892 39.5912 145.984 39.6133 146.104 39.6426C146.23 39.6719 146.367 39.6976 146.514 39.7196C146.669 39.7343 146.809 39.7417 146.936 39.7417L145.829 39.8518V39.5765ZM154.739 39.7526V46.3572H153.221V39.7526H154.739ZM153.253 45.6636V46.3572H152.484V46.2471C152.484 46.2471 152.505 46.2471 152.547 46.2471C152.589 46.2471 152.614 46.2471 152.621 46.2471C152.782 46.2471 152.922 46.1921 153.042 46.082C153.161 45.9645 153.221 45.8251 153.221 45.6636H153.253ZM154.717 45.6636H154.739C154.746 45.8251 154.806 45.9645 154.918 46.082C155.038 46.1921 155.181 46.2471 155.351 46.2471C155.351 46.2471 155.367 46.2471 155.402 46.2471C155.445 46.2471 155.47 46.2471 155.476 46.2471V46.3572H154.717V45.6636ZM154.717 40.4461V39.7526H155.476L155.466 39.8627C155.466 39.8627 155.449 39.8627 155.413 39.8627C155.378 39.8627 155.357 39.8627 155.351 39.8627C155.181 39.8627 155.038 39.9178 154.918 40.0279C154.806 40.138 154.746 40.2773 154.739 40.4461H154.717ZM153.253 40.4461H153.221C153.221 40.2773 153.161 40.138 153.042 40.0279C152.922 39.9178 152.779 39.8627 152.61 39.8627C152.61 39.8627 152.589 39.8627 152.547 39.8627C152.505 39.8627 152.484 39.8627 152.484 39.8627V39.7526H153.253V40.4461ZM159.827 39.6095C160.389 39.6095 160.898 39.6903 161.355 39.8518C161.812 40.0058 162.205 40.2334 162.535 40.5342C162.866 40.835 163.118 41.1983 163.294 41.6239C163.477 42.0496 163.568 42.5302 163.568 43.0659C163.568 43.5943 163.477 44.0712 163.294 44.4969C163.118 44.9151 162.866 45.2748 162.535 45.5756C162.205 45.8765 161.812 46.1076 161.355 46.2691C160.898 46.4232 160.389 46.5003 159.827 46.5003C159.272 46.5003 158.766 46.4232 158.31 46.2691C157.853 46.1076 157.459 45.8765 157.129 45.5756C156.799 45.2748 156.545 44.9151 156.37 44.4969C156.194 44.0712 156.106 43.5943 156.106 43.0659C156.106 42.5302 156.194 42.0496 156.37 41.6239C156.545 41.1983 156.799 40.835 157.129 40.5342C157.459 40.2334 157.853 40.0058 158.31 39.8518C158.766 39.6903 159.272 39.6095 159.827 39.6095ZM159.827 46.071C160.256 46.071 160.628 45.9498 160.944 45.7077C161.267 45.4582 161.513 45.1097 161.682 44.6621C161.857 44.2143 161.945 43.6823 161.945 43.0659C161.945 42.4421 161.857 41.9065 161.682 41.4589C161.513 41.0038 161.267 40.6553 160.944 40.4131C160.628 40.1636 160.256 40.0388 159.827 40.0388C159.405 40.0388 159.036 40.1636 158.72 40.4131C158.404 40.6553 158.158 41.0038 157.983 41.4589C157.806 41.9065 157.719 42.4421 157.719 43.0659C157.719 43.6823 157.806 44.2143 157.983 44.6621C158.158 45.1097 158.404 45.4582 158.72 45.7077C159.036 45.9498 159.405 46.071 159.827 46.071ZM164.786 39.5986L170.972 45.2784L171.078 46.5003L164.902 40.8203L164.786 39.5986ZM164.828 45.6857V46.3572H164.049V46.2471C164.049 46.2471 164.076 46.2471 164.132 46.2471C164.188 46.2471 164.217 46.2471 164.217 46.2471C164.379 46.2471 164.516 46.1957 164.628 46.0929C164.74 45.9829 164.796 45.8472 164.796 45.6857H164.828ZM166.24 45.6857C166.248 45.8472 166.307 45.9829 166.42 46.0929C166.532 46.1957 166.665 46.2471 166.82 46.2471C166.82 46.2471 166.848 46.2471 166.904 46.2471C166.968 46.2471 166.999 46.2471 166.999 46.2471V46.3572H166.219V45.6857H166.24ZM164.786 39.5986L166.24 41.2496V46.3572H164.796V40.8535C164.796 40.4791 164.779 40.1783 164.744 39.9508C164.708 39.7159 164.691 39.5986 164.691 39.5986H164.786ZM171.067 39.7526V45.2124C171.067 45.4692 171.075 45.6967 171.088 45.8949C171.109 46.0857 171.126 46.236 171.141 46.3461C171.162 46.4489 171.173 46.5003 171.173 46.5003H171.078L169.623 44.7501V39.7526H171.067ZM171.035 40.4242V39.7526H171.826V39.8627C171.826 39.8627 171.794 39.8627 171.731 39.8627C171.675 39.8627 171.646 39.8627 171.646 39.8627C171.492 39.8627 171.355 39.9178 171.235 40.0279C171.123 40.1306 171.067 40.2626 171.067 40.4242H171.035ZM169.623 40.4242C169.617 40.2626 169.556 40.1306 169.444 40.0279C169.339 39.9178 169.206 39.8627 169.044 39.8627C169.044 39.8627 169.012 39.8627 168.949 39.8627C168.893 39.8627 168.864 39.8627 168.864 39.8627V39.7526H169.644V40.4242H169.623ZM175.401 39.4555L178.521 46.3021H176.74L174.78 41.4698L175.401 39.4555ZM173.42 45.6306C173.343 45.8288 173.354 45.9829 173.452 46.0929C173.55 46.1957 173.659 46.2471 173.779 46.2471H173.863V46.3572H171.755V46.2471C171.755 46.2471 171.769 46.2471 171.798 46.2471C171.825 46.2471 171.84 46.2471 171.84 46.2471C171.98 46.2471 172.127 46.203 172.282 46.115C172.437 46.0196 172.563 45.8582 172.661 45.6306H173.42ZM175.401 39.4555L175.423 40.7764L173.136 46.3242H172.356L174.822 40.7873C174.836 40.7434 174.868 40.6663 174.917 40.5562C174.966 40.4388 175.019 40.3103 175.075 40.171C175.131 40.0242 175.184 39.8884 175.233 39.7636C175.282 39.6316 175.31 39.5288 175.317 39.4555H175.401ZM176.319 44.1996V44.6289H173.631V44.1996H176.319ZM176.477 45.6306H178.216C178.321 45.8582 178.451 46.0196 178.606 46.115C178.76 46.203 178.908 46.2471 179.049 46.2471C179.049 46.2471 179.062 46.2471 179.09 46.2471C179.118 46.2471 179.132 46.2471 179.132 46.2471V46.3572H176.034V46.2471H176.118C176.238 46.2471 176.346 46.1957 176.445 46.0929C176.543 45.9829 176.554 45.8288 176.477 45.6306ZM181.404 39.7526V46.3572H179.887V39.7526H181.404ZM183.86 45.9168L184.112 46.3572H181.383V45.9168H183.86ZM184.555 44.3318L184.144 46.3572H182.32L182.647 45.9168C182.949 45.9168 183.217 45.8544 183.448 45.7297C183.687 45.5976 183.891 45.4142 184.059 45.1794C184.229 44.9372 184.359 44.6547 184.45 44.3318H184.555ZM179.908 45.6636L179.96 46.3572H179.181V46.2471C179.181 46.2471 179.202 46.2471 179.243 46.2471C179.285 46.2471 179.311 46.2471 179.317 46.2471C179.471 46.2471 179.601 46.1921 179.707 46.082C179.819 45.9645 179.879 45.8251 179.887 45.6636H179.908ZM181.383 40.4461V39.7526H182.11V39.8627C182.103 39.8627 182.078 39.8627 182.036 39.8627C182.001 39.8627 181.983 39.8627 181.983 39.8627C181.829 39.8627 181.696 39.9178 181.584 40.0279C181.47 40.138 181.411 40.2773 181.404 40.4461H181.383ZM179.908 40.4461H179.887C179.879 40.2773 179.819 40.138 179.707 40.0279C179.595 39.9178 179.462 39.8627 179.306 39.8627C179.3 39.8627 179.275 39.8627 179.234 39.8627C179.198 39.8627 179.181 39.8627 179.181 39.8627V39.7526H179.908V40.4461Z" fill="#969FAC"/>
<path d="M33.3579 39.687L37.5218 46.5046L31.9206 50.1839L27.5078 42.3732" fill="#7D8DA2"/>
<path d="M23.6328 38.2062C30.9763 37.1851 36.647 30.6133 36.647 22.6599C36.647 14.7064 30.9763 8.13229 23.6328 7.11351V-0.00390625C34.6267 1.05937 43.2371 10.7179 43.2371 22.4772C43.2371 34.2364 34.6267 43.8856 23.6328 44.9488V38.2038V38.2062Z" fill="url(#paint0_linear_639_3016)"/>
<path d="M19.3957 38.1806C12.1531 37.0658 6.59007 30.5362 6.59007 22.6601C6.59007 14.7839 12.1531 8.25428 19.3957 7.13947V0.0126953C8.50274 1.18137 0 10.7883 0 22.4774C0 34.1664 8.50274 43.7664 19.3957 44.9327V38.1806Z" fill="url(#paint1_linear_639_3016)"/>
<path d="M6.78042 25.2368H19.3999V18.1943H7.21318C6.43062 20.3045 6.45305 22.7145 6.78266 25.2368H6.78042Z" fill="url(#paint2_linear_639_3016)"/>
</g>
</g>
<defs>
<linearGradient id="paint0_linear_639_3016" x1="23.6328" y1="22.4725" x2="43.2371" y2="22.4725" gradientUnits="userSpaceOnUse">
<stop stop-color="#506291"/>
<stop offset="1" stop-color="#323F6A"/>
</linearGradient>
<linearGradient id="paint1_linear_639_3016" x1="0" y1="22.4727" x2="19.3957" y2="22.4727" gradientUnits="userSpaceOnUse">
<stop stop-color="#506291"/>
<stop offset="1" stop-color="#323F6A"/>
</linearGradient>
<linearGradient id="paint2_linear_639_3016" x1="6.56292" y1="21.7144" x2="19.3977" y2="21.7144" gradientUnits="userSpaceOnUse">
<stop stop-color="#323F6A"/>
<stop offset="1" stop-color="#506291"/>
</linearGradient>
<clipPath id="clip0_639_3016">
<rect width="185" height="53" fill="white"/>
</clipPath>
</defs>
</svg>
