<svg width="30" height="34" viewBox="0 0 30 34" fill="none" xmlns="http://www.w3.org/2000/svg">
<path d="M23.141 26.9199L26.03 31.4487L22.1438 33.8928L19.082 28.7044" fill="#7D8DA2"/>
<path d="M16.3984 25.9354C21.4935 25.257 25.428 20.8916 25.428 15.6083C25.428 10.3249 21.4935 5.95791 16.3984 5.28116V0.553223C24.0263 1.25954 30.0004 7.67547 30.0004 15.4869C30.0004 23.2983 24.0263 29.7081 16.3984 30.4144V25.9338V25.9354Z" fill="#3E5EC0"/>
<path d="M13.4573 25.9161C8.43219 25.1756 4.57236 20.8382 4.57236 15.6062C4.57236 10.3742 8.43219 6.03671 13.4573 5.29617V0.562012C5.89942 1.33833 0 7.72004 0 15.4848C0 23.2496 5.89942 29.6266 13.4573 30.4014V25.9161Z" fill="#3E5EC0"/>
<path d="M4.70708 17.3188H13.4629V12.6406H5.00734C4.46438 14.0424 4.47994 15.6432 4.70864 17.3188H4.70708Z" fill="#3E5EC0"/>
</svg>
