<svg width="235" height="46" viewBox="0 0 235 46" fill="none" xmlns="http://www.w3.org/2000/svg">
<path d="M39.1477 22.5V10.8636H46.7159V12.6307H41.2557V15.7898H46.3239V17.5568H41.2557V20.733H46.7614V22.5H39.1477ZM54.3381 18.8295V13.7727H56.3949V22.5H54.4006V20.9489H54.3097C54.1127 21.4375 53.7888 21.8371 53.3381 22.1477C52.8911 22.4583 52.34 22.6136 51.6847 22.6136C51.1127 22.6136 50.607 22.4867 50.1676 22.233C49.732 21.9754 49.3911 21.6023 49.1449 21.1136C48.8987 20.6212 48.7756 20.0265 48.7756 19.3295V13.7727H50.8324V19.0114C50.8324 19.5644 50.9839 20.0038 51.2869 20.3295C51.59 20.6553 51.9877 20.8182 52.4801 20.8182C52.7831 20.8182 53.0767 20.7443 53.3608 20.5966C53.6449 20.4489 53.8778 20.2292 54.0597 19.9375C54.2453 19.642 54.3381 19.2727 54.3381 18.8295ZM58.5099 22.5V13.7727H60.5043V15.2273H60.5952C60.7543 14.7235 61.027 14.3352 61.4134 14.0625C61.8035 13.786 62.2486 13.6477 62.7486 13.6477C62.8622 13.6477 62.9891 13.6534 63.1293 13.6648C63.2732 13.6723 63.3925 13.6856 63.4872 13.7045V15.5966C63.4001 15.5663 63.2618 15.5398 63.0724 15.517C62.8868 15.4905 62.7069 15.4773 62.5327 15.4773C62.1577 15.4773 61.8205 15.5587 61.5213 15.7216C61.2259 15.8807 60.9929 16.1023 60.8224 16.3864C60.652 16.6705 60.5668 16.9981 60.5668 17.3693V22.5H58.5099ZM68.3011 22.6705C67.4489 22.6705 66.7102 22.483 66.0852 22.108C65.4602 21.733 64.9754 21.2083 64.6307 20.5341C64.2898 19.8598 64.1193 19.072 64.1193 18.1705C64.1193 17.2689 64.2898 16.4792 64.6307 15.8011C64.9754 15.1231 65.4602 14.5966 66.0852 14.2216C66.7102 13.8466 67.4489 13.6591 68.3011 13.6591C69.1534 13.6591 69.892 13.8466 70.517 14.2216C71.142 14.5966 71.625 15.1231 71.9659 15.8011C72.3106 16.4792 72.483 17.2689 72.483 18.1705C72.483 19.072 72.3106 19.8598 71.9659 20.5341C71.625 21.2083 71.142 21.733 70.517 22.108C69.892 22.483 69.1534 22.6705 68.3011 22.6705ZM68.3125 21.0227C68.7746 21.0227 69.161 20.8958 69.4716 20.642C69.7822 20.3845 70.0133 20.0398 70.1648 19.608C70.3201 19.1761 70.3977 18.6951 70.3977 18.1648C70.3977 17.6307 70.3201 17.1477 70.1648 16.7159C70.0133 16.2803 69.7822 15.9337 69.4716 15.6761C69.161 15.4186 68.7746 15.2898 68.3125 15.2898C67.839 15.2898 67.4451 15.4186 67.1307 15.6761C66.8201 15.9337 66.5871 16.2803 66.4318 16.7159C66.2803 17.1477 66.2045 17.6307 66.2045 18.1648C66.2045 18.6951 66.2803 19.1761 66.4318 19.608C66.5871 20.0398 66.8201 20.3845 67.1307 20.642C67.4451 20.8958 67.839 21.0227 68.3125 21.0227ZM78.6548 18.5909H80.5639L81.6946 20.0568L82.5014 21.0114L84.4389 23.5H82.3935L81.0753 21.8295L80.5128 21.0341L78.6548 18.5909ZM84.7173 16.6818C84.7173 17.9356 84.4825 19.0095 84.0128 19.9034C83.5469 20.7936 82.9105 21.4754 82.1037 21.9489C81.3007 22.4223 80.3897 22.6591 79.3707 22.6591C78.3518 22.6591 77.4389 22.4223 76.6321 21.9489C75.8291 21.4716 75.1927 20.7879 74.723 19.8977C74.2571 19.0038 74.0241 17.9318 74.0241 16.6818C74.0241 15.428 74.2571 14.3561 74.723 13.4659C75.1927 12.572 75.8291 11.8883 76.6321 11.4148C77.4389 10.9413 78.3518 10.7045 79.3707 10.7045C80.3897 10.7045 81.3007 10.9413 82.1037 11.4148C82.9105 11.8883 83.5469 12.572 84.0128 13.4659C84.4825 14.3561 84.7173 15.428 84.7173 16.6818ZM82.598 16.6818C82.598 15.7992 82.4598 15.0549 82.1832 14.4489C81.9105 13.839 81.5317 13.3788 81.0469 13.0682C80.562 12.7538 80.0033 12.5966 79.3707 12.5966C78.7382 12.5966 78.1795 12.7538 77.6946 13.0682C77.2098 13.3788 76.8291 13.839 76.5526 14.4489C76.2798 15.0549 76.1435 15.7992 76.1435 16.6818C76.1435 17.5644 76.2798 18.3106 76.5526 18.9205C76.8291 19.5265 77.2098 19.9867 77.6946 20.3011C78.1795 20.6117 78.7382 20.767 79.3707 20.767C80.0033 20.767 80.562 20.6117 81.0469 20.3011C81.5317 19.9867 81.9105 19.5265 82.1832 18.9205C82.4598 18.3106 82.598 17.5644 82.598 16.6818ZM92.1974 18.8295V13.7727H94.2543V22.5H92.2599V20.9489H92.169C91.9721 21.4375 91.6482 21.8371 91.1974 22.1477C90.7505 22.4583 90.1993 22.6136 89.544 22.6136C88.9721 22.6136 88.4664 22.4867 88.027 22.233C87.5914 21.9754 87.2505 21.6023 87.0043 21.1136C86.758 20.6212 86.6349 20.0265 86.6349 19.3295V13.7727H88.6918V19.0114C88.6918 19.5644 88.8433 20.0038 89.1463 20.3295C89.4493 20.6553 89.8471 20.8182 90.3395 20.8182C90.6425 20.8182 90.9361 20.7443 91.2202 20.5966C91.5043 20.4489 91.7372 20.2292 91.919 19.9375C92.1046 19.642 92.1974 19.2727 92.1974 18.8295ZM100.233 22.6705C99.358 22.6705 98.6023 22.4886 97.9659 22.125C97.3333 21.7576 96.8466 21.2386 96.5057 20.5682C96.1648 19.8939 95.9943 19.1004 95.9943 18.1875C95.9943 17.2898 96.1648 16.5019 96.5057 15.8239C96.8504 15.142 97.3314 14.6117 97.9489 14.233C98.5663 13.8504 99.2917 13.6591 100.125 13.6591C100.663 13.6591 101.17 13.7462 101.648 13.9205C102.129 14.0909 102.553 14.3561 102.92 14.7159C103.292 15.0758 103.583 15.5341 103.795 16.0909C104.008 16.6439 104.114 17.303 104.114 18.0682V18.6989H96.9602V17.3125H102.142C102.138 16.9186 102.053 16.5682 101.886 16.2614C101.72 15.9508 101.487 15.7064 101.188 15.5284C100.892 15.3504 100.547 15.2614 100.153 15.2614C99.733 15.2614 99.3636 15.3636 99.0455 15.5682C98.7273 15.7689 98.4792 16.0341 98.3011 16.3636C98.1269 16.6894 98.0379 17.0473 98.0341 17.4375V18.6477C98.0341 19.1553 98.1269 19.5909 98.3125 19.9545C98.4981 20.3144 98.7576 20.5909 99.0909 20.7841C99.4242 20.9735 99.8144 21.0682 100.261 21.0682C100.561 21.0682 100.831 21.0265 101.074 20.9432C101.316 20.8561 101.527 20.7292 101.705 20.5625C101.883 20.3958 102.017 20.1894 102.108 19.9432L104.028 20.1591C103.907 20.6667 103.676 21.1098 103.335 21.4886C102.998 21.8636 102.566 22.1553 102.04 22.3636C101.513 22.5682 100.911 22.6705 100.233 22.6705ZM112.751 16.0795L110.876 16.2841C110.823 16.0947 110.731 15.9167 110.598 15.75C110.469 15.5833 110.295 15.4489 110.075 15.3466C109.856 15.2443 109.587 15.1932 109.268 15.1932C108.84 15.1932 108.481 15.286 108.189 15.4716C107.901 15.6572 107.759 15.8977 107.763 16.1932C107.759 16.447 107.852 16.6534 108.041 16.8125C108.234 16.9716 108.553 17.1023 108.996 17.2045L110.484 17.5227C111.31 17.7008 111.924 17.983 112.325 18.3693C112.731 18.7557 112.935 19.2614 112.939 19.8864C112.935 20.4356 112.774 20.9205 112.456 21.3409C112.142 21.7576 111.704 22.0833 111.143 22.3182C110.583 22.553 109.939 22.6705 109.212 22.6705C108.143 22.6705 107.284 22.447 106.632 22C105.981 21.5492 105.592 20.9223 105.467 20.1193L107.473 19.9261C107.564 20.3201 107.757 20.6174 108.053 20.8182C108.348 21.0189 108.732 21.1193 109.206 21.1193C109.695 21.1193 110.087 21.0189 110.382 20.8182C110.681 20.6174 110.831 20.3693 110.831 20.0739C110.831 19.8239 110.734 19.6174 110.541 19.4545C110.352 19.2917 110.056 19.1667 109.655 19.0795L108.166 18.767C107.329 18.5928 106.71 18.2992 106.308 17.8864C105.907 17.4697 105.708 16.9432 105.712 16.3068C105.708 15.7689 105.854 15.303 106.149 14.9091C106.448 14.5114 106.863 14.2045 107.393 13.9886C107.928 13.7689 108.543 13.6591 109.24 13.6591C110.263 13.6591 111.068 13.8769 111.655 14.3125C112.246 14.7481 112.611 15.3371 112.751 16.0795ZM118.993 13.7727V15.3636H113.976V13.7727H118.993ZM115.214 11.6818H117.271V19.875C117.271 20.1515 117.313 20.3636 117.396 20.5114C117.483 20.6553 117.597 20.7538 117.737 20.8068C117.877 20.8598 118.033 20.8864 118.203 20.8864C118.332 20.8864 118.449 20.8769 118.555 20.858C118.665 20.839 118.749 20.822 118.805 20.8068L119.152 22.4148C119.042 22.4527 118.885 22.4943 118.68 22.5398C118.48 22.5852 118.233 22.6117 117.942 22.6193C117.427 22.6345 116.963 22.5568 116.55 22.3864C116.137 22.2121 115.809 21.9432 115.567 21.5795C115.328 21.2159 115.211 20.7614 115.214 20.2159V11.6818ZM126.881 10.8636V22.5H124.773V10.8636H126.881ZM131.129 17.3864V22.5H129.072V13.7727H131.038V15.2557H131.141C131.341 14.767 131.661 14.3788 132.101 14.0909C132.544 13.803 133.091 13.6591 133.743 13.6591C134.345 13.6591 134.87 13.7879 135.317 14.0455C135.768 14.303 136.116 14.6761 136.362 15.1648C136.612 15.6534 136.735 16.2462 136.732 16.9432V22.5H134.675V17.2614C134.675 16.678 134.523 16.2216 134.22 15.892C133.921 15.5625 133.506 15.3977 132.976 15.3977C132.616 15.3977 132.296 15.4773 132.016 15.6364C131.739 15.7917 131.521 16.017 131.362 16.3125C131.207 16.608 131.129 16.9659 131.129 17.3864ZM143.18 13.7727V15.3636H138.163V13.7727H143.18ZM139.402 11.6818H141.459V19.875C141.459 20.1515 141.5 20.3636 141.584 20.5114C141.671 20.6553 141.785 20.7538 141.925 20.8068C142.065 20.8598 142.22 20.8864 142.391 20.8864C142.519 20.8864 142.637 20.8769 142.743 20.858C142.853 20.839 142.936 20.822 142.993 20.8068L143.339 22.4148C143.23 22.4527 143.072 22.4943 142.868 22.5398C142.667 22.5852 142.421 22.6117 142.129 22.6193C141.614 22.6345 141.15 22.5568 140.737 22.3864C140.324 22.2121 139.997 21.9432 139.754 21.5795C139.516 21.2159 139.398 20.7614 139.402 20.2159V11.6818ZM148.67 22.6705C147.795 22.6705 147.04 22.4886 146.403 22.125C145.771 21.7576 145.284 21.2386 144.943 20.5682C144.602 19.8939 144.432 19.1004 144.432 18.1875C144.432 17.2898 144.602 16.5019 144.943 15.8239C145.288 15.142 145.769 14.6117 146.386 14.233C147.004 13.8504 147.729 13.6591 148.562 13.6591C149.1 13.6591 149.608 13.7462 150.085 13.9205C150.566 14.0909 150.991 14.3561 151.358 14.7159C151.729 15.0758 152.021 15.5341 152.233 16.0909C152.445 16.6439 152.551 17.303 152.551 18.0682V18.6989H145.398V17.3125H150.58C150.576 16.9186 150.491 16.5682 150.324 16.2614C150.157 15.9508 149.924 15.7064 149.625 15.5284C149.33 15.3504 148.985 15.2614 148.591 15.2614C148.17 15.2614 147.801 15.3636 147.483 15.5682C147.165 15.7689 146.917 16.0341 146.739 16.3636C146.564 16.6894 146.475 17.0473 146.472 17.4375V18.6477C146.472 19.1553 146.564 19.5909 146.75 19.9545C146.936 20.3144 147.195 20.5909 147.528 20.7841C147.862 20.9735 148.252 21.0682 148.699 21.0682C148.998 21.0682 149.269 21.0265 149.511 20.9432C149.754 20.8561 149.964 20.7292 150.142 20.5625C150.32 20.3958 150.455 20.1894 150.545 19.9432L152.466 20.1591C152.345 20.6667 152.114 21.1098 151.773 21.4886C151.436 21.8636 151.004 22.1553 150.477 22.3636C149.951 22.5682 149.348 22.6705 148.67 22.6705ZM154.291 22.5V13.7727H156.286V15.2273H156.376C156.536 14.7235 156.808 14.3352 157.195 14.0625C157.585 13.786 158.03 13.6477 158.53 13.6477C158.643 13.6477 158.77 13.6534 158.911 13.6648C159.054 13.6723 159.174 13.6856 159.268 13.7045V15.5966C159.181 15.5663 159.043 15.5398 158.854 15.517C158.668 15.4905 158.488 15.4773 158.314 15.4773C157.939 15.4773 157.602 15.5587 157.303 15.7216C157.007 15.8807 156.774 16.1023 156.604 16.3864C156.433 16.6705 156.348 16.9981 156.348 17.3693V22.5H154.291ZM162.692 17.3864V22.5H160.635V13.7727H162.601V15.2557H162.703C162.904 14.767 163.224 14.3788 163.663 14.0909C164.107 13.803 164.654 13.6591 165.305 13.6591C165.908 13.6591 166.432 13.7879 166.879 14.0455C167.33 14.303 167.679 14.6761 167.925 15.1648C168.175 15.6534 168.298 16.2462 168.294 16.9432V22.5H166.237V17.2614C166.237 16.678 166.086 16.2216 165.783 15.892C165.483 15.5625 165.069 15.3977 164.538 15.3977C164.179 15.3977 163.858 15.4773 163.578 15.6364C163.302 15.7917 163.084 16.017 162.925 16.3125C162.769 16.608 162.692 16.9659 162.692 17.3864ZM172.896 22.6761C172.343 22.6761 171.845 22.5777 171.402 22.3807C170.963 22.1799 170.614 21.8845 170.357 21.4943C170.103 21.1042 169.976 20.6231 169.976 20.0511C169.976 19.5587 170.067 19.1515 170.249 18.8295C170.43 18.5076 170.679 18.25 170.993 18.0568C171.307 17.8636 171.661 17.7178 172.055 17.6193C172.453 17.517 172.864 17.4432 173.288 17.3977C173.8 17.3447 174.214 17.2973 174.533 17.2557C174.851 17.2102 175.082 17.142 175.226 17.0511C175.374 16.9564 175.447 16.8106 175.447 16.6136V16.5795C175.447 16.1515 175.321 15.8201 175.067 15.5852C174.813 15.3504 174.447 15.233 173.97 15.233C173.466 15.233 173.067 15.3428 172.771 15.5625C172.48 15.7822 172.283 16.0417 172.18 16.3409L170.26 16.0682C170.411 15.5379 170.661 15.0947 171.01 14.7386C171.358 14.3788 171.785 14.1098 172.288 13.9318C172.792 13.75 173.349 13.6591 173.959 13.6591C174.379 13.6591 174.798 13.7083 175.214 13.8068C175.631 13.9053 176.012 14.0682 176.357 14.2955C176.701 14.5189 176.978 14.8239 177.186 15.2102C177.398 15.5966 177.504 16.0795 177.504 16.6591V22.5H175.527V21.3011H175.459C175.334 21.5436 175.158 21.7708 174.93 21.983C174.707 22.1913 174.425 22.3598 174.084 22.4886C173.747 22.6136 173.351 22.6761 172.896 22.6761ZM173.43 21.1648C173.843 21.1648 174.201 21.0833 174.504 20.9205C174.807 20.7538 175.04 20.5341 175.203 20.2614C175.37 19.9886 175.453 19.6913 175.453 19.3693V18.3409C175.389 18.3939 175.279 18.4432 175.124 18.4886C174.972 18.5341 174.802 18.5739 174.612 18.608C174.423 18.642 174.235 18.6723 174.05 18.6989C173.864 18.7254 173.703 18.7481 173.567 18.767C173.26 18.8087 172.985 18.8769 172.743 18.9716C172.5 19.0663 172.309 19.1989 172.169 19.3693C172.029 19.536 171.959 19.7519 171.959 20.017C171.959 20.3958 172.097 20.6818 172.374 20.875C172.65 21.0682 173.002 21.1648 173.43 21.1648ZM183.93 13.7727V15.3636H178.913V13.7727H183.93ZM180.152 11.6818H182.209V19.875C182.209 20.1515 182.25 20.3636 182.334 20.5114C182.421 20.6553 182.535 20.7538 182.675 20.8068C182.815 20.8598 182.97 20.8864 183.141 20.8864C183.269 20.8864 183.387 20.8769 183.493 20.858C183.603 20.839 183.686 20.822 183.743 20.8068L184.089 22.4148C183.98 22.4527 183.822 22.4943 183.618 22.5398C183.417 22.5852 183.171 22.6117 182.879 22.6193C182.364 22.6345 181.9 22.5568 181.487 22.3864C181.074 22.2121 180.747 21.9432 180.504 21.5795C180.266 21.2159 180.148 20.7614 180.152 20.2159V11.6818ZM185.651 22.5V13.7727H187.707V22.5H185.651ZM186.685 12.5341C186.359 12.5341 186.079 12.4261 185.844 12.2102C185.609 11.9905 185.491 11.7273 185.491 11.4205C185.491 11.1098 185.609 10.8466 185.844 10.6307C186.079 10.411 186.359 10.3011 186.685 10.3011C187.014 10.3011 187.295 10.411 187.526 10.6307C187.76 10.8466 187.878 11.1098 187.878 11.4205C187.878 11.7273 187.76 11.9905 187.526 12.2102C187.295 12.4261 187.014 12.5341 186.685 12.5341ZM193.629 22.6705C192.777 22.6705 192.038 22.483 191.413 22.108C190.788 21.733 190.304 21.2083 189.959 20.5341C189.618 19.8598 189.447 19.072 189.447 18.1705C189.447 17.2689 189.618 16.4792 189.959 15.8011C190.304 15.1231 190.788 14.5966 191.413 14.2216C192.038 13.8466 192.777 13.6591 193.629 13.6591C194.482 13.6591 195.22 13.8466 195.845 14.2216C196.47 14.5966 196.953 15.1231 197.294 15.8011C197.639 16.4792 197.811 17.2689 197.811 18.1705C197.811 19.072 197.639 19.8598 197.294 20.5341C196.953 21.2083 196.47 21.733 195.845 22.108C195.22 22.483 194.482 22.6705 193.629 22.6705ZM193.641 21.0227C194.103 21.0227 194.489 20.8958 194.8 20.642C195.11 20.3845 195.341 20.0398 195.493 19.608C195.648 19.1761 195.726 18.6951 195.726 18.1648C195.726 17.6307 195.648 17.1477 195.493 16.7159C195.341 16.2803 195.11 15.9337 194.8 15.6761C194.489 15.4186 194.103 15.2898 193.641 15.2898C193.167 15.2898 192.773 15.4186 192.459 15.6761C192.148 15.9337 191.915 16.2803 191.76 16.7159C191.608 17.1477 191.533 17.6307 191.533 18.1648C191.533 18.6951 191.608 19.1761 191.76 19.608C191.915 20.0398 192.148 20.3845 192.459 20.642C192.773 20.8958 193.167 21.0227 193.641 21.0227ZM201.614 17.3864V22.5H199.557V13.7727H201.523V15.2557H201.625C201.826 14.767 202.146 14.3788 202.585 14.0909C203.028 13.803 203.576 13.6591 204.227 13.6591C204.83 13.6591 205.354 13.7879 205.801 14.0455C206.252 14.303 206.6 14.6761 206.847 15.1648C207.097 15.6534 207.22 16.2462 207.216 16.9432V22.5H205.159V17.2614C205.159 16.678 205.008 16.2216 204.705 15.892C204.405 15.5625 203.991 15.3977 203.46 15.3977C203.1 15.3977 202.78 15.4773 202.5 15.6364C202.223 15.7917 202.006 16.017 201.847 16.3125C201.691 16.608 201.614 16.9659 201.614 17.3864ZM211.818 22.6761C211.265 22.6761 210.767 22.5777 210.324 22.3807C209.884 22.1799 209.536 21.8845 209.278 21.4943C209.025 21.1042 208.898 20.6231 208.898 20.0511C208.898 19.5587 208.989 19.1515 209.17 18.8295C209.352 18.5076 209.6 18.25 209.915 18.0568C210.229 17.8636 210.583 17.7178 210.977 17.6193C211.375 17.517 211.786 17.4432 212.21 17.3977C212.722 17.3447 213.136 17.2973 213.455 17.2557C213.773 17.2102 214.004 17.142 214.148 17.0511C214.295 16.9564 214.369 16.8106 214.369 16.6136V16.5795C214.369 16.1515 214.242 15.8201 213.989 15.5852C213.735 15.3504 213.369 15.233 212.892 15.233C212.388 15.233 211.989 15.3428 211.693 15.5625C211.402 15.7822 211.205 16.0417 211.102 16.3409L209.182 16.0682C209.333 15.5379 209.583 15.0947 209.932 14.7386C210.28 14.3788 210.706 14.1098 211.21 13.9318C211.714 13.75 212.271 13.6591 212.881 13.6591C213.301 13.6591 213.72 13.7083 214.136 13.8068C214.553 13.9053 214.934 14.0682 215.278 14.2955C215.623 14.5189 215.9 14.8239 216.108 15.2102C216.32 15.5966 216.426 16.0795 216.426 16.6591V22.5H214.449V21.3011H214.381C214.256 21.5436 214.08 21.7708 213.852 21.983C213.629 22.1913 213.347 22.3598 213.006 22.4886C212.669 22.6136 212.273 22.6761 211.818 22.6761ZM212.352 21.1648C212.765 21.1648 213.123 21.0833 213.426 20.9205C213.729 20.7538 213.962 20.5341 214.125 20.2614C214.292 19.9886 214.375 19.6913 214.375 19.3693V18.3409C214.311 18.3939 214.201 18.4432 214.045 18.4886C213.894 18.5341 213.723 18.5739 213.534 18.608C213.345 18.642 213.157 18.6723 212.972 18.6989C212.786 18.7254 212.625 18.7481 212.489 18.767C212.182 18.8087 211.907 18.8769 211.665 18.9716C211.422 19.0663 211.231 19.1989 211.091 19.3693C210.951 19.536 210.881 19.7519 210.881 20.017C210.881 20.3958 211.019 20.6818 211.295 20.875C211.572 21.0682 211.924 21.1648 212.352 21.1648ZM220.551 10.8636V22.5H218.494V10.8636H220.551Z" fill="#3E5EC0"/>
<path d="M25.6466 36.2725L28.8482 41.2913L24.5414 43.9998L21.1484 38.25" fill="#7D8DA2"/>
<path d="M18.1719 35.1816C23.8182 34.4299 28.1784 29.5921 28.1784 23.7371C28.1784 17.8822 23.8182 13.0427 18.1719 12.2927V7.05322C26.625 7.83595 33.2455 14.9461 33.2455 23.6027C33.2455 32.2593 26.625 39.3625 18.1719 40.1452V35.1799V35.1816Z" fill="#3E5EC0"/>
<path d="M14.9133 35.1603C9.34451 34.3397 5.06707 29.5329 5.06707 23.7348C5.06707 17.9368 9.34451 13.13 14.9133 12.3094V7.06299C6.53771 7.9233 0 14.9955 0 23.6004C0 32.2052 6.53771 39.2722 14.9133 40.1308V35.1603Z" fill="#3E5EC0"/>
<path d="M5.21533 25.6325H14.9185V20.4482H5.54808C4.94638 22.0016 4.96362 23.7757 5.21706 25.6325H5.21533Z" fill="#3E5EC0"/>
<path d="M39.8807 39.5V32.2273H40.7614V38.7188H44.142V39.5H39.8807ZM47.679 39.6136C47.1534 39.6136 46.7 39.4976 46.3189 39.2656C45.9401 39.0312 45.6477 38.7045 45.4418 38.2855C45.2382 37.8641 45.1364 37.3741 45.1364 36.8153C45.1364 36.2566 45.2382 35.7642 45.4418 35.3381C45.6477 34.9096 45.9342 34.5758 46.3011 34.3366C46.6705 34.0952 47.1013 33.9744 47.5938 33.9744C47.8778 33.9744 48.1584 34.0218 48.4354 34.1165C48.7124 34.2112 48.9645 34.3651 49.1918 34.5781C49.419 34.7888 49.6001 35.0682 49.7351 35.4162C49.87 35.7642 49.9375 36.1927 49.9375 36.7017V37.0568H45.733V36.3324H49.0852C49.0852 36.0246 49.0237 35.75 48.9006 35.5085C48.7798 35.267 48.607 35.0765 48.3821 34.9368C48.1596 34.7971 47.8968 34.7273 47.5938 34.7273C47.2599 34.7273 46.9711 34.8101 46.7273 34.9759C46.4858 35.1392 46.3 35.3523 46.1697 35.6151C46.0395 35.8778 45.9744 36.1596 45.9744 36.4602V36.9432C45.9744 37.3551 46.0455 37.7043 46.1875 37.9908C46.3319 38.2749 46.532 38.4915 46.7876 38.6406C47.0433 38.7874 47.3404 38.8608 47.679 38.8608C47.8991 38.8608 48.098 38.83 48.2756 38.7685C48.4555 38.7045 48.6106 38.6098 48.7408 38.4844C48.871 38.3565 48.9716 38.1979 49.0426 38.0085L49.8523 38.2358C49.767 38.5104 49.6238 38.7519 49.4226 38.9602C49.2214 39.1662 48.9728 39.3272 48.6768 39.4432C48.3809 39.5568 48.0483 39.6136 47.679 39.6136ZM52.8175 39.6278C52.4718 39.6278 52.1581 39.5627 51.8764 39.4325C51.5947 39.3 51.371 39.1094 51.2053 38.8608C51.0395 38.6098 50.9567 38.3068 50.9567 37.9517C50.9567 37.6392 51.0182 37.3859 51.1413 37.1918C51.2644 36.9953 51.429 36.8414 51.6349 36.7301C51.8409 36.6188 52.0682 36.536 52.3168 36.4815C52.5677 36.4247 52.8198 36.3797 53.0732 36.3466C53.4046 36.304 53.6733 36.272 53.8793 36.2507C54.0876 36.227 54.2391 36.188 54.3338 36.1335C54.4309 36.0791 54.4794 35.9844 54.4794 35.8494V35.821C54.4794 35.4706 54.3835 35.1984 54.1918 35.0043C54.0024 34.8101 53.7147 34.7131 53.3288 34.7131C52.9287 34.7131 52.6151 34.8007 52.3878 34.9759C52.1605 35.151 52.0007 35.3381 51.9084 35.5369L51.1129 35.2528C51.255 34.9214 51.4444 34.6634 51.6811 34.4787C51.9202 34.2917 52.1806 34.1615 52.4624 34.0881C52.7464 34.0123 53.0258 33.9744 53.3004 33.9744C53.4756 33.9744 53.6768 33.9957 53.9041 34.0384C54.1338 34.0786 54.3551 34.1626 54.5682 34.2905C54.7836 34.4183 54.9624 34.6113 55.1044 34.8693C55.2464 35.1274 55.3175 35.473 55.3175 35.9062V39.5H54.4794V38.7614H54.4368C54.38 38.8797 54.2853 39.0064 54.1527 39.1413C54.0201 39.2763 53.8438 39.3911 53.6236 39.4858C53.4034 39.5805 53.1347 39.6278 52.8175 39.6278ZM52.9453 38.875C53.2768 38.875 53.5561 38.8099 53.7834 38.6797C54.013 38.5495 54.1858 38.3814 54.3018 38.1754C54.4202 37.9695 54.4794 37.7528 54.4794 37.5256V36.7585C54.4439 36.8011 54.3658 36.8402 54.245 36.8757C54.1267 36.9089 53.9893 36.9384 53.8331 36.9645C53.6792 36.9882 53.5289 37.0095 53.3821 37.0284C53.2377 37.045 53.1205 37.0592 53.0305 37.071C52.8127 37.0994 52.6091 37.1456 52.4197 37.2095C52.2327 37.2711 52.0812 37.3646 51.9652 37.4901C51.8516 37.6132 51.7947 37.7812 51.7947 37.9943C51.7947 38.2855 51.9025 38.5057 52.1179 38.6548C52.3357 38.8016 52.6115 38.875 52.9453 38.875ZM58.9068 39.6136C58.4522 39.6136 58.051 39.4988 57.7029 39.2692C57.3549 39.0372 57.0827 38.7105 56.8862 38.2891C56.6897 37.8653 56.5914 37.3646 56.5914 36.7869C56.5914 36.214 56.6897 35.7169 56.8862 35.2955C57.0827 34.8741 57.3561 34.5485 57.7065 34.3189C58.0569 34.0893 58.4617 33.9744 58.921 33.9744C59.2761 33.9744 59.5566 34.0336 59.7626 34.152C59.9709 34.268 60.1296 34.4006 60.2385 34.5497C60.3497 34.6965 60.4361 34.8172 60.4977 34.9119H60.5687V32.2273H61.4068V39.5H60.5971V38.6619H60.4977C60.4361 38.7614 60.3485 38.8868 60.2349 39.0384C60.1213 39.1875 59.9591 39.3213 59.7484 39.4396C59.5377 39.5556 59.2572 39.6136 58.9068 39.6136ZM59.0204 38.8608C59.3566 38.8608 59.6407 38.7732 59.8727 38.598C60.1047 38.4205 60.2811 38.1754 60.4018 37.8629C60.5225 37.5481 60.5829 37.1847 60.5829 36.7727C60.5829 36.3655 60.5237 36.0092 60.4054 35.7038C60.287 35.3961 60.1118 35.157 59.8798 34.9865C59.6478 34.8137 59.3613 34.7273 59.0204 34.7273C58.6653 34.7273 58.3694 34.8184 58.1326 35.0007C57.8983 35.1806 57.7219 35.4257 57.6035 35.7358C57.4875 36.0436 57.4295 36.3892 57.4295 36.7727C57.4295 37.161 57.4887 37.5137 57.6071 37.831C57.7278 38.1458 57.9054 38.3968 58.1397 38.5838C58.3765 38.7685 58.67 38.8608 59.0204 38.8608ZM63.0581 39.5V34.0455H63.8961V39.5H63.0581ZM63.4842 33.1364C63.3208 33.1364 63.18 33.0807 63.0616 32.9695C62.9456 32.8582 62.8876 32.7244 62.8876 32.5682C62.8876 32.4119 62.9456 32.2782 63.0616 32.1669C63.18 32.0556 63.3208 32 63.4842 32C63.6475 32 63.7872 32.0556 63.9032 32.1669C64.0216 32.2782 64.0808 32.4119 64.0808 32.5682C64.0808 32.7244 64.0216 32.8582 63.9032 32.9695C63.7872 33.0807 63.6475 33.1364 63.4842 33.1364ZM66.2692 36.2188V39.5H65.4311V34.0455H66.2408V34.8977H66.3118C66.4396 34.6207 66.6338 34.3982 66.8942 34.2301C67.1546 34.0597 67.4908 33.9744 67.9027 33.9744C68.272 33.9744 68.5952 34.0502 68.8722 34.2017C69.1491 34.3509 69.3646 34.5781 69.5185 34.8835C69.6723 35.1866 69.7493 35.5701 69.7493 36.0341V39.5H68.9112V36.0909C68.9112 35.6624 68.8 35.3286 68.5774 35.0895C68.3549 34.848 68.0495 34.7273 67.6612 34.7273C67.3937 34.7273 67.1546 34.7853 66.9439 34.9013C66.7356 35.0173 66.571 35.1866 66.4503 35.4091C66.3295 35.6316 66.2692 35.9015 66.2692 36.2188ZM73.4824 41.6591C73.0776 41.6591 72.7296 41.607 72.4384 41.5028C72.1472 41.401 71.9045 41.2661 71.7104 41.098C71.5186 40.9323 71.3659 40.7547 71.2523 40.5653L71.9199 40.0966C71.9957 40.196 72.0916 40.3097 72.2076 40.4375C72.3236 40.5677 72.4822 40.6802 72.6834 40.7749C72.887 40.8719 73.1533 40.9205 73.4824 40.9205C73.9228 40.9205 74.2862 40.8139 74.5726 40.6009C74.8591 40.3878 75.0023 40.054 75.0023 39.5994V38.4915H74.9313C74.8697 38.5909 74.7821 38.714 74.6685 38.8608C74.5572 39.0052 74.3962 39.1342 74.1855 39.2479C73.9772 39.3591 73.6955 39.4148 73.3404 39.4148C72.9 39.4148 72.5047 39.3106 72.1543 39.1023C71.8063 38.8939 71.5305 38.5909 71.3269 38.1932C71.1257 37.7955 71.025 37.3125 71.025 36.7443C71.025 36.1856 71.1233 35.6991 71.3198 35.2848C71.5163 34.8681 71.7897 34.5462 72.1401 34.3189C72.4905 34.0893 72.8953 33.9744 73.3546 33.9744C73.7097 33.9744 73.9914 34.0336 74.1998 34.152C74.4105 34.268 74.5714 34.4006 74.6827 34.5497C74.7963 34.6965 74.8839 34.8172 74.9455 34.9119H75.0307V34.0455H75.8404V39.6562C75.8404 40.125 75.7338 40.5062 75.5208 40.7997C75.3101 41.0956 75.026 41.3123 74.6685 41.4496C74.3134 41.5893 73.918 41.6591 73.4824 41.6591ZM73.454 38.6619C73.7902 38.6619 74.0743 38.585 74.3063 38.4311C74.5383 38.2772 74.7147 38.0559 74.8354 37.767C74.9561 37.4782 75.0165 37.1326 75.0165 36.7301C75.0165 36.3371 74.9573 35.9903 74.839 35.6896C74.7206 35.389 74.5454 35.1534 74.3134 34.983C74.0814 34.8125 73.7949 34.7273 73.454 34.7273C73.0989 34.7273 72.803 34.8172 72.5662 34.9972C72.3319 35.1771 72.1555 35.4186 72.0371 35.7216C71.9211 36.0246 71.8631 36.3608 71.8631 36.7301C71.8631 37.1089 71.9223 37.4439 72.0407 37.7351C72.1614 38.0239 72.339 38.2512 72.5733 38.4169C72.8101 38.5803 73.1036 38.6619 73.454 38.6619ZM80.3006 39.5V32.2273H84.6898V33.0085H81.1813V35.4659H84.4625V36.2472H81.1813V38.7188H84.7466V39.5H80.3006ZM88.2232 39.6136C87.7686 39.6136 87.3674 39.4988 87.0194 39.2692C86.6713 39.0372 86.3991 38.7105 86.2026 38.2891C86.0061 37.8653 85.9078 37.3646 85.9078 36.7869C85.9078 36.214 86.0061 35.7169 86.2026 35.2955C86.3991 34.8741 86.6725 34.5485 87.0229 34.3189C87.3733 34.0893 87.7781 33.9744 88.2374 33.9744C88.5925 33.9744 88.873 34.0336 89.079 34.152C89.2873 34.268 89.446 34.4006 89.5549 34.5497C89.6661 34.6965 89.7525 34.8172 89.8141 34.9119H89.8851V32.2273H90.7232V39.5H89.9135V38.6619H89.8141C89.7525 38.7614 89.665 38.8868 89.5513 39.0384C89.4377 39.1875 89.2755 39.3213 89.0648 39.4396C88.8541 39.5556 88.5736 39.6136 88.2232 39.6136ZM88.3368 38.8608C88.673 38.8608 88.9571 38.7732 89.1891 38.598C89.4211 38.4205 89.5975 38.1754 89.7182 37.8629C89.839 37.5481 89.8993 37.1847 89.8993 36.7727C89.8993 36.3655 89.8401 36.0092 89.7218 35.7038C89.6034 35.3961 89.4282 35.157 89.1962 34.9865C88.9642 34.8137 88.6777 34.7273 88.3368 34.7273C87.9817 34.7273 87.6858 34.8184 87.449 35.0007C87.2147 35.1806 87.0383 35.4257 86.9199 35.7358C86.8039 36.0436 86.7459 36.3892 86.7459 36.7727C86.7459 37.161 86.8051 37.5137 86.9235 37.831C87.0442 38.1458 87.2218 38.3968 87.4561 38.5838C87.6929 38.7685 87.9864 38.8608 88.3368 38.8608ZM95.812 37.2699V34.0455H96.65V39.5H95.812V38.5767H95.7551C95.6273 38.8537 95.4284 39.0893 95.1586 39.2834C94.8887 39.4751 94.5478 39.571 94.1358 39.571C93.7949 39.571 93.4919 39.4964 93.2267 39.3473C92.9616 39.1958 92.7533 38.9685 92.6017 38.6655C92.4502 38.3601 92.3745 37.9754 92.3745 37.5114V34.0455H93.2125V37.4545C93.2125 37.8523 93.3238 38.1695 93.5463 38.4062C93.7712 38.643 94.0577 38.7614 94.4057 38.7614C94.6141 38.7614 94.8259 38.7081 95.0414 38.6016C95.2592 38.495 95.4415 38.3317 95.5882 38.1115C95.7374 37.8913 95.812 37.6108 95.812 37.2699ZM100.401 39.6136C99.8896 39.6136 99.4492 39.4929 99.0799 39.2514C98.7106 39.0099 98.4265 38.6773 98.2276 38.2536C98.0288 37.8298 97.9293 37.3456 97.9293 36.8011C97.9293 36.2472 98.0311 35.7583 98.2347 35.3345C98.4407 34.9084 98.7272 34.5758 99.0941 34.3366C99.4634 34.0952 99.8943 33.9744 100.387 33.9744C100.77 33.9744 101.116 34.0455 101.424 34.1875C101.731 34.3295 101.984 34.5284 102.18 34.7841C102.377 35.0398 102.498 35.3381 102.546 35.679H101.708C101.644 35.4304 101.502 35.2102 101.282 35.0185C101.064 34.8243 100.77 34.7273 100.401 34.7273C100.074 34.7273 99.7878 34.8125 99.5415 34.983C99.2977 35.151 99.1071 35.389 98.9698 35.6967C98.8349 36.0021 98.7674 36.3608 98.7674 36.7727C98.7674 37.1941 98.8337 37.5611 98.9663 37.8736C99.1012 38.1861 99.2906 38.4287 99.5344 38.6016C99.7807 38.7744 100.069 38.8608 100.401 38.8608C100.619 38.8608 100.816 38.8229 100.994 38.7472C101.172 38.6714 101.322 38.5625 101.445 38.4205C101.568 38.2784 101.656 38.108 101.708 37.9091H102.546C102.498 38.2311 102.381 38.5211 102.194 38.7791C102.01 39.0348 101.765 39.2384 101.459 39.3899C101.156 39.5391 100.803 39.6136 100.401 39.6136ZM105.376 39.6278C105.03 39.6278 104.717 39.5627 104.435 39.4325C104.153 39.3 103.93 39.1094 103.764 38.8608C103.598 38.6098 103.515 38.3068 103.515 37.9517C103.515 37.6392 103.577 37.3859 103.7 37.1918C103.823 36.9953 103.988 36.8414 104.194 36.7301C104.4 36.6188 104.627 36.536 104.875 36.4815C105.126 36.4247 105.378 36.3797 105.632 36.3466C105.963 36.304 106.232 36.272 106.438 36.2507C106.646 36.227 106.798 36.188 106.892 36.1335C106.989 36.0791 107.038 35.9844 107.038 35.8494V35.821C107.038 35.4706 106.942 35.1984 106.75 35.0043C106.561 34.8101 106.273 34.7131 105.887 34.7131C105.487 34.7131 105.174 34.8007 104.946 34.9759C104.719 35.151 104.559 35.3381 104.467 35.5369L103.672 35.2528C103.814 34.9214 104.003 34.6634 104.24 34.4787C104.479 34.2917 104.739 34.1615 105.021 34.0881C105.305 34.0123 105.584 33.9744 105.859 33.9744C106.034 33.9744 106.235 33.9957 106.463 34.0384C106.692 34.0786 106.914 34.1626 107.127 34.2905C107.342 34.4183 107.521 34.6113 107.663 34.8693C107.805 35.1274 107.876 35.473 107.876 35.9062V39.5H107.038V38.7614H106.995C106.939 38.8797 106.844 39.0064 106.711 39.1413C106.579 39.2763 106.402 39.3911 106.182 39.4858C105.962 39.5805 105.693 39.6278 105.376 39.6278ZM105.504 38.875C105.835 38.875 106.115 38.8099 106.342 38.6797C106.572 38.5495 106.744 38.3814 106.86 38.1754C106.979 37.9695 107.038 37.7528 107.038 37.5256V36.7585C107.002 36.8011 106.924 36.8402 106.804 36.8757C106.685 36.9089 106.548 36.9384 106.392 36.9645C106.238 36.9882 106.087 37.0095 105.941 37.0284C105.796 37.045 105.679 37.0592 105.589 37.071C105.371 37.0994 105.168 37.1456 104.978 37.2095C104.791 37.2711 104.64 37.3646 104.524 37.4901C104.41 37.6132 104.353 37.7812 104.353 37.9943C104.353 38.2855 104.461 38.5057 104.676 38.6548C104.894 38.8016 105.17 38.875 105.504 38.875ZM111.778 34.0455V34.7557H108.951V34.0455H111.778ZM109.775 32.7386H110.613V37.9375C110.613 38.1742 110.647 38.3518 110.716 38.4702C110.787 38.5862 110.877 38.6643 110.986 38.7045C111.097 38.7424 111.214 38.7614 111.338 38.7614C111.43 38.7614 111.506 38.7566 111.565 38.7472C111.624 38.7353 111.671 38.7259 111.707 38.7188L111.877 39.4716C111.82 39.4929 111.741 39.5142 111.639 39.5355C111.538 39.5592 111.409 39.571 111.252 39.571C111.016 39.571 110.784 39.5201 110.556 39.4183C110.331 39.3165 110.144 39.1615 109.995 38.9531C109.848 38.7448 109.775 38.482 109.775 38.1648V32.7386ZM113.039 39.5V34.0455H113.877V39.5H113.039ZM113.465 33.1364C113.301 33.1364 113.16 33.0807 113.042 32.9695C112.926 32.8582 112.868 32.7244 112.868 32.5682C112.868 32.4119 112.926 32.2782 113.042 32.1669C113.16 32.0556 113.301 32 113.465 32C113.628 32 113.768 32.0556 113.884 32.1669C114.002 32.2782 114.061 32.4119 114.061 32.5682C114.061 32.7244 114.002 32.8582 113.884 32.9695C113.768 33.0807 113.628 33.1364 113.465 33.1364ZM117.627 39.6136C117.135 39.6136 116.703 39.4964 116.331 39.2621C115.962 39.0277 115.673 38.6998 115.465 38.2784C115.259 37.857 115.156 37.3646 115.156 36.8011C115.156 36.233 115.259 35.737 115.465 35.3132C115.673 34.8894 115.962 34.5604 116.331 34.326C116.703 34.0916 117.135 33.9744 117.627 33.9744C118.12 33.9744 118.551 34.0916 118.92 34.326C119.292 34.5604 119.581 34.8894 119.787 35.3132C119.995 35.737 120.099 36.233 120.099 36.8011C120.099 37.3646 119.995 37.857 119.787 38.2784C119.581 38.6998 119.292 39.0277 118.92 39.2621C118.551 39.4964 118.12 39.6136 117.627 39.6136ZM117.627 38.8608C118.002 38.8608 118.309 38.7649 118.551 38.5732C118.792 38.3814 118.971 38.1293 119.087 37.8168C119.203 37.5043 119.261 37.1657 119.261 36.8011C119.261 36.4366 119.203 36.0968 119.087 35.782C118.971 35.4671 118.792 35.2126 118.551 35.0185C118.309 34.8243 118.002 34.7273 117.627 34.7273C117.253 34.7273 116.946 34.8243 116.704 35.0185C116.463 35.2126 116.284 35.4671 116.168 35.782C116.052 36.0968 115.994 36.4366 115.994 36.8011C115.994 37.1657 116.052 37.5043 116.168 37.8168C116.284 38.1293 116.463 38.3814 116.704 38.5732C116.946 38.7649 117.253 38.8608 117.627 38.8608ZM122.216 36.2188V39.5H121.378V34.0455H122.188V34.8977H122.259C122.387 34.6207 122.581 34.3982 122.841 34.2301C123.102 34.0597 123.438 33.9744 123.85 33.9744C124.219 33.9744 124.542 34.0502 124.819 34.2017C125.096 34.3509 125.312 34.5781 125.466 34.8835C125.62 35.1866 125.697 35.5701 125.697 36.0341V39.5H124.858V36.0909C124.858 35.6624 124.747 35.3286 124.525 35.0895C124.302 34.848 123.997 34.7273 123.608 34.7273C123.341 34.7273 123.102 34.7853 122.891 34.9013C122.683 35.0173 122.518 35.1866 122.398 35.4091C122.277 35.6316 122.216 35.9015 122.216 36.2188ZM128.833 39.6278C128.487 39.6278 128.174 39.5627 127.892 39.4325C127.61 39.3 127.387 39.1094 127.221 38.8608C127.055 38.6098 126.972 38.3068 126.972 37.9517C126.972 37.6392 127.034 37.3859 127.157 37.1918C127.28 36.9953 127.445 36.8414 127.651 36.7301C127.857 36.6188 128.084 36.536 128.332 36.4815C128.583 36.4247 128.835 36.3797 129.089 36.3466C129.42 36.304 129.689 36.272 129.895 36.2507C130.103 36.227 130.255 36.188 130.349 36.1335C130.446 36.0791 130.495 35.9844 130.495 35.8494V35.821C130.495 35.4706 130.399 35.1984 130.207 35.0043C130.018 34.8101 129.73 34.7131 129.344 34.7131C128.944 34.7131 128.631 34.8007 128.403 34.9759C128.176 35.151 128.016 35.3381 127.924 35.5369L127.129 35.2528C127.271 34.9214 127.46 34.6634 127.697 34.4787C127.936 34.2917 128.196 34.1615 128.478 34.0881C128.762 34.0123 129.041 33.9744 129.316 33.9744C129.491 33.9744 129.692 33.9957 129.92 34.0384C130.149 34.0786 130.371 34.1626 130.584 34.2905C130.799 34.4183 130.978 34.6113 131.12 34.8693C131.262 35.1274 131.333 35.473 131.333 35.9062V39.5H130.495V38.7614H130.452C130.396 38.8797 130.301 39.0064 130.168 39.1413C130.036 39.2763 129.859 39.3911 129.639 39.4858C129.419 39.5805 129.15 39.6278 128.833 39.6278ZM128.961 38.875C129.292 38.875 129.572 38.8099 129.799 38.6797C130.029 38.5495 130.201 38.3814 130.317 38.1754C130.436 37.9695 130.495 37.7528 130.495 37.5256V36.7585C130.46 36.8011 130.381 36.8402 130.261 36.8757C130.142 36.9089 130.005 36.9384 129.849 36.9645C129.695 36.9882 129.545 37.0095 129.398 37.0284C129.253 37.045 129.136 37.0592 129.046 37.071C128.828 37.0994 128.625 37.1456 128.435 37.2095C128.248 37.2711 128.097 37.3646 127.981 37.4901C127.867 37.6132 127.81 37.7812 127.81 37.9943C127.81 38.2855 127.918 38.5057 128.134 38.6548C128.351 38.8016 128.627 38.875 128.961 38.875ZM133.701 32.2273V39.5H132.863V32.2273H133.701ZM140.108 39.5994C139.63 39.5994 139.218 39.5118 138.872 39.3366C138.527 39.1615 138.26 38.9212 138.073 38.6158C137.886 38.3104 137.793 37.9612 137.793 37.5682C137.793 37.2652 137.857 36.9964 137.984 36.7621C138.115 36.5253 138.293 36.3063 138.521 36.1051C138.75 35.9015 139.014 35.6979 139.312 35.4943L140.364 34.7131C140.57 34.5781 140.734 34.4337 140.857 34.2798C140.983 34.1259 141.045 33.9247 141.045 33.6761C141.045 33.4915 140.964 33.3127 140.8 33.1399C140.639 32.9671 140.428 32.8807 140.165 32.8807C139.98 32.8807 139.817 32.928 139.675 33.0227C139.535 33.1151 139.425 33.2334 139.344 33.3778C139.266 33.5199 139.227 33.6667 139.227 33.8182C139.227 33.9886 139.273 34.1615 139.366 34.3366C139.46 34.5095 139.58 34.687 139.724 34.8693C139.871 35.0492 140.023 35.2339 140.179 35.4233L143.517 39.5H142.509L139.753 36.1761C139.497 35.8684 139.265 35.589 139.057 35.3381C138.848 35.0871 138.683 34.8397 138.56 34.5959C138.437 34.352 138.375 34.0881 138.375 33.804C138.375 33.4773 138.447 33.1908 138.592 32.9446C138.738 32.696 138.943 32.5031 139.206 32.3658C139.471 32.2261 139.781 32.1562 140.136 32.1562C140.501 32.1562 140.815 32.2273 141.077 32.3693C141.34 32.509 141.543 32.6948 141.685 32.9268C141.827 33.1565 141.898 33.4062 141.898 33.6761C141.898 34.0241 141.811 34.326 141.638 34.5817C141.466 34.8374 141.23 35.0753 140.932 35.2955L139.483 36.375C139.156 36.6165 138.935 36.8509 138.819 37.0781C138.703 37.3054 138.645 37.4687 138.645 37.5682C138.645 37.7955 138.704 38.0073 138.822 38.2038C138.941 38.4003 139.108 38.5589 139.323 38.6797C139.539 38.8004 139.791 38.8608 140.08 38.8608C140.354 38.8608 140.622 38.8028 140.882 38.6868C141.143 38.5684 141.378 38.398 141.589 38.1754C141.802 37.9529 141.97 37.6854 142.093 37.3729C142.219 37.0604 142.281 36.7088 142.281 36.3182H143.091C143.091 36.8011 143.035 37.1953 142.924 37.5007C142.813 37.8061 142.687 38.0452 142.548 38.218C142.408 38.3909 142.295 38.5199 142.21 38.6051C142.182 38.6406 142.156 38.6761 142.132 38.7116C142.108 38.7472 142.082 38.7827 142.054 38.8182C141.82 39.081 141.524 39.2775 141.166 39.4077C140.809 39.5355 140.456 39.5994 140.108 39.5994ZM146.973 33.0085V32.2273H152.428V33.0085H150.141V39.5H149.26V33.0085H146.973ZM153.107 39.5V34.0455H153.917V34.8693H153.973C154.073 34.5994 154.253 34.3804 154.513 34.2124C154.774 34.0443 155.067 33.9602 155.394 33.9602C155.455 33.9602 155.532 33.9614 155.625 33.9638C155.717 33.9661 155.787 33.9697 155.834 33.9744V34.8267C155.806 34.8196 155.741 34.8089 155.639 34.7947C155.539 34.7782 155.434 34.7699 155.323 34.7699C155.058 34.7699 154.821 34.8255 154.613 34.9368C154.407 35.0457 154.243 35.1972 154.123 35.3913C154.004 35.5831 153.945 35.8021 153.945 36.0483V39.5H153.107ZM158.433 39.6278C158.087 39.6278 157.773 39.5627 157.492 39.4325C157.21 39.3 156.986 39.1094 156.82 38.8608C156.655 38.6098 156.572 38.3068 156.572 37.9517C156.572 37.6392 156.633 37.3859 156.757 37.1918C156.88 36.9953 157.044 36.8414 157.25 36.7301C157.456 36.6188 157.683 36.536 157.932 36.4815C158.183 36.4247 158.435 36.3797 158.688 36.3466C159.02 36.304 159.289 36.272 159.494 36.2507C159.703 36.227 159.854 36.188 159.949 36.1335C160.046 36.0791 160.095 35.9844 160.095 35.8494V35.821C160.095 35.4706 159.999 35.1984 159.807 35.0043C159.618 34.8101 159.33 34.7131 158.944 34.7131C158.544 34.7131 158.23 34.8007 158.003 34.9759C157.776 35.151 157.616 35.3381 157.524 35.5369L156.728 35.2528C156.87 34.9214 157.06 34.6634 157.296 34.4787C157.535 34.2917 157.796 34.1615 158.078 34.0881C158.362 34.0123 158.641 33.9744 158.916 33.9744C159.091 33.9744 159.292 33.9957 159.519 34.0384C159.749 34.0786 159.97 34.1626 160.183 34.2905C160.399 34.4183 160.578 34.6113 160.72 34.8693C160.862 35.1274 160.933 35.473 160.933 35.9062V39.5H160.095V38.7614H160.052C159.995 38.8797 159.901 39.0064 159.768 39.1413C159.635 39.2763 159.459 39.3911 159.239 39.4858C159.019 39.5805 158.75 39.6278 158.433 39.6278ZM158.561 38.875C158.892 38.875 159.171 38.8099 159.399 38.6797C159.628 38.5495 159.801 38.3814 159.917 38.1754C160.035 37.9695 160.095 37.7528 160.095 37.5256V36.7585C160.059 36.8011 159.981 36.8402 159.86 36.8757C159.742 36.9089 159.605 36.9384 159.448 36.9645C159.294 36.9882 159.144 37.0095 158.997 37.0284C158.853 37.045 158.736 37.0592 158.646 37.071C158.428 37.0994 158.224 37.1456 158.035 37.2095C157.848 37.2711 157.696 37.3646 157.58 37.4901C157.467 37.6132 157.41 37.7812 157.41 37.9943C157.41 38.2855 157.518 38.5057 157.733 38.6548C157.951 38.8016 158.227 38.875 158.561 38.875ZM162.462 39.5V34.0455H163.3V39.5H162.462ZM162.888 33.1364C162.725 33.1364 162.584 33.0807 162.466 32.9695C162.35 32.8582 162.292 32.7244 162.292 32.5682C162.292 32.4119 162.35 32.2782 162.466 32.1669C162.584 32.0556 162.725 32 162.888 32C163.052 32 163.192 32.0556 163.308 32.1669C163.426 32.2782 163.485 32.4119 163.485 32.5682C163.485 32.7244 163.426 32.8582 163.308 32.9695C163.192 33.0807 163.052 33.1364 162.888 33.1364ZM165.673 36.2188V39.5H164.835V34.0455H165.645V34.8977H165.716C165.844 34.6207 166.038 34.3982 166.298 34.2301C166.559 34.0597 166.895 33.9744 167.307 33.9744C167.676 33.9744 167.999 34.0502 168.276 34.2017C168.553 34.3509 168.769 34.5781 168.923 34.8835C169.077 35.1866 169.154 35.5701 169.154 36.0341V39.5H168.316V36.0909C168.316 35.6624 168.204 35.3286 167.982 35.0895C167.759 34.848 167.454 34.7273 167.066 34.7273C166.798 34.7273 166.559 34.7853 166.348 34.9013C166.14 35.0173 165.975 35.1866 165.855 35.4091C165.734 35.6316 165.673 35.9015 165.673 36.2188ZM170.685 39.5V34.0455H171.523V39.5H170.685ZM171.111 33.1364C170.948 33.1364 170.807 33.0807 170.689 32.9695C170.573 32.8582 170.515 32.7244 170.515 32.5682C170.515 32.4119 170.573 32.2782 170.689 32.1669C170.807 32.0556 170.948 32 171.111 32C171.275 32 171.414 32.0556 171.53 32.1669C171.649 32.2782 171.708 32.4119 171.708 32.5682C171.708 32.7244 171.649 32.8582 171.53 32.9695C171.414 33.0807 171.275 33.1364 171.111 33.1364ZM173.896 36.2188V39.5H173.058V34.0455H173.868V34.8977H173.939C174.067 34.6207 174.261 34.3982 174.521 34.2301C174.782 34.0597 175.118 33.9744 175.53 33.9744C175.899 33.9744 176.222 34.0502 176.499 34.2017C176.776 34.3509 176.992 34.5781 177.145 34.8835C177.299 35.1866 177.376 35.5701 177.376 36.0341V39.5H176.538V36.0909C176.538 35.6624 176.427 35.3286 176.204 35.0895C175.982 34.848 175.676 34.7273 175.288 34.7273C175.021 34.7273 174.782 34.7853 174.571 34.9013C174.363 35.0173 174.198 35.1866 174.077 35.4091C173.956 35.6316 173.896 35.9015 173.896 36.2188ZM181.109 41.6591C180.705 41.6591 180.357 41.607 180.065 41.5028C179.774 41.401 179.531 41.2661 179.337 41.098C179.146 40.9323 178.993 40.7547 178.879 40.5653L179.547 40.0966C179.623 40.196 179.719 40.3097 179.835 40.4375C179.951 40.5677 180.109 40.6802 180.31 40.7749C180.514 40.8719 180.78 40.9205 181.109 40.9205C181.55 40.9205 181.913 40.8139 182.2 40.6009C182.486 40.3878 182.629 40.054 182.629 39.5994V38.4915H182.558C182.497 38.5909 182.409 38.714 182.295 38.8608C182.184 39.0052 182.023 39.1342 181.812 39.2479C181.604 39.3591 181.322 39.4148 180.967 39.4148C180.527 39.4148 180.132 39.3106 179.781 39.1023C179.433 38.8939 179.157 38.5909 178.954 38.1932C178.753 37.7955 178.652 37.3125 178.652 36.7443C178.652 36.1856 178.75 35.6991 178.947 35.2848C179.143 34.8681 179.417 34.5462 179.767 34.3189C180.117 34.0893 180.522 33.9744 180.982 33.9744C181.337 33.9744 181.618 34.0336 181.827 34.152C182.037 34.268 182.198 34.4006 182.31 34.5497C182.423 34.6965 182.511 34.8172 182.572 34.9119H182.658V34.0455H183.467V39.6562C183.467 40.125 183.361 40.5062 183.148 40.7997C182.937 41.0956 182.653 41.3123 182.295 41.4496C181.94 41.5893 181.545 41.6591 181.109 41.6591ZM181.081 38.6619C181.417 38.6619 181.701 38.585 181.933 38.4311C182.165 38.2772 182.342 38.0559 182.462 37.767C182.583 37.4782 182.643 37.1326 182.643 36.7301C182.643 36.3371 182.584 35.9903 182.466 35.6896C182.348 35.389 182.172 35.1534 181.94 34.983C181.708 34.8125 181.422 34.7273 181.081 34.7273C180.726 34.7273 180.43 34.8172 180.193 34.9972C179.959 35.1771 179.782 35.4186 179.664 35.7216C179.548 36.0246 179.49 36.3608 179.49 36.7301C179.49 37.1089 179.549 37.4439 179.668 37.7351C179.788 38.0239 179.966 38.2512 180.2 38.4169C180.437 38.5803 180.731 38.6619 181.081 38.6619ZM188.808 32.2273V39.5H187.928V32.2273H188.808ZM191.298 36.2188V39.5H190.46V34.0455H191.27V34.8977H191.341C191.469 34.6207 191.663 34.3982 191.923 34.2301C192.184 34.0597 192.52 33.9744 192.932 33.9744C193.301 33.9744 193.624 34.0502 193.901 34.2017C194.178 34.3509 194.394 34.5781 194.548 34.8835C194.702 35.1866 194.779 35.5701 194.779 36.0341V39.5H193.941V36.0909C193.941 35.6624 193.829 35.3286 193.607 35.0895C193.384 34.848 193.079 34.7273 192.691 34.7273C192.423 34.7273 192.184 34.7853 191.973 34.9013C191.765 35.0173 191.6 35.1866 191.48 35.4091C191.359 35.6316 191.298 35.9015 191.298 36.2188ZM200.174 35.267L199.421 35.4801C199.373 35.3546 199.304 35.2327 199.211 35.1143C199.121 34.9936 198.998 34.8942 198.842 34.8161C198.686 34.7379 198.486 34.6989 198.242 34.6989C197.908 34.6989 197.63 34.7758 197.407 34.9297C197.187 35.0812 197.077 35.2741 197.077 35.5085C197.077 35.7169 197.153 35.8814 197.304 36.0021C197.456 36.1229 197.693 36.2235 198.015 36.304L198.824 36.5028C199.312 36.6212 199.675 36.8023 199.914 37.0462C200.154 37.2876 200.273 37.599 200.273 37.9801C200.273 38.2926 200.183 38.572 200.003 38.8182C199.826 39.0644 199.577 39.2585 199.257 39.4006C198.938 39.5426 198.566 39.6136 198.142 39.6136C197.586 39.6136 197.126 39.4929 196.761 39.2514C196.396 39.0099 196.166 38.6572 196.069 38.1932L196.864 37.9943C196.94 38.2879 197.083 38.508 197.294 38.6548C197.507 38.8016 197.785 38.875 198.128 38.875C198.519 38.875 198.829 38.7921 199.059 38.6264C199.291 38.4583 199.407 38.2571 199.407 38.0227C199.407 37.8333 199.34 37.6747 199.208 37.5469C199.075 37.4167 198.872 37.3196 198.597 37.2557L197.688 37.0426C197.188 36.9242 196.821 36.7408 196.587 36.4922C196.355 36.2412 196.239 35.9276 196.239 35.5511C196.239 35.2434 196.325 34.9711 196.498 34.7344C196.673 34.4976 196.911 34.3118 197.212 34.1768C197.515 34.0419 197.858 33.9744 198.242 33.9744C198.782 33.9744 199.205 34.0928 199.513 34.3295C199.823 34.5663 200.043 34.8788 200.174 35.267ZM203.907 34.0455V34.7557H201.08V34.0455H203.907ZM201.904 32.7386H202.742V37.9375C202.742 38.1742 202.776 38.3518 202.845 38.4702C202.916 38.5862 203.006 38.6643 203.115 38.7045C203.226 38.7424 203.343 38.7614 203.466 38.7614C203.559 38.7614 203.635 38.7566 203.694 38.7472C203.753 38.7353 203.8 38.7259 203.836 38.7188L204.006 39.4716C203.949 39.4929 203.87 39.5142 203.768 39.5355C203.666 39.5592 203.537 39.571 203.381 39.571C203.144 39.571 202.912 39.5201 202.685 39.4183C202.46 39.3165 202.273 39.1615 202.124 38.9531C201.977 38.7448 201.904 38.482 201.904 38.1648V32.7386ZM205.167 39.5V34.0455H206.006V39.5H205.167ZM205.594 33.1364C205.43 33.1364 205.289 33.0807 205.171 32.9695C205.055 32.8582 204.997 32.7244 204.997 32.5682C204.997 32.4119 205.055 32.2782 205.171 32.1669C205.289 32.0556 205.43 32 205.594 32C205.757 32 205.897 32.0556 206.013 32.1669C206.131 32.2782 206.19 32.4119 206.19 32.5682C206.19 32.7244 206.131 32.8582 206.013 32.9695C205.897 33.0807 205.757 33.1364 205.594 33.1364ZM209.913 34.0455V34.7557H207.086V34.0455H209.913ZM207.91 32.7386H208.748V37.9375C208.748 38.1742 208.782 38.3518 208.851 38.4702C208.922 38.5862 209.012 38.6643 209.121 38.7045C209.232 38.7424 209.349 38.7614 209.472 38.7614C209.565 38.7614 209.64 38.7566 209.7 38.7472C209.759 38.7353 209.806 38.7259 209.842 38.7188L210.012 39.4716C209.955 39.4929 209.876 39.5142 209.774 39.5355C209.672 39.5592 209.543 39.571 209.387 39.571C209.15 39.571 208.918 39.5201 208.691 39.4183C208.466 39.3165 208.279 39.1615 208.13 38.9531C207.983 38.7448 207.91 38.482 207.91 38.1648V32.7386ZM214.611 37.2699V34.0455H215.449V39.5H214.611V38.5767H214.554C214.426 38.8537 214.227 39.0893 213.957 39.2834C213.688 39.4751 213.347 39.571 212.935 39.571C212.594 39.571 212.291 39.4964 212.026 39.3473C211.76 39.1958 211.552 38.9685 211.401 38.6655C211.249 38.3601 211.173 37.9754 211.173 37.5114V34.0455H212.011V37.4545C212.011 37.8523 212.123 38.1695 212.345 38.4062C212.57 38.643 212.857 38.7614 213.205 38.7614C213.413 38.7614 213.625 38.7081 213.84 38.6016C214.058 38.495 214.24 38.3317 214.387 38.1115C214.536 37.8913 214.611 37.6108 214.611 37.2699ZM219.356 34.0455V34.7557H216.529V34.0455H219.356ZM217.353 32.7386H218.191V37.9375C218.191 38.1742 218.226 38.3518 218.294 38.4702C218.365 38.5862 218.455 38.6643 218.564 38.7045C218.675 38.7424 218.793 38.7614 218.916 38.7614C219.008 38.7614 219.084 38.7566 219.143 38.7472C219.202 38.7353 219.249 38.7259 219.285 38.7188L219.455 39.4716C219.399 39.4929 219.319 39.5142 219.218 39.5355C219.116 39.5592 218.987 39.571 218.83 39.571C218.594 39.571 218.362 39.5201 218.134 39.4183C217.91 39.3165 217.722 39.1615 217.573 38.9531C217.427 38.7448 217.353 38.482 217.353 38.1648V32.7386ZM220.617 39.5V34.0455H221.455V39.5H220.617ZM221.043 33.1364C220.879 33.1364 220.739 33.0807 220.62 32.9695C220.504 32.8582 220.446 32.7244 220.446 32.5682C220.446 32.4119 220.504 32.2782 220.62 32.1669C220.739 32.0556 220.879 32 221.043 32C221.206 32 221.346 32.0556 221.462 32.1669C221.58 32.2782 221.639 32.4119 221.639 32.5682C221.639 32.7244 221.58 32.8582 221.462 32.9695C221.346 33.0807 221.206 33.1364 221.043 33.1364ZM225.206 39.6136C224.713 39.6136 224.281 39.4964 223.909 39.2621C223.54 39.0277 223.251 38.6998 223.043 38.2784C222.837 37.857 222.734 37.3646 222.734 36.8011C222.734 36.233 222.837 35.737 223.043 35.3132C223.251 34.8894 223.54 34.5604 223.909 34.326C224.281 34.0916 224.713 33.9744 225.206 33.9744C225.698 33.9744 226.129 34.0916 226.498 34.326C226.87 34.5604 227.159 34.8894 227.365 35.3132C227.573 35.737 227.677 36.233 227.677 36.8011C227.677 37.3646 227.573 37.857 227.365 38.2784C227.159 38.6998 226.87 39.0277 226.498 39.2621C226.129 39.4964 225.698 39.6136 225.206 39.6136ZM225.206 38.8608C225.58 38.8608 225.887 38.7649 226.129 38.5732C226.37 38.3814 226.549 38.1293 226.665 37.8168C226.781 37.5043 226.839 37.1657 226.839 36.8011C226.839 36.4366 226.781 36.0968 226.665 35.782C226.549 35.4671 226.37 35.2126 226.129 35.0185C225.887 34.8243 225.58 34.7273 225.206 34.7273C224.832 34.7273 224.524 34.8243 224.282 35.0185C224.041 35.2126 223.862 35.4671 223.746 35.782C223.63 36.0968 223.572 36.4366 223.572 36.8011C223.572 37.1657 223.63 37.5043 223.746 37.8168C223.862 38.1293 224.041 38.3814 224.282 38.5732C224.524 38.7649 224.832 38.8608 225.206 38.8608ZM229.795 36.2188V39.5H228.956V34.0455H229.766V34.8977H229.837C229.965 34.6207 230.159 34.3982 230.42 34.2301C230.68 34.0597 231.016 33.9744 231.428 33.9744C231.797 33.9744 232.121 34.0502 232.398 34.2017C232.675 34.3509 232.89 34.5781 233.044 34.8835C233.198 35.1866 233.275 35.5701 233.275 36.0341V39.5H232.437V36.0909C232.437 35.6624 232.325 35.3286 232.103 35.0895C231.88 34.848 231.575 34.7273 231.187 34.7273C230.919 34.7273 230.68 34.7853 230.469 34.9013C230.261 35.0173 230.096 35.1866 229.976 35.4091C229.855 35.6316 229.795 35.9015 229.795 36.2188Z" fill="black"/>
</svg>
