<svg width="233" height="71" viewBox="0 0 233 71" fill="none" xmlns="http://www.w3.org/2000/svg">
<path d="M1.91 20V5.54H6.8C7.83333 5.54 8.75333 5.71333 9.56 6.06C10.3667 6.40667 11 6.92 11.46 7.6C11.9267 8.28 12.16 9.11667 12.16 10.11C12.16 11.07 11.9433 11.89 11.51 12.57C11.0833 13.25 10.4867 13.7667 9.72 14.12C8.95333 14.4733 8.06333 14.65 7.05 14.65H3.81V20H1.91ZM3.8 13.09H7.01C8.00333 13.09 8.81 12.8133 9.43 12.26C10.05 11.7067 10.36 10.9533 10.36 10C10.36 9.04 10.04 8.31333 9.4 7.82C8.76 7.32667 7.93333 7.08 6.92 7.08H3.8V13.09ZM14.2644 20V9.66H16.0244V11.65C16.1977 11.1567 16.441 10.75 16.7544 10.43C17.0677 10.1033 17.4244 9.86 17.8244 9.7C18.231 9.54 18.651 9.46 19.0844 9.46C19.2377 9.46 19.3877 9.47 19.5344 9.49C19.681 9.51 19.7944 9.54333 19.8744 9.59V11.38C19.7744 11.3333 19.6444 11.3033 19.4844 11.29C19.331 11.27 19.201 11.26 19.0944 11.26C18.681 11.2333 18.2944 11.26 17.9344 11.34C17.5744 11.4133 17.2577 11.5433 16.9844 11.73C16.711 11.9167 16.4944 12.1633 16.3344 12.47C16.181 12.77 16.1044 13.1367 16.1044 13.57V20H14.2644ZM26.0606 20.2C25.1073 20.2 24.274 19.9967 23.5606 19.59C22.854 19.1767 22.304 18.5733 21.9106 17.78C21.5173 16.9867 21.3206 16.0167 21.3206 14.87C21.3206 13.79 21.504 12.8433 21.8706 12.03C22.2373 11.2167 22.774 10.5867 23.4806 10.14C24.1873 9.68667 25.0506 9.46 26.0706 9.46C27.024 9.46 27.8506 9.67 28.5506 10.09C29.2506 10.5033 29.794 11.1133 30.1806 11.92C30.574 12.7267 30.7706 13.71 30.7706 14.87C30.7706 15.9233 30.5906 16.85 30.2306 17.65C29.8706 18.45 29.3406 19.0767 28.6406 19.53C27.9473 19.9767 27.0873 20.2 26.0606 20.2ZM26.0706 18.74C26.684 18.74 27.204 18.5833 27.6306 18.27C28.0573 17.9567 28.3806 17.5067 28.6006 16.92C28.8273 16.3333 28.9406 15.6367 28.9406 14.83C28.9406 14.09 28.8406 13.4267 28.6406 12.84C28.4473 12.2467 28.1406 11.7767 27.7206 11.43C27.3006 11.0833 26.7506 10.91 26.0706 10.91C25.444 10.91 24.914 11.0667 24.4806 11.38C24.0473 11.6867 23.7173 12.1333 23.4906 12.72C23.2706 13.3067 23.1606 14.01 23.1606 14.83C23.1606 15.5567 23.2573 16.2167 23.4506 16.81C23.6506 17.4033 23.964 17.8733 24.3906 18.22C24.824 18.5667 25.384 18.74 26.0706 18.74ZM35.7139 20L31.9739 9.66H33.7139L36.4639 17.68H36.6339L39.3939 9.66H41.1239L37.4039 20H35.7139ZM43.1816 20V9.66H44.9716V20H43.1816ZM43.1316 7.47V5.55H45.0216V7.47H43.1316ZM51.843 20.2C50.4963 20.2 49.4296 19.74 48.643 18.82C47.863 17.9 47.473 16.5567 47.473 14.79C47.473 13.7167 47.6296 12.78 47.943 11.98C48.2563 11.18 48.7263 10.56 49.353 10.12C49.9796 9.68 50.7596 9.46 51.693 9.46C52.193 9.46 52.633 9.52333 53.013 9.65C53.393 9.77667 53.723 9.93667 54.003 10.13C54.283 10.3233 54.5096 10.5233 54.683 10.73C54.863 10.9367 54.9963 11.1267 55.083 11.3V5.14H56.953V20H55.533L55.333 17.88C55.2663 18.08 55.1596 18.3133 55.013 18.58C54.8663 18.84 54.6596 19.0967 54.393 19.35C54.133 19.5967 53.793 19.8 53.373 19.96C52.953 20.12 52.443 20.2 51.843 20.2ZM52.173 18.78C53.213 18.78 53.9563 18.4633 54.403 17.83C54.8563 17.19 55.083 16.1467 55.083 14.7C55.0763 13.8933 54.9763 13.2067 54.783 12.64C54.5896 12.0733 54.283 11.6433 53.863 11.35C53.4496 11.05 52.8963 10.9 52.203 10.9C51.3563 10.9 50.6663 11.2033 50.133 11.81C49.5996 12.4167 49.333 13.38 49.333 14.7C49.333 15.9933 49.573 16.9967 50.053 17.71C50.533 18.4233 51.2396 18.78 52.173 18.78ZM64.3766 20.2C63.4166 20.2 62.5699 19.99 61.8366 19.57C61.1032 19.15 60.5299 18.5467 60.1166 17.76C59.7032 16.9733 59.4966 16.03 59.4966 14.93C59.4966 13.8433 59.6832 12.89 60.0566 12.07C60.4299 11.25 60.9699 10.61 61.6766 10.15C62.3899 9.69 63.2466 9.46 64.2466 9.46C65.2199 9.46 66.0432 9.67 66.7166 10.09C67.3899 10.51 67.8999 11.1033 68.2466 11.87C68.5999 12.63 68.7766 13.5333 68.7766 14.58V15.26H61.3666C61.3666 15.9133 61.4732 16.5067 61.6866 17.04C61.9066 17.5667 62.2366 17.9867 62.6766 18.3C63.1166 18.6133 63.6732 18.77 64.3466 18.77C65.0066 18.77 65.5732 18.6167 66.0466 18.31C66.5266 18.0033 66.8332 17.56 66.9666 16.98H68.7066C68.5866 17.68 68.3066 18.27 67.8666 18.75C67.4332 19.23 66.9099 19.5933 66.2966 19.84C65.6899 20.08 65.0499 20.2 64.3766 20.2ZM61.3766 14.01H66.9966C66.9966 13.4167 66.8966 12.8833 66.6966 12.41C66.4966 11.93 66.1899 11.5533 65.7766 11.28C65.3699 11 64.8566 10.86 64.2366 10.86C63.5899 10.86 63.0532 11.0167 62.6266 11.33C62.1999 11.6367 61.8832 12.0333 61.6766 12.52C61.4699 13 61.3699 13.4967 61.3766 14.01ZM75.1047 20.2C73.758 20.2 72.6914 19.74 71.9047 18.82C71.1247 17.9 70.7347 16.5567 70.7347 14.79C70.7347 13.7167 70.8914 12.78 71.2047 11.98C71.518 11.18 71.988 10.56 72.6147 10.12C73.2414 9.68 74.0214 9.46 74.9547 9.46C75.4547 9.46 75.8947 9.52333 76.2747 9.65C76.6547 9.77667 76.9847 9.93667 77.2647 10.13C77.5447 10.3233 77.7714 10.5233 77.9447 10.73C78.1247 10.9367 78.258 11.1267 78.3447 11.3V5.14H80.2147V20H78.7947L78.5947 17.88C78.528 18.08 78.4214 18.3133 78.2747 18.58C78.128 18.84 77.9214 19.0967 77.6547 19.35C77.3947 19.5967 77.0547 19.8 76.6347 19.96C76.2147 20.12 75.7047 20.2 75.1047 20.2ZM75.4347 18.78C76.4747 18.78 77.218 18.4633 77.6647 17.83C78.118 17.19 78.3447 16.1467 78.3447 14.7C78.338 13.8933 78.238 13.2067 78.0447 12.64C77.8514 12.0733 77.5447 11.6433 77.1247 11.35C76.7114 11.05 76.158 10.9 75.4647 10.9C74.618 10.9 73.928 11.2033 73.3947 11.81C72.8614 12.4167 72.5947 13.38 72.5947 14.7C72.5947 15.9933 72.8347 16.9967 73.3147 17.71C73.7947 18.4233 74.5014 18.78 75.4347 18.78ZM88.5116 20V5.54H93.1616C94.9216 5.54 96.2516 5.86333 97.1516 6.51C98.0582 7.15667 98.5116 8.09 98.5116 9.31C98.5116 10.0767 98.3116 10.7333 97.9116 11.28C97.5182 11.8267 96.8249 12.2767 95.8316 12.63C96.3982 12.75 96.8749 12.9233 97.2616 13.15C97.6549 13.3767 97.9682 13.6433 98.2016 13.95C98.4416 14.25 98.6116 14.5833 98.7116 14.95C98.8182 15.3167 98.8716 15.7033 98.8716 16.11C98.8716 17.4167 98.4049 18.3933 97.4716 19.04C96.5449 19.68 95.1582 20 93.3116 20H88.5116ZM90.3616 18.46H93.2916C94.4982 18.46 95.4149 18.2633 96.0416 17.87C96.6749 17.47 96.9916 16.8567 96.9916 16.03C96.9916 15.4233 96.8349 14.9333 96.5216 14.56C96.2149 14.18 95.7982 13.9033 95.2716 13.73C94.7449 13.5567 94.1582 13.47 93.5116 13.47H90.3616V18.46ZM90.3616 11.9H93.5116C93.8916 11.9 94.2682 11.8633 94.6416 11.79C95.0149 11.7167 95.3582 11.59 95.6716 11.41C95.9849 11.23 96.2382 10.99 96.4316 10.69C96.6249 10.3833 96.7216 10 96.7216 9.54C96.7216 8.7 96.3982 8.08 95.7516 7.68C95.1116 7.27333 94.2782 7.07 93.2516 7.07H90.3616V11.9ZM102.521 23.3C101.914 23.3 101.498 23.2567 101.271 23.17C101.044 23.0833 100.931 23.04 100.931 23.04V21.84L101.991 21.86C102.371 21.8733 102.688 21.8467 102.941 21.78C103.194 21.7133 103.398 21.6233 103.551 21.51C103.704 21.3967 103.821 21.27 103.901 21.13C103.988 20.99 104.058 20.8567 104.111 20.73L104.471 19.75L100.431 9.66H102.301L105.351 17.64L108.381 9.66H110.191L105.841 20.78C105.568 21.4333 105.264 21.9433 104.931 22.31C104.604 22.6767 104.238 22.9333 103.831 23.08C103.431 23.2267 102.994 23.3 102.521 23.3ZM111.764 12.42V10.07H113.974V12.42H111.764ZM111.764 19.94V17.61H113.974V19.94H111.764Z" fill="#606060"/>
<path d="M38.1477 48V36.3636H45.7159V38.1307H40.2557V41.2898H45.3239V43.0568H40.2557V46.233H45.7614V48H38.1477ZM53.3381 44.3295V39.2727H55.3949V48H53.4006V46.4489H53.3097C53.1127 46.9375 52.7888 47.3371 52.3381 47.6477C51.8911 47.9583 51.34 48.1136 50.6847 48.1136C50.1127 48.1136 49.607 47.9867 49.1676 47.733C48.732 47.4754 48.3911 47.1023 48.1449 46.6136C47.8987 46.1212 47.7756 45.5265 47.7756 44.8295V39.2727H49.8324V44.5114C49.8324 45.0644 49.9839 45.5038 50.2869 45.8295C50.59 46.1553 50.9877 46.3182 51.4801 46.3182C51.7831 46.3182 52.0767 46.2443 52.3608 46.0966C52.6449 45.9489 52.8778 45.7292 53.0597 45.4375C53.2453 45.142 53.3381 44.7727 53.3381 44.3295ZM57.5099 48V39.2727H59.5043V40.7273H59.5952C59.7543 40.2235 60.027 39.8352 60.4134 39.5625C60.8035 39.286 61.2486 39.1477 61.7486 39.1477C61.8622 39.1477 61.9891 39.1534 62.1293 39.1648C62.2732 39.1723 62.3925 39.1856 62.4872 39.2045V41.0966C62.4001 41.0663 62.2618 41.0398 62.0724 41.017C61.8868 40.9905 61.7069 40.9773 61.5327 40.9773C61.1577 40.9773 60.8205 41.0587 60.5213 41.2216C60.2259 41.3807 59.9929 41.6023 59.8224 41.8864C59.652 42.1705 59.5668 42.4981 59.5668 42.8693V48H57.5099ZM67.3011 48.1705C66.4489 48.1705 65.7102 47.983 65.0852 47.608C64.4602 47.233 63.9754 46.7083 63.6307 46.0341C63.2898 45.3598 63.1193 44.572 63.1193 43.6705C63.1193 42.7689 63.2898 41.9792 63.6307 41.3011C63.9754 40.6231 64.4602 40.0966 65.0852 39.7216C65.7102 39.3466 66.4489 39.1591 67.3011 39.1591C68.1534 39.1591 68.892 39.3466 69.517 39.7216C70.142 40.0966 70.625 40.6231 70.9659 41.3011C71.3106 41.9792 71.483 42.7689 71.483 43.6705C71.483 44.572 71.3106 45.3598 70.9659 46.0341C70.625 46.7083 70.142 47.233 69.517 47.608C68.892 47.983 68.1534 48.1705 67.3011 48.1705ZM67.3125 46.5227C67.7746 46.5227 68.161 46.3958 68.4716 46.142C68.7822 45.8845 69.0133 45.5398 69.1648 45.108C69.3201 44.6761 69.3977 44.1951 69.3977 43.6648C69.3977 43.1307 69.3201 42.6477 69.1648 42.2159C69.0133 41.7803 68.7822 41.4337 68.4716 41.1761C68.161 40.9186 67.7746 40.7898 67.3125 40.7898C66.839 40.7898 66.4451 40.9186 66.1307 41.1761C65.8201 41.4337 65.5871 41.7803 65.4318 42.2159C65.2803 42.6477 65.2045 43.1307 65.2045 43.6648C65.2045 44.1951 65.2803 44.6761 65.4318 45.108C65.5871 45.5398 65.8201 45.8845 66.1307 46.142C66.4451 46.3958 66.839 46.5227 67.3125 46.5227ZM77.6548 44.0909H79.5639L80.6946 45.5568L81.5014 46.5114L83.4389 49H81.3935L80.0753 47.3295L79.5128 46.5341L77.6548 44.0909ZM83.7173 42.1818C83.7173 43.4356 83.4825 44.5095 83.0128 45.4034C82.5469 46.2936 81.9105 46.9754 81.1037 47.4489C80.3007 47.9223 79.3897 48.1591 78.3707 48.1591C77.3518 48.1591 76.4389 47.9223 75.6321 47.4489C74.8291 46.9716 74.1927 46.2879 73.723 45.3977C73.2571 44.5038 73.0241 43.4318 73.0241 42.1818C73.0241 40.928 73.2571 39.8561 73.723 38.9659C74.1927 38.072 74.8291 37.3883 75.6321 36.9148C76.4389 36.4413 77.3518 36.2045 78.3707 36.2045C79.3897 36.2045 80.3007 36.4413 81.1037 36.9148C81.9105 37.3883 82.5469 38.072 83.0128 38.9659C83.4825 39.8561 83.7173 40.928 83.7173 42.1818ZM81.598 42.1818C81.598 41.2992 81.4598 40.5549 81.1832 39.9489C80.9105 39.339 80.5317 38.8788 80.0469 38.5682C79.562 38.2538 79.0033 38.0966 78.3707 38.0966C77.7382 38.0966 77.1795 38.2538 76.6946 38.5682C76.2098 38.8788 75.8291 39.339 75.5526 39.9489C75.2798 40.5549 75.1435 41.2992 75.1435 42.1818C75.1435 43.0644 75.2798 43.8106 75.5526 44.4205C75.8291 45.0265 76.2098 45.4867 76.6946 45.8011C77.1795 46.1117 77.7382 46.267 78.3707 46.267C79.0033 46.267 79.562 46.1117 80.0469 45.8011C80.5317 45.4867 80.9105 45.0265 81.1832 44.4205C81.4598 43.8106 81.598 43.0644 81.598 42.1818ZM91.1974 44.3295V39.2727H93.2543V48H91.2599V46.4489H91.169C90.9721 46.9375 90.6482 47.3371 90.1974 47.6477C89.7505 47.9583 89.1993 48.1136 88.544 48.1136C87.9721 48.1136 87.4664 47.9867 87.027 47.733C86.5914 47.4754 86.2505 47.1023 86.0043 46.6136C85.758 46.1212 85.6349 45.5265 85.6349 44.8295V39.2727H87.6918V44.5114C87.6918 45.0644 87.8433 45.5038 88.1463 45.8295C88.4493 46.1553 88.8471 46.3182 89.3395 46.3182C89.6425 46.3182 89.9361 46.2443 90.2202 46.0966C90.5043 45.9489 90.7372 45.7292 90.919 45.4375C91.1046 45.142 91.1974 44.7727 91.1974 44.3295ZM99.233 48.1705C98.358 48.1705 97.6023 47.9886 96.9659 47.625C96.3333 47.2576 95.8466 46.7386 95.5057 46.0682C95.1648 45.3939 94.9943 44.6004 94.9943 43.6875C94.9943 42.7898 95.1648 42.0019 95.5057 41.3239C95.8504 40.642 96.3314 40.1117 96.9489 39.733C97.5663 39.3504 98.2917 39.1591 99.125 39.1591C99.6629 39.1591 100.17 39.2462 100.648 39.4205C101.129 39.5909 101.553 39.8561 101.92 40.2159C102.292 40.5758 102.583 41.0341 102.795 41.5909C103.008 42.1439 103.114 42.803 103.114 43.5682V44.1989H95.9602V42.8125H101.142C101.138 42.4186 101.053 42.0682 100.886 41.7614C100.72 41.4508 100.487 41.2064 100.188 41.0284C99.892 40.8504 99.5473 40.7614 99.1534 40.7614C98.733 40.7614 98.3636 40.8636 98.0455 41.0682C97.7273 41.2689 97.4792 41.5341 97.3011 41.8636C97.1269 42.1894 97.0379 42.5473 97.0341 42.9375V44.1477C97.0341 44.6553 97.1269 45.0909 97.3125 45.4545C97.4981 45.8144 97.7576 46.0909 98.0909 46.2841C98.4242 46.4735 98.8144 46.5682 99.2614 46.5682C99.5606 46.5682 99.8314 46.5265 100.074 46.4432C100.316 46.3561 100.527 46.2292 100.705 46.0625C100.883 45.8958 101.017 45.6894 101.108 45.4432L103.028 45.6591C102.907 46.1667 102.676 46.6098 102.335 46.9886C101.998 47.3636 101.566 47.6553 101.04 47.8636C100.513 48.0682 99.911 48.1705 99.233 48.1705ZM111.751 41.5795L109.876 41.7841C109.823 41.5947 109.731 41.4167 109.598 41.25C109.469 41.0833 109.295 40.9489 109.075 40.8466C108.856 40.7443 108.587 40.6932 108.268 40.6932C107.84 40.6932 107.481 40.786 107.189 40.9716C106.901 41.1572 106.759 41.3977 106.763 41.6932C106.759 41.947 106.852 42.1534 107.041 42.3125C107.234 42.4716 107.553 42.6023 107.996 42.7045L109.484 43.0227C110.31 43.2008 110.924 43.483 111.325 43.8693C111.731 44.2557 111.935 44.7614 111.939 45.3864C111.935 45.9356 111.774 46.4205 111.456 46.8409C111.142 47.2576 110.704 47.5833 110.143 47.8182C109.583 48.053 108.939 48.1705 108.212 48.1705C107.143 48.1705 106.284 47.947 105.632 47.5C104.981 47.0492 104.592 46.4223 104.467 45.6193L106.473 45.4261C106.564 45.8201 106.757 46.1174 107.053 46.3182C107.348 46.5189 107.732 46.6193 108.206 46.6193C108.695 46.6193 109.087 46.5189 109.382 46.3182C109.681 46.1174 109.831 45.8693 109.831 45.5739C109.831 45.3239 109.734 45.1174 109.541 44.9545C109.352 44.7917 109.056 44.6667 108.655 44.5795L107.166 44.267C106.329 44.0928 105.71 43.7992 105.308 43.3864C104.907 42.9697 104.708 42.4432 104.712 41.8068C104.708 41.2689 104.854 40.803 105.149 40.4091C105.448 40.0114 105.863 39.7045 106.393 39.4886C106.928 39.2689 107.543 39.1591 108.24 39.1591C109.263 39.1591 110.068 39.3769 110.655 39.8125C111.246 40.2481 111.611 40.8371 111.751 41.5795ZM117.993 39.2727V40.8636H112.976V39.2727H117.993ZM114.214 37.1818H116.271V45.375C116.271 45.6515 116.313 45.8636 116.396 46.0114C116.483 46.1553 116.597 46.2538 116.737 46.3068C116.877 46.3598 117.033 46.3864 117.203 46.3864C117.332 46.3864 117.449 46.3769 117.555 46.358C117.665 46.339 117.749 46.322 117.805 46.3068L118.152 47.9148C118.042 47.9527 117.885 47.9943 117.68 48.0398C117.48 48.0852 117.233 48.1117 116.942 48.1193C116.427 48.1345 115.963 48.0568 115.55 47.8864C115.137 47.7121 114.809 47.4432 114.567 47.0795C114.328 46.7159 114.211 46.2614 114.214 45.7159V37.1818ZM125.881 36.3636V48H123.773V36.3636H125.881ZM130.129 42.8864V48H128.072V39.2727H130.038V40.7557H130.141C130.341 40.267 130.661 39.8788 131.101 39.5909C131.544 39.303 132.091 39.1591 132.743 39.1591C133.345 39.1591 133.87 39.2879 134.317 39.5455C134.768 39.803 135.116 40.1761 135.362 40.6648C135.612 41.1534 135.735 41.7462 135.732 42.4432V48H133.675V42.7614C133.675 42.178 133.523 41.7216 133.22 41.392C132.921 41.0625 132.506 40.8977 131.976 40.8977C131.616 40.8977 131.296 40.9773 131.016 41.1364C130.739 41.2917 130.521 41.517 130.362 41.8125C130.207 42.108 130.129 42.4659 130.129 42.8864ZM142.18 39.2727V40.8636H137.163V39.2727H142.18ZM138.402 37.1818H140.459V45.375C140.459 45.6515 140.5 45.8636 140.584 46.0114C140.671 46.1553 140.785 46.2538 140.925 46.3068C141.065 46.3598 141.22 46.3864 141.391 46.3864C141.519 46.3864 141.637 46.3769 141.743 46.358C141.853 46.339 141.936 46.322 141.993 46.3068L142.339 47.9148C142.23 47.9527 142.072 47.9943 141.868 48.0398C141.667 48.0852 141.421 48.1117 141.129 48.1193C140.614 48.1345 140.15 48.0568 139.737 47.8864C139.324 47.7121 138.997 47.4432 138.754 47.0795C138.516 46.7159 138.398 46.2614 138.402 45.7159V37.1818ZM147.67 48.1705C146.795 48.1705 146.04 47.9886 145.403 47.625C144.771 47.2576 144.284 46.7386 143.943 46.0682C143.602 45.3939 143.432 44.6004 143.432 43.6875C143.432 42.7898 143.602 42.0019 143.943 41.3239C144.288 40.642 144.769 40.1117 145.386 39.733C146.004 39.3504 146.729 39.1591 147.562 39.1591C148.1 39.1591 148.608 39.2462 149.085 39.4205C149.566 39.5909 149.991 39.8561 150.358 40.2159C150.729 40.5758 151.021 41.0341 151.233 41.5909C151.445 42.1439 151.551 42.803 151.551 43.5682V44.1989H144.398V42.8125H149.58C149.576 42.4186 149.491 42.0682 149.324 41.7614C149.157 41.4508 148.924 41.2064 148.625 41.0284C148.33 40.8504 147.985 40.7614 147.591 40.7614C147.17 40.7614 146.801 40.8636 146.483 41.0682C146.165 41.2689 145.917 41.5341 145.739 41.8636C145.564 42.1894 145.475 42.5473 145.472 42.9375V44.1477C145.472 44.6553 145.564 45.0909 145.75 45.4545C145.936 45.8144 146.195 46.0909 146.528 46.2841C146.862 46.4735 147.252 46.5682 147.699 46.5682C147.998 46.5682 148.269 46.5265 148.511 46.4432C148.754 46.3561 148.964 46.2292 149.142 46.0625C149.32 45.8958 149.455 45.6894 149.545 45.4432L151.466 45.6591C151.345 46.1667 151.114 46.6098 150.773 46.9886C150.436 47.3636 150.004 47.6553 149.477 47.8636C148.951 48.0682 148.348 48.1705 147.67 48.1705ZM153.291 48V39.2727H155.286V40.7273H155.376C155.536 40.2235 155.808 39.8352 156.195 39.5625C156.585 39.286 157.03 39.1477 157.53 39.1477C157.643 39.1477 157.77 39.1534 157.911 39.1648C158.054 39.1723 158.174 39.1856 158.268 39.2045V41.0966C158.181 41.0663 158.043 41.0398 157.854 41.017C157.668 40.9905 157.488 40.9773 157.314 40.9773C156.939 40.9773 156.602 41.0587 156.303 41.2216C156.007 41.3807 155.774 41.6023 155.604 41.8864C155.433 42.1705 155.348 42.4981 155.348 42.8693V48H153.291ZM161.692 42.8864V48H159.635V39.2727H161.601V40.7557H161.703C161.904 40.267 162.224 39.8788 162.663 39.5909C163.107 39.303 163.654 39.1591 164.305 39.1591C164.908 39.1591 165.432 39.2879 165.879 39.5455C166.33 39.803 166.679 40.1761 166.925 40.6648C167.175 41.1534 167.298 41.7462 167.294 42.4432V48H165.237V42.7614C165.237 42.178 165.086 41.7216 164.783 41.392C164.483 41.0625 164.069 40.8977 163.538 40.8977C163.179 40.8977 162.858 40.9773 162.578 41.1364C162.302 41.2917 162.084 41.517 161.925 41.8125C161.769 42.108 161.692 42.4659 161.692 42.8864ZM171.896 48.1761C171.343 48.1761 170.845 48.0777 170.402 47.8807C169.963 47.6799 169.614 47.3845 169.357 46.9943C169.103 46.6042 168.976 46.1231 168.976 45.5511C168.976 45.0587 169.067 44.6515 169.249 44.3295C169.43 44.0076 169.679 43.75 169.993 43.5568C170.307 43.3636 170.661 43.2178 171.055 43.1193C171.453 43.017 171.864 42.9432 172.288 42.8977C172.8 42.8447 173.214 42.7973 173.533 42.7557C173.851 42.7102 174.082 42.642 174.226 42.5511C174.374 42.4564 174.447 42.3106 174.447 42.1136V42.0795C174.447 41.6515 174.321 41.3201 174.067 41.0852C173.813 40.8504 173.447 40.733 172.97 40.733C172.466 40.733 172.067 40.8428 171.771 41.0625C171.48 41.2822 171.283 41.5417 171.18 41.8409L169.26 41.5682C169.411 41.0379 169.661 40.5947 170.01 40.2386C170.358 39.8788 170.785 39.6098 171.288 39.4318C171.792 39.25 172.349 39.1591 172.959 39.1591C173.379 39.1591 173.798 39.2083 174.214 39.3068C174.631 39.4053 175.012 39.5682 175.357 39.7955C175.701 40.0189 175.978 40.3239 176.186 40.7102C176.398 41.0966 176.504 41.5795 176.504 42.1591V48H174.527V46.8011H174.459C174.334 47.0436 174.158 47.2708 173.93 47.483C173.707 47.6913 173.425 47.8598 173.084 47.9886C172.747 48.1136 172.351 48.1761 171.896 48.1761ZM172.43 46.6648C172.843 46.6648 173.201 46.5833 173.504 46.4205C173.807 46.2538 174.04 46.0341 174.203 45.7614C174.37 45.4886 174.453 45.1913 174.453 44.8693V43.8409C174.389 43.8939 174.279 43.9432 174.124 43.9886C173.972 44.0341 173.802 44.0739 173.612 44.108C173.423 44.142 173.235 44.1723 173.05 44.1989C172.864 44.2254 172.703 44.2481 172.567 44.267C172.26 44.3087 171.985 44.3769 171.743 44.4716C171.5 44.5663 171.309 44.6989 171.169 44.8693C171.029 45.036 170.959 45.2519 170.959 45.517C170.959 45.8958 171.097 46.1818 171.374 46.375C171.65 46.5682 172.002 46.6648 172.43 46.6648ZM182.93 39.2727V40.8636H177.913V39.2727H182.93ZM179.152 37.1818H181.209V45.375C181.209 45.6515 181.25 45.8636 181.334 46.0114C181.421 46.1553 181.535 46.2538 181.675 46.3068C181.815 46.3598 181.97 46.3864 182.141 46.3864C182.269 46.3864 182.387 46.3769 182.493 46.358C182.603 46.339 182.686 46.322 182.743 46.3068L183.089 47.9148C182.98 47.9527 182.822 47.9943 182.618 48.0398C182.417 48.0852 182.171 48.1117 181.879 48.1193C181.364 48.1345 180.9 48.0568 180.487 47.8864C180.074 47.7121 179.747 47.4432 179.504 47.0795C179.266 46.7159 179.148 46.2614 179.152 45.7159V37.1818ZM184.651 48V39.2727H186.707V48H184.651ZM185.685 38.0341C185.359 38.0341 185.079 37.9261 184.844 37.7102C184.609 37.4905 184.491 37.2273 184.491 36.9205C184.491 36.6098 184.609 36.3466 184.844 36.1307C185.079 35.911 185.359 35.8011 185.685 35.8011C186.014 35.8011 186.295 35.911 186.526 36.1307C186.76 36.3466 186.878 36.6098 186.878 36.9205C186.878 37.2273 186.76 37.4905 186.526 37.7102C186.295 37.9261 186.014 38.0341 185.685 38.0341ZM192.629 48.1705C191.777 48.1705 191.038 47.983 190.413 47.608C189.788 47.233 189.304 46.7083 188.959 46.0341C188.618 45.3598 188.447 44.572 188.447 43.6705C188.447 42.7689 188.618 41.9792 188.959 41.3011C189.304 40.6231 189.788 40.0966 190.413 39.7216C191.038 39.3466 191.777 39.1591 192.629 39.1591C193.482 39.1591 194.22 39.3466 194.845 39.7216C195.47 40.0966 195.953 40.6231 196.294 41.3011C196.639 41.9792 196.811 42.7689 196.811 43.6705C196.811 44.572 196.639 45.3598 196.294 46.0341C195.953 46.7083 195.47 47.233 194.845 47.608C194.22 47.983 193.482 48.1705 192.629 48.1705ZM192.641 46.5227C193.103 46.5227 193.489 46.3958 193.8 46.142C194.11 45.8845 194.341 45.5398 194.493 45.108C194.648 44.6761 194.726 44.1951 194.726 43.6648C194.726 43.1307 194.648 42.6477 194.493 42.2159C194.341 41.7803 194.11 41.4337 193.8 41.1761C193.489 40.9186 193.103 40.7898 192.641 40.7898C192.167 40.7898 191.773 40.9186 191.459 41.1761C191.148 41.4337 190.915 41.7803 190.76 42.2159C190.608 42.6477 190.533 43.1307 190.533 43.6648C190.533 44.1951 190.608 44.6761 190.76 45.108C190.915 45.5398 191.148 45.8845 191.459 46.142C191.773 46.3958 192.167 46.5227 192.641 46.5227ZM200.614 42.8864V48H198.557V39.2727H200.523V40.7557H200.625C200.826 40.267 201.146 39.8788 201.585 39.5909C202.028 39.303 202.576 39.1591 203.227 39.1591C203.83 39.1591 204.354 39.2879 204.801 39.5455C205.252 39.803 205.6 40.1761 205.847 40.6648C206.097 41.1534 206.22 41.7462 206.216 42.4432V48H204.159V42.7614C204.159 42.178 204.008 41.7216 203.705 41.392C203.405 41.0625 202.991 40.8977 202.46 40.8977C202.1 40.8977 201.78 40.9773 201.5 41.1364C201.223 41.2917 201.006 41.517 200.847 41.8125C200.691 42.108 200.614 42.4659 200.614 42.8864ZM210.818 48.1761C210.265 48.1761 209.767 48.0777 209.324 47.8807C208.884 47.6799 208.536 47.3845 208.278 46.9943C208.025 46.6042 207.898 46.1231 207.898 45.5511C207.898 45.0587 207.989 44.6515 208.17 44.3295C208.352 44.0076 208.6 43.75 208.915 43.5568C209.229 43.3636 209.583 43.2178 209.977 43.1193C210.375 43.017 210.786 42.9432 211.21 42.8977C211.722 42.8447 212.136 42.7973 212.455 42.7557C212.773 42.7102 213.004 42.642 213.148 42.5511C213.295 42.4564 213.369 42.3106 213.369 42.1136V42.0795C213.369 41.6515 213.242 41.3201 212.989 41.0852C212.735 40.8504 212.369 40.733 211.892 40.733C211.388 40.733 210.989 40.8428 210.693 41.0625C210.402 41.2822 210.205 41.5417 210.102 41.8409L208.182 41.5682C208.333 41.0379 208.583 40.5947 208.932 40.2386C209.28 39.8788 209.706 39.6098 210.21 39.4318C210.714 39.25 211.271 39.1591 211.881 39.1591C212.301 39.1591 212.72 39.2083 213.136 39.3068C213.553 39.4053 213.934 39.5682 214.278 39.7955C214.623 40.0189 214.9 40.3239 215.108 40.7102C215.32 41.0966 215.426 41.5795 215.426 42.1591V48H213.449V46.8011H213.381C213.256 47.0436 213.08 47.2708 212.852 47.483C212.629 47.6913 212.347 47.8598 212.006 47.9886C211.669 48.1136 211.273 48.1761 210.818 48.1761ZM211.352 46.6648C211.765 46.6648 212.123 46.5833 212.426 46.4205C212.729 46.2538 212.962 46.0341 213.125 45.7614C213.292 45.4886 213.375 45.1913 213.375 44.8693V43.8409C213.311 43.8939 213.201 43.9432 213.045 43.9886C212.894 44.0341 212.723 44.0739 212.534 44.108C212.345 44.142 212.157 44.1723 211.972 44.1989C211.786 44.2254 211.625 44.2481 211.489 44.267C211.182 44.3087 210.907 44.3769 210.665 44.4716C210.422 44.5663 210.231 44.6989 210.091 44.8693C209.951 45.036 209.881 45.2519 209.881 45.517C209.881 45.8958 210.019 46.1818 210.295 46.375C210.572 46.5682 210.924 46.6648 211.352 46.6648ZM219.551 36.3636V48H217.494V36.3636H219.551Z" fill="#3E5EC0"/>
<path d="M23.141 59.9199L26.03 64.4487L22.1438 66.8928L19.082 61.7044" fill="#7D8DA2"/>
<path d="M16.3984 58.9354C21.4935 58.257 25.428 53.8916 25.428 48.6083C25.428 43.3249 21.4935 38.9579 16.3984 38.2812V33.5532C24.0263 34.2595 30.0004 40.6755 30.0004 48.4869C30.0004 56.2983 24.0263 62.7081 16.3984 63.4144V58.9338V58.9354Z" fill="#3E5EC0"/>
<path d="M13.4573 58.9161C8.43219 58.1756 4.57236 53.8382 4.57236 48.6062C4.57236 43.3742 8.43219 39.0367 13.4573 38.2962V33.562C5.89942 34.3383 0 40.72 0 48.4848C0 56.2496 5.89942 62.6266 13.4573 63.4014V58.9161Z" fill="#3E5EC0"/>
<path d="M4.70708 50.3188H13.4629V45.6406H5.00734C4.46438 47.0424 4.47994 48.6432 4.70864 50.3188H4.70708Z" fill="#3E5EC0"/>
<path d="M37.8807 65V57.7273H38.7614V64.2188H42.142V65H37.8807ZM45.679 65.1136C45.1534 65.1136 44.7 64.9976 44.3189 64.7656C43.9401 64.5312 43.6477 64.2045 43.4418 63.7855C43.2382 63.3641 43.1364 62.8741 43.1364 62.3153C43.1364 61.7566 43.2382 61.2642 43.4418 60.8381C43.6477 60.4096 43.9342 60.0758 44.3011 59.8366C44.6705 59.5952 45.1013 59.4744 45.5938 59.4744C45.8778 59.4744 46.1584 59.5218 46.4354 59.6165C46.7124 59.7112 46.9645 59.8651 47.1918 60.0781C47.419 60.2888 47.6001 60.5682 47.7351 60.9162C47.87 61.2642 47.9375 61.6927 47.9375 62.2017V62.5568H43.733V61.8324H47.0852C47.0852 61.5246 47.0237 61.25 46.9006 61.0085C46.7798 60.767 46.607 60.5765 46.3821 60.4368C46.1596 60.2971 45.8968 60.2273 45.5938 60.2273C45.2599 60.2273 44.9711 60.3101 44.7273 60.4759C44.4858 60.6392 44.3 60.8523 44.1697 61.1151C44.0395 61.3778 43.9744 61.6596 43.9744 61.9602V62.4432C43.9744 62.8551 44.0455 63.2043 44.1875 63.4908C44.3319 63.7749 44.532 63.9915 44.7876 64.1406C45.0433 64.2874 45.3404 64.3608 45.679 64.3608C45.8991 64.3608 46.098 64.33 46.2756 64.2685C46.4555 64.2045 46.6106 64.1098 46.7408 63.9844C46.871 63.8565 46.9716 63.6979 47.0426 63.5085L47.8523 63.7358C47.767 64.0104 47.6238 64.2519 47.4226 64.4602C47.2214 64.6662 46.9728 64.8272 46.6768 64.9432C46.3809 65.0568 46.0483 65.1136 45.679 65.1136ZM50.8175 65.1278C50.4718 65.1278 50.1581 65.0627 49.8764 64.9325C49.5947 64.8 49.371 64.6094 49.2053 64.3608C49.0395 64.1098 48.9567 63.8068 48.9567 63.4517C48.9567 63.1392 49.0182 62.8859 49.1413 62.6918C49.2644 62.4953 49.429 62.3414 49.6349 62.2301C49.8409 62.1188 50.0682 62.036 50.3168 61.9815C50.5677 61.9247 50.8198 61.8797 51.0732 61.8466C51.4046 61.804 51.6733 61.772 51.8793 61.7507C52.0876 61.727 52.2391 61.688 52.3338 61.6335C52.4309 61.5791 52.4794 61.4844 52.4794 61.3494V61.321C52.4794 60.9706 52.3835 60.6984 52.1918 60.5043C52.0024 60.3101 51.7147 60.2131 51.3288 60.2131C50.9287 60.2131 50.6151 60.3007 50.3878 60.4759C50.1605 60.651 50.0007 60.8381 49.9084 61.0369L49.1129 60.7528C49.255 60.4214 49.4444 60.1634 49.6811 59.9787C49.9202 59.7917 50.1806 59.6615 50.4624 59.5881C50.7464 59.5123 51.0258 59.4744 51.3004 59.4744C51.4756 59.4744 51.6768 59.4957 51.9041 59.5384C52.1338 59.5786 52.3551 59.6626 52.5682 59.7905C52.7836 59.9183 52.9624 60.1113 53.1044 60.3693C53.2464 60.6274 53.3175 60.973 53.3175 61.4062V65H52.4794V64.2614H52.4368C52.38 64.3797 52.2853 64.5064 52.1527 64.6413C52.0201 64.7763 51.8438 64.8911 51.6236 64.9858C51.4034 65.0805 51.1347 65.1278 50.8175 65.1278ZM50.9453 64.375C51.2768 64.375 51.5561 64.3099 51.7834 64.1797C52.013 64.0495 52.1858 63.8814 52.3018 63.6754C52.4202 63.4695 52.4794 63.2528 52.4794 63.0256V62.2585C52.4439 62.3011 52.3658 62.3402 52.245 62.3757C52.1267 62.4089 51.9893 62.4384 51.8331 62.4645C51.6792 62.4882 51.5289 62.5095 51.3821 62.5284C51.2377 62.545 51.1205 62.5592 51.0305 62.571C50.8127 62.5994 50.6091 62.6456 50.4197 62.7095C50.2327 62.7711 50.0812 62.8646 49.9652 62.9901C49.8516 63.1132 49.7947 63.2812 49.7947 63.4943C49.7947 63.7855 49.9025 64.0057 50.1179 64.1548C50.3357 64.3016 50.6115 64.375 50.9453 64.375ZM56.9068 65.1136C56.4522 65.1136 56.051 64.9988 55.7029 64.7692C55.3549 64.5372 55.0827 64.2105 54.8862 63.7891C54.6897 63.3653 54.5914 62.8646 54.5914 62.2869C54.5914 61.714 54.6897 61.2169 54.8862 60.7955C55.0827 60.3741 55.3561 60.0485 55.7065 59.8189C56.0569 59.5893 56.4617 59.4744 56.921 59.4744C57.2761 59.4744 57.5566 59.5336 57.7626 59.652C57.9709 59.768 58.1296 59.9006 58.2385 60.0497C58.3497 60.1965 58.4361 60.3172 58.4977 60.4119H58.5687V57.7273H59.4068V65H58.5971V64.1619H58.4977C58.4361 64.2614 58.3485 64.3868 58.2349 64.5384C58.1213 64.6875 57.9591 64.8213 57.7484 64.9396C57.5377 65.0556 57.2572 65.1136 56.9068 65.1136ZM57.0204 64.3608C57.3566 64.3608 57.6407 64.2732 57.8727 64.098C58.1047 63.9205 58.2811 63.6754 58.4018 63.3629C58.5225 63.0481 58.5829 62.6847 58.5829 62.2727C58.5829 61.8655 58.5237 61.5092 58.4054 61.2038C58.287 60.8961 58.1118 60.657 57.8798 60.4865C57.6478 60.3137 57.3613 60.2273 57.0204 60.2273C56.6653 60.2273 56.3694 60.3184 56.1326 60.5007C55.8983 60.6806 55.7219 60.9257 55.6035 61.2358C55.4875 61.5436 55.4295 61.8892 55.4295 62.2727C55.4295 62.661 55.4887 63.0137 55.6071 63.331C55.7278 63.6458 55.9054 63.8968 56.1397 64.0838C56.3765 64.2685 56.67 64.3608 57.0204 64.3608ZM61.0581 65V59.5455H61.8961V65H61.0581ZM61.4842 58.6364C61.3208 58.6364 61.18 58.5807 61.0616 58.4695C60.9456 58.3582 60.8876 58.2244 60.8876 58.0682C60.8876 57.9119 60.9456 57.7782 61.0616 57.6669C61.18 57.5556 61.3208 57.5 61.4842 57.5C61.6475 57.5 61.7872 57.5556 61.9032 57.6669C62.0216 57.7782 62.0808 57.9119 62.0808 58.0682C62.0808 58.2244 62.0216 58.3582 61.9032 58.4695C61.7872 58.5807 61.6475 58.6364 61.4842 58.6364ZM64.2692 61.7188V65H63.4311V59.5455H64.2408V60.3977H64.3118C64.4396 60.1207 64.6338 59.8982 64.8942 59.7301C65.1546 59.5597 65.4908 59.4744 65.9027 59.4744C66.272 59.4744 66.5952 59.5502 66.8722 59.7017C67.1491 59.8509 67.3646 60.0781 67.5185 60.3835C67.6723 60.6866 67.7493 61.0701 67.7493 61.5341V65H66.9112V61.5909C66.9112 61.1624 66.8 60.8286 66.5774 60.5895C66.3549 60.348 66.0495 60.2273 65.6612 60.2273C65.3937 60.2273 65.1546 60.2853 64.9439 60.4013C64.7356 60.5173 64.571 60.6866 64.4503 60.9091C64.3295 61.1316 64.2692 61.4015 64.2692 61.7188ZM71.4824 67.1591C71.0776 67.1591 70.7296 67.107 70.4384 67.0028C70.1472 66.901 69.9045 66.7661 69.7104 66.598C69.5186 66.4323 69.3659 66.2547 69.2523 66.0653L69.9199 65.5966C69.9957 65.696 70.0916 65.8097 70.2076 65.9375C70.3236 66.0677 70.4822 66.1802 70.6834 66.2749C70.887 66.3719 71.1533 66.4205 71.4824 66.4205C71.9228 66.4205 72.2862 66.3139 72.5726 66.1009C72.8591 65.8878 73.0023 65.554 73.0023 65.0994V63.9915H72.9313C72.8697 64.0909 72.7821 64.214 72.6685 64.3608C72.5572 64.5052 72.3962 64.6342 72.1855 64.7479C71.9772 64.8591 71.6955 64.9148 71.3404 64.9148C70.9 64.9148 70.5047 64.8106 70.1543 64.6023C69.8063 64.3939 69.5305 64.0909 69.3269 63.6932C69.1257 63.2955 69.025 62.8125 69.025 62.2443C69.025 61.6856 69.1233 61.1991 69.3198 60.7848C69.5163 60.3681 69.7897 60.0462 70.1401 59.8189C70.4905 59.5893 70.8953 59.4744 71.3546 59.4744C71.7097 59.4744 71.9914 59.5336 72.1998 59.652C72.4105 59.768 72.5714 59.9006 72.6827 60.0497C72.7963 60.1965 72.8839 60.3172 72.9455 60.4119H73.0307V59.5455H73.8404V65.1562C73.8404 65.625 73.7338 66.0062 73.5208 66.2997C73.3101 66.5956 73.026 66.8123 72.6685 66.9496C72.3134 67.0893 71.918 67.1591 71.4824 67.1591ZM71.454 64.1619C71.7902 64.1619 72.0743 64.085 72.3063 63.9311C72.5383 63.7772 72.7147 63.5559 72.8354 63.267C72.9561 62.9782 73.0165 62.6326 73.0165 62.2301C73.0165 61.8371 72.9573 61.4903 72.839 61.1896C72.7206 60.889 72.5454 60.6534 72.3134 60.483C72.0814 60.3125 71.7949 60.2273 71.454 60.2273C71.0989 60.2273 70.803 60.3172 70.5662 60.4972C70.3319 60.6771 70.1555 60.9186 70.0371 61.2216C69.9211 61.5246 69.8631 61.8608 69.8631 62.2301C69.8631 62.6089 69.9223 62.9439 70.0407 63.2351C70.1614 63.5239 70.339 63.7512 70.5733 63.9169C70.8101 64.0803 71.1036 64.1619 71.454 64.1619ZM78.3006 65V57.7273H82.6898V58.5085H79.1813V60.9659H82.4625V61.7472H79.1813V64.2188H82.7466V65H78.3006ZM86.2232 65.1136C85.7686 65.1136 85.3674 64.9988 85.0194 64.7692C84.6713 64.5372 84.3991 64.2105 84.2026 63.7891C84.0061 63.3653 83.9078 62.8646 83.9078 62.2869C83.9078 61.714 84.0061 61.2169 84.2026 60.7955C84.3991 60.3741 84.6725 60.0485 85.0229 59.8189C85.3733 59.5893 85.7781 59.4744 86.2374 59.4744C86.5925 59.4744 86.873 59.5336 87.079 59.652C87.2873 59.768 87.446 59.9006 87.5549 60.0497C87.6661 60.1965 87.7525 60.3172 87.8141 60.4119H87.8851V57.7273H88.7232V65H87.9135V64.1619H87.8141C87.7525 64.2614 87.665 64.3868 87.5513 64.5384C87.4377 64.6875 87.2755 64.8213 87.0648 64.9396C86.8541 65.0556 86.5736 65.1136 86.2232 65.1136ZM86.3368 64.3608C86.673 64.3608 86.9571 64.2732 87.1891 64.098C87.4211 63.9205 87.5975 63.6754 87.7182 63.3629C87.839 63.0481 87.8993 62.6847 87.8993 62.2727C87.8993 61.8655 87.8401 61.5092 87.7218 61.2038C87.6034 60.8961 87.4282 60.657 87.1962 60.4865C86.9642 60.3137 86.6777 60.2273 86.3368 60.2273C85.9817 60.2273 85.6858 60.3184 85.449 60.5007C85.2147 60.6806 85.0383 60.9257 84.9199 61.2358C84.8039 61.5436 84.7459 61.8892 84.7459 62.2727C84.7459 62.661 84.8051 63.0137 84.9235 63.331C85.0442 63.6458 85.2218 63.8968 85.4561 64.0838C85.6929 64.2685 85.9864 64.3608 86.3368 64.3608ZM93.812 62.7699V59.5455H94.65V65H93.812V64.0767H93.7551C93.6273 64.3537 93.4284 64.5893 93.1586 64.7834C92.8887 64.9751 92.5478 65.071 92.1358 65.071C91.7949 65.071 91.4919 64.9964 91.2267 64.8473C90.9616 64.6958 90.7533 64.4685 90.6017 64.1655C90.4502 63.8601 90.3745 63.4754 90.3745 63.0114V59.5455H91.2125V62.9545C91.2125 63.3523 91.3238 63.6695 91.5463 63.9062C91.7712 64.143 92.0577 64.2614 92.4057 64.2614C92.6141 64.2614 92.8259 64.2081 93.0414 64.1016C93.2592 63.995 93.4415 63.8317 93.5882 63.6115C93.7374 63.3913 93.812 63.1108 93.812 62.7699ZM98.4009 65.1136C97.8896 65.1136 97.4492 64.9929 97.0799 64.7514C96.7106 64.5099 96.4265 64.1773 96.2276 63.7536C96.0288 63.3298 95.9293 62.8456 95.9293 62.3011C95.9293 61.7472 96.0311 61.2583 96.2347 60.8345C96.4407 60.4084 96.7272 60.0758 97.0941 59.8366C97.4634 59.5952 97.8943 59.4744 98.3867 59.4744C98.7702 59.4744 99.1159 59.5455 99.4237 59.6875C99.7314 59.8295 99.9835 60.0284 100.18 60.2841C100.377 60.5398 100.498 60.8381 100.546 61.179H99.7077C99.6438 60.9304 99.5018 60.7102 99.2816 60.5185C99.0638 60.3243 98.7702 60.2273 98.4009 60.2273C98.0742 60.2273 97.7878 60.3125 97.5415 60.483C97.2977 60.651 97.1071 60.889 96.9698 61.1967C96.8349 61.5021 96.7674 61.8608 96.7674 62.2727C96.7674 62.6941 96.8337 63.0611 96.9663 63.3736C97.1012 63.6861 97.2906 63.9287 97.5344 64.1016C97.7807 64.2744 98.0695 64.3608 98.4009 64.3608C98.6187 64.3608 98.8164 64.3229 98.994 64.2472C99.1715 64.1714 99.3219 64.0625 99.445 63.9205C99.5681 63.7784 99.6557 63.608 99.7077 63.4091H100.546C100.498 63.7311 100.381 64.0211 100.194 64.2791C100.01 64.5348 99.7646 64.7384 99.4592 64.8899C99.1561 65.0391 98.8034 65.1136 98.4009 65.1136ZM103.376 65.1278C103.03 65.1278 102.717 65.0627 102.435 64.9325C102.153 64.8 101.93 64.6094 101.764 64.3608C101.598 64.1098 101.515 63.8068 101.515 63.4517C101.515 63.1392 101.577 62.8859 101.7 62.6918C101.823 62.4953 101.988 62.3414 102.194 62.2301C102.4 62.1188 102.627 62.036 102.875 61.9815C103.126 61.9247 103.378 61.8797 103.632 61.8466C103.963 61.804 104.232 61.772 104.438 61.7507C104.646 61.727 104.798 61.688 104.892 61.6335C104.989 61.5791 105.038 61.4844 105.038 61.3494V61.321C105.038 60.9706 104.942 60.6984 104.75 60.5043C104.561 60.3101 104.273 60.2131 103.887 60.2131C103.487 60.2131 103.174 60.3007 102.946 60.4759C102.719 60.651 102.559 60.8381 102.467 61.0369L101.672 60.7528C101.814 60.4214 102.003 60.1634 102.24 59.9787C102.479 59.7917 102.739 59.6615 103.021 59.5881C103.305 59.5123 103.584 59.4744 103.859 59.4744C104.034 59.4744 104.235 59.4957 104.463 59.5384C104.692 59.5786 104.914 59.6626 105.127 59.7905C105.342 59.9183 105.521 60.1113 105.663 60.3693C105.805 60.6274 105.876 60.973 105.876 61.4062V65H105.038V64.2614H104.995C104.939 64.3797 104.844 64.5064 104.711 64.6413C104.579 64.7763 104.402 64.8911 104.182 64.9858C103.962 65.0805 103.693 65.1278 103.376 65.1278ZM103.504 64.375C103.835 64.375 104.115 64.3099 104.342 64.1797C104.572 64.0495 104.744 63.8814 104.86 63.6754C104.979 63.4695 105.038 63.2528 105.038 63.0256V62.2585C105.002 62.3011 104.924 62.3402 104.804 62.3757C104.685 62.4089 104.548 62.4384 104.392 62.4645C104.238 62.4882 104.087 62.5095 103.941 62.5284C103.796 62.545 103.679 62.5592 103.589 62.571C103.371 62.5994 103.168 62.6456 102.978 62.7095C102.791 62.7711 102.64 62.8646 102.524 62.9901C102.41 63.1132 102.353 63.2812 102.353 63.4943C102.353 63.7855 102.461 64.0057 102.676 64.1548C102.894 64.3016 103.17 64.375 103.504 64.375ZM109.778 59.5455V60.2557H106.951V59.5455H109.778ZM107.775 58.2386H108.613V63.4375C108.613 63.6742 108.647 63.8518 108.716 63.9702C108.787 64.0862 108.877 64.1643 108.986 64.2045C109.097 64.2424 109.214 64.2614 109.338 64.2614C109.43 64.2614 109.506 64.2566 109.565 64.2472C109.624 64.2353 109.671 64.2259 109.707 64.2188L109.877 64.9716C109.82 64.9929 109.741 65.0142 109.639 65.0355C109.538 65.0592 109.409 65.071 109.252 65.071C109.016 65.071 108.784 65.0201 108.556 64.9183C108.331 64.8165 108.144 64.6615 107.995 64.4531C107.848 64.2448 107.775 63.982 107.775 63.6648V58.2386ZM111.039 65V59.5455H111.877V65H111.039ZM111.465 58.6364C111.301 58.6364 111.16 58.5807 111.042 58.4695C110.926 58.3582 110.868 58.2244 110.868 58.0682C110.868 57.9119 110.926 57.7782 111.042 57.6669C111.16 57.5556 111.301 57.5 111.465 57.5C111.628 57.5 111.768 57.5556 111.884 57.6669C112.002 57.7782 112.061 57.9119 112.061 58.0682C112.061 58.2244 112.002 58.3582 111.884 58.4695C111.768 58.5807 111.628 58.6364 111.465 58.6364ZM115.627 65.1136C115.135 65.1136 114.703 64.9964 114.331 64.7621C113.962 64.5277 113.673 64.1998 113.465 63.7784C113.259 63.357 113.156 62.8646 113.156 62.3011C113.156 61.733 113.259 61.237 113.465 60.8132C113.673 60.3894 113.962 60.0604 114.331 59.826C114.703 59.5916 115.135 59.4744 115.627 59.4744C116.12 59.4744 116.551 59.5916 116.92 59.826C117.292 60.0604 117.581 60.3894 117.787 60.8132C117.995 61.237 118.099 61.733 118.099 62.3011C118.099 62.8646 117.995 63.357 117.787 63.7784C117.581 64.1998 117.292 64.5277 116.92 64.7621C116.551 64.9964 116.12 65.1136 115.627 65.1136ZM115.627 64.3608C116.002 64.3608 116.309 64.2649 116.551 64.0732C116.792 63.8814 116.971 63.6293 117.087 63.3168C117.203 63.0043 117.261 62.6657 117.261 62.3011C117.261 61.9366 117.203 61.5968 117.087 61.282C116.971 60.9671 116.792 60.7126 116.551 60.5185C116.309 60.3243 116.002 60.2273 115.627 60.2273C115.253 60.2273 114.946 60.3243 114.704 60.5185C114.463 60.7126 114.284 60.9671 114.168 61.282C114.052 61.5968 113.994 61.9366 113.994 62.3011C113.994 62.6657 114.052 63.0043 114.168 63.3168C114.284 63.6293 114.463 63.8814 114.704 64.0732C114.946 64.2649 115.253 64.3608 115.627 64.3608ZM120.216 61.7188V65H119.378V59.5455H120.188V60.3977H120.259C120.387 60.1207 120.581 59.8982 120.841 59.7301C121.102 59.5597 121.438 59.4744 121.85 59.4744C122.219 59.4744 122.542 59.5502 122.819 59.7017C123.096 59.8509 123.312 60.0781 123.466 60.3835C123.62 60.6866 123.697 61.0701 123.697 61.5341V65H122.858V61.5909C122.858 61.1624 122.747 60.8286 122.525 60.5895C122.302 60.348 121.997 60.2273 121.608 60.2273C121.341 60.2273 121.102 60.2853 120.891 60.4013C120.683 60.5173 120.518 60.6866 120.398 60.9091C120.277 61.1316 120.216 61.4015 120.216 61.7188ZM126.833 65.1278C126.487 65.1278 126.174 65.0627 125.892 64.9325C125.61 64.8 125.387 64.6094 125.221 64.3608C125.055 64.1098 124.972 63.8068 124.972 63.4517C124.972 63.1392 125.034 62.8859 125.157 62.6918C125.28 62.4953 125.445 62.3414 125.651 62.2301C125.857 62.1188 126.084 62.036 126.332 61.9815C126.583 61.9247 126.835 61.8797 127.089 61.8466C127.42 61.804 127.689 61.772 127.895 61.7507C128.103 61.727 128.255 61.688 128.349 61.6335C128.446 61.5791 128.495 61.4844 128.495 61.3494V61.321C128.495 60.9706 128.399 60.6984 128.207 60.5043C128.018 60.3101 127.73 60.2131 127.344 60.2131C126.944 60.2131 126.631 60.3007 126.403 60.4759C126.176 60.651 126.016 60.8381 125.924 61.0369L125.129 60.7528C125.271 60.4214 125.46 60.1634 125.697 59.9787C125.936 59.7917 126.196 59.6615 126.478 59.5881C126.762 59.5123 127.041 59.4744 127.316 59.4744C127.491 59.4744 127.692 59.4957 127.92 59.5384C128.149 59.5786 128.371 59.6626 128.584 59.7905C128.799 59.9183 128.978 60.1113 129.12 60.3693C129.262 60.6274 129.333 60.973 129.333 61.4062V65H128.495V64.2614H128.452C128.396 64.3797 128.301 64.5064 128.168 64.6413C128.036 64.7763 127.859 64.8911 127.639 64.9858C127.419 65.0805 127.15 65.1278 126.833 65.1278ZM126.961 64.375C127.292 64.375 127.572 64.3099 127.799 64.1797C128.029 64.0495 128.201 63.8814 128.317 63.6754C128.436 63.4695 128.495 63.2528 128.495 63.0256V62.2585C128.46 62.3011 128.381 62.3402 128.261 62.3757C128.142 62.4089 128.005 62.4384 127.849 62.4645C127.695 62.4882 127.545 62.5095 127.398 62.5284C127.253 62.545 127.136 62.5592 127.046 62.571C126.828 62.5994 126.625 62.6456 126.435 62.7095C126.248 62.7711 126.097 62.8646 125.981 62.9901C125.867 63.1132 125.81 63.2812 125.81 63.4943C125.81 63.7855 125.918 64.0057 126.134 64.1548C126.351 64.3016 126.627 64.375 126.961 64.375ZM131.701 57.7273V65H130.863V57.7273H131.701ZM138.108 65.0994C137.63 65.0994 137.218 65.0118 136.872 64.8366C136.527 64.6615 136.26 64.4212 136.073 64.1158C135.886 63.8104 135.793 63.4612 135.793 63.0682C135.793 62.7652 135.857 62.4964 135.984 62.2621C136.115 62.0253 136.293 61.8063 136.521 61.6051C136.75 61.4015 137.014 61.1979 137.312 60.9943L138.364 60.2131C138.57 60.0781 138.734 59.9337 138.857 59.7798C138.983 59.6259 139.045 59.4247 139.045 59.1761C139.045 58.9915 138.964 58.8127 138.8 58.6399C138.639 58.4671 138.428 58.3807 138.165 58.3807C137.98 58.3807 137.817 58.428 137.675 58.5227C137.535 58.6151 137.425 58.7334 137.344 58.8778C137.266 59.0199 137.227 59.1667 137.227 59.3182C137.227 59.4886 137.273 59.6615 137.366 59.8366C137.46 60.0095 137.58 60.187 137.724 60.3693C137.871 60.5492 138.023 60.7339 138.179 60.9233L141.517 65H140.509L137.753 61.6761C137.497 61.3684 137.265 61.089 137.057 60.8381C136.848 60.5871 136.683 60.3397 136.56 60.0959C136.437 59.852 136.375 59.5881 136.375 59.304C136.375 58.9773 136.447 58.6908 136.592 58.4446C136.738 58.196 136.943 58.0031 137.206 57.8658C137.471 57.7261 137.781 57.6562 138.136 57.6562C138.501 57.6562 138.815 57.7273 139.077 57.8693C139.34 58.009 139.543 58.1948 139.685 58.4268C139.827 58.6565 139.898 58.9062 139.898 59.1761C139.898 59.5241 139.811 59.826 139.638 60.0817C139.466 60.3374 139.23 60.5753 138.932 60.7955L137.483 61.875C137.156 62.1165 136.935 62.3509 136.819 62.5781C136.703 62.8054 136.645 62.9687 136.645 63.0682C136.645 63.2955 136.704 63.5073 136.822 63.7038C136.941 63.9003 137.108 64.0589 137.323 64.1797C137.539 64.3004 137.791 64.3608 138.08 64.3608C138.354 64.3608 138.622 64.3028 138.882 64.1868C139.143 64.0684 139.378 63.898 139.589 63.6754C139.802 63.4529 139.97 63.1854 140.093 62.8729C140.219 62.5604 140.281 62.2088 140.281 61.8182H141.091C141.091 62.3011 141.035 62.6953 140.924 63.0007C140.813 63.3061 140.687 63.5452 140.548 63.718C140.408 63.8909 140.295 64.0199 140.21 64.1051C140.182 64.1406 140.156 64.1761 140.132 64.2116C140.108 64.2472 140.082 64.2827 140.054 64.3182C139.82 64.581 139.524 64.7775 139.166 64.9077C138.809 65.0355 138.456 65.0994 138.108 65.0994ZM144.973 58.5085V57.7273H150.428V58.5085H148.141V65H147.26V58.5085H144.973ZM151.107 65V59.5455H151.917V60.3693H151.973C152.073 60.0994 152.253 59.8804 152.513 59.7124C152.774 59.5443 153.067 59.4602 153.394 59.4602C153.455 59.4602 153.532 59.4614 153.625 59.4638C153.717 59.4661 153.787 59.4697 153.834 59.4744V60.3267C153.806 60.3196 153.741 60.3089 153.639 60.2947C153.539 60.2782 153.434 60.2699 153.323 60.2699C153.058 60.2699 152.821 60.3255 152.613 60.4368C152.407 60.5457 152.243 60.6972 152.123 60.8913C152.004 61.0831 151.945 61.3021 151.945 61.5483V65H151.107ZM156.433 65.1278C156.087 65.1278 155.773 65.0627 155.492 64.9325C155.21 64.8 154.986 64.6094 154.82 64.3608C154.655 64.1098 154.572 63.8068 154.572 63.4517C154.572 63.1392 154.633 62.8859 154.757 62.6918C154.88 62.4953 155.044 62.3414 155.25 62.2301C155.456 62.1188 155.683 62.036 155.932 61.9815C156.183 61.9247 156.435 61.8797 156.688 61.8466C157.02 61.804 157.289 61.772 157.494 61.7507C157.703 61.727 157.854 61.688 157.949 61.6335C158.046 61.5791 158.095 61.4844 158.095 61.3494V61.321C158.095 60.9706 157.999 60.6984 157.807 60.5043C157.618 60.3101 157.33 60.2131 156.944 60.2131C156.544 60.2131 156.23 60.3007 156.003 60.4759C155.776 60.651 155.616 60.8381 155.524 61.0369L154.728 60.7528C154.87 60.4214 155.06 60.1634 155.296 59.9787C155.535 59.7917 155.796 59.6615 156.078 59.5881C156.362 59.5123 156.641 59.4744 156.916 59.4744C157.091 59.4744 157.292 59.4957 157.519 59.5384C157.749 59.5786 157.97 59.6626 158.183 59.7905C158.399 59.9183 158.578 60.1113 158.72 60.3693C158.862 60.6274 158.933 60.973 158.933 61.4062V65H158.095V64.2614H158.052C157.995 64.3797 157.901 64.5064 157.768 64.6413C157.635 64.7763 157.459 64.8911 157.239 64.9858C157.019 65.0805 156.75 65.1278 156.433 65.1278ZM156.561 64.375C156.892 64.375 157.171 64.3099 157.399 64.1797C157.628 64.0495 157.801 63.8814 157.917 63.6754C158.035 63.4695 158.095 63.2528 158.095 63.0256V62.2585C158.059 62.3011 157.981 62.3402 157.86 62.3757C157.742 62.4089 157.605 62.4384 157.448 62.4645C157.294 62.4882 157.144 62.5095 156.997 62.5284C156.853 62.545 156.736 62.5592 156.646 62.571C156.428 62.5994 156.224 62.6456 156.035 62.7095C155.848 62.7711 155.696 62.8646 155.58 62.9901C155.467 63.1132 155.41 63.2812 155.41 63.4943C155.41 63.7855 155.518 64.0057 155.733 64.1548C155.951 64.3016 156.227 64.375 156.561 64.375ZM160.462 65V59.5455H161.3V65H160.462ZM160.888 58.6364C160.725 58.6364 160.584 58.5807 160.466 58.4695C160.35 58.3582 160.292 58.2244 160.292 58.0682C160.292 57.9119 160.35 57.7782 160.466 57.6669C160.584 57.5556 160.725 57.5 160.888 57.5C161.052 57.5 161.192 57.5556 161.308 57.6669C161.426 57.7782 161.485 57.9119 161.485 58.0682C161.485 58.2244 161.426 58.3582 161.308 58.4695C161.192 58.5807 161.052 58.6364 160.888 58.6364ZM163.673 61.7188V65H162.835V59.5455H163.645V60.3977H163.716C163.844 60.1207 164.038 59.8982 164.298 59.7301C164.559 59.5597 164.895 59.4744 165.307 59.4744C165.676 59.4744 165.999 59.5502 166.276 59.7017C166.553 59.8509 166.769 60.0781 166.923 60.3835C167.077 60.6866 167.154 61.0701 167.154 61.5341V65H166.316V61.5909C166.316 61.1624 166.204 60.8286 165.982 60.5895C165.759 60.348 165.454 60.2273 165.066 60.2273C164.798 60.2273 164.559 60.2853 164.348 60.4013C164.14 60.5173 163.975 60.6866 163.855 60.9091C163.734 61.1316 163.673 61.4015 163.673 61.7188ZM168.685 65V59.5455H169.523V65H168.685ZM169.111 58.6364C168.948 58.6364 168.807 58.5807 168.689 58.4695C168.573 58.3582 168.515 58.2244 168.515 58.0682C168.515 57.9119 168.573 57.7782 168.689 57.6669C168.807 57.5556 168.948 57.5 169.111 57.5C169.275 57.5 169.414 57.5556 169.53 57.6669C169.649 57.7782 169.708 57.9119 169.708 58.0682C169.708 58.2244 169.649 58.3582 169.53 58.4695C169.414 58.5807 169.275 58.6364 169.111 58.6364ZM171.896 61.7188V65H171.058V59.5455H171.868V60.3977H171.939C172.067 60.1207 172.261 59.8982 172.521 59.7301C172.782 59.5597 173.118 59.4744 173.53 59.4744C173.899 59.4744 174.222 59.5502 174.499 59.7017C174.776 59.8509 174.992 60.0781 175.145 60.3835C175.299 60.6866 175.376 61.0701 175.376 61.5341V65H174.538V61.5909C174.538 61.1624 174.427 60.8286 174.204 60.5895C173.982 60.348 173.676 60.2273 173.288 60.2273C173.021 60.2273 172.782 60.2853 172.571 60.4013C172.363 60.5173 172.198 60.6866 172.077 60.9091C171.956 61.1316 171.896 61.4015 171.896 61.7188ZM179.109 67.1591C178.705 67.1591 178.357 67.107 178.065 67.0028C177.774 66.901 177.531 66.7661 177.337 66.598C177.146 66.4323 176.993 66.2547 176.879 66.0653L177.547 65.5966C177.623 65.696 177.719 65.8097 177.835 65.9375C177.951 66.0677 178.109 66.1802 178.31 66.2749C178.514 66.3719 178.78 66.4205 179.109 66.4205C179.55 66.4205 179.913 66.3139 180.2 66.1009C180.486 65.8878 180.629 65.554 180.629 65.0994V63.9915H180.558C180.497 64.0909 180.409 64.214 180.295 64.3608C180.184 64.5052 180.023 64.6342 179.812 64.7479C179.604 64.8591 179.322 64.9148 178.967 64.9148C178.527 64.9148 178.132 64.8106 177.781 64.6023C177.433 64.3939 177.157 64.0909 176.954 63.6932C176.753 63.2955 176.652 62.8125 176.652 62.2443C176.652 61.6856 176.75 61.1991 176.947 60.7848C177.143 60.3681 177.417 60.0462 177.767 59.8189C178.117 59.5893 178.522 59.4744 178.982 59.4744C179.337 59.4744 179.618 59.5336 179.827 59.652C180.037 59.768 180.198 59.9006 180.31 60.0497C180.423 60.1965 180.511 60.3172 180.572 60.4119H180.658V59.5455H181.467V65.1562C181.467 65.625 181.361 66.0062 181.148 66.2997C180.937 66.5956 180.653 66.8123 180.295 66.9496C179.94 67.0893 179.545 67.1591 179.109 67.1591ZM179.081 64.1619C179.417 64.1619 179.701 64.085 179.933 63.9311C180.165 63.7772 180.342 63.5559 180.462 63.267C180.583 62.9782 180.643 62.6326 180.643 62.2301C180.643 61.8371 180.584 61.4903 180.466 61.1896C180.348 60.889 180.172 60.6534 179.94 60.483C179.708 60.3125 179.422 60.2273 179.081 60.2273C178.726 60.2273 178.43 60.3172 178.193 60.4972C177.959 60.6771 177.782 60.9186 177.664 61.2216C177.548 61.5246 177.49 61.8608 177.49 62.2301C177.49 62.6089 177.549 62.9439 177.668 63.2351C177.788 63.5239 177.966 63.7512 178.2 63.9169C178.437 64.0803 178.731 64.1619 179.081 64.1619ZM186.808 57.7273V65H185.928V57.7273H186.808ZM189.298 61.7188V65H188.46V59.5455H189.27V60.3977H189.341C189.469 60.1207 189.663 59.8982 189.923 59.7301C190.184 59.5597 190.52 59.4744 190.932 59.4744C191.301 59.4744 191.624 59.5502 191.901 59.7017C192.178 59.8509 192.394 60.0781 192.548 60.3835C192.702 60.6866 192.779 61.0701 192.779 61.5341V65H191.941V61.5909C191.941 61.1624 191.829 60.8286 191.607 60.5895C191.384 60.348 191.079 60.2273 190.691 60.2273C190.423 60.2273 190.184 60.2853 189.973 60.4013C189.765 60.5173 189.6 60.6866 189.48 60.9091C189.359 61.1316 189.298 61.4015 189.298 61.7188ZM198.174 60.767L197.421 60.9801C197.373 60.8546 197.304 60.7327 197.211 60.6143C197.121 60.4936 196.998 60.3942 196.842 60.3161C196.686 60.2379 196.486 60.1989 196.242 60.1989C195.908 60.1989 195.63 60.2758 195.407 60.4297C195.187 60.5812 195.077 60.7741 195.077 61.0085C195.077 61.2169 195.153 61.3814 195.304 61.5021C195.456 61.6229 195.693 61.7235 196.015 61.804L196.824 62.0028C197.312 62.1212 197.675 62.3023 197.914 62.5462C198.154 62.7876 198.273 63.099 198.273 63.4801C198.273 63.7926 198.183 64.072 198.003 64.3182C197.826 64.5644 197.577 64.7585 197.257 64.9006C196.938 65.0426 196.566 65.1136 196.142 65.1136C195.586 65.1136 195.126 64.9929 194.761 64.7514C194.396 64.5099 194.166 64.1572 194.069 63.6932L194.864 63.4943C194.94 63.7879 195.083 64.008 195.294 64.1548C195.507 64.3016 195.785 64.375 196.128 64.375C196.519 64.375 196.829 64.2921 197.059 64.1264C197.291 63.9583 197.407 63.7571 197.407 63.5227C197.407 63.3333 197.34 63.1747 197.208 63.0469C197.075 62.9167 196.872 62.8196 196.597 62.7557L195.688 62.5426C195.188 62.4242 194.821 62.2408 194.587 61.9922C194.355 61.7412 194.239 61.4276 194.239 61.0511C194.239 60.7434 194.325 60.4711 194.498 60.2344C194.673 59.9976 194.911 59.8118 195.212 59.6768C195.515 59.5419 195.858 59.4744 196.242 59.4744C196.782 59.4744 197.205 59.5928 197.513 59.8295C197.823 60.0663 198.043 60.3788 198.174 60.767ZM201.907 59.5455V60.2557H199.08V59.5455H201.907ZM199.904 58.2386H200.742V63.4375C200.742 63.6742 200.776 63.8518 200.845 63.9702C200.916 64.0862 201.006 64.1643 201.115 64.2045C201.226 64.2424 201.343 64.2614 201.466 64.2614C201.559 64.2614 201.635 64.2566 201.694 64.2472C201.753 64.2353 201.8 64.2259 201.836 64.2188L202.006 64.9716C201.949 64.9929 201.87 65.0142 201.768 65.0355C201.666 65.0592 201.537 65.071 201.381 65.071C201.144 65.071 200.912 65.0201 200.685 64.9183C200.46 64.8165 200.273 64.6615 200.124 64.4531C199.977 64.2448 199.904 63.982 199.904 63.6648V58.2386ZM203.167 65V59.5455H204.006V65H203.167ZM203.594 58.6364C203.43 58.6364 203.289 58.5807 203.171 58.4695C203.055 58.3582 202.997 58.2244 202.997 58.0682C202.997 57.9119 203.055 57.7782 203.171 57.6669C203.289 57.5556 203.43 57.5 203.594 57.5C203.757 57.5 203.897 57.5556 204.013 57.6669C204.131 57.7782 204.19 57.9119 204.19 58.0682C204.19 58.2244 204.131 58.3582 204.013 58.4695C203.897 58.5807 203.757 58.6364 203.594 58.6364ZM207.913 59.5455V60.2557H205.086V59.5455H207.913ZM205.91 58.2386H206.748V63.4375C206.748 63.6742 206.782 63.8518 206.851 63.9702C206.922 64.0862 207.012 64.1643 207.121 64.2045C207.232 64.2424 207.349 64.2614 207.472 64.2614C207.565 64.2614 207.64 64.2566 207.7 64.2472C207.759 64.2353 207.806 64.2259 207.842 64.2188L208.012 64.9716C207.955 64.9929 207.876 65.0142 207.774 65.0355C207.672 65.0592 207.543 65.071 207.387 65.071C207.15 65.071 206.918 65.0201 206.691 64.9183C206.466 64.8165 206.279 64.6615 206.13 64.4531C205.983 64.2448 205.91 63.982 205.91 63.6648V58.2386ZM212.611 62.7699V59.5455H213.449V65H212.611V64.0767H212.554C212.426 64.3537 212.227 64.5893 211.957 64.7834C211.688 64.9751 211.347 65.071 210.935 65.071C210.594 65.071 210.291 64.9964 210.026 64.8473C209.76 64.6958 209.552 64.4685 209.401 64.1655C209.249 63.8601 209.173 63.4754 209.173 63.0114V59.5455H210.011V62.9545C210.011 63.3523 210.123 63.6695 210.345 63.9062C210.57 64.143 210.857 64.2614 211.205 64.2614C211.413 64.2614 211.625 64.2081 211.84 64.1016C212.058 63.995 212.24 63.8317 212.387 63.6115C212.536 63.3913 212.611 63.1108 212.611 62.7699ZM217.356 59.5455V60.2557H214.529V59.5455H217.356ZM215.353 58.2386H216.191V63.4375C216.191 63.6742 216.226 63.8518 216.294 63.9702C216.365 64.0862 216.455 64.1643 216.564 64.2045C216.675 64.2424 216.793 64.2614 216.916 64.2614C217.008 64.2614 217.084 64.2566 217.143 64.2472C217.202 64.2353 217.249 64.2259 217.285 64.2188L217.455 64.9716C217.399 64.9929 217.319 65.0142 217.218 65.0355C217.116 65.0592 216.987 65.071 216.83 65.071C216.594 65.071 216.362 65.0201 216.134 64.9183C215.91 64.8165 215.722 64.6615 215.573 64.4531C215.427 64.2448 215.353 63.982 215.353 63.6648V58.2386ZM218.617 65V59.5455H219.455V65H218.617ZM219.043 58.6364C218.879 58.6364 218.739 58.5807 218.62 58.4695C218.504 58.3582 218.446 58.2244 218.446 58.0682C218.446 57.9119 218.504 57.7782 218.62 57.6669C218.739 57.5556 218.879 57.5 219.043 57.5C219.206 57.5 219.346 57.5556 219.462 57.6669C219.58 57.7782 219.639 57.9119 219.639 58.0682C219.639 58.2244 219.58 58.3582 219.462 58.4695C219.346 58.5807 219.206 58.6364 219.043 58.6364ZM223.206 65.1136C222.713 65.1136 222.281 64.9964 221.909 64.7621C221.54 64.5277 221.251 64.1998 221.043 63.7784C220.837 63.357 220.734 62.8646 220.734 62.3011C220.734 61.733 220.837 61.237 221.043 60.8132C221.251 60.3894 221.54 60.0604 221.909 59.826C222.281 59.5916 222.713 59.4744 223.206 59.4744C223.698 59.4744 224.129 59.5916 224.498 59.826C224.87 60.0604 225.159 60.3894 225.365 60.8132C225.573 61.237 225.677 61.733 225.677 62.3011C225.677 62.8646 225.573 63.357 225.365 63.7784C225.159 64.1998 224.87 64.5277 224.498 64.7621C224.129 64.9964 223.698 65.1136 223.206 65.1136ZM223.206 64.3608C223.58 64.3608 223.887 64.2649 224.129 64.0732C224.37 63.8814 224.549 63.6293 224.665 63.3168C224.781 63.0043 224.839 62.6657 224.839 62.3011C224.839 61.9366 224.781 61.5968 224.665 61.282C224.549 60.9671 224.37 60.7126 224.129 60.5185C223.887 60.3243 223.58 60.2273 223.206 60.2273C222.832 60.2273 222.524 60.3243 222.282 60.5185C222.041 60.7126 221.862 60.9671 221.746 61.282C221.63 61.5968 221.572 61.9366 221.572 62.3011C221.572 62.6657 221.63 63.0043 221.746 63.3168C221.862 63.6293 222.041 63.8814 222.282 64.0732C222.524 64.2649 222.832 64.3608 223.206 64.3608ZM227.795 61.7188V65H226.956V59.5455H227.766V60.3977H227.837C227.965 60.1207 228.159 59.8982 228.42 59.7301C228.68 59.5597 229.016 59.4744 229.428 59.4744C229.797 59.4744 230.121 59.5502 230.398 59.7017C230.675 59.8509 230.89 60.0781 231.044 60.3835C231.198 60.6866 231.275 61.0701 231.275 61.5341V65H230.437V61.5909C230.437 61.1624 230.325 60.8286 230.103 60.5895C229.88 60.348 229.575 60.2273 229.187 60.2273C228.919 60.2273 228.68 60.2853 228.469 60.4013C228.261 60.5173 228.096 60.6866 227.976 60.9091C227.855 61.1316 227.795 61.4015 227.795 61.7188Z" fill="black"/>
</svg>



