<svg width="132" height="143" viewBox="0 0 132 143" fill="none" xmlns="http://www.w3.org/2000/svg">
<path d="M72.1484 0C105.712 3.01027 131.998 30.3546 131.998 63.6465C131.998 90.3169 115.128 113.152 91.1611 122.729L114.54 131.674L97.4404 142.091L86.6338 124.353C82.0097 125.825 77.1603 126.818 72.1484 127.268V108.178C94.5673 105.287 111.88 86.6814 111.88 64.1641C111.88 41.6467 94.5673 23.0347 72.1484 20.1504V0ZM59.2129 20.2139C41.3707 22.7608 26.8695 35.2905 21.9346 51.75C21.9619 51.6797 21.9886 51.6091 22.0166 51.5391H59.2207V71.4766H20.7412C23.9834 90.3959 39.575 105.292 59.2129 108.096L59.2129 127.211C25.9579 123.909 0.00015849 96.7306 0 63.6377C0 30.5446 25.9578 3.34585 59.2129 0.0371094V20.2139ZM20.2725 67.791C20.3221 68.3833 20.3837 68.9721 20.457 69.5576C20.3881 68.966 20.3255 68.3772 20.2725 67.791Z" fill="#D4D4D4" fill-opacity="0.26"/>
</svg>
