<svg width="160" height="607" viewBox="0 0 160 607" fill="none" xmlns="http://www.w3.org/2000/svg">
<path d="M149.859 308.919H135.597L135.363 308.94C134.831 309.013 134.388 309.252 134.033 309.657C133.599 310.091 133.382 310.642 133.382 311.308V312.046H132.948V299.845H133.382V300.583C133.382 301.22 133.599 301.784 134.033 302.276C134.388 302.682 134.831 302.909 135.363 302.96L135.597 302.971H154.484C155.497 302.971 156.395 302.942 157.177 302.884C157.929 302.797 158.523 302.725 158.957 302.667C159.362 302.58 159.564 302.536 159.564 302.536V302.928L142.015 322.857H156.352L156.585 322.836C157.12 322.763 157.578 322.524 157.958 322.119C158.363 321.656 158.565 321.106 158.565 320.469V319.73H159V331.889H158.565V331.193C158.565 330.528 158.363 329.963 157.958 329.5C157.578 329.095 157.12 328.867 156.585 328.816L156.352 328.806H137.29C135.814 328.806 134.627 328.878 133.729 329.022C132.803 329.167 132.34 329.24 132.34 329.24V328.849L149.859 308.919ZM149.859 195.79H135.597L135.363 195.811C134.831 195.883 134.388 196.123 134.033 196.528C133.599 196.962 133.382 197.512 133.382 198.178V198.916H132.948V186.715H133.382V187.453C133.382 188.09 133.599 188.654 134.033 189.146C134.388 189.552 134.831 189.779 135.363 189.83L135.597 189.841H154.484C155.497 189.841 156.395 189.813 157.177 189.755C157.929 189.668 158.523 189.595 158.957 189.537C159.359 189.451 159.561 189.408 159.564 189.407V189.798L142.016 209.728H156.352L156.585 209.707C157.12 209.634 157.578 209.395 157.958 208.989C158.363 208.526 158.565 207.976 158.565 207.34V206.602H159V221.503C159 223.066 158.884 224.398 158.652 225.498C158.421 226.569 158.001 227.51 157.394 228.32C156.757 229.102 155.903 229.825 154.832 230.491C154.456 230.752 154.006 231.027 153.485 231.316C152.936 231.606 152.386 231.895 151.836 232.185C151.286 232.474 150.75 232.734 150.229 232.966C149.709 233.168 149.274 233.314 148.927 233.4C148.001 233.777 147.335 234.211 146.93 234.703C146.495 235.166 146.278 235.601 146.278 236.006H145.887V234.92C145.887 234.312 145.786 233.719 145.583 233.14C145.351 232.532 144.932 231.982 144.324 231.49C143.687 230.998 142.761 230.636 141.545 230.404C141.371 230.346 141.125 230.303 140.807 230.274C140.488 230.217 140.127 230.202 139.722 230.23C138.651 230.288 137.797 230.492 137.16 230.839C136.494 231.157 136.002 231.563 135.684 232.055C135.336 232.547 135.104 233.053 134.988 233.574C134.844 234.066 134.771 234.501 134.771 234.877C134.743 235.427 134.743 235.933 134.771 236.396C134.771 236.804 134.758 237.123 134.732 237.352H156.265L156.528 237.34C157.127 237.286 157.603 237.044 157.958 236.613C158.363 236.092 158.565 235.543 158.565 234.964V234.529H159V246.47H158.565V245.948C158.565 245.312 158.348 244.776 157.914 244.342C157.54 243.968 157.11 243.738 156.623 243.647H135.27C134.773 243.738 134.36 243.968 134.033 244.342C133.599 244.776 133.382 245.297 133.382 245.905V246.47H132.948V233.097C132.948 231.91 133.078 230.752 133.339 229.623C133.57 228.494 133.961 227.48 134.511 226.583C135.032 225.686 135.756 224.977 136.682 224.456C137.579 223.906 138.709 223.631 140.069 223.631C141.082 223.631 142.095 223.848 143.108 224.282C144.093 224.687 144.946 225.339 145.67 226.236C146.393 227.105 146.871 228.248 147.103 229.666C147.363 228.827 147.87 228.031 148.623 227.278C149.376 226.497 150.084 225.888 150.75 225.454C150.982 225.338 151.358 225.136 151.879 224.847C152.371 224.557 152.95 224.195 153.616 223.761C154.253 223.298 154.919 222.82 155.613 222.328C156.395 221.749 157.002 221.243 157.437 220.809C157.842 220.374 158.132 219.926 158.306 219.463C158.466 219.036 158.55 218.547 158.562 217.997C158.549 217.361 158.349 216.819 157.958 216.371C157.578 215.966 157.12 215.738 156.585 215.688L156.352 215.676H137.29C135.814 215.676 134.627 215.749 133.729 215.894C132.803 216.038 132.34 216.11 132.34 216.11V215.72L149.859 195.79ZM132.384 102.33C132.384 100.014 132.702 97.9157 133.339 96.0342C133.947 94.1527 134.844 92.5313 136.031 91.1709C137.218 89.8107 138.65 88.7685 140.329 88.0449C142.008 87.2923 143.904 86.916 146.018 86.916C148.102 86.916 149.983 87.2923 151.662 88.0449C153.312 88.7685 154.73 89.8106 155.917 91.1709C157.104 92.5313 158.016 94.1528 158.652 96.0342C159.26 97.9157 159.564 100.014 159.564 102.33C159.564 104.617 159.26 106.701 158.652 108.583C158.016 110.464 157.104 112.086 155.917 113.446C154.73 114.807 153.312 115.849 151.662 116.572C149.983 117.296 148.102 117.657 146.018 117.657C143.904 117.657 142.008 117.296 140.329 116.572C138.65 115.849 137.218 114.806 136.031 113.446C134.844 112.086 133.947 110.464 133.339 108.583C132.702 106.701 132.384 104.617 132.384 102.33ZM149.859 61.9678H135.597L135.363 61.9893C134.831 62.0621 134.388 62.3008 134.033 62.7061C133.599 63.1402 133.382 63.6907 133.382 64.3564V65.0947H132.948V52.8936H133.382V53.6318C133.382 54.2685 133.599 54.8332 134.033 55.3252C134.388 55.7304 134.831 55.9581 135.363 56.0088L135.597 56.0195H154.484C155.497 56.0195 156.395 55.9905 157.177 55.9326C157.929 55.8458 158.523 55.7737 158.957 55.7158C159.362 55.629 159.564 55.585 159.564 55.585V55.9756L142.015 75.9062H156.352L156.585 75.8848C157.12 75.812 157.578 75.5733 157.958 75.168C158.363 74.7048 158.565 74.1544 158.565 73.5176V72.7793H159V84.9375H158.565V84.2422C158.565 83.5765 158.363 83.0119 157.958 82.5488C157.578 82.1435 157.12 81.9158 156.585 81.8652L156.352 81.8545H137.29C135.814 81.8545 134.627 81.9266 133.729 82.0713C132.803 82.216 132.34 82.2891 132.34 82.2891V81.8975L149.859 61.9678ZM129.04 334.187V334.751C129.04 335.504 129.315 336.155 129.865 336.705C130.386 337.226 131.023 337.501 131.775 337.53H155.83C156.583 337.501 157.234 337.226 157.784 336.705C158.305 336.155 158.565 335.504 158.565 334.751V334.187H159V347.387H158.565V346.822C158.565 346.07 158.305 345.432 157.784 344.911C157.303 344.43 156.744 344.149 156.107 344.066L155.83 344.043H131.775L131.499 344.066C130.866 344.149 130.321 344.43 129.865 344.911C129.315 345.432 129.04 346.07 129.04 346.822V347.387H128.606V334.187H129.04ZM139.113 273.346V273.823H138.723C137.478 273.794 136.494 274.142 135.771 274.865C135.092 275.517 134.718 276.409 134.65 277.544L134.642 277.774V282.811H156.265L156.499 282.8C157.037 282.749 157.509 282.521 157.914 282.116C158.348 281.653 158.565 281.089 158.565 280.423V279.945H159V291.929H158.565V291.451C158.565 290.815 158.348 290.279 157.914 289.845C157.509 289.44 157.037 289.201 156.499 289.128L156.265 289.106H134.642V294.101L134.65 294.336C134.718 295.496 135.092 296.401 135.771 297.053C136.494 297.718 137.478 298.052 138.723 298.052H139.113V298.529H132.253C132.311 298.269 132.398 297.892 132.514 297.4C132.629 296.879 132.731 296.315 132.817 295.707C132.875 295.07 132.904 294.491 132.904 293.97V277.948C132.904 277.398 132.875 276.805 132.817 276.168C132.731 275.531 132.644 274.952 132.558 274.431C132.442 273.91 132.34 273.548 132.253 273.346H139.113ZM139.2 251.313V251.747H138.81C137.536 251.747 136.537 252.094 135.813 252.789C135.135 253.413 134.762 254.305 134.694 255.463L134.685 255.698V261.951H145.236V257.001C145.207 255.988 144.874 255.192 144.237 254.613C143.572 254.005 142.761 253.701 141.806 253.701H141.502V253.267H150.707V253.701H150.359C149.404 253.701 148.608 254.005 147.972 254.613C147.414 255.12 147.09 255.793 146.998 256.632L146.973 257.001V261.951H157.264V256.827C157.264 255.583 157.017 254.483 156.525 253.527C156.004 252.543 155.281 251.703 154.354 251.009C153.399 250.314 152.284 249.779 151.011 249.402V249.012L159 250.662V271.112H158.565V270.548C158.565 269.911 158.348 269.376 157.914 268.941C157.509 268.536 157.037 268.297 156.499 268.225L156.265 268.203H135.684L135.439 268.225C134.882 268.297 134.413 268.536 134.033 268.941C133.599 269.376 133.382 269.911 133.382 270.548V271.112H132.948V255.872C132.948 255.033 132.875 254.15 132.73 253.224C132.557 252.298 132.413 251.661 132.297 251.313H139.2ZM156.135 160.391V160.39C157.032 159.955 157.669 159.42 158.045 158.783C158.392 158.146 158.565 157.538 158.565 156.959V156.612H159V169.378H158.565V169.03C158.565 168.538 158.363 168.09 157.958 167.685C157.6 167.351 157.126 167.266 156.532 167.423L152.183 169.266V178.438L156.205 180.172C156.953 180.46 157.537 180.409 157.958 180.016C158.363 179.611 158.565 179.162 158.565 178.67V178.322H159V187.006H158.565V186.659C158.565 186.08 158.392 185.472 158.045 184.835C157.669 184.198 157.032 183.677 156.135 183.271V183.259L137.029 174.371C136.856 174.313 136.551 174.183 136.117 173.98C135.654 173.778 135.148 173.561 134.598 173.329C134.019 173.098 133.483 172.88 132.991 172.678C132.47 172.475 132.065 172.359 131.775 172.33V171.982L156.135 160.391ZM139.113 134.817V135.295H138.723C137.478 135.266 136.494 135.613 135.771 136.337C135.092 136.988 134.718 137.881 134.65 139.016L134.642 139.246V144.282H156.265L156.499 144.271C157.037 144.221 157.509 143.993 157.914 143.588C158.348 143.125 158.565 142.56 158.565 141.895V141.417H159V153.4H158.565V152.923C158.565 152.286 158.348 151.751 157.914 151.316C157.509 150.911 157.037 150.672 156.499 150.6L156.265 150.578H134.642V155.571L134.65 155.807C134.718 156.967 135.092 157.873 135.771 158.524C136.494 159.19 137.478 159.522 138.723 159.522H139.113V160.001H132.253C132.311 159.741 132.398 159.364 132.514 158.872C132.629 158.351 132.731 157.786 132.817 157.179C132.875 156.542 132.904 155.962 132.904 155.441V139.42C132.904 138.87 132.875 138.276 132.817 137.64C132.731 137.003 132.644 136.423 132.558 135.902C132.442 135.382 132.34 135.02 132.253 134.817H139.113ZM133.382 120.296V120.774C133.382 121.469 133.599 122.062 134.033 122.554C134.413 122.959 134.882 123.199 135.439 123.271L135.684 123.292H156.265L156.499 123.271C157.037 123.199 157.509 122.959 157.914 122.554C158.348 122.062 158.565 121.469 158.565 120.774V120.253H159V132.584H158.565V132.02C158.565 131.354 158.348 130.775 157.914 130.283C157.509 129.853 157.037 129.61 156.499 129.557L156.265 129.545H135.684L135.439 129.557C134.882 129.61 134.413 129.853 134.033 130.283C133.599 130.775 133.382 131.369 133.382 132.063V132.584H132.948V120.253L133.382 120.296ZM156.135 26.5693V26.5674C157.032 26.1332 157.669 25.5976 158.045 24.9609C158.392 24.3243 158.565 23.7165 158.565 23.1377V22.79H159V35.5557H158.565V35.208C158.565 34.7161 158.363 34.2674 157.958 33.8623C157.599 33.5274 157.122 33.4432 156.526 33.6025L152.183 35.4434V44.6172L156.218 46.3545C156.96 46.6368 157.539 46.5842 157.958 46.1934C158.363 45.7882 158.565 45.3397 158.565 44.8477V44.5H159V53.1846H158.565V52.8369C158.565 52.2581 158.392 51.6504 158.045 51.0137C157.669 50.3769 157.032 49.8554 156.135 49.4502V49.4365L137.029 40.5488C136.856 40.4909 136.551 40.3607 136.117 40.1582C135.654 39.9556 135.147 39.7383 134.598 39.5068C134.019 39.2753 133.483 39.0581 132.991 38.8555C132.47 38.6529 132.065 38.5377 131.775 38.5088V38.1611L156.135 26.5693ZM133.382 10.5215V11.043C133.382 11.6796 133.599 12.2293 134.033 12.6924C134.413 13.0977 134.882 13.3374 135.439 13.4102L135.684 13.4307H157.264V8.30762C157.264 7.0631 157.017 5.96295 156.525 5.00781C156.004 4.02375 155.281 3.18392 154.354 2.48926C153.399 1.79455 152.284 1.25912 151.011 0.882812V0.448242L159 2.1416V22.5928H158.565V22.0283C158.565 21.3915 158.348 20.8561 157.914 20.4219C157.509 20.0166 157.037 19.7769 156.499 19.7041L156.265 19.6836H135.684L135.439 19.7041C134.882 19.7769 134.413 20.0166 134.033 20.4219C133.599 20.8849 133.382 21.4347 133.382 22.0713V22.5928H132.948V10.5215H133.382ZM134.077 102.33C134.077 104.067 134.569 105.587 135.553 106.89C136.508 108.192 137.883 109.205 139.678 109.929C141.443 110.652 143.557 111.015 146.018 111.015C148.449 111.015 150.548 110.652 152.313 109.929C154.079 109.205 155.454 108.192 156.438 106.89C157.394 105.587 157.871 104.067 157.871 102.33C157.871 100.564 157.394 99.0301 156.438 97.7275C155.454 96.3961 154.079 95.3832 152.313 94.6885C150.548 93.9648 148.449 93.6026 146.018 93.6025C143.557 93.6025 141.443 93.9648 139.678 94.6885C137.883 95.3832 136.508 96.3961 135.553 97.7275C134.569 99.0301 134.077 100.564 134.077 102.33ZM150.489 177.71V169.982L141.443 173.815L150.489 177.71ZM150.489 43.8877V36.1602L141.443 39.9941L150.489 43.8877ZM0.789063 545.332C3.40667 517.063 27.1845 494.923 56.1338 494.923C79.3285 494.923 99.1856 509.137 107.511 529.328L115.291 509.629L124.349 524.031L108.922 533.136C110.202 537.029 111.064 541.112 111.455 545.332H94.8555C92.3417 526.45 76.1631 511.868 56.583 511.868C37.003 511.868 20.8186 526.45 18.3105 545.332H0.789063ZM41.8057 221.91C41.8057 215.599 42.9888 210.129 45.3555 205.501C47.6696 200.82 50.9568 197.218 55.2168 194.693C59.4768 192.169 64.5785 190.906 70.5215 190.906C76.4119 190.906 81.5135 192.169 85.8262 194.693C90.0862 197.218 93.3999 200.82 95.7666 205.501C96.6042 207.195 97.2878 208.994 97.8223 210.895C97.9217 210.379 98.0252 209.869 98.1328 209.367C98.6587 207.158 99.2636 204.923 99.9473 202.661C100.684 200.4 101.525 197.98 102.472 195.403C103.471 192.826 104.602 189.907 105.864 186.646C107.232 183.123 108.231 179.652 108.862 176.233C109.493 172.762 109.73 169.449 109.572 166.293C109.414 163.137 108.862 160.192 107.915 157.457C106.968 154.722 105.602 152.276 103.813 150.12L104.129 149.647C106.601 149.805 108.915 150.594 111.071 152.014C113.228 153.434 115.069 155.406 116.594 157.931C118.119 160.455 119.144 163.453 119.67 166.924C120.248 170.342 120.17 174.129 119.434 178.284C118.75 182.439 117.224 186.857 114.857 191.538C113.385 194.483 111.781 197.271 110.046 199.9C108.363 202.53 106.732 205.107 105.154 207.632C103.577 210.104 102.235 212.549 101.131 214.968C100.079 217.387 99.4477 219.859 99.2373 222.384L99.2314 222.389C99.1743 228.5 98.022 233.836 95.7666 238.398C93.3999 243.027 90.0862 246.603 85.8262 249.128C81.5662 251.652 76.4644 252.914 70.5215 252.914C64.6312 252.914 59.5559 251.652 55.2959 249.128C50.9832 246.603 47.6696 243.027 45.3555 238.398C42.9888 233.718 41.8057 228.221 41.8057 221.91ZM18.3652 556.229C20.5762 571.231 31.4393 583.43 45.7168 587.606C45.6736 587.59 45.63 587.574 45.5869 587.558V556.221H62.9248V588.636C79.3842 585.911 92.3449 572.774 94.7832 556.229H111.405C108.534 584.238 84.9011 606.101 56.125 606.102C27.3487 606.102 3.69736 584.238 0.820313 556.229H18.3652ZM51.5088 402.08V403.185C51.5088 404.184 51.825 405.025 52.4561 405.709C53.0477 406.35 53.8007 406.691 54.7158 406.731L54.9014 406.735H80.541C85.3792 406.735 89.1656 405.631 91.9004 403.422C94.6352 401.16 96.0029 398.03 96.0029 394.033C96.0028 389.879 94.7146 386.671 92.1377 384.409C89.5606 382.095 85.9838 380.912 81.4082 380.859H54.9014L54.7158 380.873C53.8007 380.959 53.0476 381.323 52.4561 381.964C51.825 382.648 51.5088 383.463 51.5088 384.409V385.514H50.7988V370.998H51.5088V372.023C51.5088 373.023 51.8249 373.891 52.4561 374.627C53.0476 375.268 53.8008 375.608 54.7158 375.648L54.9014 375.652H80.9355C86.5628 375.652 91.0069 377.388 94.2676 380.859C97.5282 384.278 99.1582 389.143 99.1582 395.454C99.1581 403.08 97.5548 408.76 94.3467 412.494C91.0859 416.228 86.6412 418.095 81.0137 418.095H54.9014L54.7158 418.108C53.8009 418.195 53.0476 418.559 52.4561 419.199C51.825 419.883 51.5089 420.725 51.5088 421.724V422.828H50.7988V402.08H51.5088ZM49.7734 288.109C49.7735 283.902 50.3518 280.089 51.5088 276.671C52.6132 273.252 54.2441 270.307 56.4004 267.835C58.5566 265.363 61.1598 263.47 64.21 262.155C67.2604 260.788 70.7056 260.104 74.5449 260.104C78.3316 260.104 81.7504 260.788 84.8008 262.155C87.7985 263.47 90.376 265.363 92.5322 267.835C94.6885 270.307 96.3449 273.252 97.502 276.671C98.6063 280.089 99.1582 283.902 99.1582 288.109C99.1582 292.264 98.6064 296.051 97.502 299.47C96.3449 302.888 94.6885 305.834 92.5322 308.306C90.3759 310.778 87.7985 312.671 84.8008 313.985C81.7504 315.3 78.3316 315.958 74.5449 315.958C70.7056 315.958 67.2604 315.3 64.21 313.985C61.1598 312.671 58.5566 310.777 56.4004 308.306C54.2441 305.834 52.6132 302.888 51.5088 299.47C50.3518 296.051 49.7734 292.264 49.7734 288.109ZM51.5088 164.409V165.514C51.5088 166.513 51.825 167.354 52.4561 168.038C53.0476 168.679 53.8008 169.019 54.7158 169.06L54.9014 169.063H80.541C85.3793 169.063 89.1656 167.959 91.9004 165.75C94.6352 163.489 96.0029 160.359 96.0029 156.362C96.0029 152.207 94.7148 148.999 92.1377 146.737C89.5606 144.423 85.9838 143.24 81.4082 143.188H54.9014L54.7158 143.201C53.8008 143.288 53.0476 143.651 52.4561 144.292C51.825 144.976 51.5089 145.791 51.5088 146.737V147.842H50.7988V133.326H51.5088V134.352C51.5088 135.351 51.8249 136.219 52.4561 136.955C53.0476 137.596 53.8008 137.936 54.7158 137.977L54.9014 137.98H80.9355C86.5628 137.981 91.0069 139.716 94.2676 143.188C97.5283 146.606 99.1582 151.471 99.1582 157.782C99.1582 165.408 97.5547 171.088 94.3467 174.822C91.0859 178.556 86.6412 180.424 81.0137 180.424H54.9014L54.7158 180.438C53.8007 180.524 53.0477 180.887 52.4561 181.528C51.8249 182.212 51.5088 183.053 51.5088 184.053V185.157H50.7988V164.409H51.5088ZM49.7734 68.3574C49.7735 67.3057 49.8265 66.0436 49.9316 64.5713C50.0368 63.0461 50.1684 61.5468 50.3262 60.0742C50.3689 59.4757 50.4233 58.9079 50.4834 58.3701V53.8418L51.2578 53.8857C51.2631 53.8709 51.2672 53.8558 51.2725 53.8418L60.8975 54.8682V55.5781C58.4782 55.5781 56.5577 56.4196 55.1377 58.1025C53.7179 59.7855 53.0078 62.205 53.0078 65.3604C53.0079 67.8847 53.5606 69.9359 54.665 71.5137C55.7695 73.0387 57.2423 73.8538 59.083 73.959C60.0295 74.0641 60.8968 73.906 61.6855 73.4854C62.4218 73.0121 63.0797 72.3816 63.6582 71.5928C64.2367 70.7513 64.815 69.8303 65.3936 68.8311L73.0459 56.4453C74.0978 54.3416 75.6236 52.6852 77.6221 51.4756C79.6206 50.266 82.0399 49.7397 84.8799 49.8975C87.825 50.0553 90.376 50.9232 92.5322 52.501C94.6883 54.0261 96.3449 56.1561 97.502 58.8906C98.6064 61.5728 99.1582 64.7551 99.1582 68.4365C99.1582 70.698 98.9746 72.8021 98.6064 74.748C98.2383 76.694 97.7385 78.3769 97.1074 79.7969C96.4764 81.1642 95.7663 82.2159 94.9775 82.9521C93.9257 83.3729 92.663 83.5575 91.1904 83.5049C89.6654 83.4523 88.1667 83.2156 86.6943 82.7949C85.1691 82.3742 83.9065 81.8479 82.9072 81.2168V80.5859C85.2739 80.7437 87.4565 80.3225 89.4551 79.3232C91.4536 78.2714 93.0579 76.7466 94.2676 74.748C95.4246 72.7496 96.0029 70.3566 96.0029 67.5693C96.0029 64.5191 95.2929 62.2313 93.873 60.7061C92.4531 59.1809 90.7965 58.4181 88.9033 58.418C87.4833 58.418 86.2207 58.8912 85.1162 59.8379C83.9592 60.732 82.8281 62.2313 81.7236 64.335L74.624 75.5371C73.2566 78.1667 71.4421 80.0863 69.1807 81.2959C66.9192 82.453 64.4469 82.8742 61.7646 82.5586C59.2403 82.2956 57.084 81.5591 55.2959 80.3496C53.5077 79.0874 52.14 77.43 51.1934 75.3789C50.2468 73.3278 49.7734 70.987 49.7734 68.3574ZM55.2959 431.347V432.136H54.3496C51.9304 432.136 49.9843 432.872 48.5117 434.345C47.2698 435.542 46.5347 437.114 46.3027 439.06V453.12H69.2598V442.707C69.2072 440.761 68.5494 439.157 67.2871 437.895C65.9723 436.632 64.3414 436.001 62.3955 436.001H61.8438V435.213H79.9883V436.001H79.3574C77.4115 436.001 75.8072 436.632 74.5449 437.895C73.2827 439.157 72.6249 440.761 72.5723 442.707V453.12H94.7412V442.786C94.7412 440.157 94.2414 437.842 93.2422 435.844C92.1904 433.845 90.7175 432.136 88.8242 430.716C86.8783 429.296 84.5905 428.165 81.9609 427.323V426.534L98.1328 430.163V471.028H97.3438V470.003C97.3438 468.636 96.8705 467.479 95.9238 466.532C94.9246 465.533 93.7415 465.007 92.374 464.954H48.6689C47.3016 465.007 46.1449 465.533 45.1982 466.532C44.199 467.479 43.6992 468.636 43.6992 470.003V471.028H42.9102V440.972C42.9102 439.815 42.8316 438.605 42.6738 437.343C42.5161 436.028 42.3314 434.818 42.1211 433.714C41.9107 432.609 41.7006 431.82 41.4902 431.347H55.2959ZM50.7988 341.803C50.7988 339.646 51.0355 337.542 51.5088 335.491C51.9295 333.44 52.6394 331.599 53.6387 329.969C54.5854 328.338 55.901 327.05 57.584 326.104C59.2144 325.104 61.2655 324.604 63.7373 324.604C65.578 324.605 67.4191 324.999 69.2598 325.788C71.0477 326.524 72.5994 327.708 73.9141 329.338C75.2288 330.916 76.0968 332.993 76.5176 335.57C76.9909 334.045 77.911 332.599 79.2783 331.231C80.6456 329.812 81.934 328.707 83.1436 327.918C83.5643 327.708 84.2486 327.339 85.1953 326.813C86.0894 326.288 87.141 325.63 88.3506 324.841C89.5076 323.999 90.7173 323.131 91.9795 322.237C93.3994 321.185 94.5041 320.265 95.293 319.477C96.0292 318.688 96.5555 317.873 96.8711 317.031C97.1866 316.19 97.3437 315.217 97.3438 314.112H98.1328V320.738C98.1328 323.578 97.9227 325.999 97.502 327.997C97.0812 329.943 96.3182 331.652 95.2139 333.124C94.0568 334.544 92.5055 335.86 90.5596 337.069C89.876 337.543 89.0607 338.042 88.1143 338.567C87.115 339.093 86.1155 339.62 85.1162 340.146C84.117 340.671 83.1439 341.145 82.1973 341.565C81.2508 341.933 80.4621 342.197 79.8311 342.354C78.1481 343.038 76.9385 343.828 76.2021 344.722C75.4133 345.563 75.0186 346.352 75.0186 347.088H74.3086V345.116C74.3086 344.012 74.124 342.933 73.7559 341.881C73.3351 340.777 72.5728 339.778 71.4688 338.884C70.3117 337.99 68.6279 337.332 66.4189 336.911C66.1034 336.806 65.6564 336.727 65.0781 336.675C64.4996 336.57 63.8418 336.543 63.1055 336.596C61.1597 336.701 59.6081 337.069 58.4512 337.7C57.2417 338.279 56.348 339.015 55.7695 339.909C55.1385 340.803 54.7172 341.723 54.5068 342.67C54.2439 343.564 54.1123 344.353 54.1123 345.037C54.0597 346.036 54.0597 346.956 54.1123 347.798C54.1123 348.539 54.0874 349.117 54.041 349.533H93.1631L93.4062 349.528C94.6049 349.476 95.549 349.03 96.2393 348.192C96.9756 347.246 97.3438 346.246 97.3438 345.194V344.405H98.1328V366.101H97.3438V365.153C97.3436 363.996 96.9499 363.023 96.1611 362.234C95.4869 361.56 94.7108 361.14 93.834 360.973H54.9961C54.1029 361.141 53.3612 361.561 52.7715 362.234C51.9826 363.023 51.5879 363.971 51.5879 365.075V366.101H50.7988V341.803ZM62.1592 93.0068V93.7959H61.4492C59.1352 93.7959 57.3207 94.4273 56.0059 95.6895C54.7732 96.8235 54.0949 98.4431 53.9717 100.548L53.9551 100.976V112.335H73.125V103.342C73.0724 101.501 72.4676 100.055 71.3105 99.0029C70.1009 97.8985 68.6282 97.3467 66.8926 97.3467H66.3408V96.5576H83.0654V97.3467H82.4336C80.6982 97.3468 79.2517 97.8986 78.0947 99.0029C77.0102 99.989 76.411 101.322 76.2969 103.001L76.2803 103.342V112.335H94.9775V103.026C94.9775 100.765 94.5308 98.7659 93.6367 97.0303C92.69 95.2422 91.3743 93.7173 89.6914 92.4551C87.9559 91.1929 85.9312 90.2198 83.6172 89.5361V88.8262L98.1328 91.8242V128.981H97.3438V127.956C97.3438 126.799 96.9498 125.826 96.1611 125.037C95.3722 124.248 94.4443 123.805 93.3779 123.71L93.1631 123.695H55.7695L55.5449 123.71C54.4355 123.805 53.5111 124.248 52.7715 125.037C51.9827 125.826 51.5879 126.799 51.5879 127.956V128.981H50.7988V101.291C50.7988 99.7658 50.6673 98.1615 50.4043 96.4785C50.0887 94.7955 49.8266 93.638 49.6162 93.0068H62.1592ZM62.002 0.912109V1.78027H61.291C59.0297 1.72777 57.2415 2.35908 55.9268 3.67383C54.6942 4.85715 54.0158 6.47952 53.8926 8.54102L53.876 8.95898V18.1104H93.1631L93.3779 18.1055C94.4442 18.0562 95.3722 17.6376 96.1611 16.8486C96.95 16.0071 97.3438 14.9811 97.3438 13.7715V12.9033H98.1328V34.6777H97.3438V33.8096C97.3437 32.6526 96.9499 31.6795 96.1611 30.8906C95.3722 30.1017 94.4442 29.66 93.3779 29.5645L93.1631 29.5498H53.876V38.6221L53.8926 39.0498C54.0159 41.1575 54.6942 42.803 55.9268 43.9863C57.2415 45.1959 59.0297 45.8007 61.291 45.8008H62.002V46.6689H49.5371C49.6423 46.1956 49.7994 45.5113 50.0098 44.6172C50.2201 43.6706 50.4047 42.6453 50.5625 41.541C50.6677 40.384 50.7197 39.3314 50.7197 38.3848V9.27441C50.7197 8.27525 50.6677 7.19694 50.5625 6.04004C50.4047 4.88309 50.2466 3.83137 50.0889 2.88477C49.8785 1.93809 49.6949 1.28026 49.5371 0.912109H62.002ZM52.8506 288.109C52.8506 291.265 53.7441 294.027 55.5322 296.394C57.2678 298.76 59.7666 300.6 63.0273 301.915C66.2355 303.23 70.0746 303.888 74.5449 303.888C78.9628 303.888 82.7762 303.23 85.9844 301.915C89.1922 300.6 91.6904 298.76 93.4785 296.394C95.2141 294.027 96.082 291.265 96.082 288.109C96.082 284.901 95.214 282.114 93.4785 279.747C91.6904 277.328 89.1924 275.487 85.9844 274.225C82.7762 272.91 78.9628 272.253 74.5449 272.253C70.0747 272.253 66.2354 272.91 63.0273 274.225C59.7666 275.487 57.2678 277.328 55.5322 279.747C53.7441 282.114 52.8506 284.901 52.8506 288.109ZM45.1191 221.91C45.1191 225.644 46.1707 228.879 48.2744 231.614C50.3255 234.296 53.2446 236.374 57.0313 237.847C60.8179 239.267 65.3148 239.977 70.5215 239.977C75.7282 239.977 80.225 239.24 84.0117 237.768C87.7984 236.295 90.7439 234.217 92.8477 231.535C94.8988 228.8 95.9238 225.592 95.9238 221.91C95.9238 218.176 94.8986 214.968 92.8477 212.286C90.7439 209.551 87.7984 207.474 84.0117 206.054C80.225 204.581 75.7282 203.845 70.5215 203.845C65.3148 203.845 60.8179 204.581 57.0313 206.054C53.2446 207.474 50.3255 209.551 48.2744 212.286C46.1709 214.968 45.1192 218.176 45.1191 221.91ZM59.5732 589.04C60.203 588.992 60.8283 588.927 61.4492 588.849C60.8204 588.921 60.1951 588.987 59.5732 589.04Z" fill="#D4D4D4" fill-opacity="0.26"/>
</svg>
