<svg width="217" height="836" viewBox="0 0 217 836" fill="none" xmlns="http://www.w3.org/2000/svg">
<path d="M0 729.664C4.58034 680.198 46.1867 641.457 96.8428 641.457C137.427 641.457 172.175 666.325 186.744 701.652L200.357 667.187L216.207 692.389L189.212 708.319C191.452 715.133 192.962 722.279 193.646 729.664H164.6C160.201 696.623 131.892 671.108 97.6299 671.108C63.3681 671.108 35.0488 696.623 30.6602 729.664H0ZM188.161 342.481H172.585L172.33 342.505C171.749 342.584 171.265 342.846 170.878 343.288C170.404 343.762 170.167 344.363 170.167 345.09V345.896H169.693V332.571H170.167V333.378C170.167 334.073 170.404 334.689 170.878 335.227C171.265 335.669 171.749 335.918 172.33 335.974L172.585 335.985H193.212C194.318 335.985 195.299 335.954 196.152 335.891C196.974 335.796 197.622 335.717 198.096 335.653C198.529 335.56 198.751 335.514 198.76 335.512V335.938L179.594 357.703H195.251C195.946 357.672 196.532 357.402 197.006 356.896C197.448 356.391 197.669 355.79 197.669 355.095V354.289H198.144V367.565H197.669V366.807C197.669 366.08 197.448 365.464 197.006 364.958C196.532 364.452 195.946 364.199 195.251 364.199H174.435C172.823 364.199 171.527 364.278 170.547 364.436C169.548 364.592 169.041 364.671 169.029 364.673V364.246L188.161 342.481ZM188.161 218.937H172.585L172.33 218.96C171.749 219.04 171.265 219.3 170.878 219.742C170.404 220.216 170.167 220.818 170.167 221.545V222.351H169.693V209.026H170.167V209.832C170.167 210.527 170.404 211.144 170.878 211.682C171.32 212.187 171.89 212.44 172.585 212.44H193.212C194.318 212.44 195.299 212.409 196.152 212.346C196.974 212.251 197.622 212.172 198.096 212.108C198.533 212.015 198.754 211.967 198.76 211.966V212.393L179.595 234.157H195.251L195.507 234.135C196.091 234.055 196.591 233.794 197.006 233.352C197.448 232.846 197.669 232.245 197.669 231.55V230.743H198.144V247.018C198.144 248.725 198.018 250.179 197.765 251.38C197.512 252.549 197.053 253.577 196.389 254.462C195.693 255.315 194.761 256.106 193.592 256.833C193.181 257.117 192.69 257.417 192.121 257.733C191.521 258.049 190.92 258.367 190.319 258.683C189.719 258.999 189.134 259.283 188.565 259.536C187.996 259.757 187.522 259.915 187.143 260.01C186.131 260.421 185.404 260.895 184.961 261.433C184.487 261.938 184.25 262.412 184.25 262.854H183.823V261.67C183.823 261.006 183.712 260.358 183.491 259.726C183.238 259.062 182.78 258.461 182.116 257.924C181.421 257.386 180.41 256.991 179.082 256.738C178.892 256.675 178.623 256.627 178.275 256.596C177.928 256.533 177.532 256.517 177.09 256.549C175.92 256.612 174.987 256.833 174.292 257.212C173.565 257.56 173.028 258.003 172.681 258.54C172.301 259.077 172.048 259.63 171.922 260.199C171.764 260.737 171.685 261.211 171.685 261.622C171.653 262.223 171.653 262.776 171.685 263.281C171.685 263.727 171.669 264.075 171.641 264.325H195.156L195.444 264.312C196.098 264.254 196.619 263.989 197.006 263.519C197.448 262.95 197.669 262.349 197.669 261.717V261.243H198.144V274.282H197.669V273.714C197.669 273.018 197.432 272.433 196.958 271.959C196.55 271.551 196.079 271.299 195.547 271.2H172.229C171.687 271.299 171.235 271.55 170.878 271.959C170.404 272.433 170.167 273.002 170.167 273.666V274.282H169.693V259.678C169.693 258.382 169.836 257.117 170.12 255.885C170.373 254.652 170.8 253.545 171.4 252.565C171.969 251.586 172.759 250.811 173.771 250.242C174.75 249.642 175.984 249.341 177.47 249.341C178.576 249.341 179.683 249.578 180.789 250.052C181.864 250.494 182.796 251.206 183.586 252.186C184.376 253.134 184.898 254.383 185.151 255.932C185.436 255.015 185.989 254.146 186.811 253.324C187.632 252.471 188.407 251.806 189.134 251.332C189.387 251.206 189.798 250.985 190.367 250.669C190.905 250.353 191.537 249.958 192.264 249.483C192.959 248.978 193.687 248.455 194.445 247.918C195.299 247.286 195.962 246.733 196.437 246.259C196.879 245.785 197.195 245.295 197.385 244.789C197.559 244.324 197.652 243.792 197.666 243.193C197.652 242.496 197.434 241.902 197.006 241.412C196.532 240.906 195.946 240.654 195.251 240.654H174.435C172.823 240.654 171.527 240.733 170.547 240.891C169.547 241.047 169.041 241.126 169.029 241.128V240.701L188.161 218.937ZM169.076 116.872C169.076 114.343 169.425 112.052 170.12 109.997C170.784 107.942 171.763 106.171 173.06 104.686C174.356 103.2 175.921 102.062 177.754 101.271C179.587 100.45 181.658 100.039 183.966 100.039C186.242 100.039 188.297 100.45 190.13 101.271C191.932 102.062 193.481 103.2 194.777 104.686C196.073 106.171 197.069 107.942 197.765 109.997C198.428 112.052 198.76 114.343 198.76 116.872C198.76 119.369 198.428 121.646 197.765 123.7C197.069 125.755 196.073 127.526 194.777 129.012C193.481 130.497 191.932 131.635 190.13 132.426C188.297 133.216 186.242 133.61 183.966 133.61C181.658 133.61 179.587 133.216 177.754 132.426C175.921 131.636 174.356 130.497 173.06 129.012C171.763 127.526 170.784 125.755 170.12 123.7C169.425 121.645 169.076 119.369 169.076 116.872ZM188.161 72.7939H172.585L172.33 72.8174C171.749 72.897 171.265 73.1572 170.878 73.5996C170.404 74.0738 170.167 74.6753 170.167 75.4023V76.208H169.693L169.693 62.8838H170.167L170.167 63.6895C170.167 64.3848 170.404 65.0017 170.878 65.5391C171.32 66.0447 171.89 66.2977 172.585 66.2979H193.212C194.318 66.2979 195.299 66.2664 196.152 66.2031C196.974 66.1083 197.622 66.0291 198.096 65.9658C198.533 65.8722 198.754 65.8245 198.76 65.8232V66.25L179.595 88.0146H195.251L195.507 87.9922C196.091 87.9127 196.591 87.6515 197.006 87.209C197.448 86.7032 197.669 86.1025 197.669 85.4072V84.6006H198.144V97.8779H197.669V97.1191C197.669 96.3921 197.448 95.7753 197.006 95.2695C196.532 94.7637 195.946 94.5117 195.251 94.5117H174.435C172.823 94.5117 171.527 94.59 170.547 94.748C169.547 94.9043 169.041 94.9836 169.029 94.9854V94.5586L188.161 72.7939ZM165.426 370.075V370.691C165.426 371.513 165.726 372.225 166.326 372.825C166.824 373.323 167.419 373.616 168.11 373.702L168.413 373.727H194.682C195.504 373.695 196.215 373.394 196.815 372.825C197.384 372.225 197.669 371.513 197.669 370.691V370.075H198.144L198.144 384.49H197.669V383.874C197.669 383.052 197.384 382.356 196.815 381.787C196.29 381.262 195.68 380.954 194.985 380.864L194.682 380.839H168.413L168.11 380.864C167.419 380.954 166.824 381.262 166.326 381.787C165.726 382.356 165.426 383.052 165.426 383.874V384.49H164.951L164.951 370.075H165.426ZM176.426 303.633V304.154H175.999C174.64 304.123 173.566 304.502 172.775 305.292C172.035 306.003 171.627 306.979 171.553 308.218L171.542 308.469V313.97H195.156L195.412 313.958C196 313.903 196.515 313.654 196.958 313.211C197.432 312.705 197.669 312.088 197.669 311.361V310.84H198.144V323.928H197.669V323.405C197.669 322.71 197.432 322.125 196.958 321.651C196.515 321.209 196 320.948 195.412 320.868L195.156 320.845H171.542V326.298L171.553 326.556C171.627 327.822 172.035 328.811 172.775 329.522C173.566 330.249 174.64 330.613 175.999 330.613H176.426V331.135H168.935C168.998 330.85 169.092 330.439 169.219 329.902C169.345 329.333 169.456 328.717 169.551 328.053C169.614 327.357 169.645 326.725 169.646 326.156V308.659C169.646 308.059 169.614 307.41 169.551 306.715C169.456 306.02 169.361 305.387 169.267 304.818C169.14 304.25 169.029 303.854 168.935 303.633H176.426ZM176.521 279.572V280.046H176.095C174.704 280.046 173.613 280.425 172.822 281.184C172.081 281.865 171.674 282.839 171.6 284.104L171.59 284.361V291.189H183.112V285.783C183.081 284.677 182.717 283.808 182.021 283.176C181.294 282.512 180.409 282.18 179.366 282.18H179.034V281.706H189.087V282.18H188.707C187.664 282.18 186.795 282.512 186.1 283.176C185.448 283.769 185.087 284.57 185.019 285.579L185.009 285.783V291.189H196.247V285.594C196.247 284.234 195.978 283.033 195.44 281.99C194.872 280.916 194.082 279.999 193.07 279.24C192.027 278.482 190.81 277.896 189.419 277.485V277.059L198.144 278.86V301.194H197.669V300.578C197.669 299.883 197.432 299.297 196.958 298.823C196.515 298.381 196 298.12 195.412 298.04L195.156 298.018H172.681L172.413 298.04C171.805 298.12 171.293 298.381 170.878 298.823C170.404 299.297 170.167 299.883 170.167 300.578V301.194H169.693V284.551C169.693 283.634 169.614 282.67 169.456 281.658C169.266 280.647 169.108 279.952 168.981 279.572H176.521ZM195.014 180.279V180.277C195.994 179.803 196.69 179.218 197.101 178.522C197.48 177.827 197.669 177.163 197.669 176.531V176.151H198.144V190.093H197.669V189.713C197.669 189.176 197.448 188.686 197.006 188.243C196.619 187.883 196.107 187.785 195.469 187.949L190.699 189.97V199.989L195.095 201.882C195.91 202.195 196.547 202.139 197.006 201.71C197.448 201.268 197.669 200.777 197.669 200.24V199.86H198.144V209.344H197.669V208.965C197.669 208.333 197.48 207.669 197.101 206.974C196.69 206.278 195.994 205.709 195.014 205.267V205.252L174.15 195.546C173.961 195.483 173.628 195.34 173.154 195.119C172.649 194.898 172.096 194.66 171.495 194.407C170.863 194.154 170.278 193.918 169.74 193.696C169.172 193.475 168.729 193.349 168.413 193.317V192.938L195.014 180.279ZM176.426 152.35V152.871H175.999C174.64 152.84 173.566 153.22 172.775 154.01C172.034 154.721 171.627 155.696 171.553 156.936L171.542 157.187V162.688H195.156L195.412 162.675C196 162.62 196.515 162.371 196.958 161.929C197.432 161.423 197.669 160.806 197.669 160.079V159.558H198.144V172.645H197.669V172.123C197.669 171.428 197.432 170.843 196.958 170.369C196.515 169.926 196 169.665 195.412 169.586L195.156 169.562H171.542V175.016C171.574 176.407 171.985 177.482 172.775 178.24C173.566 178.967 174.64 179.331 175.999 179.331H176.426V179.853H168.935C168.998 179.568 169.092 179.157 169.219 178.619C169.345 178.05 169.456 177.434 169.551 176.771C169.614 176.075 169.646 175.442 169.646 174.873V157.376C169.645 156.775 169.614 156.127 169.551 155.432C169.456 154.736 169.361 154.104 169.267 153.535C169.14 152.966 169.029 152.571 168.935 152.35H176.426ZM170.167 136.492V137.014C170.167 137.772 170.404 138.421 170.878 138.958C171.293 139.4 171.805 139.662 172.413 139.741L172.681 139.765H195.156L195.412 139.741C196 139.662 196.515 139.401 196.958 138.958C197.432 138.421 197.669 137.772 197.669 137.014V136.445H198.144V149.912H197.669V149.295C197.669 148.568 197.432 147.936 196.958 147.398C196.515 146.928 196 146.664 195.412 146.605L195.156 146.593H172.681L172.413 146.605C171.805 146.664 171.293 146.928 170.878 147.398C170.404 147.936 170.167 148.584 170.167 149.343V149.912H169.693V136.445L170.167 136.492ZM195.014 34.1367V34.1348C195.994 33.6606 196.69 33.0753 197.101 32.3799C197.48 31.6846 197.669 31.0208 197.669 30.3887V30.0088H198.144V43.9502H197.669V43.5703C197.669 43.0331 197.448 42.543 197.006 42.1006C196.619 41.74 196.107 41.6425 195.469 41.8066L190.699 43.8271V53.8467L195.095 55.7393C195.91 56.0519 196.547 55.996 197.006 55.5674C197.448 55.1249 197.669 54.6349 197.669 54.0977V53.7178H198.144L198.144 63.2012H197.669L197.669 62.8223C197.669 62.1901 197.48 61.5264 197.101 60.8311C196.69 60.1356 195.994 59.5666 195.014 59.124V59.1094L174.15 49.4033C173.961 49.3401 173.628 49.1978 173.154 48.9766C172.649 48.7553 172.096 48.5175 171.495 48.2646C170.863 48.0118 170.278 47.775 169.74 47.5537C169.172 47.3326 168.729 47.2065 168.413 47.1748V46.7949L195.014 34.1367ZM170.167 16.6113V17.1797C170.167 17.8751 170.404 18.4766 170.878 18.9824C171.293 19.4249 171.805 19.686 172.413 19.7656L172.681 19.7881H196.247V14.1924C196.247 12.8333 195.978 11.632 195.44 10.5889C194.871 9.51428 194.082 8.59741 193.07 7.83887C192.027 7.0802 190.81 6.49493 189.419 6.08398V5.61035L198.144 7.45996V29.793H197.669V29.1768C197.669 28.4813 197.432 27.8961 196.958 27.4219C196.515 26.9794 196 26.7191 195.412 26.6396L195.156 26.6162H172.681L172.413 26.6396C171.805 26.7192 171.293 26.9794 170.878 27.4219C170.404 27.9277 170.167 28.5292 170.167 29.2246V29.793H169.693V16.6113H170.167ZM170.926 116.872C170.926 118.769 171.463 120.429 172.538 121.852C173.581 123.274 175.083 124.381 177.043 125.171C178.971 125.961 181.279 126.355 183.966 126.355C186.621 126.355 188.913 125.961 190.841 125.171C192.769 124.381 194.271 123.274 195.346 121.852C196.389 120.429 196.911 118.769 196.911 116.872C196.911 114.944 196.389 113.268 195.346 111.846C194.271 110.392 192.769 109.285 190.841 108.526C188.913 107.736 186.621 107.342 183.966 107.342C181.279 107.342 178.971 107.736 177.043 108.526C175.083 109.285 173.581 110.392 172.538 111.846C171.463 113.268 170.926 114.944 170.926 116.872ZM30.7559 748.73C34.6273 775 53.6573 796.359 78.665 803.652C78.573 803.618 78.4804 803.584 78.3887 803.549L78.3887 748.716H108.726L108.726 805.438C137.527 800.67 160.207 777.683 164.474 748.73H193.56C188.535 797.742 147.181 835.999 96.8271 835.999C46.4739 835.999 5.08909 797.742 0.0546875 748.73H30.7559ZM188.85 199.192V190.753L178.97 194.939L188.85 199.192ZM188.85 53.0498V44.6104L178.97 48.7969L188.85 53.0498ZM61.9707 282.624C61.9707 274.553 63.4841 267.557 66.5107 261.639C69.4701 255.653 73.6741 251.046 79.1221 247.817C84.57 244.589 91.0941 242.975 98.6943 242.975C106.227 242.975 112.751 244.589 118.267 247.817C123.715 251.046 127.952 255.653 130.979 261.639C132.05 263.805 132.925 266.105 133.608 268.536C133.736 267.876 133.868 267.225 134.006 266.582C134.678 263.757 135.452 260.899 136.326 258.007C137.268 255.115 138.344 252.021 139.555 248.726C140.833 245.43 142.278 241.696 143.893 237.526C145.641 233.02 146.919 228.581 147.727 224.209C148.534 219.77 148.836 215.533 148.634 211.497C148.432 207.462 147.726 203.695 146.516 200.198C145.305 196.701 143.556 193.573 141.27 190.815L141.673 190.21C144.834 190.412 147.793 191.42 150.551 193.236C153.308 195.052 155.663 197.574 157.613 200.803C159.564 204.031 160.875 207.866 161.548 212.305C162.288 216.676 162.187 221.519 161.245 226.832C160.371 232.145 158.42 237.795 155.394 243.781C153.51 247.548 151.459 251.113 149.239 254.476C147.087 257.839 145.002 261.135 142.984 264.363C140.967 267.524 139.251 270.651 137.839 273.745C136.494 276.839 135.687 280.001 135.418 283.229L135.413 283.232C135.34 291.049 133.863 297.874 130.979 303.709C127.952 309.628 123.715 314.202 118.267 317.431C112.819 320.659 106.294 322.272 98.6943 322.272C91.1613 322.272 84.6706 320.659 79.2227 317.431C73.7074 314.202 69.4701 309.628 66.5107 303.709C63.4843 297.723 61.9707 290.695 61.9707 282.624ZM74.3799 513.034V514.446C74.3799 515.724 74.7839 516.8 75.5908 517.675C76.3475 518.494 77.3111 518.93 78.4814 518.981L78.7188 518.986H111.507C117.695 518.986 122.538 517.574 126.035 514.749C129.533 511.857 131.281 507.855 131.281 502.743C131.281 497.43 129.633 493.328 126.338 490.436C123.042 487.476 118.469 485.963 112.617 485.896H78.7188L78.4814 485.912C77.311 486.022 76.3475 486.488 75.5908 487.308C74.7837 488.182 74.3799 489.225 74.3799 490.436V491.848H73.4727V473.284H74.3799V474.596C74.3799 475.874 74.7838 476.983 75.5908 477.925C76.3475 478.744 77.3111 479.18 78.4814 479.231L78.7188 479.236H112.012C119.208 479.236 124.891 481.456 129.062 485.896C133.232 490.267 135.317 496.489 135.317 504.56C135.317 514.312 133.266 521.576 129.163 526.352C124.993 531.127 119.309 533.515 112.112 533.515H78.7188L78.4814 533.532C77.3111 533.643 76.3474 534.107 75.5908 534.927C74.7838 535.801 74.3799 536.877 74.3799 538.155V539.568H73.4727V513.034H74.3799ZM72.1611 367.282C72.1612 361.902 72.9002 357.025 74.3799 352.653C75.7923 348.282 77.8782 344.516 80.6357 341.354C83.3933 338.193 86.7221 335.771 90.623 334.09C94.5241 332.341 98.9299 331.467 103.84 331.467C108.682 331.467 113.054 332.341 116.955 334.09C120.789 335.771 124.085 338.193 126.843 341.354C129.6 344.516 131.719 348.282 133.198 352.653C134.611 357.025 135.317 361.902 135.317 367.282C135.317 372.596 134.611 377.439 133.198 381.811C131.719 386.182 129.6 389.949 126.843 393.11C124.085 396.272 120.789 398.693 116.955 400.374C113.054 402.055 108.682 402.896 103.84 402.896C98.9299 402.896 94.5241 402.056 90.623 400.374C86.7223 398.693 83.3932 396.271 80.6357 393.11C77.8781 389.949 75.7923 386.182 74.3799 381.811C72.9002 377.439 72.1611 372.596 72.1611 367.282ZM74.3799 209.088V210.5C74.3799 211.778 74.7838 212.854 75.5908 213.729C76.3475 214.548 77.3111 214.984 78.4814 215.035L78.7188 215.04H111.507C117.695 215.04 122.538 213.628 126.035 210.803C129.533 207.911 131.281 203.909 131.281 198.797C131.281 193.484 129.634 189.38 126.338 186.488C123.042 183.529 118.469 182.016 112.617 181.949H78.7188L78.4814 181.966C77.311 182.076 76.3475 182.542 75.5908 183.361C74.7839 184.236 74.38 185.278 74.3799 186.488V187.901H73.4727V169.338H74.3799V170.649C74.3799 171.927 74.7838 173.037 75.5908 173.979C76.3475 174.798 77.311 175.234 78.4814 175.285L78.7188 175.29H112.012C119.208 175.29 124.891 177.51 129.062 181.949C133.232 186.321 135.317 192.542 135.317 200.613C135.317 210.366 133.266 217.63 129.163 222.405C124.993 227.181 119.309 229.568 112.112 229.568H78.7188L78.4814 229.586C77.3111 229.696 76.3474 230.161 75.5908 230.98C74.7837 231.855 74.3799 232.931 74.3799 234.209V235.621H73.4727V209.088H74.3799ZM72.1611 86.2529C72.1611 84.9078 72.2278 83.2934 72.3623 81.4102C72.4968 79.4597 72.6654 77.5424 72.8672 75.6592C72.9226 74.8839 72.9902 74.1486 73.0684 73.4531V67.6895L74.0586 67.7451C74.0653 67.7262 74.0705 67.7073 74.0771 67.6895L86.3857 69.001V69.9092C83.2919 69.9092 80.8374 70.9855 79.0215 73.1377C77.2055 75.29 76.2969 78.3835 76.2969 82.4189C76.2969 85.6473 77.0036 88.2703 78.416 90.2881C79.8284 92.2386 81.7114 93.2815 84.0654 93.416C85.276 93.5505 86.3857 93.3485 87.3945 92.8105C88.3361 92.2053 89.1772 91.3984 89.917 90.3896C90.6568 89.3135 91.3969 88.1362 92.1367 86.8584L101.923 71.0186C103.268 68.3283 105.219 66.21 107.774 64.6631C110.33 63.1162 113.424 62.4428 117.056 62.6445C120.822 62.8463 124.085 63.9568 126.843 65.9746C129.6 67.9251 131.719 70.6492 133.198 74.1465C134.611 77.5766 135.317 81.6456 135.317 86.3535C135.317 89.2457 135.081 91.9362 134.61 94.4248C134.14 96.9133 133.5 99.0659 132.693 100.882C131.886 102.63 130.979 103.975 129.97 104.917C128.625 105.455 127.01 105.69 125.127 105.623C123.177 105.556 121.26 105.254 119.377 104.716C117.426 104.178 115.812 103.504 114.534 102.697V101.891C117.561 102.092 120.352 101.554 122.907 100.276C125.463 98.9312 127.515 96.9806 129.062 94.4248C130.541 91.869 131.281 88.8088 131.281 85.2441C131.281 81.3433 130.373 78.4173 128.558 76.4668C126.742 74.5163 124.622 73.541 122.201 73.541C120.385 73.5411 118.771 74.1458 117.358 75.3564C115.879 76.4999 114.433 78.4171 113.021 81.1074L103.94 95.4336C102.192 98.7965 99.8716 101.252 96.9795 102.799C94.0875 104.279 90.9262 104.817 87.4961 104.413C84.2677 104.077 81.5095 103.135 79.2227 101.588C76.9359 99.9737 75.1872 97.8545 73.9766 95.2314C72.766 92.6085 72.1611 89.6157 72.1611 86.2529ZM79.2227 550.462V551.471H78.0127C74.919 551.471 72.4301 552.412 70.5469 554.295C68.9585 555.827 68.0182 557.838 67.7217 560.326V578.307H97.0801V564.989C97.0128 562.501 96.1718 560.449 94.5576 558.835C92.8762 557.221 90.7911 556.414 88.3027 556.414H87.5967V555.405H110.801V556.414H109.994C107.506 556.414 105.454 557.221 103.84 558.835C102.326 560.348 101.493 562.246 101.339 564.528L101.317 564.989V578.307H129.667V565.091C129.667 561.728 129.028 558.768 127.75 556.212C126.405 553.656 124.522 551.47 122.101 549.654C119.612 547.838 116.686 546.393 113.323 545.316V544.308L134.006 548.948V601.209H132.996V599.896C132.996 598.148 132.391 596.669 131.181 595.458C129.983 594.26 128.578 593.594 126.966 593.46L126.641 593.44H70.748C68.9995 593.508 67.5202 594.18 66.3096 595.458C65.0318 596.669 64.3927 598.148 64.3926 599.896V601.209H63.3838L63.3838 562.77C63.3838 561.29 63.2828 559.743 63.0811 558.129C62.8793 556.447 62.6431 554.901 62.374 553.488C62.105 552.076 61.8364 551.067 61.5674 550.462H79.2227ZM73.4727 435.947C73.4727 433.19 73.7746 430.499 74.3799 427.876C74.918 425.253 75.8266 422.899 77.1045 420.814C78.3151 418.73 79.9963 417.082 82.1484 415.871C84.2334 414.593 86.8566 413.954 90.0176 413.954C92.3716 413.954 94.7261 414.458 97.0801 415.467C99.3668 416.408 101.351 417.922 103.032 420.007C104.714 422.025 105.824 424.682 106.362 427.978C106.968 426.027 108.144 424.177 109.893 422.429C111.641 420.613 113.29 419.2 114.837 418.191C115.375 417.922 116.249 417.451 117.46 416.778C118.603 416.106 119.948 415.266 121.495 414.257C122.975 413.181 124.522 412.07 126.136 410.927C127.952 409.582 129.364 408.405 130.373 407.396C131.315 406.388 131.988 405.345 132.392 404.269C132.795 403.192 132.996 401.948 132.996 400.535H134.006V409.011C134.006 412.643 133.736 415.736 133.198 418.292C132.66 420.781 131.685 422.966 130.272 424.85C128.793 426.666 126.809 428.348 124.32 429.895C123.446 430.5 122.403 431.139 121.192 431.812C119.915 432.484 118.636 433.157 117.358 433.829C116.081 434.502 114.836 435.107 113.626 435.645C112.416 436.115 111.407 436.452 110.6 436.653C108.447 437.528 106.9 438.537 105.958 439.681C104.949 440.757 104.445 441.766 104.445 442.707H103.537V440.185C103.537 438.772 103.302 437.394 102.831 436.049C102.293 434.636 101.318 433.358 99.9053 432.215C98.4256 431.071 96.2731 430.23 93.4482 429.692C93.0447 429.558 92.4731 429.457 91.7334 429.39C90.9936 429.255 90.1525 429.222 89.2109 429.289C86.7225 429.424 84.7384 429.894 83.2588 430.701C81.7118 431.441 80.568 432.383 79.8281 433.526C79.0211 434.67 78.4829 435.847 78.2139 437.058C77.8776 438.201 77.71 439.21 77.71 440.084C77.6427 441.362 77.6427 442.539 77.71 443.615C77.71 444.563 77.6775 445.303 77.6182 445.835H127.649L127.96 445.828C129.493 445.761 130.701 445.191 131.584 444.119C132.525 442.909 132.996 441.631 132.996 440.286V439.276H134.006V467.021H132.996V465.811C132.996 464.331 132.492 463.087 131.483 462.078C130.622 461.217 129.631 460.679 128.512 460.464H78.8359C77.6951 460.679 76.7475 461.217 75.9941 462.078C74.9855 463.087 74.4814 464.298 74.4814 465.71V467.021H73.4727L73.4727 435.947ZM88 117.775V118.784H87.0918C84.1326 118.784 81.8123 119.592 80.1309 121.206C78.5545 122.656 77.6879 124.727 77.5303 127.419L77.5078 127.966L77.5078 142.493H102.023L102.023 130.992C101.956 128.638 101.183 126.789 99.7031 125.443C98.1562 124.031 96.2732 123.324 94.0537 123.324H93.3477V122.315H114.735V123.324H113.929C111.709 123.324 109.86 124.031 108.38 125.443C106.993 126.704 106.226 128.409 106.08 130.557L106.06 130.992L106.06 142.493H129.97V130.589C129.97 127.697 129.398 125.14 128.255 122.921C127.044 120.634 125.362 118.684 123.21 117.069C120.99 115.455 118.401 114.211 115.441 113.337V112.429L134.006 116.263V163.781H132.996V162.47C132.996 160.99 132.492 159.745 131.483 158.736C130.475 157.728 129.288 157.162 127.925 157.04L127.649 157.021H79.8281C78.2812 157.089 77.003 157.66 75.9941 158.736C74.9853 159.745 74.4814 160.99 74.4814 162.47V163.781H73.4727L73.4727 128.369C73.4727 126.419 73.3041 124.367 72.9678 122.215C72.5642 120.063 72.228 118.583 71.959 117.775H88ZM87.7988 0V1.11035H86.8906C83.9986 1.04309 81.7117 1.84985 80.0303 3.53125C78.4539 5.04456 77.5864 7.11945 77.4287 9.75586L77.4072 10.291V21.9941H127.649L127.925 21.9873C129.288 21.9242 130.475 21.3887 131.483 20.3799C132.492 19.3038 132.996 17.9921 132.996 16.4453V15.335H134.006V43.1807H132.996V42.0703C132.996 40.5909 132.492 39.3467 131.483 38.3379C130.475 37.3291 129.288 36.7639 127.925 36.6416L127.649 36.623H77.4072V48.2246L77.4287 48.7715C77.5863 51.4673 78.4538 53.5715 80.0303 55.085C81.7117 56.6319 83.9985 57.4062 86.8906 57.4062H87.7988V58.5156H71.8584C71.9929 57.9103 72.1939 57.0359 72.4629 55.8926C72.7319 54.6819 72.9682 53.3704 73.1699 51.958C73.3044 50.4783 73.3711 49.1325 73.3711 47.9219V10.6943C73.3711 9.41644 73.3044 8.03729 73.1699 6.55762C72.9682 5.07806 72.7662 3.73303 72.5645 2.52246C72.2954 1.31177 72.0602 0.470825 71.8584 0H87.7988ZM76.0957 367.282C76.0957 371.318 77.2386 374.849 79.5254 377.876C81.7449 380.903 84.9403 383.257 89.1104 384.938C93.2131 386.62 98.123 387.46 103.84 387.46C109.49 387.46 114.366 386.62 118.469 384.938C122.571 383.257 125.766 380.903 128.053 377.876C130.272 374.849 131.382 371.318 131.382 367.282C131.382 363.18 130.272 359.615 128.053 356.589C125.766 353.495 122.571 351.141 118.469 349.526C114.366 347.845 109.49 347.004 103.84 347.004C98.123 347.004 93.2131 347.845 89.1104 349.526C84.9403 351.141 81.7449 353.495 79.5254 356.589C77.2388 359.615 76.0958 363.18 76.0957 367.282ZM66.208 282.624C66.2081 287.399 67.5538 291.536 70.2441 295.033C72.8672 298.463 76.5999 301.12 81.4424 303.003C86.285 304.819 92.0357 305.728 98.6943 305.728C105.353 305.728 111.104 304.786 115.946 302.902C120.789 301.019 124.556 298.362 127.246 294.932C129.869 291.434 131.181 287.332 131.181 282.624C131.181 277.849 129.869 273.746 127.246 270.315C124.556 266.818 120.789 264.161 115.946 262.345C111.104 260.461 105.353 259.521 98.6943 259.521C92.0358 259.521 86.285 260.461 81.4424 262.345C76.5998 264.161 72.8672 266.818 70.2441 270.315C67.5538 273.746 66.208 277.849 66.208 282.624ZM102.344 806.185C103.701 806.091 105.047 805.957 106.381 805.784C105.026 805.944 103.68 806.078 102.344 806.185Z" fill="#D4D4D4" fill-opacity="0.26"/>
</svg>
