<svg width="127" height="142" viewBox="0 0 127 142" fill="none" xmlns="http://www.w3.org/2000/svg">
<path d="M97.964 111.618L110.194 130.789L93.7424 141.136L80.7812 119.172" fill="#7D8DA2"/>
<path d="M69.418 107.45C90.9869 104.578 107.643 86.098 107.643 63.7321C107.643 41.3663 90.9869 22.8796 69.418 20.0147V0C101.709 2.99002 126.999 30.1504 126.999 63.2184C126.999 96.2864 101.709 123.421 69.418 126.411V107.443V107.45Z" fill="#3E5EC0"/>
<path d="M56.9684 107.368C35.6958 104.233 19.3561 85.8717 19.3561 63.7231C19.3561 41.5746 35.6958 23.213 56.9684 20.0781V0.0371094C24.9739 3.32349 0 30.339 0 63.2094C0 96.0799 24.9739 123.076 56.9684 126.355V107.368Z" fill="#3E5EC0"/>
<path d="M19.9255 70.9734H56.9911V51.1694H21.1965C18.8981 57.1034 18.9639 63.8803 19.932 70.9734H19.9255Z" fill="#3E5EC0"/>
</svg>
