<svg width="176" height="46" viewBox="0 0 176 46" fill="none" xmlns="http://www.w3.org/2000/svg">
<path d="M22.3535 0C32.7532 0.962969 40.8984 9.71042 40.8984 20.3604C40.8984 28.8914 35.6712 36.1949 28.2461 39.2588L35.4922 42.1211L30.1943 45.4531L26.8447 39.7773C25.411 40.249 23.9076 40.568 22.3535 40.7119V34.6055C29.3 33.6807 34.6641 27.7286 34.6641 20.5254C34.6639 13.3223 29.3 7.36895 22.3535 6.44629V0ZM103.759 39.8896V36.6152L103.744 36.5107C103.721 36.4109 103.669 36.3257 103.589 36.2559C103.489 36.1563 103.363 36.1064 103.21 36.1064H103.041V36.0068H105.842V36.1064H105.673C105.527 36.1064 105.396 36.1562 105.283 36.2559C105.203 36.3257 105.154 36.4109 105.134 36.5107L105.124 36.6152V40.9512C105.124 41.1837 105.131 41.3899 105.145 41.5693C105.164 41.7421 105.181 41.8788 105.194 41.9785C105.214 42.0714 105.224 42.1182 105.224 42.1182H105.134L100.559 38.0889V41.3799L100.572 41.4854C100.596 41.5863 100.648 41.6742 100.728 41.749C100.834 41.842 100.96 41.8886 101.106 41.8887H101.276V41.9883H98.4844V41.8887H98.6445C98.7973 41.8886 98.9269 41.842 99.0332 41.749C99.1395 41.6493 99.1924 41.5261 99.1924 41.3799V37.0039C99.1924 36.6651 99.1758 36.3925 99.1426 36.1865C99.1093 35.9739 99.0928 35.8672 99.0928 35.8672H99.1826L103.759 39.8896ZM129.732 39.8896V36.6152L129.718 36.5107C129.694 36.411 129.643 36.3257 129.563 36.2559C129.464 36.1563 129.337 36.1065 129.185 36.1064H129.015V36.0068H131.816V36.1064H131.646C131.5 36.1065 131.371 36.1563 131.258 36.2559C131.178 36.3257 131.128 36.4109 131.108 36.5107L131.099 36.6152V40.9512C131.099 41.1837 131.105 41.39 131.118 41.5693C131.138 41.7421 131.155 41.8788 131.168 41.9785C131.188 42.0714 131.198 42.1182 131.198 42.1182H131.108L126.532 38.0879V41.3799C126.539 41.5261 126.596 41.6493 126.702 41.749C126.808 41.842 126.935 41.8887 127.081 41.8887H127.25V41.9883H123.829C123.47 41.9883 123.165 41.9613 122.912 41.9082C122.666 41.855 122.45 41.7587 122.264 41.6191C122.084 41.473 121.918 41.277 121.766 41.0312C121.706 40.945 121.643 40.8421 121.576 40.7227C121.51 40.5964 121.442 40.47 121.376 40.3438C121.31 40.2175 121.25 40.0942 121.197 39.9746C121.151 39.8552 121.118 39.7555 121.098 39.6758C121.011 39.4631 120.911 39.3098 120.798 39.2168C120.692 39.1172 120.592 39.0674 120.499 39.0674V38.9775H120.748C120.888 38.9775 121.024 38.9547 121.157 38.9082C121.297 38.8551 121.423 38.7586 121.536 38.6191C121.649 38.4729 121.732 38.2596 121.785 37.9805C121.798 37.9406 121.809 37.8844 121.815 37.8115C121.829 37.7385 121.832 37.6553 121.825 37.5625C121.812 37.3166 121.765 37.1198 121.686 36.9736C121.612 36.8208 121.519 36.7079 121.406 36.6348C121.293 36.5551 121.177 36.5022 121.058 36.4756C120.945 36.4424 120.845 36.4258 120.759 36.4258C120.633 36.4191 120.516 36.4191 120.409 36.4258C120.316 36.4258 120.243 36.4219 120.19 36.416V41.3604L120.2 41.4775C120.221 41.5886 120.275 41.6791 120.359 41.749C120.479 41.842 120.605 41.8887 120.738 41.8887H120.838V41.9883H118.097V41.8887H118.216C118.362 41.8887 118.485 41.8388 118.585 41.7393C118.672 41.6522 118.724 41.5513 118.744 41.4375V36.5439C118.724 36.4282 118.672 36.3318 118.585 36.2559C118.485 36.1564 118.366 36.1065 118.227 36.1064H118.097V36.0068H121.167C121.439 36.0068 121.706 36.0369 121.965 36.0967C122.224 36.1499 122.456 36.24 122.662 36.3662C122.868 36.4858 123.032 36.6516 123.151 36.8643C123.278 37.0702 123.34 37.3294 123.34 37.6416C123.34 37.8742 123.29 38.1072 123.19 38.3398C123.097 38.5657 122.948 38.7617 122.742 38.9277C122.543 39.0938 122.281 39.2036 121.955 39.2568C122.148 39.3167 122.33 39.4329 122.503 39.6055C122.682 39.7782 122.822 39.9409 122.922 40.0938C122.948 40.1469 122.995 40.2339 123.062 40.3535C123.128 40.4664 123.211 40.5992 123.311 40.752C123.417 40.8982 123.527 41.0514 123.64 41.2109C123.772 41.3902 123.889 41.5302 123.988 41.6299C124.088 41.7227 124.191 41.7892 124.297 41.8291C124.395 41.8658 124.507 41.8838 124.633 41.8867C124.779 41.8839 124.904 41.839 125.007 41.749C125.087 41.6742 125.136 41.5863 125.156 41.4854L125.167 41.3799V37.0039C125.167 36.6651 125.15 36.3925 125.117 36.1865C125.084 35.9739 125.067 35.8672 125.067 35.8672H125.156L129.732 39.8896ZM151.19 35.877C151.722 35.877 152.204 35.9505 152.636 36.0967C153.068 36.2362 153.441 36.4424 153.753 36.7148C154.065 36.9872 154.305 37.3159 154.471 37.7012C154.644 38.0866 154.729 38.5227 154.729 39.0078C154.729 39.4862 154.643 39.9183 154.471 40.3037C154.305 40.6824 154.065 41.0078 153.753 41.2803C153.441 41.5528 153.068 41.762 152.636 41.9082C152.204 42.0477 151.722 42.1182 151.19 42.1182C150.665 42.1182 150.187 42.0478 149.755 41.9082C149.323 41.762 148.951 41.5527 148.639 41.2803C148.326 41.0079 148.087 40.6824 147.921 40.3037C147.755 39.9183 147.671 39.4862 147.671 39.0078C147.671 38.5227 147.755 38.0866 147.921 37.7012C148.087 37.3159 148.326 36.9872 148.639 36.7148C148.951 36.4424 149.323 36.2362 149.755 36.0967C150.187 35.9505 150.665 35.877 151.19 35.877ZM160.457 39.8887V36.6152L160.443 36.5107C160.42 36.4108 160.368 36.3258 160.288 36.2559C160.188 36.1562 160.062 36.1064 159.909 36.1064H159.739V36.0068H162.541V36.1064H162.371C162.225 36.1065 162.095 36.1563 161.982 36.2559C161.903 36.3257 161.853 36.4109 161.833 36.5107L161.823 36.6152V40.9512C161.823 41.1837 161.829 41.39 161.843 41.5693C161.863 41.7421 161.879 41.8788 161.893 41.9785C161.913 42.0715 161.923 42.1182 161.923 42.1182H161.833L157.258 38.0889V41.3799L157.271 41.4854C157.295 41.5863 157.347 41.6742 157.427 41.749C157.533 41.8421 157.659 41.8887 157.806 41.8887H157.976V41.9883H155.184V41.8887H155.344C155.496 41.8886 155.626 41.842 155.732 41.749C155.839 41.6494 155.892 41.526 155.892 41.3799V37.0039C155.892 36.6651 155.875 36.3925 155.842 36.1865C155.809 35.9739 155.792 35.8672 155.792 35.8672H155.882L160.457 39.8887ZM97.957 35.1094H97.8271C97.6546 35.1095 97.5051 35.1727 97.3789 35.2988C97.2594 35.4184 97.1962 35.5647 97.1895 35.7373V41.2607L97.2051 41.3857C97.2312 41.5066 97.2892 41.6143 97.3789 41.709C97.5051 41.8285 97.6545 41.8886 97.8271 41.8887H97.957V41.9883H94.9268V41.8887H95.0557C95.2285 41.8887 95.3755 41.8286 95.4951 41.709C95.5897 41.6143 95.6503 41.5065 95.6777 41.3857L95.6943 41.2607V35.7373L95.6777 35.6133C95.6503 35.4936 95.5898 35.3886 95.4951 35.2988C95.3755 35.1726 95.2285 35.1094 95.0557 35.1094H94.9268V35.0098H97.957V35.1094ZM111.926 37.4229H111.816V37.333C111.823 37.0474 111.743 36.8214 111.577 36.6553C111.418 36.4891 111.195 36.4022 110.909 36.3955H109.753V41.3604L109.763 41.4658C109.783 41.5681 109.832 41.6594 109.912 41.7393C110.018 41.8389 110.148 41.8886 110.301 41.8887H110.411V41.9883H107.659V41.8887H107.769C107.915 41.8887 108.038 41.8389 108.138 41.7393C108.218 41.6594 108.269 41.5681 108.293 41.4658L108.308 41.3604V36.3955H107.161L107.055 36.4023C106.813 36.4256 106.623 36.5098 106.483 36.6553C106.331 36.8214 106.254 37.0472 106.254 37.333V37.4229H106.144V35.8477C106.203 35.8609 106.29 35.8806 106.403 35.9072C106.523 35.9338 106.652 35.9566 106.792 35.9766C106.938 35.9898 107.071 35.9971 107.19 35.9971H110.869C110.995 35.9971 111.132 35.9899 111.278 35.9766C111.424 35.9566 111.557 35.9369 111.677 35.917C111.796 35.8905 111.879 35.8676 111.926 35.8477V37.4229ZM116.984 37.4424H116.885V37.3525C116.885 37.0602 116.805 36.8312 116.646 36.665C116.493 36.4989 116.27 36.4119 115.978 36.4053H114.542V38.8281H115.679C115.911 38.8215 116.094 38.7448 116.227 38.5986C116.366 38.4459 116.436 38.2601 116.437 38.041V37.9707H116.536V40.084H116.437V40.0049C116.437 39.7856 116.366 39.6023 116.227 39.4561C116.127 39.3465 115.999 39.2763 115.844 39.2451L115.679 39.2266H114.542V41.5898H115.719C116.004 41.5898 116.257 41.5329 116.477 41.4199C116.702 41.3003 116.895 41.1344 117.055 40.9219C117.214 40.7027 117.336 40.4466 117.423 40.1543H117.513L117.134 41.9883H112.438V41.8887H112.568C112.715 41.8886 112.838 41.8389 112.938 41.7393C113.017 41.6595 113.068 41.5681 113.092 41.4658L113.106 41.3604V36.6348C113.1 36.482 113.044 36.3555 112.938 36.2559C112.838 36.1562 112.715 36.1065 112.568 36.1064H112.438V36.0068H115.938C116.13 36.0068 116.333 35.9903 116.546 35.957C116.758 35.9172 116.905 35.884 116.984 35.8574V37.4424ZM137.86 41.3301L137.939 41.4736C138.023 41.6057 138.12 41.7038 138.229 41.7686C138.376 41.8482 138.515 41.8886 138.647 41.8887H138.728V41.9883H135.797V41.8887H135.876C135.989 41.8887 136.093 41.8421 136.186 41.749C136.265 41.6635 136.281 41.5495 136.238 41.4053L135.822 40.4229H133.716L133.321 41.3369C133.251 41.5131 133.263 41.6506 133.354 41.749C133.447 41.8419 133.55 41.8886 133.663 41.8887H133.743V41.9883H131.749V41.8887H131.829C131.962 41.8886 132.102 41.8483 132.248 41.7686C132.394 41.6821 132.513 41.5359 132.606 41.3301H132.609L134.65 36.9443C134.664 36.9045 134.694 36.8341 134.74 36.7344C134.787 36.6281 134.837 36.5119 134.89 36.3857C134.943 36.2528 134.993 36.1296 135.039 36.0166C135.086 35.8971 135.112 35.8037 135.119 35.7373H135.198L137.86 41.3301ZM143.731 37.4229H143.622V37.333C143.629 37.0474 143.549 36.8214 143.383 36.6553C143.243 36.51 143.055 36.4257 142.819 36.4023L142.715 36.3955H141.559V41.3604L141.568 41.4658C141.588 41.5681 141.638 41.6594 141.718 41.7393C141.824 41.8389 141.954 41.8886 142.106 41.8887H142.217V41.9883H139.465V41.8887H139.574C139.72 41.8887 139.844 41.8389 139.943 41.7393C140.023 41.6594 140.075 41.5681 140.099 41.4658L140.113 41.3604V36.3955H138.967L138.86 36.4023C138.619 36.4255 138.428 36.5098 138.288 36.6553C138.136 36.8214 138.06 37.0475 138.06 37.333V37.4229H137.949V35.8477C138.009 35.8609 138.096 35.8806 138.209 35.9072C138.329 35.9338 138.458 35.9566 138.598 35.9766C138.744 35.9898 138.877 35.9971 138.996 35.9971H142.675C142.801 35.9971 142.938 35.9899 143.084 35.9766C143.23 35.9566 143.363 35.9369 143.482 35.917C143.602 35.8905 143.685 35.8676 143.731 35.8477V37.4229ZM147.065 36.1064H146.956C146.797 36.1064 146.66 36.1562 146.547 36.2559C146.467 36.3307 146.415 36.4206 146.392 36.5254L146.378 36.6348V41.3604L146.392 41.4658C146.415 41.5682 146.467 41.6594 146.547 41.7393C146.66 41.8389 146.797 41.8887 146.956 41.8887H147.075V41.9883H144.244V41.8887H144.374C144.527 41.8886 144.66 41.8388 144.772 41.7393C144.857 41.6594 144.911 41.5681 144.932 41.4658L144.942 41.3604V36.6348L144.932 36.5254C144.91 36.4206 144.857 36.3307 144.772 36.2559C144.66 36.1564 144.524 36.1065 144.364 36.1064H144.244V36.0068H147.075L147.065 36.1064ZM168.585 41.3301C168.685 41.536 168.808 41.6821 168.954 41.7686C169.1 41.8483 169.24 41.8887 169.373 41.8887H169.452V41.9883H166.521V41.8887H166.602C166.714 41.8886 166.817 41.8419 166.91 41.749C166.99 41.6635 167.005 41.5496 166.963 41.4053L166.547 40.4229H164.441L164.044 41.3438C163.977 41.5167 163.988 41.6518 164.079 41.749C164.172 41.8421 164.276 41.8887 164.389 41.8887H164.468V41.9883H162.475V41.8887H162.554C162.687 41.8887 162.826 41.8483 162.973 41.7686C163.119 41.6821 163.238 41.536 163.331 41.3301H163.334L165.375 36.9443C165.388 36.9045 165.418 36.8341 165.465 36.7344C165.511 36.6281 165.561 36.5119 165.614 36.3857C165.667 36.2528 165.717 36.1296 165.764 36.0166C165.81 35.897 165.837 35.8037 165.844 35.7373H165.924L168.585 41.3301ZM172.27 36.1064H172.149C172.003 36.1065 171.877 36.1562 171.771 36.2559C171.691 36.3306 171.64 36.4207 171.616 36.5254L171.602 36.6348V41.5898H172.777C173.063 41.5898 173.316 41.5329 173.535 41.4199C173.761 41.3004 173.954 41.1344 174.113 40.9219C174.273 40.7026 174.396 40.4466 174.482 40.1543H174.582L174.193 41.9883H169.498V41.8887H169.628C169.774 41.8886 169.897 41.8387 169.996 41.7393C170.076 41.6594 170.128 41.5681 170.151 41.4658L170.166 41.3604V36.6348L170.151 36.5254C170.128 36.4207 170.076 36.3307 169.996 36.2559C169.89 36.1563 169.763 36.1064 169.617 36.1064H169.498V36.0068H172.27V36.1064ZM151.19 36.2656C150.792 36.2656 150.443 36.3795 150.144 36.6055C149.845 36.8247 149.612 37.14 149.446 37.5518C149.28 37.9572 149.196 38.4429 149.196 39.0078C149.196 39.566 149.28 40.0478 149.446 40.4531C149.612 40.8584 149.845 41.1745 150.144 41.4004C150.443 41.6197 150.792 41.7295 151.19 41.7295C151.596 41.7295 151.948 41.6196 152.247 41.4004C152.553 41.1744 152.786 40.8585 152.945 40.4531C153.111 40.0478 153.194 39.5659 153.194 39.0078C153.194 38.4429 153.111 37.9572 152.945 37.5518C152.786 37.1398 152.553 36.8248 152.247 36.6055C151.948 36.3795 151.596 36.2656 151.19 36.2656ZM18.3477 6.46875C12.846 7.27953 8.37151 11.2538 6.82129 16.4814H18.3496V22.8594H6.42871C7.43053 28.9152 12.2602 33.6849 18.3477 34.582V40.6963C8.04346 39.64 0 30.9457 0 20.3594C0.000232842 9.77328 8.04361 1.07305 18.3477 0.0146484V6.46875ZM133.883 40.0342H135.658L134.777 37.957L133.883 40.0342ZM164.608 40.0342H166.383L165.502 37.957L164.608 40.0342ZM116.343 13.4258C118.04 13.4258 119.511 13.7436 120.755 14.3799C122.013 15.002 122.981 15.8861 123.66 17.0312C124.339 18.1766 124.679 19.5486 124.679 21.1465C124.679 22.7302 124.339 24.1022 123.66 25.2617C122.981 26.4068 122.013 27.2973 120.755 27.9336C120.299 28.1589 119.815 28.3426 119.304 28.4863C119.443 28.5131 119.58 28.5413 119.715 28.5703C120.309 28.7117 120.911 28.8748 121.519 29.0586C122.126 29.2565 122.777 29.4828 123.47 29.7373C124.163 30.0059 124.948 30.3101 125.824 30.6494C126.771 31.017 127.705 31.2854 128.624 31.4551C129.557 31.6247 130.448 31.6879 131.296 31.6455C132.144 31.6031 132.937 31.4547 133.672 31.2002C134.407 30.9457 135.065 30.5784 135.645 30.0977L135.771 30.1826C135.729 30.847 135.517 31.4692 135.136 32.0488C134.754 32.6285 134.223 33.1232 133.545 33.5332C132.866 33.9432 132.06 34.2199 131.127 34.3613C130.208 34.5169 129.189 34.4948 128.072 34.2969C126.955 34.1131 125.767 33.7037 124.509 33.0674C123.717 32.6715 122.968 32.24 122.261 31.7734C121.554 31.3209 120.86 30.8822 120.182 30.458C119.517 30.0338 118.859 29.6729 118.209 29.376C117.559 29.0933 116.894 28.9238 116.216 28.8672L116.213 28.8633C114.57 28.8478 113.135 28.5399 111.909 27.9336C110.665 27.2974 109.704 26.4067 109.025 25.2617C108.347 24.1163 108.007 22.7444 108.007 21.1465C108.007 19.5628 108.347 18.1981 109.025 17.0527C109.704 15.8934 110.665 15.002 111.909 14.3799C113.168 13.7436 114.646 13.4258 116.343 13.4258ZM67.9014 15.8438V16.0352H67.6045C67.3359 16.0352 67.1096 16.1195 66.9258 16.2891C66.7649 16.4376 66.6744 16.6243 66.6543 16.8486L66.6494 16.9473V23.8398C66.6494 25.1408 66.9471 26.1592 67.541 26.8945C68.149 27.6297 68.99 27.998 70.0645 27.998C71.1816 27.998 72.0443 27.6509 72.6523 26.958C73.2745 26.2651 73.5933 25.3034 73.6074 24.0732V16.9473L73.5977 16.8486C73.5668 16.6243 73.4705 16.4376 73.3096 16.2891C73.1258 16.1196 72.9067 16.0352 72.6523 16.0352H72.3555V15.8438H76.2578V16.0352H75.9824C75.7138 16.0352 75.4802 16.1194 75.2822 16.2891C75.1214 16.4376 75.0308 16.6243 75.0107 16.8486L75.0068 16.9473V23.9463C75.0068 25.4593 74.5406 26.6545 73.6074 27.5312C72.6883 28.408 71.3795 28.8457 69.6826 28.8457C67.6324 28.8457 66.1055 28.4143 65.1016 27.5518C64.0977 26.6751 63.5957 25.4806 63.5957 23.9678V16.9473L63.5859 16.8486C63.555 16.6243 63.4597 16.4376 63.2988 16.2891C63.1151 16.1195 62.8886 16.0352 62.6201 16.0352H62.3232V15.8438H67.9014ZM98.5439 15.5684C99.6751 15.5684 100.7 15.7241 101.619 16.0352C102.538 16.3321 103.331 16.7699 103.995 17.3496C104.66 17.9293 105.169 18.6292 105.522 19.4492C105.89 20.2694 106.074 21.1963 106.074 22.2285C106.074 23.2464 105.89 24.1653 105.522 24.9854C105.169 25.7914 104.66 26.4847 103.995 27.0645C103.331 27.6442 102.538 28.0893 101.619 28.4004C100.7 28.6973 99.675 28.8457 98.5439 28.8457C97.4269 28.8457 96.4084 28.6973 95.4893 28.4004C94.5704 28.0893 93.7787 27.6441 93.1143 27.0645C92.4497 26.4847 91.9404 25.7914 91.5869 24.9854C91.2335 24.1653 91.0567 23.2464 91.0566 22.2285C91.0566 21.1963 91.2334 20.2694 91.5869 19.4492C91.9404 18.6292 92.4498 17.9293 93.1143 17.3496C93.7787 16.77 94.5704 16.3321 95.4893 16.0352C96.4084 15.7241 97.4269 15.5684 98.5439 15.5684ZM131.803 15.8438V16.0352H131.506C131.237 16.0352 131.011 16.1194 130.827 16.2891C130.666 16.4376 130.576 16.6243 130.556 16.8486L130.552 16.9473V23.8398C130.552 25.1408 130.848 26.1592 131.442 26.8945C132.05 27.6298 132.892 27.998 133.967 27.998C135.084 27.998 135.946 27.6508 136.554 26.958C137.176 26.2651 137.495 25.3035 137.509 24.0732V16.9473L137.499 16.8486C137.468 16.6243 137.373 16.4376 137.212 16.2891C137.028 16.1194 136.808 16.0352 136.554 16.0352H136.257V15.8438H140.16V16.0352H139.884C139.615 16.0352 139.382 16.1196 139.185 16.2891C139.024 16.4376 138.933 16.6243 138.913 16.8486L138.908 16.9473V23.9463C138.908 25.4593 138.442 26.6545 137.509 27.5312C136.59 28.4079 135.282 28.8456 133.585 28.8457C131.535 28.8457 130.007 28.4143 129.003 27.5518C127.999 26.6751 127.497 25.4806 127.497 23.9678V16.9473L127.487 16.8486C127.456 16.6243 127.361 16.4376 127.2 16.2891C127.016 16.1194 126.79 16.0352 126.521 16.0352H126.225V15.8438H131.803ZM157.628 15.5684C157.911 15.5684 158.25 15.5821 158.646 15.6104C159.055 15.6386 159.459 15.6744 159.854 15.7168C160.01 15.7279 160.158 15.7433 160.298 15.7588H161.53L161.518 15.9668C161.522 15.9683 161.526 15.9692 161.53 15.9707L161.255 18.5586H161.063C161.063 17.9082 160.837 17.3925 160.385 17.0107C159.932 16.629 159.282 16.4375 158.434 16.4375C157.755 16.4375 157.203 16.586 156.779 16.8828C156.369 17.1798 156.15 17.5764 156.122 18.0713C156.094 18.3256 156.136 18.5586 156.249 18.7705C156.376 18.9684 156.546 19.1453 156.758 19.3008C156.984 19.4562 157.231 19.6121 157.5 19.7676L160.83 21.8252C161.396 22.108 161.842 22.5183 162.167 23.0557C162.492 23.5929 162.633 24.2434 162.591 25.0068C162.548 25.7987 162.315 26.4847 161.891 27.0645C161.481 27.6441 160.908 28.0893 160.173 28.4004C159.452 28.6973 158.596 28.8457 157.606 28.8457C156.998 28.8457 156.432 28.7962 155.909 28.6973C155.386 28.5983 154.933 28.4646 154.552 28.2949C154.184 28.1253 153.902 27.9337 153.704 27.7217C153.591 27.439 153.542 27.0999 153.556 26.7041C153.57 26.2941 153.633 25.8909 153.746 25.4951C153.859 25.0851 154 24.7452 154.17 24.4766H154.34C154.297 25.1129 154.411 25.7 154.68 26.2373C154.962 26.7745 155.372 27.2061 155.909 27.5312C156.447 27.8423 157.09 27.998 157.84 27.998C158.66 27.998 159.275 27.8066 159.686 27.4248C160.095 27.0431 160.3 26.5977 160.3 26.0889C160.3 25.7071 160.172 25.3673 159.918 25.0703C159.678 24.7593 159.274 24.455 158.709 24.1582L155.697 22.249C154.991 21.8814 154.475 21.3939 154.149 20.7861C153.838 20.1781 153.725 19.5132 153.81 18.792C153.88 18.1133 154.078 17.5335 154.403 17.0527C154.743 16.572 155.189 16.2047 155.74 15.9502C156.292 15.6957 156.921 15.5684 157.628 15.5684ZM60.0322 17.0527H59.8203V16.7979C59.8202 16.1476 59.6224 15.6244 59.2266 15.2285C58.9025 14.8924 58.4761 14.6957 57.9482 14.6348H54.1787V20.8076H56.9785C57.5016 20.7934 57.9332 20.6166 58.2725 20.2773C58.6118 19.9239 58.7812 19.4851 58.7812 18.9619V18.8135H58.9932V23.6914H58.7812V23.5225C58.7812 22.9994 58.6116 22.5678 58.2725 22.2285C57.9755 21.9315 57.6077 21.7589 57.1699 21.7109L56.9785 21.6982H54.1787V27.6582H56.957C57.664 27.6582 58.2859 27.5235 58.8232 27.2549C59.3606 26.9721 59.8204 26.5764 60.2021 26.0674C60.5839 25.5442 60.888 24.9287 61.1143 24.2217H61.3262L60.3506 28.5703H49.3633V28.3584H49.6396C50.007 28.3583 50.3179 28.2309 50.5723 27.9766C50.8074 27.7414 50.9452 27.4682 50.9854 27.1572L50.9971 27.0215V15.2715L50.9854 15.1357C50.9451 14.8265 50.8073 14.5606 50.5723 14.3379C50.3178 14.0694 50.0071 13.9347 49.6396 13.9346H49.3633V13.7227H57.4443C57.7554 13.7227 58.0815 13.7016 58.4209 13.6592C58.7743 13.6168 59.0996 13.5673 59.3965 13.5107C59.6931 13.4542 59.905 13.3973 60.0322 13.3408V17.0527ZM84.1084 15.8438C84.688 15.8438 85.2534 15.9079 85.8047 16.0352C86.356 16.1482 86.8508 16.3389 87.2891 16.6074C87.7274 16.862 88.0746 17.2155 88.3291 17.668C88.5977 18.1063 88.7314 18.6578 88.7314 19.3223C88.7314 19.8172 88.6262 20.3127 88.4141 20.8076C88.2161 21.2883 87.8973 21.7051 87.459 22.0586C87.0348 22.412 86.476 22.6457 85.7832 22.7588C86.1933 22.8861 86.5825 23.1333 86.9502 23.501C87.3319 23.8685 87.6287 24.2149 87.8408 24.54C87.8974 24.6532 87.9963 24.8373 88.1377 25.0918C88.2791 25.3322 88.4559 25.6152 88.668 25.9404C88.8942 26.2515 89.1278 26.5767 89.3682 26.916C89.6509 27.2977 89.8983 27.5946 90.1104 27.8066C90.3225 28.0046 90.5423 28.1456 90.7686 28.2305C90.9947 28.3152 91.256 28.3584 91.5527 28.3584V28.5703H89.7715C89.0079 28.5703 88.3567 28.5135 87.8193 28.4004C87.2964 28.2872 86.8372 28.082 86.4414 27.7852C86.0597 27.4741 85.7061 27.0573 85.3809 26.5342C85.2536 26.3504 85.1189 26.1314 84.9775 25.877C84.8361 25.6083 84.6951 25.339 84.5537 25.0703C84.4124 24.8018 84.2849 24.5405 84.1719 24.2861C84.0729 24.0316 84.0014 23.8191 83.959 23.6494C83.7752 23.1971 83.5636 22.8718 83.3232 22.6738C83.097 22.4617 82.8845 22.3555 82.6865 22.3555V22.165H83.2168C83.5137 22.165 83.8041 22.1156 84.0869 22.0166C84.3838 21.9035 84.6522 21.6982 84.8926 21.4014C85.1329 21.0903 85.3097 20.6377 85.4229 20.0439C85.4511 19.9591 85.4722 19.8382 85.4863 19.6826C85.5146 19.5271 85.5219 19.3502 85.5078 19.1523C85.4795 18.6294 85.3806 18.2124 85.2109 17.9014C85.0554 17.5761 84.8576 17.3352 84.6172 17.1797C84.3769 17.0101 84.1294 16.8974 83.875 16.8408C83.6346 16.7701 83.4221 16.7344 83.2383 16.7344C82.9697 16.7202 82.7223 16.7202 82.4961 16.7344C82.2968 16.7344 82.1412 16.7273 82.0293 16.7148V27.2344L82.0352 27.3633C82.0615 27.6554 82.1794 27.8884 82.3896 28.0615C82.6442 28.2595 82.9135 28.3584 83.1963 28.3584H83.4082V28.5703H77.5752V28.3584H77.8291C78.1402 28.3584 78.4022 28.2521 78.6143 28.04C78.7981 27.8562 78.9103 27.6441 78.9541 27.4043V16.9805C78.91 16.7367 78.7975 16.5343 78.6143 16.374C78.4022 16.162 78.1475 16.0557 77.8506 16.0557H77.5752V15.8438H84.1084ZM151 18.8984H150.788V18.707C150.788 18.0851 150.618 17.5976 150.279 17.2441C149.995 16.9347 149.596 16.7545 149.084 16.7051L148.858 16.6924H145.804V21.8467H148.222C148.717 21.8325 149.106 21.6695 149.389 21.3584C149.685 21.0332 149.834 20.6373 149.834 20.1709V20.0225H150.046V24.5195H149.834V24.3496C149.834 23.883 149.686 23.4937 149.389 23.1826C149.141 22.9104 148.812 22.7519 148.402 22.707L148.222 22.6953H145.804V27.7217H148.307C148.915 27.7217 149.452 27.6017 149.919 27.3613C150.4 27.1068 150.809 26.7531 151.148 26.3008C151.488 25.8342 151.75 25.29 151.934 24.668H152.124L151.318 28.5703H141.328V28.3584H141.604C141.915 28.3584 142.177 28.2521 142.389 28.04C142.587 27.842 142.704 27.6116 142.739 27.3486L142.749 27.2344V17.1797C142.735 16.8547 142.615 16.586 142.389 16.374C142.177 16.162 141.915 16.0557 141.604 16.0557H141.328V15.8438H148.773C149.183 15.8437 149.615 15.808 150.067 15.7373C150.519 15.6525 150.83 15.5819 151 15.5254V18.8984ZM175.762 18.8555H175.528V18.665C175.542 18.057 175.372 17.5762 175.019 17.2227C174.679 16.8693 174.206 16.685 173.598 16.6709H171.138V27.2344L171.143 27.3486C171.167 27.6115 171.279 27.8421 171.477 28.04C171.703 28.2521 171.979 28.3583 172.304 28.3584H172.537V28.5703H166.684V28.3584H166.916C167.227 28.3584 167.489 28.2521 167.701 28.04C167.899 27.842 168.016 27.6116 168.052 27.3486L168.062 27.2344V16.6709H165.623L165.396 16.6846C164.882 16.7341 164.478 16.9135 164.181 17.2227C163.855 17.5762 163.692 18.057 163.692 18.665V18.8555H163.459V15.5049C163.586 15.5332 163.77 15.5753 164.011 15.6318C164.265 15.6884 164.541 15.7379 164.838 15.7803C165.149 15.8086 165.432 15.8223 165.687 15.8223H173.513C173.781 15.8223 174.072 15.8086 174.383 15.7803C174.694 15.7379 174.977 15.6957 175.231 15.6533C175.486 15.5968 175.663 15.5473 175.762 15.5049V18.8555ZM98.5439 16.3955C97.6955 16.3955 96.9527 16.6354 96.3164 17.1162C95.6802 17.5828 95.1855 18.2552 94.832 19.1318C94.4786 19.9943 94.3018 21.0267 94.3018 22.2285C94.3018 23.4162 94.4786 24.4412 94.832 25.3037C95.1855 26.1662 95.6801 26.8386 96.3164 27.3193C96.9527 27.786 97.6955 28.0185 98.5439 28.0186C99.4063 28.0186 100.156 27.7857 100.792 27.3193C101.442 26.8386 101.938 26.1663 102.277 25.3037C102.631 24.4412 102.808 23.4161 102.808 22.2285C102.808 21.0267 102.631 19.9943 102.277 19.1318C101.938 18.2551 101.442 17.5828 100.792 17.1162C100.156 16.6356 99.4063 16.3955 98.5439 16.3955ZM116.343 14.3164C115.339 14.3164 114.469 14.5994 113.733 15.165C113.012 15.7165 112.454 16.5016 112.059 17.5195C111.677 18.5376 111.485 19.7466 111.485 21.1465C111.485 22.5463 111.683 23.7554 112.079 24.7734C112.475 25.7916 113.034 26.5838 113.755 27.1494C114.49 27.7009 115.353 27.9766 116.343 27.9766C117.347 27.9765 118.21 27.7009 118.931 27.1494C119.666 26.5838 120.225 25.7915 120.606 24.7734C121.002 23.7554 121.2 22.5463 121.2 21.1465C121.2 19.7467 121.002 18.5376 120.606 17.5195C120.225 16.5015 119.666 15.7165 118.931 15.165C118.21 14.5994 117.347 14.3164 116.343 14.3164Z" fill="white"/>
</svg>
