<svg width="175" height="48" viewBox="0 0 175 48" fill="none" xmlns="http://www.w3.org/2000/svg">
<g clip-path="url(#clip0_508_2228)">
<path d="M54.1802 13.7184V28.5659H50.9986V13.7184H54.1802ZM59.7799 27.6539L60.2889 28.5659H54.1166V27.6539H59.7799ZM58.9951 20.8028V21.6936H54.1166V20.8028H58.9951ZM60.0344 13.7184V14.6304H54.1166V13.7184H60.0344ZM61.3283 24.2177L60.3526 28.5659H56.1953L56.9588 27.6539C57.6659 27.6539 58.2881 27.5195 58.8254 27.2508C59.3627 26.968 59.8223 26.5721 60.2041 26.063C60.5859 25.5398 60.8899 24.9247 61.1162 24.2177H61.3283ZM58.9951 21.6512V23.6874H58.783V23.5178C58.783 22.9946 58.6133 22.5633 58.2739 22.2239C57.9345 21.8845 57.5033 21.7078 56.9801 21.6936V21.6512H58.9951ZM58.9951 18.809V20.8452H56.9801V20.8028C57.5033 20.7886 57.9345 20.6119 58.2739 20.2725C58.6133 19.919 58.783 19.4806 58.783 18.9574V18.809H58.9951ZM60.0344 14.5668V17.0485H59.8223V16.7939C59.8223 16.1435 59.6243 15.6203 59.2284 15.2243C58.8466 14.8284 58.3234 14.6234 57.6588 14.6092V14.5668H60.0344ZM60.0344 13.3366V13.9517L57.4467 13.7184C57.7578 13.7184 58.083 13.6972 58.4224 13.6547C58.7759 13.6123 59.1011 13.5628 59.3981 13.5063C59.695 13.4497 59.9071 13.3931 60.0344 13.3366ZM51.0622 27.0175V28.5659H49.3654V28.3538C49.3654 28.3538 49.4078 28.3538 49.4927 28.3538C49.5916 28.3538 49.6411 28.3538 49.6411 28.3538C50.0088 28.3538 50.3199 28.2265 50.5744 27.972C50.8431 27.7033 50.9845 27.3852 50.9986 27.0175H51.0622ZM51.0622 15.2668H50.9986C50.9845 14.8991 50.8431 14.588 50.5744 14.3335C50.3199 14.0648 50.0088 13.9305 49.6411 13.9305C49.6411 13.9305 49.5916 13.9305 49.4927 13.9305C49.4078 13.9305 49.3654 13.9305 49.3654 13.9305V13.7184H51.0622V15.2668ZM66.6517 15.8394V23.8359C66.6517 25.1368 66.9486 26.155 67.5425 26.8903C68.1506 27.6256 68.9919 27.9932 70.0666 27.9932C71.1837 27.9932 72.0463 27.6468 72.6543 26.9539C73.2765 26.261 73.5947 25.2995 73.6088 24.0692V15.8394H75.0087V23.942C75.0087 25.455 74.5421 26.6499 73.6088 27.5266C72.6897 28.4033 71.3817 28.8417 69.6848 28.8417C67.6344 28.8417 66.1073 28.4104 65.1033 27.5478C64.0993 26.6711 63.5973 25.4762 63.5973 23.9632V15.8394H66.6517ZM63.6397 15.8394V16.9424H63.5973C63.5832 16.6737 63.4842 16.4546 63.3004 16.2849C63.1165 16.1152 62.8903 16.0303 62.6216 16.0303C62.6216 16.0303 62.5721 16.0303 62.4732 16.0303C62.3742 16.0303 62.3247 16.0303 62.3247 16.0303V15.8394H63.6397ZM67.9031 15.8394V16.0303C67.9031 16.0303 67.8536 16.0303 67.7546 16.0303C67.6557 16.0303 67.6062 16.0303 67.6062 16.0303C67.3375 16.0303 67.1112 16.1152 66.9274 16.2849C66.7436 16.4546 66.6517 16.6737 66.6517 16.9424H66.6093V15.8394H67.9031ZM73.6512 15.8394V16.9424H73.6088C73.5947 16.6737 73.4957 16.4546 73.3119 16.2849C73.128 16.1152 72.9089 16.0303 72.6543 16.0303C72.6543 16.0303 72.6048 16.0303 72.5059 16.0303C72.4069 16.0303 72.3574 16.0303 72.3574 16.0303V15.8394H73.6512ZM76.2602 15.8394V16.0303C76.2602 16.0303 76.2107 16.0303 76.1117 16.0303C76.0268 16.0303 75.9844 16.0303 75.9844 16.0303C75.7158 16.0303 75.4824 16.1152 75.2845 16.2849C75.1006 16.4546 75.0087 16.6737 75.0087 16.9424H74.9663V15.8394H76.2602ZM81.819 15.8394H84.1098C84.6896 15.8394 85.2552 15.9031 85.8067 16.0303C86.3582 16.1435 86.8531 16.3344 87.2914 16.603C87.7298 16.8576 88.0762 17.2111 88.3308 17.6636C88.5994 18.1019 88.7338 18.6534 88.7338 19.318C88.7338 19.8129 88.6277 20.3079 88.4156 20.8028C88.2176 21.2835 87.8995 21.7007 87.4611 22.0542C87.0369 22.4077 86.4783 22.641 85.7855 22.7542C86.1955 22.8814 86.5844 23.1289 86.9521 23.4965C87.3338 23.8642 87.6308 24.2106 87.8429 24.5359C87.8995 24.649 87.9985 24.8328 88.1399 25.0873C88.2813 25.3277 88.458 25.6105 88.6701 25.9358C88.8964 26.2469 89.1297 26.5721 89.3701 26.9115C89.6529 27.2933 89.9004 27.5902 90.1125 27.8023C90.3246 28.0003 90.5437 28.1417 90.77 28.2265C90.9962 28.3114 91.2578 28.3538 91.5548 28.3538V28.5659H89.7731C89.0095 28.5659 88.359 28.5094 87.8217 28.3962C87.2985 28.2831 86.8389 28.0781 86.443 27.7811C86.0612 27.47 85.7077 27.0529 85.3825 26.5297C85.2552 26.3459 85.1209 26.1267 84.9795 25.8721C84.838 25.6035 84.6966 25.3348 84.5552 25.0661C84.4138 24.7975 84.2866 24.5359 84.1734 24.2813C84.0745 24.0268 84.0038 23.8147 83.9613 23.645C83.7775 23.1925 83.5654 22.8673 83.325 22.6693C83.0988 22.4572 82.8867 22.3512 82.6887 22.3512V22.1603C82.6887 22.1603 82.7382 22.1603 82.8372 22.1603C82.9361 22.1603 83.0634 22.1603 83.219 22.1603C83.5159 22.1603 83.8058 22.1108 84.0886 22.0118C84.3855 21.8987 84.6542 21.6936 84.8946 21.3967C85.135 21.0856 85.3118 20.6331 85.4249 20.0392C85.4532 19.9543 85.4744 19.8341 85.4885 19.6786C85.5168 19.5231 85.5239 19.3463 85.5097 19.1483C85.4814 18.6251 85.3825 18.208 85.2128 17.8969C85.0572 17.5717 84.8593 17.3313 84.6189 17.1757C84.3785 17.006 84.131 16.8929 83.8765 16.8364C83.6361 16.7657 83.424 16.7303 83.2402 16.7303C82.9715 16.7162 82.724 16.7162 82.4978 16.7303C82.2857 16.7303 82.1231 16.7232 82.0099 16.7091C81.9958 16.7091 81.9746 16.6384 81.9463 16.497C81.918 16.3414 81.8897 16.193 81.8615 16.0516C81.8332 15.9102 81.819 15.8394 81.819 15.8394ZM82.0312 15.8394V28.5659H78.9556V15.8394H82.0312ZM79.0192 27.2296L79.1041 28.5659H77.5769V28.3538C77.591 28.3538 77.6264 28.3538 77.6829 28.3538C77.7536 28.3538 77.8031 28.3538 77.8314 28.3538C78.1425 28.3538 78.4041 28.2478 78.6162 28.0356C78.8425 27.8094 78.9627 27.5407 78.9768 27.2296H79.0192ZM79.0192 17.1545H78.9768C78.9627 16.8293 78.8425 16.5677 78.6162 16.3697C78.4041 16.1576 78.1496 16.0516 77.8526 16.0516C77.8102 16.0516 77.7536 16.0516 77.6829 16.0516C77.6264 16.0516 77.591 16.0516 77.5769 16.0516V15.8394H79.1041L79.0192 17.1545ZM81.9887 27.2296H82.0312C82.0312 27.5832 82.1513 27.8589 82.3917 28.0569C82.6463 28.2548 82.9149 28.3538 83.1977 28.3538C83.1977 28.3538 83.226 28.3538 83.2826 28.3538C83.3391 28.3538 83.3816 28.3538 83.4099 28.3538V28.5659H81.8827L81.9887 27.2296ZM98.5459 15.5637C99.6771 15.5637 100.702 15.7193 101.621 16.0303C102.541 16.3273 103.332 16.7657 103.997 17.3454C104.662 17.9252 105.171 18.6251 105.524 19.4453C105.892 20.2654 106.076 21.1916 106.076 22.2239C106.076 23.242 105.892 24.1611 105.524 24.9813C105.171 25.7873 104.662 26.4802 103.997 27.06C103.332 27.6397 102.541 28.0851 101.621 28.3962C100.702 28.6932 99.6771 28.8417 98.5459 28.8417C97.4288 28.8417 96.4107 28.6932 95.4915 28.3962C94.5724 28.0851 93.7805 27.6397 93.1159 27.06C92.4513 26.4802 91.9423 25.7873 91.5888 24.9813C91.2353 24.1611 91.0585 23.242 91.0585 22.2239C91.0585 21.1916 91.2353 20.2654 91.5888 19.4453C91.9423 18.6251 92.4513 17.9252 93.1159 17.3454C93.7805 16.7657 94.5724 16.3273 95.4915 16.0303C96.4107 15.7193 97.4288 15.5637 98.5459 15.5637ZM98.5459 28.0144C99.4085 28.0144 100.158 27.7811 100.794 27.3145C101.445 26.8337 101.94 26.162 102.279 25.2995C102.633 24.4369 102.809 23.4117 102.809 22.2239C102.809 21.0219 102.633 19.9897 102.279 19.1271C101.94 18.2504 101.445 17.5787 100.794 17.1121C100.158 16.6313 99.4085 16.3909 98.5459 16.3909C97.6975 16.3909 96.9551 16.6313 96.3188 17.1121C95.6824 17.5787 95.1875 18.2504 94.834 19.1271C94.4805 19.9897 94.3037 21.0219 94.3037 22.2239C94.3037 23.4117 94.4805 24.4369 94.834 25.2995C95.1875 26.162 95.6824 26.8337 96.3188 27.3145C96.9551 27.7811 97.6975 28.0144 98.5459 28.0144ZM116.217 28.8629L115.602 28.0144C116.422 28.071 117.165 28.1488 117.829 28.2478C118.494 28.3326 119.123 28.4387 119.717 28.5659C120.311 28.7073 120.912 28.8699 121.52 29.0538C122.128 29.2517 122.779 29.478 123.471 29.7325C124.164 30.0012 124.949 30.3052 125.826 30.6446C126.773 31.0122 127.706 31.2809 128.626 31.4506C129.559 31.6203 130.45 31.6839 131.298 31.6415C132.147 31.5991 132.938 31.4506 133.674 31.1961C134.409 30.9415 135.067 30.5739 135.646 30.0931L135.774 30.1779C135.731 30.8425 135.519 31.4647 135.137 32.0445C134.756 32.6242 134.225 33.1192 133.547 33.5292C132.868 33.9393 132.062 34.2151 131.128 34.3565C130.209 34.512 129.191 34.4908 128.074 34.2928C126.957 34.109 125.769 33.6989 124.511 33.0626C123.719 32.6667 122.969 32.2354 122.262 31.7687C121.555 31.3162 120.862 30.8779 120.184 30.4537C119.519 30.0295 118.862 29.6689 118.211 29.3719C117.561 29.0891 116.896 28.9194 116.217 28.8629ZM116.345 13.4214C118.041 13.4214 119.512 13.7396 120.756 14.3759C122.015 14.9981 122.984 15.8819 123.662 17.0273C124.341 18.1726 124.68 19.5443 124.68 21.1421C124.68 22.7259 124.341 24.0975 123.662 25.257C122.984 26.4024 122.015 27.2933 120.756 27.9296C119.498 28.5518 118.027 28.8629 116.345 28.8629C114.648 28.8629 113.17 28.5518 111.912 27.9296C110.667 27.2933 109.706 26.4024 109.027 25.257C108.348 24.1117 108.009 22.74 108.009 21.1421C108.009 19.5584 108.348 18.1938 109.027 17.0485C109.706 15.8889 110.667 14.9981 111.912 14.3759C113.17 13.7396 114.648 13.4214 116.345 13.4214ZM116.345 27.972C117.349 27.972 118.211 27.6963 118.932 27.1448C119.668 26.5792 120.226 25.7873 120.608 24.7692C121.004 23.7511 121.202 22.5421 121.202 21.1421C121.202 19.7422 121.004 18.5332 120.608 17.5151C120.226 16.497 119.668 15.7122 118.932 15.1607C118.211 14.5951 117.349 14.3123 116.345 14.3123C115.341 14.3123 114.471 14.5951 113.736 15.1607C113.014 15.7122 112.456 16.497 112.06 17.5151C111.678 18.5332 111.487 19.7422 111.487 21.1421C111.487 22.5421 111.685 23.7511 112.081 24.7692C112.477 25.7873 113.036 26.5792 113.757 27.1448C114.492 27.6963 115.355 27.972 116.345 27.972ZM130.553 15.8394V23.8359C130.553 25.1368 130.85 26.155 131.444 26.8903C132.052 27.6256 132.894 27.9932 133.968 27.9932C135.085 27.9932 135.948 27.6468 136.556 26.9539C137.178 26.261 137.496 25.2995 137.51 24.0692V15.8394H138.91V23.942C138.91 25.455 138.444 26.6499 137.51 27.5266C136.591 28.4033 135.283 28.8417 133.586 28.8417C131.536 28.8417 130.009 28.4104 129.005 27.5478C128.001 26.6711 127.499 25.4762 127.499 23.9632V15.8394H130.553ZM127.541 15.8394V16.9424H127.499C127.485 16.6737 127.386 16.4546 127.202 16.2849C127.018 16.1152 126.792 16.0303 126.523 16.0303C126.523 16.0303 126.474 16.0303 126.375 16.0303C126.276 16.0303 126.226 16.0303 126.226 16.0303V15.8394H127.541ZM131.805 15.8394V16.0303C131.805 16.0303 131.755 16.0303 131.656 16.0303C131.557 16.0303 131.508 16.0303 131.508 16.0303C131.239 16.0303 131.013 16.1152 130.829 16.2849C130.645 16.4546 130.553 16.6737 130.553 16.9424H130.511V15.8394H131.805ZM137.553 15.8394V16.9424H137.51C137.496 16.6737 137.397 16.4546 137.213 16.2849C137.03 16.1152 136.81 16.0303 136.556 16.0303C136.556 16.0303 136.506 16.0303 136.407 16.0303C136.308 16.0303 136.259 16.0303 136.259 16.0303V15.8394H137.553ZM140.162 15.8394V16.0303C140.162 16.0303 140.112 16.0303 140.013 16.0303C139.928 16.0303 139.886 16.0303 139.886 16.0303C139.617 16.0303 139.384 16.1152 139.186 16.2849C139.002 16.4546 138.91 16.6737 138.91 16.9424H138.868V15.8394H140.162ZM145.806 15.8394V28.5659H142.751V15.8394H145.806ZM150.769 27.7175L151.257 28.5659H145.763V27.7175H150.769ZM150.048 21.8421V22.6905H145.763V21.8421H150.048ZM151.002 15.8394V16.6879H145.763V15.8394H151.002ZM152.126 24.6631L151.32 28.5659H147.651L148.308 27.7175C148.916 27.7175 149.454 27.5973 149.92 27.3569C150.401 27.1024 150.811 26.7489 151.151 26.2964C151.49 25.8297 151.752 25.2853 151.935 24.6631H152.126ZM150.048 22.6481V24.5147H149.836V24.345C149.836 23.8783 149.687 23.4895 149.39 23.1784C149.107 22.8673 148.718 22.7047 148.224 22.6905V22.6481H150.048ZM150.048 20.018V21.8845H148.224V21.8421C148.718 21.828 149.107 21.6653 149.39 21.3543C149.687 21.029 149.836 20.6331 149.836 20.1664V20.018H150.048ZM151.002 16.6455V18.8938H150.79V18.7029C150.79 18.0807 150.62 17.5929 150.281 17.2394C149.956 16.8858 149.482 16.702 148.86 16.6879V16.6455H151.002ZM151.002 15.5213V16.0303L148.775 15.8394C149.185 15.8394 149.616 15.8041 150.069 15.7334C150.521 15.6486 150.832 15.5778 151.002 15.5213ZM142.794 27.2296L142.9 28.5659H141.33V28.3538C141.33 28.3538 141.372 28.3538 141.457 28.3538C141.542 28.3538 141.592 28.3538 141.606 28.3538C141.917 28.3538 142.178 28.2478 142.391 28.0356C142.617 27.8094 142.737 27.5407 142.751 27.2296H142.794ZM142.794 17.1757H142.751C142.737 16.8505 142.617 16.5818 142.391 16.3697C142.178 16.1576 141.917 16.0516 141.606 16.0516C141.592 16.0516 141.542 16.0516 141.457 16.0516C141.372 16.0516 141.33 16.0516 141.33 16.0516V15.8394H142.9L142.794 17.1757ZM157.63 15.5637C157.912 15.5637 158.252 15.5778 158.648 15.6061C159.058 15.6344 159.461 15.6698 159.857 15.7122C160.253 15.7405 160.599 15.7829 160.896 15.8394C161.207 15.8819 161.419 15.9243 161.532 15.9667L161.257 18.5544H161.066C161.066 17.904 160.839 17.3878 160.387 17.006C159.934 16.6242 159.284 16.4333 158.436 16.4333C157.757 16.4333 157.205 16.5818 156.781 16.8788C156.371 17.1757 156.152 17.5717 156.124 18.0666C156.095 18.3211 156.138 18.5544 156.251 18.7665C156.378 18.9645 156.548 19.1413 156.76 19.2968C156.986 19.4524 157.234 19.6079 157.502 19.7634L160.832 21.8209C161.398 22.1037 161.843 22.5138 162.169 23.0511C162.494 23.5885 162.635 24.2389 162.593 25.0025C162.55 25.7944 162.317 26.4802 161.893 27.06C161.483 27.6397 160.91 28.0851 160.175 28.3962C159.454 28.6932 158.598 28.8417 157.608 28.8417C157 28.8417 156.435 28.7922 155.911 28.6932C155.388 28.5942 154.936 28.4599 154.554 28.2902C154.186 28.1205 153.904 27.9296 153.706 27.7175C153.592 27.4347 153.543 27.0953 153.557 26.6994C153.571 26.2893 153.635 25.8863 153.748 25.4904C153.861 25.0803 154.002 24.7409 154.172 24.4722H154.342C154.299 25.1086 154.413 25.6954 154.681 26.2327C154.964 26.7701 155.374 27.2014 155.911 27.5266C156.449 27.8377 157.092 27.9932 157.842 27.9932C158.662 27.9932 159.277 27.8023 159.687 27.4205C160.097 27.0387 160.302 26.5933 160.302 26.0843C160.302 25.7025 160.175 25.3631 159.92 25.0661C159.68 24.755 159.277 24.451 158.711 24.1541L155.699 22.2451C154.992 21.8775 154.476 21.3896 154.151 20.7816C153.84 20.1735 153.727 19.5089 153.812 18.7877C153.882 18.109 154.08 17.5292 154.405 17.0485C154.745 16.5677 155.19 16.2 155.742 15.9455C156.293 15.691 156.923 15.5637 157.63 15.5637ZM161.532 15.7546L161.511 16.1364H159.242V15.7546H161.532ZM171.139 15.9031V28.5659H168.064V15.9031H171.139ZM175.763 15.8182V16.6667H163.461V15.8182H175.763ZM175.763 16.603V18.8514H175.53V18.6605C175.544 18.0524 175.374 17.5717 175.021 17.2181C174.682 16.8646 174.208 16.6808 173.6 16.6667V16.603H175.763ZM175.763 15.5001V16.0303L173.515 15.8182C173.784 15.8182 174.073 15.8041 174.385 15.7758C174.696 15.7334 174.978 15.691 175.233 15.6486C175.488 15.592 175.664 15.5425 175.763 15.5001ZM168.106 27.2296V28.5659H166.685V28.3538C166.685 28.3538 166.72 28.3538 166.791 28.3538C166.876 28.3538 166.918 28.3538 166.918 28.3538C167.229 28.3538 167.491 28.2478 167.703 28.0356C167.929 27.8094 168.05 27.5407 168.064 27.2296H168.106ZM171.076 27.2296H171.139C171.139 27.5407 171.252 27.8094 171.479 28.0356C171.705 28.2478 171.981 28.3538 172.306 28.3538C172.306 28.3538 172.341 28.3538 172.412 28.3538C172.497 28.3538 172.539 28.3538 172.539 28.3538V28.5659H171.076V27.2296ZM165.625 16.603V16.6667C165.002 16.6808 164.522 16.8646 164.182 17.2181C163.857 17.5717 163.694 18.0524 163.694 18.6605V18.8514H163.461V16.603H165.625ZM163.461 15.5001C163.588 15.5284 163.772 15.5708 164.012 15.6273C164.267 15.6839 164.543 15.7334 164.84 15.7758C165.151 15.8041 165.434 15.8182 165.688 15.8182L163.461 16.0303V15.5001Z" fill="#969FAC"/>
<path d="M97.1882 35.0055V41.9839H95.6929V35.0055H97.1882ZM95.7228 41.2561V41.9839H94.9252V41.8842C94.9252 41.8842 94.9452 41.8842 94.9851 41.8842C95.0316 41.8842 95.0548 41.8842 95.0548 41.8842C95.2276 41.8842 95.3739 41.8244 95.4935 41.7048C95.6198 41.5785 95.6862 41.4289 95.6929 41.2561H95.7228ZM95.7228 35.7333H95.6929C95.6862 35.5605 95.6198 35.4143 95.4935 35.2946C95.3739 35.1684 95.2276 35.1052 95.0548 35.1052C95.0548 35.1052 95.0316 35.1052 94.9851 35.1052C94.9452 35.1052 94.9252 35.1052 94.9252 35.1052V35.0055H95.7228V35.7333ZM97.1583 41.2561H97.1882C97.1949 41.4289 97.258 41.5785 97.3776 41.7048C97.5039 41.8244 97.6534 41.8842 97.8262 41.8842C97.8262 41.8842 97.8462 41.8842 97.8861 41.8842C97.9259 41.8842 97.9492 41.8842 97.9558 41.8842V41.9839H97.1583V41.2561ZM97.1583 35.7333V35.0055H97.9558V35.1052C97.9492 35.1052 97.9259 35.1052 97.8861 35.1052C97.8462 35.1052 97.8262 35.1052 97.8262 35.1052C97.6534 35.1052 97.5039 35.1684 97.3776 35.2946C97.258 35.4143 97.1949 35.5605 97.1882 35.7333H97.1583ZM99.1813 35.8629L105.033 41.0069L105.133 42.1135L99.291 36.9694L99.1813 35.8629ZM99.2212 41.3758V41.9839H98.4835V41.8842C98.4835 41.8842 98.5101 41.8842 98.5633 41.8842C98.6164 41.8842 98.643 41.8842 98.643 41.8842C98.7959 41.8842 98.9255 41.8377 99.0318 41.7446C99.1381 41.6449 99.1913 41.522 99.1913 41.3758H99.2212ZM100.557 41.3758C100.564 41.522 100.62 41.6449 100.727 41.7446C100.833 41.8377 100.959 41.8842 101.105 41.8842C101.105 41.8842 101.132 41.8842 101.185 41.8842C101.245 41.8842 101.275 41.8842 101.275 41.8842V41.9839H100.537V41.3758H100.557ZM99.1813 35.8629L100.557 37.3582V41.9839H99.1913V36.9994C99.1913 36.6604 99.1747 36.3879 99.1415 36.1819C99.1082 35.9692 99.0916 35.8629 99.0916 35.8629H99.1813ZM105.123 36.0024V40.9471C105.123 41.1797 105.13 41.3857 105.143 41.5652C105.163 41.738 105.179 41.8742 105.193 41.9739C105.213 42.067 105.223 42.1135 105.223 42.1135H105.133L103.757 40.5284V36.0024H105.123ZM105.093 36.6106V36.0024H105.841V36.1021C105.841 36.1021 105.811 36.1021 105.751 36.1021C105.698 36.1021 105.671 36.1021 105.671 36.1021C105.525 36.1021 105.395 36.152 105.282 36.2517C105.176 36.3447 105.123 36.4643 105.123 36.6106H105.093ZM103.757 36.6106C103.75 36.4643 103.694 36.3447 103.588 36.2517C103.488 36.152 103.362 36.1021 103.209 36.1021C103.209 36.1021 103.179 36.1021 103.119 36.1021C103.066 36.1021 103.039 36.1021 103.039 36.1021V36.0024H103.777V36.6106H103.757ZM109.752 36.0324V41.9839H108.306V36.0324H109.752ZM111.925 35.9925V36.3912H106.143V35.9925H111.925ZM111.925 36.3613V37.4181H111.815V37.3283C111.822 37.0426 111.742 36.8166 111.576 36.6504C111.416 36.4843 111.194 36.3979 110.908 36.3912V36.3613H111.925ZM111.925 35.8429V36.0922L110.868 35.9925C110.994 35.9925 111.131 35.9858 111.277 35.9725C111.423 35.9526 111.556 35.9327 111.676 35.9127C111.795 35.8861 111.878 35.8629 111.925 35.8429ZM108.326 41.3558V41.9839H107.658V41.8842C107.658 41.8842 107.675 41.8842 107.708 41.8842C107.748 41.8842 107.768 41.8842 107.768 41.8842C107.914 41.8842 108.037 41.8344 108.137 41.7347C108.243 41.6283 108.299 41.502 108.306 41.3558H108.326ZM109.722 41.3558H109.752C109.752 41.502 109.805 41.6283 109.911 41.7347C110.017 41.8344 110.147 41.8842 110.3 41.8842C110.3 41.8842 110.316 41.8842 110.35 41.8842C110.39 41.8842 110.409 41.8842 110.409 41.8842V41.9839H109.722V41.3558ZM107.16 36.3613V36.3912C106.867 36.3979 106.641 36.4843 106.482 36.6504C106.329 36.8166 106.252 37.0426 106.252 37.3283V37.4181H106.143V36.3613H107.16ZM106.143 35.8429C106.203 35.8562 106.289 35.8762 106.402 35.9028C106.522 35.9293 106.651 35.9526 106.791 35.9725C106.937 35.9858 107.07 35.9925 107.189 35.9925L106.143 36.0922V35.8429ZM114.541 36.0024V41.9839H113.105V36.0024H114.541ZM116.874 41.5851L117.103 41.9839H114.521V41.5851H116.874ZM116.535 38.8237V39.2225H114.521V38.8237H116.535ZM116.983 36.0024V36.4012H114.521V36.0024H116.983ZM117.512 40.1496L117.133 41.9839H115.408L115.717 41.5851C116.003 41.5851 116.256 41.5286 116.475 41.4156C116.701 41.296 116.894 41.1299 117.053 40.9172C117.213 40.6979 117.336 40.442 117.422 40.1496H117.512ZM116.535 39.2025V40.0798H116.435V40C116.435 39.7807 116.365 39.598 116.226 39.4517C116.093 39.3055 115.91 39.2291 115.677 39.2225V39.2025H116.535ZM116.535 37.9664V38.8436H115.677V38.8237C115.91 38.817 116.093 38.7406 116.226 38.5944C116.365 38.4415 116.435 38.2555 116.435 38.0361V37.9664H116.535ZM116.983 36.3813V37.438H116.884V37.3483C116.884 37.0558 116.804 36.8266 116.644 36.6604C116.491 36.4943 116.269 36.4079 115.976 36.4012V36.3813H116.983ZM116.983 35.8529V36.0922L115.937 36.0024C116.129 36.0024 116.332 35.9858 116.545 35.9526C116.757 35.9127 116.904 35.8795 116.983 35.8529ZM113.125 41.3558L113.175 41.9839H112.437V41.8842C112.437 41.8842 112.457 41.8842 112.497 41.8842C112.537 41.8842 112.56 41.8842 112.567 41.8842C112.713 41.8842 112.836 41.8344 112.936 41.7347C113.042 41.6283 113.099 41.502 113.105 41.3558H113.125ZM113.125 36.6305H113.105C113.099 36.4776 113.042 36.3514 112.936 36.2517C112.836 36.152 112.713 36.1021 112.567 36.1021C112.56 36.1021 112.537 36.1021 112.497 36.1021C112.457 36.1021 112.437 36.1021 112.437 36.1021V36.0024H113.175L113.125 36.6305ZM120.089 36.0024H121.166C121.438 36.0024 121.704 36.0324 121.963 36.0922C122.222 36.1453 122.455 36.2351 122.661 36.3613C122.867 36.481 123.03 36.6471 123.15 36.8598C123.276 37.0658 123.339 37.325 123.339 37.6374C123.339 37.87 123.289 38.1026 123.189 38.3352C123.096 38.5612 122.947 38.7572 122.741 38.9234C122.542 39.0895 122.279 39.1992 121.953 39.2524C122.146 39.3122 122.329 39.4285 122.502 39.6013C122.681 39.7741 122.821 39.9369 122.92 40.0898C122.947 40.1429 122.993 40.2293 123.06 40.349C123.126 40.4619 123.209 40.5949 123.309 40.7477C123.415 40.8939 123.525 41.0468 123.638 41.2063C123.771 41.3857 123.887 41.5253 123.987 41.625C124.087 41.718 124.19 41.7845 124.296 41.8244C124.402 41.8643 124.525 41.8842 124.665 41.8842V41.9839H123.828C123.469 41.9839 123.163 41.9573 122.91 41.9041C122.664 41.851 122.448 41.7546 122.262 41.615C122.083 41.4688 121.917 41.2728 121.764 41.0269C121.704 40.9405 121.641 40.8374 121.575 40.7178C121.508 40.5915 121.442 40.4653 121.375 40.339C121.309 40.2127 121.249 40.0898 121.196 39.9701C121.149 39.8505 121.116 39.7508 121.096 39.6711C121.01 39.4584 120.91 39.3055 120.797 39.2125C120.691 39.1128 120.591 39.063 120.498 39.063V38.9732C120.498 38.9732 120.521 38.9732 120.568 38.9732C120.614 38.9732 120.674 38.9732 120.747 38.9732C120.887 38.9732 121.023 38.95 121.156 38.9034C121.295 38.8503 121.422 38.7539 121.535 38.6143C121.648 38.4681 121.731 38.2555 121.784 37.9763C121.797 37.9364 121.807 37.88 121.814 37.8068C121.827 37.7337 121.83 37.6507 121.824 37.5576C121.81 37.3117 121.764 37.1157 121.684 36.9694C121.611 36.8166 121.518 36.7036 121.405 36.6305C121.292 36.5507 121.176 36.4976 121.056 36.471C120.943 36.4378 120.843 36.4211 120.757 36.4211C120.631 36.4145 120.514 36.4145 120.408 36.4211C120.308 36.4211 120.232 36.4178 120.179 36.4112C120.172 36.4112 120.162 36.3779 120.149 36.3115C120.136 36.2384 120.122 36.1686 120.109 36.1021C120.096 36.0357 120.089 36.0024 120.089 36.0024ZM120.189 36.0024V41.9839H118.743V36.0024H120.189ZM118.773 41.3558L118.813 41.9839H118.095V41.8842C118.102 41.8842 118.119 41.8842 118.145 41.8842C118.178 41.8842 118.202 41.8842 118.215 41.8842C118.361 41.8842 118.484 41.8344 118.584 41.7347C118.69 41.6283 118.747 41.502 118.753 41.3558H118.773ZM118.773 36.6205H118.753C118.747 36.4677 118.69 36.3447 118.584 36.2517C118.484 36.152 118.364 36.1021 118.225 36.1021C118.205 36.1021 118.178 36.1021 118.145 36.1021C118.119 36.1021 118.102 36.1021 118.095 36.1021V36.0024H118.813L118.773 36.6205ZM120.169 41.3558H120.189C120.189 41.522 120.245 41.6516 120.358 41.7446C120.478 41.8377 120.604 41.8842 120.737 41.8842C120.737 41.8842 120.75 41.8842 120.777 41.8842C120.804 41.8842 120.824 41.8842 120.837 41.8842V41.9839H120.119L120.169 41.3558ZM125.155 35.8629L131.007 41.0069L131.107 42.1135L125.265 36.9694L125.155 35.8629ZM125.195 41.3758V41.9839H124.458V41.8842C124.458 41.8842 124.484 41.8842 124.537 41.8842C124.591 41.8842 124.617 41.8842 124.617 41.8842C124.77 41.8842 124.9 41.8377 125.006 41.7446C125.112 41.6449 125.165 41.522 125.165 41.3758H125.195ZM126.531 41.3758C126.538 41.522 126.594 41.6449 126.701 41.7446C126.807 41.8377 126.933 41.8842 127.079 41.8842C127.079 41.8842 127.106 41.8842 127.159 41.8842C127.219 41.8842 127.249 41.8842 127.249 41.8842V41.9839H126.511V41.3758H126.531ZM125.155 35.8629L126.531 37.3582V41.9839H125.165V36.9994C125.165 36.6604 125.149 36.3879 125.116 36.1819C125.082 35.9692 125.066 35.8629 125.066 35.8629H125.155ZM131.097 36.0024V40.9471C131.097 41.1797 131.104 41.3857 131.117 41.5652C131.137 41.738 131.153 41.8742 131.167 41.9739C131.187 42.067 131.197 42.1135 131.197 42.1135H131.107L129.731 40.5284V36.0024H131.097ZM131.067 36.6106V36.0024H131.815V36.1021C131.815 36.1021 131.785 36.1021 131.725 36.1021C131.672 36.1021 131.645 36.1021 131.645 36.1021C131.499 36.1021 131.369 36.152 131.256 36.2517C131.15 36.3447 131.097 36.4643 131.097 36.6106H131.067ZM129.731 36.6106C129.725 36.4643 129.668 36.3447 129.562 36.2517C129.462 36.152 129.336 36.1021 129.183 36.1021C129.183 36.1021 129.153 36.1021 129.093 36.1021C129.04 36.1021 129.013 36.1021 129.013 36.1021V36.0024H129.751V36.6106H129.731ZM135.197 35.7333L138.148 41.934H136.463L134.609 37.5576L135.197 35.7333ZM133.323 41.3259C133.25 41.5054 133.26 41.6449 133.353 41.7446C133.446 41.8377 133.549 41.8842 133.662 41.8842H133.742V41.9839H131.748V41.8842C131.748 41.8842 131.761 41.8842 131.788 41.8842C131.814 41.8842 131.828 41.8842 131.828 41.8842C131.961 41.8842 132.1 41.8443 132.246 41.7646C132.393 41.6782 132.512 41.532 132.605 41.3259H133.323ZM135.197 35.7333L135.217 36.9296L133.054 41.954H132.316L134.649 36.9395C134.662 36.8997 134.692 36.8299 134.739 36.7302C134.785 36.6239 134.835 36.5075 134.888 36.3813C134.941 36.2484 134.991 36.1254 135.038 36.0124C135.084 35.8928 135.111 35.7997 135.117 35.7333H135.197ZM136.065 40.0299V40.4187H133.522V40.0299H136.065ZM136.214 41.3259H137.859C137.959 41.532 138.082 41.6782 138.228 41.7646C138.374 41.8443 138.514 41.8842 138.647 41.8842C138.647 41.8842 138.66 41.8842 138.686 41.8842C138.713 41.8842 138.726 41.8842 138.726 41.8842V41.9839H135.795V41.8842H135.875C135.988 41.8842 136.091 41.8377 136.184 41.7446C136.277 41.6449 136.287 41.5054 136.214 41.3259ZM141.557 36.0324V41.9839H140.112V36.0324H141.557ZM143.73 35.9925V36.3912H137.948V35.9925H143.73ZM143.73 36.3613V37.4181H143.621V37.3283C143.627 37.0426 143.548 36.8166 143.381 36.6504C143.222 36.4843 142.999 36.3979 142.714 36.3912V36.3613H143.73ZM143.73 35.8429V36.0922L142.674 35.9925C142.8 35.9925 142.936 35.9858 143.082 35.9725C143.229 35.9526 143.362 35.9327 143.481 35.9127C143.601 35.8861 143.684 35.8629 143.73 35.8429ZM140.132 41.3558V41.9839H139.464V41.8842C139.464 41.8842 139.48 41.8842 139.513 41.8842C139.553 41.8842 139.573 41.8842 139.573 41.8842C139.719 41.8842 139.842 41.8344 139.942 41.7347C140.048 41.6283 140.105 41.502 140.112 41.3558H140.132ZM141.527 41.3558H141.557C141.557 41.502 141.61 41.6283 141.717 41.7347C141.823 41.8344 141.953 41.8842 142.105 41.8842C142.105 41.8842 142.122 41.8842 142.155 41.8842C142.195 41.8842 142.215 41.8842 142.215 41.8842V41.9839H141.527V41.3558ZM138.965 36.3613V36.3912C138.673 36.3979 138.447 36.4843 138.287 36.6504C138.134 36.8166 138.058 37.0426 138.058 37.3283V37.4181H137.948V36.3613H138.965ZM137.948 35.8429C138.008 35.8562 138.095 35.8762 138.208 35.9028C138.327 35.9293 138.457 35.9526 138.596 35.9725C138.743 35.9858 138.875 35.9925 138.995 35.9925L137.948 36.0922V35.8429ZM146.376 36.0024V41.9839H144.941V36.0024H146.376ZM144.971 41.3558V41.9839H144.243V41.8842C144.243 41.8842 144.263 41.8842 144.303 41.8842C144.343 41.8842 144.366 41.8842 144.373 41.8842C144.525 41.8842 144.658 41.8344 144.771 41.7347C144.884 41.6283 144.941 41.502 144.941 41.3558H144.971ZM146.356 41.3558H146.376C146.383 41.502 146.44 41.6283 146.546 41.7347C146.659 41.8344 146.795 41.8842 146.955 41.8842C146.955 41.8842 146.971 41.8842 147.004 41.8842C147.044 41.8842 147.068 41.8842 147.074 41.8842V41.9839H146.356V41.3558ZM146.356 36.6305V36.0024H147.074L147.064 36.1021C147.064 36.1021 147.048 36.1021 147.014 36.1021C146.981 36.1021 146.961 36.1021 146.955 36.1021C146.795 36.1021 146.659 36.152 146.546 36.2517C146.44 36.3514 146.383 36.4776 146.376 36.6305H146.356ZM144.971 36.6305H144.941C144.941 36.4776 144.884 36.3514 144.771 36.2517C144.658 36.152 144.522 36.1021 144.363 36.1021C144.363 36.1021 144.343 36.1021 144.303 36.1021C144.263 36.1021 144.243 36.1021 144.243 36.1021V36.0024H144.971V36.6305ZM151.189 35.8728C151.721 35.8728 152.203 35.946 152.635 36.0922C153.067 36.2317 153.439 36.4378 153.751 36.7103C154.064 36.9827 154.303 37.3117 154.469 37.6972C154.642 38.0827 154.728 38.518 154.728 39.0031C154.728 39.4817 154.642 39.9136 154.469 40.2991C154.303 40.6779 154.064 41.0036 153.751 41.2761C153.439 41.5486 153.067 41.7579 152.635 41.9041C152.203 42.0437 151.721 42.1135 151.189 42.1135C150.664 42.1135 150.186 42.0437 149.754 41.9041C149.322 41.7579 148.949 41.5486 148.637 41.2761C148.325 41.0036 148.085 40.6779 147.919 40.2991C147.753 39.9136 147.67 39.4817 147.67 39.0031C147.67 38.518 147.753 38.0827 147.919 37.6972C148.085 37.3117 148.325 36.9827 148.637 36.7103C148.949 36.4378 149.322 36.2317 149.754 36.0922C150.186 35.946 150.664 35.8728 151.189 35.8728ZM151.189 41.7247C151.595 41.7247 151.947 41.615 152.246 41.3957C152.552 41.1697 152.784 40.8541 152.944 40.4487C153.11 40.0432 153.193 39.5614 153.193 39.0031C153.193 38.4382 153.11 37.9531 152.944 37.5477C152.784 37.1356 152.552 36.8199 152.246 36.6006C151.947 36.3746 151.595 36.2616 151.189 36.2616C150.79 36.2616 150.441 36.3746 150.142 36.6006C149.843 36.8199 149.611 37.1356 149.445 37.5477C149.278 37.9531 149.195 38.4382 149.195 39.0031C149.195 39.5614 149.278 40.0432 149.445 40.4487C149.611 40.8541 149.843 41.1697 150.142 41.3957C150.441 41.615 150.79 41.7247 151.189 41.7247ZM155.88 35.8629L161.732 41.0069L161.832 42.1135L155.99 36.9694L155.88 35.8629ZM155.92 41.3758V41.9839H155.183V41.8842C155.183 41.8842 155.209 41.8842 155.262 41.8842C155.315 41.8842 155.342 41.8842 155.342 41.8842C155.495 41.8842 155.625 41.8377 155.731 41.7446C155.837 41.6449 155.89 41.522 155.89 41.3758H155.92ZM157.256 41.3758C157.263 41.522 157.319 41.6449 157.426 41.7446C157.532 41.8377 157.658 41.8842 157.804 41.8842C157.804 41.8842 157.831 41.8842 157.884 41.8842C157.944 41.8842 157.974 41.8842 157.974 41.8842V41.9839H157.236V41.3758H157.256ZM155.88 35.8629L157.256 37.3582V41.9839H155.89V36.9994C155.89 36.6604 155.874 36.3879 155.841 36.1819C155.807 35.9692 155.791 35.8629 155.791 35.8629H155.88ZM161.822 36.0024V40.9471C161.822 41.1797 161.829 41.3857 161.842 41.5652C161.862 41.738 161.878 41.8742 161.892 41.9739C161.912 42.067 161.922 42.1135 161.922 42.1135H161.832L160.456 40.5284V36.0024H161.822ZM161.792 36.6106V36.0024H162.54V36.1021C162.54 36.1021 162.51 36.1021 162.45 36.1021C162.397 36.1021 162.37 36.1021 162.37 36.1021C162.224 36.1021 162.094 36.152 161.981 36.2517C161.875 36.3447 161.822 36.4643 161.822 36.6106H161.792ZM160.456 36.6106C160.45 36.4643 160.393 36.3447 160.287 36.2517C160.187 36.152 160.061 36.1021 159.908 36.1021C159.908 36.1021 159.878 36.1021 159.818 36.1021C159.765 36.1021 159.738 36.1021 159.738 36.1021V36.0024H160.476V36.6106H160.456ZM165.922 35.7333L168.873 41.934H167.188L165.334 37.5576L165.922 35.7333ZM164.048 41.3259C163.975 41.5054 163.985 41.6449 164.078 41.7446C164.171 41.8377 164.274 41.8842 164.387 41.8842H164.467V41.9839H162.473V41.8842C162.473 41.8842 162.486 41.8842 162.513 41.8842C162.539 41.8842 162.553 41.8842 162.553 41.8842C162.686 41.8842 162.825 41.8443 162.971 41.7646C163.118 41.6782 163.237 41.532 163.33 41.3259H164.048ZM165.922 35.7333L165.942 36.9296L163.779 41.954H163.041L165.374 36.9395C165.387 36.8997 165.417 36.8299 165.464 36.7302C165.51 36.6239 165.56 36.5075 165.613 36.3813C165.666 36.2484 165.716 36.1254 165.763 36.0124C165.809 35.8928 165.836 35.7997 165.842 35.7333H165.922ZM166.79 40.0299V40.4187H164.247V40.0299H166.79ZM166.939 41.3259H168.584C168.684 41.532 168.807 41.6782 168.953 41.7646C169.099 41.8443 169.239 41.8842 169.372 41.8842C169.372 41.8842 169.385 41.8842 169.411 41.8842C169.438 41.8842 169.451 41.8842 169.451 41.8842V41.9839H166.52V41.8842H166.6C166.713 41.8842 166.816 41.8377 166.909 41.7446C167.002 41.6449 167.012 41.5054 166.939 41.3259ZM171.6 36.0024V41.9839H170.165V36.0024H171.6ZM173.923 41.5851L174.162 41.9839H171.58V41.5851H173.923ZM174.581 40.1496L174.192 41.9839H172.467L172.776 41.5851C173.062 41.5851 173.315 41.5286 173.534 41.4156C173.76 41.296 173.953 41.1299 174.112 40.9172C174.272 40.6979 174.395 40.442 174.481 40.1496H174.581ZM170.185 41.3558L170.234 41.9839H169.497V41.8842C169.497 41.8842 169.517 41.8842 169.556 41.8842C169.596 41.8842 169.62 41.8842 169.626 41.8842C169.772 41.8842 169.895 41.8344 169.995 41.7347C170.101 41.6283 170.158 41.502 170.165 41.3558H170.185ZM171.58 36.6305V36.0024H172.268V36.1021C172.261 36.1021 172.238 36.1021 172.198 36.1021C172.165 36.1021 172.148 36.1021 172.148 36.1021C172.002 36.1021 171.876 36.152 171.77 36.2517C171.663 36.3514 171.607 36.4776 171.6 36.6305H171.58ZM170.185 36.6305H170.165C170.158 36.4776 170.101 36.3514 169.995 36.2517C169.889 36.152 169.763 36.1021 169.616 36.1021C169.61 36.1021 169.586 36.1021 169.547 36.1021C169.513 36.1021 169.497 36.1021 169.497 36.1021V36.0024H170.185V36.6305Z" fill="#969FAC"/>
<path d="M31.5537 35.9429L35.4925 42.1173L30.1941 45.4495L26.0198 38.3757" fill="#7D8DA2"/>
<path d="M22.3536 34.602C29.3001 33.6772 34.6643 27.7254 34.6643 20.5223C34.6643 13.3191 29.3001 7.36521 22.3536 6.44254V-0.00341797C32.7532 0.959551 40.8982 9.70688 40.8982 20.3568C40.8982 31.0067 32.7532 39.7456 22.3536 40.7085V34.5998V34.602Z" fill="url(#paint0_linear_508_2228)"/>
<path d="M18.3473 34.5784C11.4962 33.5688 6.23385 27.6552 6.23385 20.5221C6.23385 13.3889 11.4962 7.47531 18.3473 6.46567V0.0112305C8.04313 1.06965 0 9.77031 0 20.3566C0 30.9429 8.04313 39.6372 18.3473 40.6935V34.5784Z" fill="url(#paint1_linear_508_2228)"/>
<path d="M6.41231 22.8561H18.3497V16.478H6.82168C6.08142 18.3891 6.10264 20.5717 6.41443 22.8561H6.41231Z" fill="url(#paint2_linear_508_2228)"/>
</g>
<defs>
<linearGradient id="paint0_linear_508_2228" x1="22.3536" y1="20.3526" x2="40.8982" y2="20.3526" gradientUnits="userSpaceOnUse">
<stop stop-color="#506291"/>
<stop offset="1" stop-color="#323F6A"/>
</linearGradient>
<linearGradient id="paint1_linear_508_2228" x1="0" y1="20.3524" x2="18.3473" y2="20.3524" gradientUnits="userSpaceOnUse">
<stop stop-color="#506291"/>
<stop offset="1" stop-color="#323F6A"/>
</linearGradient>
<linearGradient id="paint2_linear_508_2228" x1="6.20657" y1="19.666" x2="18.3476" y2="19.666" gradientUnits="userSpaceOnUse">
<stop stop-color="#323F6A"/>
<stop offset="1" stop-color="#506291"/>
</linearGradient>
<clipPath id="clip0_508_2228">
<rect width="174.938" height="48" fill="white"/>
</clipPath>
</defs>
</svg>
