<svg width="110" height="110" viewBox="0 0 110 110" fill="none" xmlns="http://www.w3.org/2000/svg">
<path d="M100.833 76.7249V21.4041C100.833 15.9041 96.341 11.8249 90.8869 12.2833H90.6119C80.9869 13.1083 66.366 18.0124 58.2077 23.1458L57.4285 23.6499C56.0993 24.4749 53.8994 24.4749 52.5702 23.6499L51.4244 22.9624C43.266 17.8749 28.691 13.0166 19.066 12.2374C13.6118 11.7791 9.16602 15.9041 9.16602 21.3583V76.7249C9.16602 81.1249 12.741 85.2499 17.141 85.7999L18.4702 85.9833C28.416 87.3124 43.7702 92.3541 52.5702 97.1666L52.7535 97.2583C53.991 97.9458 55.9619 97.9458 57.1535 97.2583C65.9535 92.3999 81.3535 87.3124 91.3452 85.9833L92.8577 85.7999C97.2577 85.2499 100.833 81.1249 100.833 76.7249Z" stroke="#292D32" stroke-width="4" stroke-linecap="round" stroke-linejoin="round"/>
<path d="M55 25.1626V93.9126" stroke="#292D32" stroke-width="4" stroke-linecap="round" stroke-linejoin="round"/>
<path d="M35.5215 38.9126H25.209" stroke="#292D32" stroke-width="4" stroke-linecap="round" stroke-linejoin="round"/>
<path d="M38.959 52.6626H25.209" stroke="#292D32" stroke-width="4" stroke-linecap="round" stroke-linejoin="round"/>
</svg>
