<svg width="25" height="25" viewBox="0 0 25 25" fill="none" xmlns="http://www.w3.org/2000/svg">
<path d="M17.1566 6.53496C15.7621 6.987 14.831 8.26152 13.7493 9.29711C13.6811 9.35531 13.7315 9.33847 13.6381 9.33189C13.0523 9.23137 9.65027 8.7225 8.16612 8.50067C8.0558 8.4742 7.94044 8.47733 7.83172 8.50975C7.723 8.54217 7.62478 8.60273 7.54698 8.6853C7.33874 8.90596 7.08926 9.15203 6.86605 9.37233C6.82134 9.41801 6.78843 9.47391 6.77018 9.53518C6.75194 9.59645 6.7489 9.66125 6.76134 9.72395C6.77377 9.78666 6.80131 9.84539 6.84156 9.89506C6.8818 9.94473 6.93355 9.98384 6.99232 10.009C8.46211 10.6213 9.91697 11.2279 11.3569 11.829L9.09728 14.2937L7.695 13.9019C7.62832 13.883 7.55778 13.8823 7.49073 13.8999C7.42368 13.9174 7.36256 13.9527 7.31372 14.0018L6.56185 14.7537C6.51863 14.7978 6.48637 14.8513 6.46769 14.9101C6.449 14.9689 6.44441 15.0313 6.45429 15.0922C6.46417 15.1531 6.48824 15.2108 6.52455 15.2607C6.56086 15.3106 6.6084 15.3512 6.66332 15.3793L7.88898 15.9924C8.37336 16.2358 8.76643 16.6288 9.00993 17.1131L9.62277 18.3388C9.65087 18.3937 9.69151 18.4412 9.74139 18.4776C9.79127 18.5139 9.84899 18.5379 9.9099 18.5478C9.9708 18.5577 10.0332 18.5531 10.092 18.5344C10.1508 18.5157 10.2044 18.4835 10.2484 18.4402L11.0001 17.6884C11.0491 17.6393 11.0842 17.5781 11.1018 17.511C11.1194 17.4439 11.1187 17.3733 11.1 17.3065L10.7052 15.9012C11.4836 15.1879 12.3829 14.3565 13.1691 13.6337C13.7798 15.0963 14.3837 16.5428 14.9929 18.0065C15.0177 18.0657 15.0566 18.118 15.1063 18.1586C15.156 18.1992 15.2149 18.2271 15.2779 18.2396C15.5029 18.3014 15.6785 18.0871 15.8155 17.9451C15.9679 17.7906 16.1077 17.6487 16.254 17.5148C16.3555 17.4264 16.4316 17.3126 16.4745 17.1851C16.5174 17.0576 16.5255 16.9209 16.498 16.7892C16.4352 16.4112 16.2435 15.1355 16.0581 13.9038C15.9097 12.7086 15.6512 11.6119 15.6825 11.272C16.6726 10.2426 19.3776 8.05841 18.2978 6.70888C18.1447 6.57286 17.9554 6.48406 17.7529 6.4532C17.5504 6.42234 17.3433 6.45073 17.1566 6.53496ZM17.7139 7.62558C17.2406 8.90566 16.1801 9.60748 15.1412 10.7087C15.0381 10.7982 14.9608 10.9137 14.9172 11.0431C14.8737 11.1725 14.8655 11.3112 14.8935 11.4449C14.9439 11.7477 15.1119 12.8647 15.2857 14.0198C15.4716 15.2569 15.6643 16.5375 15.7268 16.938C15.6465 17.0116 15.5681 17.0872 15.489 17.1654C14.8846 15.7146 14.2839 14.2761 13.6753 12.8181C13.6506 12.7606 13.6126 12.7099 13.5644 12.67C13.5162 12.6302 13.4592 12.6024 13.3981 12.589C13.337 12.5756 13.2736 12.577 13.2131 12.593C13.1526 12.6091 13.0969 12.6393 13.0504 12.6812C12.1055 13.5488 10.9332 14.6325 10.0002 15.4877C9.94695 15.5365 9.90828 15.5992 9.88848 15.6686C9.86868 15.7381 9.86854 15.8118 9.88806 15.8813L10.2859 17.2977L10.0792 17.5045C9.69025 16.6239 9.14927 15.7076 8.23835 15.2935L7.49739 14.9231L7.70472 14.7156L9.11806 15.1104C9.18751 15.13 9.26104 15.1298 9.33042 15.11C9.3998 15.0902 9.46231 15.0515 9.51098 14.9982L12.266 11.993C12.3044 11.9537 12.3347 11.907 12.3548 11.8557C12.3749 11.8045 12.3846 11.7498 12.3833 11.6947C12.3879 11.6139 12.3674 11.5336 12.3245 11.465C12.2816 11.3963 12.2185 11.3426 12.1439 11.3113C10.7174 10.7147 9.28051 10.1153 7.83327 9.51309C7.91286 9.43398 7.98934 9.35347 8.0654 9.27544L9.23556 9.45129C10.6861 9.66797 13.114 10.0311 13.5015 10.1013C13.6486 10.1341 13.8018 10.1267 13.9451 10.0798C14.0883 10.033 14.2163 9.94842 14.3156 9.83505C15.3063 8.90028 16.1354 7.72685 17.3768 7.28445C17.8013 7.16653 17.8292 7.20792 17.7139 7.62558Z" fill="#00682C"/>
<path d="M23.4179 5.46875C23.4179 5.41745 23.4078 5.36665 23.3881 5.31925C23.3685 5.27185 23.3397 5.22878 23.3035 5.19251C23.2672 5.15623 23.2241 5.12746 23.1767 5.10783C23.1293 5.08821 23.0785 5.07811 23.0272 5.07813C22.1987 5.07718 21.4044 4.74763 20.8186 4.16179C20.2327 3.57594 19.9032 2.78164 19.9022 1.95313C19.9022 1.90182 19.8921 1.85102 19.8725 1.80362C19.8529 1.75622 19.8241 1.71316 19.7878 1.67688C19.7516 1.64061 19.7085 1.61183 19.6611 1.59221C19.6137 1.57258 19.5629 1.56249 19.5116 1.5625H5.48934C5.43804 1.56249 5.38723 1.57258 5.33984 1.59221C5.29244 1.61183 5.24937 1.64061 5.21309 1.67688C5.17682 1.71316 5.14805 1.75622 5.12842 1.80362C5.10879 1.85102 5.0987 1.90182 5.09871 1.95313C5.09776 2.78164 4.76822 3.57594 4.18237 4.16179C3.59653 4.74763 2.80222 5.07718 1.97371 5.07813C1.92241 5.07811 1.87161 5.08821 1.82421 5.10783C1.77681 5.12746 1.73374 5.15623 1.69747 5.19251C1.66119 5.22878 1.63242 5.27185 1.61279 5.31925C1.59317 5.36665 1.58307 5.41745 1.58309 5.46875C1.73005 9.31439 0.643883 14.0183 5.75262 19.6339C7.60748 21.5017 9.94404 22.8183 12.5025 23.4375C15.0594 22.8173 17.3944 21.5007 19.2484 19.6339C24.3308 14.0445 23.2763 9.3014 23.4179 5.46875ZM18.693 19.0846C16.9796 20.7966 14.8428 22.0237 12.5006 22.6406C10.1583 22.0237 8.02154 20.7967 6.30819 19.0846C1.51474 13.8119 2.49383 9.39375 2.36423 5.83997C3.26034 5.74858 4.0975 5.35086 4.73444 4.71394C5.37138 4.07701 5.76911 3.23986 5.86052 2.34375H19.1404C19.2317 3.23988 19.6294 4.07706 20.2664 4.714C20.9033 5.35094 21.7405 5.74862 22.6366 5.83992C22.5112 9.38254 23.4642 13.8272 18.693 19.0846Z" fill="#00682C"/>
<path d="M21.5847 6.44417C20.8793 6.21445 20.2381 5.82127 19.7136 5.29669C19.189 4.77212 18.7958 4.13099 18.5661 3.4256C18.5406 3.34709 18.491 3.27866 18.4242 3.23014C18.3575 3.18161 18.2771 3.15549 18.1945 3.15552H6.80556C6.72303 3.15549 6.64262 3.18161 6.57587 3.23014C6.50911 3.27866 6.45945 3.34709 6.43401 3.4256C6.20429 4.13099 5.81111 4.77212 5.28654 5.29669C4.76196 5.82127 4.12084 6.21445 3.41544 6.44417C3.3369 6.46959 3.26844 6.51924 3.21989 6.58599C3.17133 6.65275 3.14517 6.73317 3.14517 6.81572C3.22099 9.68454 2.52545 13.8193 6.86302 18.5658C8.42004 20.1367 10.3648 21.2678 12.5001 21.8445C14.6355 21.2682 16.5803 20.1369 18.137 18.5658C22.4512 13.8362 21.7802 9.68569 21.8549 6.81572C21.8549 6.73317 21.8288 6.65275 21.7802 6.58599C21.7317 6.51924 21.6632 6.46959 21.5847 6.44417ZM17.5815 18.0164C16.164 19.4305 14.4182 20.4714 12.5001 21.0461C10.5821 20.4714 8.83623 19.4305 7.41858 18.0164C3.36942 13.579 3.9928 9.72061 3.9263 7.09195C4.64368 6.81598 5.29519 6.39258 5.83872 5.84909C6.38226 5.30561 6.80572 4.65413 7.08174 3.93677H17.9183C18.1944 4.65411 18.6178 5.30557 19.1613 5.84905C19.7048 6.39252 20.3563 6.81593 21.0737 7.0919V8.23364C21.0737 8.26759 21.0746 8.30116 21.0763 8.33664C21.1488 9.70535 21.1107 14.4474 17.5815 18.0164Z" fill="#00682C"/>
</svg>
