<svg width="38" height="38" viewBox="0 0 38 38" fill="none" xmlns="http://www.w3.org/2000/svg">
<path d="M17 17.8125H20.5625" stroke="#00682C" stroke-width="1.5" stroke-linecap="round" stroke-linejoin="round"/>
<path d="M33.5 18.748C29.169 21.2528 24.2531 22.5688 19.25 22.5629C14.2459 22.5759 9.32825 21.2594 5 18.748" stroke="#00682C" stroke-width="1.5" stroke-linecap="round" stroke-linejoin="round"/>
<path d="M24.875 10.6875V8.3125C24.875 7.68261 24.6248 7.07852 24.1794 6.63312C23.734 6.18772 23.1299 5.9375 22.5 5.9375H15.375C14.7451 5.9375 14.141 6.18772 13.6956 6.63312C13.2502 7.07852 13 7.68261 13 8.3125V10.6875" stroke="#00682C" stroke-width="1.5" stroke-linecap="round" stroke-linejoin="round"/>
<path d="M32.3125 10.6875H6.1875C5.53166 10.6875 5 11.2192 5 11.875V30.875C5 31.5308 5.53166 32.0625 6.1875 32.0625H32.3125C32.9683 32.0625 33.5 31.5308 33.5 30.875V11.875C33.5 11.2192 32.9683 10.6875 32.3125 10.6875Z" stroke="#00682C" stroke-width="1.5" stroke-linecap="round" stroke-linejoin="round"/>
</svg>
