<svg width="25" height="25" viewBox="0 0 25 25" fill="none" xmlns="http://www.w3.org/2000/svg">
<g clip-path="url(#clip0_3192_10880)">
<path d="M0.519531 0.521484V24.4798H24.4779" stroke="#00682C" stroke-linecap="round" stroke-linejoin="round"/>
<path d="M4.16667 13.5423C4.74196 13.5423 5.20833 13.0759 5.20833 12.5007C5.20833 11.9254 4.74196 11.459 4.16667 11.459C3.59137 11.459 3.125 11.9254 3.125 12.5007C3.125 13.0759 3.59137 13.5423 4.16667 13.5423Z" stroke="#00682C" stroke-linecap="round" stroke-linejoin="round"/>
<path d="M10.4167 16.6673C10.992 16.6673 11.4583 16.2009 11.4583 15.6257C11.4583 15.0504 10.992 14.584 10.4167 14.584C9.84137 14.584 9.375 15.0504 9.375 15.6257C9.375 16.2009 9.84137 16.6673 10.4167 16.6673Z" stroke="#00682C" stroke-linecap="round" stroke-linejoin="round"/>
<path d="M16.1471 11.9798C16.7224 11.9798 17.1888 11.5134 17.1888 10.9382C17.1888 10.3629 16.7224 9.89648 16.1471 9.89648C15.5718 9.89648 15.1055 10.3629 15.1055 10.9382C15.1055 11.5134 15.5718 11.9798 16.1471 11.9798Z" stroke="#00682C" stroke-linecap="round" stroke-linejoin="round"/>
<path d="M21.8737 14.0618C22.449 14.0618 22.9154 13.5955 22.9154 13.0202C22.9154 12.4449 22.449 11.9785 21.8737 11.9785C21.2984 11.9785 20.832 12.4449 20.832 13.0202C20.832 13.5955 21.2984 14.0618 21.8737 14.0618Z" stroke="#00682C" stroke-linecap="round" stroke-linejoin="round"/>
<path d="M5.20703 13.0215L9.3737 15.1048" stroke="#00682C" stroke-linecap="round" stroke-linejoin="round"/>
<path d="M11.457 15.1048L15.1029 11.459" stroke="#00682C" stroke-linecap="round" stroke-linejoin="round"/>
<path d="M17.1875 11.459L20.8333 12.5007" stroke="#00682C" stroke-linecap="round" stroke-linejoin="round"/>
</g>
<defs>
<clipPath id="clip0_3192_10880">
<rect width="25" height="25" fill="white"/>
</clipPath>
</defs>
</svg>
