<svg width="25" height="25" viewBox="0 0 25 25" fill="none" xmlns="http://www.w3.org/2000/svg">
<path d="M0.00229131 16.0022C0.00305513 16.011 0.00458282 16.0191 0.00687429 16.0272C0.00763812 16.0287 0.00687424 16.0309 0.00763806 16.0324L1.07852 19.6801C1.10067 19.7566 1.17324 19.8096 1.25573 19.8096H7.63367L9.01008 23.5235L7.3289 24.2184C6.97372 24.3699 6.59258 24.4463 6.19691 24.4463C5.5278 24.4463 4.87473 24.2132 4.35839 23.7897C3.37305 22.9831 1.98976 22.8213 0.834861 23.3772L0.102352 23.7301C0.0114572 23.7743 -0.0252066 23.8801 0.0198591 23.9676C0.0656886 24.0551 0.17568 24.0904 0.266575 24.0471L0.999083 23.6941C2.02184 23.2015 3.24702 23.3456 4.11931 24.0596C4.70211 24.5375 5.43996 24.8007 6.19691 24.8007C6.64452 24.8007 7.07531 24.714 7.47632 24.5434L8.6633 24.0515L10.4377 23.3221C10.4835 23.3037 10.5293 23.286 10.5759 23.2699C10.6775 23.2346 10.7806 23.2051 10.8845 23.1809C11.4749 23.0449 12.1043 23.0912 12.668 23.3221L14.3698 24.014C14.4241 24.0375 14.4783 24.0603 14.5272 24.0838L15.7715 24.6794C16.2183 24.8926 16.7064 25 17.196 25C17.61 25 18.0247 24.9235 18.4181 24.7699L20.1008 24.1029C20.1963 24.0676 20.2841 24.0272 20.3628 23.9838L21.2298 23.5544C22.086 23.1309 23.0996 23.1522 23.9406 23.611L24.7235 24.0426C24.8113 24.0912 24.9244 24.0618 24.9748 23.9772C25.0252 23.8919 24.9947 23.7838 24.9068 23.7353L24.1231 23.3029C23.1737 22.7846 22.0287 22.7603 21.0617 23.239L20.1902 23.6706C20.1871 23.6721 20.1848 23.6735 20.1818 23.675C20.1192 23.7103 20.0474 23.7426 19.9641 23.7735L18.2783 24.4419C17.5176 24.739 16.6636 24.7103 15.9349 24.3625L14.6914 23.7669C14.6387 23.7412 14.5791 23.7162 14.5165 23.689L14.0956 23.5176L15.4713 19.8103H22.1379C22.225 19.8103 22.3006 19.7515 22.3182 19.6691L23.1011 16.0213C23.1126 15.9691 23.0988 15.9147 23.0637 15.8735C23.0286 15.8324 22.9766 15.8081 22.9209 15.8081H20.3307L20.4262 15.6574L24.0002 9.93676V14.1574C24.0002 14.1581 24.0002 14.1588 24.0002 14.1596C24.0002 14.1603 24.0002 14.161 24.0002 14.1618C24.0002 14.2596 24.0826 14.339 24.1842 14.339C24.4309 14.339 24.6318 14.5324 24.6318 14.7699C24.6318 15.0074 24.4309 15.2007 24.1842 15.2007C23.9375 15.2007 23.7366 15.0074 23.7366 14.7699C23.7366 14.6721 23.6541 14.5926 23.5525 14.5926C23.451 14.5926 23.3685 14.6721 23.3685 14.7699C23.3685 15.2029 23.7343 15.5551 24.1842 15.5551C24.6341 15.5551 25 15.2029 25 14.7699C25 14.3978 24.7296 14.086 24.3683 14.0059V9.30147C24.3683 9.3 24.3683 9.29926 24.3683 9.29853C24.3683 9.29485 24.3683 9.29118 24.3675 9.2875C24.3668 9.28015 24.366 9.27279 24.3645 9.26544C24.3637 9.26324 24.3645 9.26103 24.3637 9.25882C24.3637 9.25735 24.363 9.25662 24.3622 9.25515C24.3599 9.24632 24.3569 9.2375 24.353 9.22941C24.3523 9.22794 24.3515 9.22573 24.3507 9.22426C24.3462 9.21471 24.3408 9.20515 24.3339 9.19632C24.3317 9.19338 24.3294 9.19118 24.3271 9.18824C24.3232 9.18382 24.3202 9.17941 24.3156 9.175L22.5726 7.41176C22.5382 7.37721 22.4908 7.35735 22.4412 7.35662C22.3915 7.35515 22.3434 7.375 22.309 7.40882L13.6702 15.7265L13.5892 15.7309L13.1248 11.939L12.7391 8.86691H13.4357C13.5373 8.86691 13.6198 8.7875 13.6198 8.68971V7.47353C13.6198 7.37573 13.5373 7.29632 13.4357 7.29632H12.5435L12.3236 5.51618C12.3228 5.50809 12.322 5.5 12.3205 5.49265L12.1364 4.00294H12.7078C12.8093 4.00294 12.8918 3.92353 12.8918 3.82574V2.60956C12.8918 2.51176 12.8093 2.43235 12.7078 2.43235H11.947L11.8385 1.57059H11.9798C12.0814 1.57059 12.1639 1.49118 12.1639 1.39338V1.07721C12.1639 0.71103 11.95 0.372059 11.5872 0.167647C11.3779 0.0580884 11.1412 0 10.9028 0H6.50703C6.26871 0 6.03193 0.0580882 5.81729 0.169853C5.45982 0.371323 5.24595 0.711029 5.24595 1.07647V1.39265C5.24595 1.49044 5.32844 1.56985 5.43003 1.56985H5.57134L5.46288 2.43162H4.70134C4.59975 2.43162 4.51726 2.51103 4.51726 2.60882V3.825C4.51726 3.92279 4.59975 4.00221 4.70134 4.00221H5.27269L5.0886 5.49191C5.08708 5.49853 5.08631 5.50588 5.08631 5.51324L4.86557 7.29559H3.97342C3.87183 7.29559 3.78934 7.375 3.78934 7.47279V8.68897C3.78934 8.78676 3.87183 8.86618 3.97342 8.86618H4.66926L4.41033 10.9434H0.184082C0.0824929 10.9434 0 11.0228 0 11.1206V15.9846C0 15.986 0.00076377 15.9875 0.00076377 15.989C0.00076377 15.9934 0.00152748 15.9978 0.00229131 16.0022ZM13.7565 23.3787L12.8124 22.9956C12.0119 22.6684 11.0938 22.6684 10.2933 22.9956L9.34922 23.3838L8.02475 19.8096H15.081L13.7565 23.3787ZM21.9882 19.4551H15.3422H7.76352H1.39474L0.427742 16.1618H5.23679H13.4342H13.6618H20.0031H22.6948L21.9882 19.4551ZM12.7345 11.7824H9.28582L12.4068 9.17206L12.7345 11.7824ZM8.79315 11.725L5.37122 8.86618H12.2113L8.79315 11.725ZM5.42087 12.1368H8.29361L5.42087 14.5382V12.1368ZM5.42087 15.0074L8.78934 12.1912L13.1179 15.8066H5.42087V15.0074ZM18.9658 15.8074L19.9313 15.7574L19.8999 15.8074H18.9658ZM20.3865 15.0324L19.7983 10.4132L23.8054 9.55882L20.3865 15.0324ZM22.4374 7.7875L23.8252 9.19191L20.1688 9.97132L22.4374 7.7875ZM19.4577 10.6559L20.0611 15.3956L14.2201 15.6978L19.4577 10.6559ZM13.1775 15.3875L9.28582 12.1368H12.778L13.1775 15.3875ZM5.43309 5.70662H7.98656L5.25435 7.15074L5.43309 5.70662ZM12.1547 7.15074L9.42255 5.70662H11.976L12.1547 7.15074ZM9.42255 5.35221L11.7782 4.10735L11.9325 5.35221H9.42255ZM8.70455 5.32721L6.19768 4.00221H11.2114L8.70455 5.32721ZM7.98656 5.35221H5.47663L5.63092 4.10735L7.98656 5.35221ZM8.70455 5.73162L11.6636 7.29559H5.74626L8.70455 5.73162ZM5.61335 1.07721C5.61335 0.834559 5.75542 0.615441 5.99756 0.479412C6.15338 0.397794 6.32982 0.355147 6.50626 0.355147H10.9021C11.0793 0.355147 11.255 0.398529 11.4062 0.47647C11.6537 0.616176 11.7958 0.835294 11.7958 1.07721V1.21618H11.6308H5.7791H5.61411L5.61335 1.07721ZM5.9418 1.57059H11.4673L11.5758 2.43235H5.8341L5.9418 1.57059ZM4.88619 2.78676H5.62634H11.7835H12.5237V3.64853H11.9294H5.48045H4.88619V2.78676ZM4.15826 7.65H5.02826H12.3801H13.2508V8.51103H12.5306H4.87702H4.15826V7.65ZM5.01833 9.04191L8.29896 11.7824H5.42087V11.1213C5.42087 11.0235 5.33837 10.9441 5.23679 10.9441H4.78155L5.01833 9.04191ZM0.368927 11.2978H4.57455H5.05347V15.8074H0.368927V11.2978Z" fill="#00682C"/>
<path d="M4.60623 11.5508H0.816894C0.715306 11.5508 0.632812 11.6302 0.632812 11.728V13.5523C0.632812 13.65 0.715306 13.7295 0.816894 13.7295H4.60623C4.70782 13.7295 4.79031 13.65 4.79031 13.5523V11.728C4.79031 11.6302 4.70858 11.5508 4.60623 11.5508ZM4.42215 13.375H1.00098V11.9059H4.42215V13.375Z" fill="#00682C"/>
<path d="M4.60623 14.5918H0.816894C0.715306 14.5918 0.632812 14.6712 0.632812 14.769C0.632812 14.8668 0.715306 14.9462 0.816894 14.9462H4.60623C4.70782 14.9462 4.79031 14.8668 4.79031 14.769C4.79031 14.6712 4.70858 14.5918 4.60623 14.5918Z" fill="#00682C"/>
</svg>
