<svg width="25" height="25" viewBox="0 0 25 25" fill="none" xmlns="http://www.w3.org/2000/svg">
<path d="M2.73503 15.8161C2.87846 16.2382 3.0514 16.6554 3.24912 17.0558C3.43957 17.4416 3.36112 17.9073 3.05385 18.2146L3.04926 18.2191C2.35964 18.913 2.36086 20.0386 3.05308 20.7309L4.2691 21.9469C4.96263 22.6403 6.09111 22.6403 6.78471 21.9469L6.78815 21.9434C7.09542 21.6385 7.5595 21.5608 7.94423 21.7508C8.3447 21.9485 8.76176 22.1216 9.18387 22.2649C9.58908 22.4026 9.86134 22.7868 9.86134 23.2212C9.86134 24.202 10.6593 25 11.6401 25H13.3599C14.3408 25 15.1387 24.202 15.1387 23.2212C15.1387 22.7868 15.4111 22.4026 15.8161 22.2649C16.2382 22.1216 16.6554 21.9485 17.0558 21.7508C17.4402 21.5612 17.9039 21.6383 18.2112 21.9427L18.2154 21.9469C18.909 22.6403 20.0374 22.6403 20.7309 21.9469L21.9468 20.7309C22.6391 20.0386 22.6404 18.9131 21.9507 18.2191L21.9461 18.2146C21.6389 17.9072 21.5604 17.4416 21.7509 17.0557C21.9484 16.6555 22.1214 16.2383 22.2649 15.8161C22.4026 15.4109 22.7869 15.1387 23.2212 15.1387C24.2021 15.1387 25 14.3406 25 13.3599V11.6402C25 10.6594 24.2021 9.8614 23.2212 9.8614C22.7869 9.8614 22.4026 9.58915 22.2649 9.18394C22.1215 8.76176 21.9484 8.34462 21.7509 7.94423C21.5604 7.55844 21.6389 7.09276 21.9461 6.78549L21.9507 6.7809C22.6404 6.087 22.6391 4.96144 21.9468 4.26922L20.7309 3.05321C20.0374 2.35977 18.9088 2.35969 18.2154 3.05321L18.2119 3.05665C17.9045 3.36155 17.4403 3.439 17.0558 3.24916C16.6554 3.05145 16.2383 2.87851 15.8161 2.73508C15.411 2.59746 15.1387 2.21313 15.1387 1.77879C15.1387 0.797955 14.3408 0 13.3599 0H11.6401C10.6593 0 9.86134 0.797955 9.86134 1.77879C9.86134 2.21313 9.58908 2.59746 9.18387 2.73508C8.76176 2.87843 8.3447 3.05145 7.94423 3.24916C7.55989 3.43892 7.09619 3.3617 6.78884 3.05726L6.78478 3.05313C6.09126 2.35969 4.96271 2.35969 4.26918 3.05313L3.05316 4.26914C2.36086 4.96144 2.35956 6.087 3.04934 6.78082L3.05393 6.78541C3.3612 7.09268 3.43964 7.55837 3.24919 7.94415C3.05156 8.34447 2.87861 8.76161 2.73511 9.18379C2.59749 9.589 2.21315 9.86125 1.77881 9.86125C0.797963 9.86125 0 10.6592 0 11.64V13.3597C0 14.3405 0.797963 15.1385 1.77881 15.1385C2.21307 15.1387 2.59741 15.4109 2.73503 15.8161ZM1.77873 10.626C2.54068 10.626 3.21593 10.1454 3.45899 9.42989C3.59171 9.03921 3.75173 8.65327 3.93469 8.28277C4.26949 7.60454 4.13424 6.78793 3.59829 6.24878L3.59378 6.24419C3.19835 5.84877 3.19835 5.20533 3.59378 4.8099L4.80979 3.59389C5.20407 3.19954 5.845 3.1984 6.24081 3.59061L6.24486 3.59466C6.78394 4.13374 7.60285 4.27052 8.28269 3.93488C8.65335 3.75193 9.03929 3.59191 9.42983 3.45918C10.1452 3.21613 10.6259 2.54096 10.6259 1.77894C10.6259 1.21975 11.0809 0.764698 11.6401 0.764698H13.3599C13.919 0.764698 14.3741 1.21968 14.3741 1.77894C14.3741 2.54089 14.8548 3.21613 15.5702 3.45918C15.9609 3.59183 16.3467 3.75193 16.7174 3.93488C17.3973 4.27052 18.2162 4.13374 18.7552 3.59466L18.7585 3.59145C19.1541 3.19847 19.7957 3.19931 20.1903 3.59397L21.4064 4.80998C21.8018 5.2054 21.8018 5.84884 21.4064 6.24427L21.4017 6.24885C20.8658 6.78793 20.7307 7.60454 21.0655 8.28285C21.2484 8.65335 21.4083 9.03936 21.5411 9.43005C21.7842 10.1454 22.4595 10.6261 23.2213 10.6261C23.7805 10.6261 24.2356 11.0811 24.2356 11.6403V12.1178H19.2287C19.0298 8.5788 16.0881 5.76062 12.5002 5.76062C8.91238 5.76062 5.97069 8.57888 5.77183 12.1178H0.764782V11.6402C0.764476 11.081 1.21954 10.626 1.77873 10.626ZM18.4749 12.5001C18.4749 15.7946 15.7945 18.475 12.4999 18.475C9.20535 18.475 6.52499 15.7946 6.52499 12.5001C6.52499 9.20542 9.20535 6.52508 12.4999 6.52508C15.7946 6.52516 18.4749 9.2055 18.4749 12.5001ZM0.764475 13.3599V12.8823H5.77152C5.97038 16.4214 8.91207 19.2395 12.4999 19.2395C16.0878 19.2395 19.0295 16.4214 19.2284 12.8823H24.2353V13.3599C24.2353 13.9191 23.7803 14.3741 23.221 14.3741C22.4592 14.3741 21.7839 14.8548 21.5408 15.5703C21.4081 15.9609 21.2481 16.3469 21.0652 16.7174C20.7304 17.3956 20.8657 18.2123 21.4014 18.7514L21.4061 18.756C21.8015 19.1515 21.8015 19.7949 21.4061 20.1903L20.19 21.4063C19.7958 21.8006 19.1548 21.8017 18.759 21.4097L18.7549 21.4056C18.2158 20.8666 17.3971 20.7298 16.7171 21.0653C16.3464 21.2485 15.9606 21.4083 15.5699 21.5411C14.8546 21.7841 14.3738 22.4593 14.3738 23.2214C14.3738 23.7806 13.9188 24.2356 13.3595 24.2356H11.6398C11.0806 24.2356 10.6256 23.7806 10.6256 23.2214C10.6256 22.4593 10.1449 21.7841 9.42952 21.5411C9.03899 21.4084 8.65297 21.2485 8.28239 21.0653C8.03414 20.9429 7.76739 20.8833 7.50247 20.8833C7.0419 20.8833 6.58677 21.0634 6.24455 21.4056L6.24134 21.4088C5.84569 21.8017 5.20407 21.8009 4.80957 21.4063L3.59355 20.1903C3.19812 19.7949 3.19812 19.1515 3.59355 18.756L3.59806 18.7514C4.13401 18.2123 4.26926 17.3957 3.93446 16.7174C3.7515 16.3469 3.59148 15.9609 3.45876 15.5703C3.2157 14.8549 2.54045 14.3741 1.7785 14.3741C1.21954 14.3741 0.764475 13.9191 0.764475 13.3599Z" fill="#00682C"/>
</svg>
