<svg width="25" height="23" viewBox="0 0 25 23" fill="none" xmlns="http://www.w3.org/2000/svg">
<path d="M19.368 11.4941C18.4879 10.6141 17.3176 10.1289 16.0723 10.1289C14.827 10.1289 13.657 10.6137 12.777 11.4941C10.9598 13.3113 10.9598 16.268 12.777 18.0852C13.657 18.9652 14.8273 19.4504 16.0723 19.4504C17.3172 19.4504 18.4879 18.9656 19.368 18.0852C20.2484 17.2051 20.7332 16.0344 20.7332 14.7895C20.7332 13.5445 20.2484 12.3742 19.368 11.4941ZM18.8156 17.5324C18.0828 18.2652 17.109 18.6688 16.0727 18.6688C15.0363 18.6688 14.0625 18.2652 13.3301 17.5324C11.8176 16.0199 11.8176 13.559 13.3301 12.0465C14.0629 11.3137 15.0367 10.9102 16.0727 10.9102C17.1086 10.9102 18.0828 11.3137 18.8156 12.0465C19.5484 12.7793 19.952 13.7535 19.952 14.7895C19.952 15.8254 19.5484 16.7996 18.8156 17.5324Z" fill="#00682C"/>
<path d="M21.5738 17.7293C22.3937 16.1934 22.5207 14.3863 21.9645 12.7621C22.002 12.5836 22.034 12.3969 22.0598 12.1938C22.1242 11.7242 22.157 11.2398 22.157 10.7539C22.157 10.0117 22.0777 9.27188 21.925 8.55508C21.925 8.54727 21.9211 8.53984 21.9207 8.53203C21.9168 8.51367 21.9141 8.49531 21.9102 8.47695C21.9066 8.46094 21.902 8.44492 21.8984 8.42891C21.8957 8.42148 21.8961 8.41328 21.893 8.40625C21.5938 7.05273 21.0371 5.78555 20.2352 4.64023C19.775 3.98047 19.2348 3.36797 18.6297 2.81992C18.6187 2.80977 18.607 2.80078 18.5949 2.79219C16.6344 1.03438 14.1059 0.0664062 11.4695 0.0664062C10.7309 0.0664062 10.0063 0.140234 9.31758 0.285156C7.77031 0.597656 6.28437 1.27188 5.01719 2.23594C5.00508 2.24336 4.99297 2.25156 4.98203 2.26016C3.9332 3.0625 3.05469 4.03398 2.37148 5.14531C1.66602 6.28008 1.18828 7.52891 0.951953 8.85508C0.838672 9.46875 0.78125 10.1074 0.78125 10.7539C0.78125 16.6469 5.57539 21.4414 11.4688 21.4414C12.6168 21.4414 13.7453 21.2555 14.827 20.8965C15.2379 20.9797 15.6555 21.0238 16.0734 21.0238C17.0867 21.0238 18.0996 20.777 19.0152 20.2875L21.1316 22.4039C21.473 22.7453 21.9266 22.9332 22.4094 22.9336H22.4105C22.8934 22.9336 23.3477 22.7453 23.6891 22.4039C24.0301 22.0629 24.218 21.6086 24.218 21.125C24.218 20.6414 24.0301 20.1871 23.6891 19.8461L21.5723 17.7293H21.5738ZM20.4848 10.3797C18.0531 7.94805 14.0965 7.94766 11.6648 10.3797C11.2941 10.7504 10.9867 11.1598 10.7289 11.5906C9.71719 11.3781 9.10195 10.9496 8.4043 10.4555C7.74922 9.99219 7.00703 9.4668 5.83086 9.04922C4.6 8.61172 3.25781 8.42852 1.8332 8.49961C2.05742 7.53008 2.42109 6.61055 2.92383 5.75703C3.84727 5.8 4.7168 5.96172 5.56875 6.26133C6.64219 6.64258 7.30703 7.1125 7.95 7.56719C8.75 8.13242 9.50508 8.6668 10.8551 8.88516C11.1883 8.93867 11.491 8.96172 11.7727 8.96172C12.5934 8.96172 13.2332 8.76641 13.9008 8.56289C14.5387 8.36836 15.1977 8.16758 16.1332 8.075C17.7453 7.91602 19.4453 8.17813 21.1863 8.84688C21.3098 9.47109 21.3758 10.1105 21.3758 10.7531C21.3758 10.993 21.366 11.2316 21.3488 11.4688C21.1055 11.0824 20.8207 10.7156 20.4848 10.3797ZM1.6707 12.2055C2.63711 12.1484 3.56719 12.2188 4.43359 12.4336C5.52656 12.7059 6.17227 13.0875 6.85586 13.4914C7.62383 13.9449 8.42422 14.4113 9.84336 14.7328C9.83789 15.3555 9.92266 15.9785 10.102 16.5801C9.58867 16.4219 9.19766 16.2285 8.81797 16.0391C8.42305 15.8422 8.01484 15.6383 7.5 15.4945C6.1875 15.1289 4.7 15.3066 3.07812 16.009C2.36484 14.8742 1.87422 13.5863 1.6707 12.2055ZM9.90469 13.9461C8.67539 13.6539 7.9793 13.248 7.25352 12.8191C6.55156 12.4043 5.82617 11.9754 4.62227 11.6754C3.66836 11.4391 2.64805 11.3617 1.58906 11.4285C1.57383 11.2055 1.56367 10.9809 1.56367 10.7539C1.56367 10.2582 1.60898 9.7707 1.68086 9.29375C3.07422 9.20078 4.38164 9.36406 5.56992 9.78633C6.64414 10.168 7.30977 10.6387 7.95352 11.0941C8.64844 11.5859 9.31094 12.0535 10.3582 12.3113C10.1309 12.8371 9.98125 13.3871 9.90547 13.9465L9.90469 13.9461ZM19.0883 4.4293C18.7074 4.42422 18.3285 4.4375 17.9555 4.475C16.9438 4.575 16.216 4.79766 15.5734 4.99453C14.6957 5.26289 14.0023 5.47461 12.8785 5.29141C11.7074 5.1043 11.0547 4.64219 10.2988 4.10742C9.64492 3.64453 8.90352 3.11953 7.72852 2.70234C7.25313 2.53477 6.77344 2.41133 6.27891 2.3207C7.16875 1.77148 8.14453 1.36602 9.15586 1.12539C9.71289 2.54727 10.3605 3.29453 11.1379 3.38867C11.5609 3.43477 11.9059 3.26953 12.2074 3.12383C12.5215 2.97187 12.7914 2.84063 13.1789 2.89687C13.6129 2.96094 13.8668 3.21797 14.1605 3.51562C14.3336 3.69102 14.5121 3.87227 14.7352 4.01289C15.0555 4.21484 15.4305 4.31602 15.8633 4.31602C16.532 4.31602 17.341 4.07109 18.3 3.58555C18.5797 3.85273 18.843 4.13477 19.0887 4.43008L19.0883 4.4293ZM17.6543 3.03086C16.5188 3.55859 15.6594 3.6707 15.1516 3.35156C15.0055 3.25937 14.8656 3.1168 14.7168 2.96641C14.391 2.63633 13.9859 2.22539 13.2926 2.12344C12.6664 2.03164 12.2234 2.24727 11.8664 2.42031C11.6203 2.53945 11.4258 2.63242 11.227 2.61211C10.7977 2.56016 10.3438 1.98008 9.93047 0.967578C10.4301 0.888672 10.9457 0.848047 11.4695 0.848047C13.7313 0.848047 15.902 1.62422 17.6543 3.03086ZM5.34141 2.97617C6.07773 3.04531 6.77617 3.19492 7.46797 3.43867C8.54023 3.81953 9.20469 4.28984 9.84766 4.74492C10.6484 5.31172 11.4043 5.84688 12.7535 6.0625C13.0891 6.11758 13.3945 6.14102 13.6781 6.14102C14.4965 6.14102 15.1352 5.9457 15.802 5.7418C16.4391 5.54688 17.0977 5.34531 18.0328 5.25313C18.5785 5.19844 19.1375 5.19609 19.6957 5.23984C20.2582 6.075 20.6824 6.97734 20.9633 7.93242C19.2812 7.35625 17.6328 7.14336 16.0559 7.29922C15.0437 7.39922 14.3156 7.62148 13.6727 7.81719C12.7953 8.08477 12.1023 8.29688 10.9793 8.11523C9.80859 7.92578 9.15586 7.46445 8.40039 6.93047C7.74609 6.46797 7.00469 5.94375 5.82852 5.52617C5.04219 5.25 4.24414 5.08047 3.40977 5.00625C3.95195 4.24492 4.59727 3.56328 5.34062 2.97656L5.34141 2.97617ZM11.4695 20.6605C8.22109 20.6605 5.3332 19.0887 3.52578 16.666C4.92461 16.0848 6.19023 15.9406 7.29023 16.2477C7.7332 16.3711 8.09063 16.5496 8.46914 16.7387C8.98555 16.9965 9.5707 17.2852 10.4547 17.4793C10.7516 18.1012 11.1504 18.6863 11.6648 19.2008C12.202 19.7379 12.8164 20.1496 13.4695 20.4496C12.8141 20.5848 12.1461 20.6609 11.4699 20.6609L11.4695 20.6605ZM12.2168 18.648C10.0898 16.5211 10.0898 13.0598 12.2168 10.9328C13.2805 9.86914 14.6773 9.3375 16.0746 9.3375C17.4719 9.3375 18.8684 9.86914 19.932 10.9328C22.059 13.0598 22.059 16.5211 19.932 18.648C17.8051 20.7754 14.3438 20.775 12.2168 18.648ZM23.1379 21.852C22.9437 22.0461 22.6859 22.1531 22.4117 22.1531H22.4109C22.1367 22.1531 21.8789 22.0461 21.6852 21.852L19.6941 19.8609C19.9703 19.6637 20.2371 19.448 20.4848 19.2004C20.7332 18.952 20.9496 18.6844 21.1473 18.4074L23.1383 20.3984C23.3316 20.5922 23.4387 20.85 23.4387 21.125C23.4387 21.4 23.332 21.6578 23.1383 21.8516L23.1379 21.852Z" fill="#00682C"/>
</svg>
