<svg width="32" height="28" viewBox="0 0 32 28" fill="none" xmlns="http://www.w3.org/2000/svg">
<path d="M1.01484 9.31251C1 9.11954 1 8.91173 1 8.71876C1 6.93438 1.61823 5.2051 2.74952 3.82516C3.8808 2.44522 5.45524 1.49985 7.20498 1.1499C8.95471 0.799958 10.7717 1.06705 12.3467 1.90573C13.9217 2.74442 15.1574 4.10289 15.8438 5.75001V5.75001C16.5301 4.10289 17.7658 2.74442 19.3408 1.90573C20.9158 1.06705 22.7328 0.799958 24.4825 1.1499C26.2323 1.49985 27.8067 2.44522 28.938 3.82516C30.0693 5.2051 30.6875 6.93438 30.6875 8.71876C30.6875 18.8125 15.8438 27.125 15.8438 27.125C15.8438 27.125 9.92109 23.8 5.55703 18.8125" stroke="#00682C" stroke-linecap="round" stroke-linejoin="round"/>
<path d="M7 14.5625H12.9375L15.3125 11L20.0625 18.125L22.4375 14.5625H26" stroke="#00682C" stroke-linecap="round" stroke-linejoin="round"/>
</svg>
