<svg width="25" height="25" viewBox="0 0 25 25" fill="none" xmlns="http://www.w3.org/2000/svg">
<path d="M12.4622 0.214619C10.107 0.683918 7.98929 1.96243 6.47466 3.82942C4.96003 5.6964 4.14354 8.03468 4.16617 10.4406C4.16226 11.9151 4.47489 13.3732 5.08286 14.716H2.77323C2.69083 14.7161 2.61029 14.7406 2.54178 14.7864C2.47328 14.8323 2.41988 14.8975 2.38835 14.9738C2.35682 15.05 2.34857 15.134 2.36464 15.2149C2.38071 15.2959 2.42038 15.3703 2.47864 15.4287L3.657 16.6098L3.06782 17.2001C2.99192 17.2788 2.94992 17.3843 2.95087 17.4937C2.95182 17.6032 2.99564 17.7079 3.07289 17.7853C3.15015 17.8627 3.25465 17.9066 3.36391 17.9076C3.47316 17.9085 3.57841 17.8665 3.657 17.7904L4.24617 17.2001L4.78452 17.7391L3.77158 18.9573L0.357344 19.4437C0.274226 19.4556 0.19666 19.4925 0.134814 19.5494C0.0729688 19.6063 0.0297296 19.6806 0.0107651 19.7626C-0.0081995 19.8446 -0.00200444 19.9304 0.0285381 20.0087C0.0590807 20.0871 0.112545 20.1544 0.181924 20.2018L2.05238 21.4772C2.04857 21.6665 2.08309 21.8546 2.15384 22.0301C2.2246 22.2056 2.33013 22.3649 2.46405 22.4984V22.5005L2.4778 22.5151C2.60997 22.6499 2.76735 22.7572 2.94094 22.831C3.11453 22.9048 3.30093 22.9436 3.48949 22.9451C3.49741 22.9451 3.50533 22.9451 3.51324 22.9451L4.7841 24.8171C4.82226 24.8734 4.87356 24.9195 4.93355 24.9514C4.99353 24.9832 5.06038 24.9999 5.12828 25C5.16011 24.9999 5.19183 24.9962 5.22286 24.9891C5.30466 24.97 5.37879 24.9266 5.43553 24.8645C5.49226 24.8025 5.52895 24.7247 5.54078 24.6414L6.02788 21.2201L7.24207 20.2056L7.78041 20.7446L7.1929 21.3328C7.12205 21.4124 7.08432 21.5162 7.08744 21.6229C7.09057 21.7295 7.13433 21.8309 7.20972 21.9062C7.28512 21.9815 7.38644 22.0251 7.49288 22.0279C7.59932 22.0308 7.7028 21.9927 7.78208 21.9214L8.37126 21.3311L9.54962 22.5122C9.60789 22.5706 9.68212 22.6103 9.76294 22.6264C9.84376 22.6425 9.92752 22.6342 10.0036 22.6027C10.0798 22.5711 10.1448 22.5176 10.1906 22.4489C10.2364 22.3803 10.2609 22.2996 10.2609 22.217V19.9346C12.694 21.0486 15.4618 21.1808 17.9896 20.304C20.5175 19.4272 22.6113 17.6086 23.8362 15.2258C24.6064 13.7492 25.0059 12.1067 24.9999 10.4406C24.9978 8.89003 24.6516 7.35939 23.9862 5.95951C23.3208 4.55963 22.353 3.32557 21.1528 2.34672C19.9527 1.36787 18.5503 0.668738 17.0472 0.299978C15.5441 -0.0687817 13.9779 -0.0979389 12.4622 0.214619ZM14.5831 0.838345C15.5252 0.838345 16.5289 2.25446 17.1864 4.59573H11.978C12.6372 2.25446 13.6409 0.838345 14.5831 0.838345ZM11.2576 10.0231C11.2719 8.47883 11.4434 6.94009 11.7692 5.4307H17.3969C17.7227 6.94009 17.8942 8.47883 17.9085 10.0231H11.2576ZM17.9085 10.858C17.8935 12.1177 17.7784 13.3741 17.5644 14.6154H11.6017C11.3877 13.3741 11.2726 12.1177 11.2576 10.858H17.9085ZM12.7643 1.01411C11.9666 2.07737 11.4032 3.29813 11.1113 4.59573H6.98623C8.4117 2.73562 10.4667 1.46181 12.7643 1.01411ZM6.41122 5.4307H10.9113C10.5997 6.94196 10.4353 8.47997 10.4205 10.0231H5.00994C5.07855 8.3976 5.56093 6.81672 6.41122 5.4307ZM3.77908 15.551H6.60539L5.32036 17.0957L3.77908 15.551ZM2.34655 20.669L1.54112 20.1179L2.97656 19.9129L2.34655 20.669ZM4.86952 23.4549L4.32076 22.6466L5.07452 22.0171L4.86952 23.4549ZM9.42753 21.2117L7.88583 19.667L9.42753 18.3791V21.2117ZM9.57753 17.1671L3.78575 22.0049C3.67717 22.0821 3.54404 22.1165 3.41178 22.1015C3.27951 22.0866 3.15737 22.0234 3.06865 21.924L2.77406 22.2191L3.06573 21.9219C2.96651 21.833 2.90342 21.7106 2.88851 21.5781C2.8736 21.4455 2.90791 21.3122 2.9849 21.2034L7.815 15.4003C7.90859 15.2891 8.02454 15.1989 8.15529 15.1355C8.28603 15.0722 8.42862 15.0373 8.57376 15.0329C8.59154 15.0329 8.60946 15.0329 8.62751 15.0329C8.98346 15.0413 9.32163 15.1905 9.56823 15.4478C9.81482 15.7051 9.94983 16.0498 9.94379 16.4064C9.93948 16.5518 9.90464 16.6946 9.84153 16.8255C9.77842 16.9564 9.68846 17.0725 9.57753 17.1663V17.1671ZM10.2609 19.004V17.6531C10.5742 17.3259 10.7575 16.8954 10.7763 16.4423C10.7848 16.1453 10.7326 15.8497 10.623 15.5735C10.5135 15.2974 10.3488 15.0466 10.139 14.8364C9.92932 14.6263 9.679 14.4613 9.4034 14.3515C9.1278 14.2417 8.83273 14.1895 8.53626 14.1979C8.0842 14.2167 7.65452 14.4002 7.3279 14.714H6.00829C5.40584 13.5144 5.06616 12.1998 5.01202 10.858H10.4205C10.4809 14.883 11.4097 18.258 12.7634 19.8662C11.8933 19.6969 11.051 19.4067 10.2609 19.004ZM14.5831 20.0428C13.5334 20.0428 12.4068 18.2893 11.7692 15.4504H17.3969C16.7593 18.2893 15.6327 20.0428 14.5831 20.0428ZM16.4027 19.8657C17.1944 18.9243 17.8423 17.3779 18.2548 15.4504H22.7549C22.0628 16.5902 21.1399 17.572 20.0458 18.3325C18.9517 19.093 17.7106 19.6153 16.4027 19.8657ZM23.2053 14.6154H18.4135C18.6199 13.3733 18.7314 12.1172 18.7469 10.858H24.1545C24.1022 12.163 23.779 13.4427 23.2053 14.6154ZM24.1562 10.0231H18.7456C18.7308 8.47997 18.5664 6.94196 18.2548 5.4307H22.7549C23.6052 6.81672 24.0876 8.3976 24.1562 10.0231ZM18.0548 4.59573C17.7629 3.29813 17.1995 2.07737 16.4018 1.01411C18.6991 1.46199 20.7538 2.73579 22.179 4.59573H18.0548Z" fill="#00682C"/>
</svg>
