<svg width="25" height="25" viewBox="0 0 25 25" fill="none" xmlns="http://www.w3.org/2000/svg">
<path d="M9.53861 4.29374H10.0758C10.2748 5.32423 11.0309 6.14004 11.9859 6.35473V6.92365C11.9859 7.22421 12.2147 7.4711 12.4932 7.4711C12.7718 7.4711 13.0006 7.22421 13.0006 6.92365V6.344C13.9556 6.12931 14.7117 5.3135 14.9107 4.283H15.4479C15.7264 4.283 15.9552 4.03611 15.9552 3.73555C15.9552 3.43499 15.7264 3.1881 15.4479 3.1881H14.9107C14.7117 2.1576 13.9556 1.34179 13.0006 1.12711V0.547452C13.0006 0.24689 12.7718 0 12.4932 0C12.2147 0 11.9859 0.24689 11.9859 0.547452V1.12711C11.0309 1.34179 10.2748 2.1576 10.0758 3.1881H9.53861C9.26006 3.1881 9.03125 3.43499 9.03125 3.73555C9.03125 4.03611 9.26006 4.29374 9.53861 4.29374ZM12.4932 2.16834C13.2991 2.16834 13.9457 2.8768 13.9457 3.73555C13.9457 4.60503 13.2891 5.30277 12.4932 5.30277C11.6874 5.30277 11.0408 4.60503 11.0408 3.73555C11.0408 3.73555 11.0408 3.73555 11.0408 3.72482C11.0408 3.72482 11.0408 3.72482 11.0408 3.71408C11.0408 2.8768 11.6874 2.16834 12.4932 2.16834Z" fill="#00682C"/>
<path d="M7.12296 16.756C6.91405 16.8097 6.75487 17.0136 6.74493 17.2498L6.36689 23.4757C6.35694 23.7118 6.16793 23.9051 5.93912 23.9051H3.07402C2.85515 23.9051 2.66614 23.7226 2.64624 23.4757L2.26821 17.2498C2.25826 17.0243 2.10903 16.8311 1.91007 16.7667C1.80064 16.7345 1.48229 16.6272 1.43255 16.5628C1.39276 16.4984 1.37286 16.1549 1.36291 15.9616L1.01472 9.36002C1.51214 9.199 2.31795 8.91991 2.74572 8.78037L4.15838 10.208C4.35734 10.4013 4.65579 10.4013 4.84481 10.208L6.25746 8.78037C6.38679 8.8233 6.56586 8.88771 6.75488 8.95212C7.02348 9.04872 7.30203 8.88771 7.39156 8.59788C7.47115 8.30805 7.33188 8.00749 7.06327 7.91088C6.6355 7.7606 6.28731 7.64253 6.28731 7.64253C6.10824 7.57812 5.91922 7.63179 5.78989 7.7606L4.50657 9.05946L3.22324 7.77134C3.09391 7.63179 2.89495 7.58885 2.72583 7.65326C2.72583 7.65326 1.37286 8.12557 0.686431 8.34026C0.258655 8.4798 0 8.84477 0 9.31708C0 9.34929 0 9.43516 0 9.43516L0.348189 15.9402C0.348189 15.9402 0.348189 16.0368 0.358138 16.0583C0.417827 17.0136 0.547155 17.3678 1.28333 17.6791L1.64146 23.5401C1.69121 24.3559 2.31795 24.9892 3.07402 24.9892H5.93912C6.69519 24.9892 7.32193 24.3559 7.37167 23.5401L7.73975 17.4644C7.77955 17.3571 7.77955 17.239 7.7497 17.1102C7.67012 16.8419 7.38162 16.6808 7.12296 16.756Z" fill="#00682C"/>
<path d="M4.50623 6.78322C5.86915 6.78322 6.9734 5.59171 6.9734 4.1211C6.9734 2.6505 5.86915 1.45898 4.50623 1.45898C3.14332 1.45898 2.03906 2.6505 2.03906 4.1211C2.03906 5.59171 3.14332 6.78322 4.50623 6.78322ZM4.50623 2.54315C5.31204 2.54315 5.95868 3.25162 5.95868 4.11037C5.95868 4.96911 5.30209 5.67758 4.50623 5.67758C3.70042 5.67758 3.05379 4.96911 3.05379 4.11037C3.05379 3.25162 3.70042 2.54315 4.50623 2.54315Z" fill="#00682C"/>
<path d="M16.3168 8.33932C15.6303 8.1139 14.2774 7.65233 14.2774 7.65233C14.0983 7.58792 13.9093 7.64159 13.7799 7.7704L12.4966 9.06926L11.2133 7.7704C11.084 7.63086 10.885 7.58792 10.7159 7.65233C10.7159 7.65233 9.36291 8.12464 8.67648 8.33932C8.23876 8.47887 8 8.8331 8 9.31615L8.33824 15.95L8.34819 16.0573C8.40788 17.0127 8.53721 17.3776 9.27338 17.6782L9.63152 23.5392C9.68126 24.355 10.308 24.9883 11.0641 24.9883H13.9292C14.6852 24.9883 15.312 24.355 15.3617 23.5392L15.7199 17.6782C16.456 17.3669 16.5854 17.0127 16.645 16.0573L16.9932 9.41276V9.31615C17.0032 8.8331 16.7545 8.47887 16.3168 8.33932ZM15.6502 15.8748L15.6403 15.9822C15.6303 16.1432 15.6104 16.4974 15.5706 16.5618C15.5209 16.6262 15.1926 16.7228 15.0931 16.7658C14.8942 16.8302 14.7549 17.0234 14.735 17.2488L14.3569 23.4747C14.347 23.7109 14.158 23.9041 13.9292 23.9041H11.0641C10.8452 23.9041 10.6562 23.7109 10.6363 23.4747L10.2583 17.2488C10.2483 17.0234 10.0991 16.8302 9.90012 16.7658C9.79069 16.7336 9.47234 16.6262 9.4226 16.5618C9.38281 16.4974 9.36291 16.1539 9.35296 15.9822L9.00478 9.39129V9.35909C9.50219 9.19807 10.308 8.91898 10.7358 8.7687L12.1484 10.1964C12.3474 10.3896 12.6458 10.3896 12.8349 10.1964L14.2475 8.7687C14.6753 8.91898 15.4811 9.18734 15.9785 9.35909L15.6502 15.8748Z" fill="#00682C"/>
<path d="M24.3023 8.33932C23.6158 8.1139 22.2629 7.65233 22.2629 7.65233C22.0938 7.58792 21.8948 7.64159 21.7655 7.7704L20.4821 9.06926L19.1988 7.7704C19.0695 7.63086 18.8705 7.58792 18.7014 7.65233C18.7014 7.65233 18.3532 7.7704 17.9254 7.92068C17.6568 8.00656 17.5076 8.31785 17.5971 8.60768C17.6767 8.89751 17.9652 9.05852 18.2338 8.96192C18.4228 8.89751 18.592 8.84384 18.7312 8.79017L20.1439 10.2178C20.3429 10.4111 20.6413 10.4111 20.8303 10.2178L22.243 8.77943C22.6608 8.92971 23.4666 9.19807 23.974 9.36982L23.6357 15.8856L23.6258 15.9929C23.6158 16.1647 23.5959 16.5082 23.5561 16.5726C23.5064 16.637 23.1781 16.7443 23.0786 16.7765C22.8797 16.8409 22.7404 17.0341 22.7205 17.2596L22.3425 23.4855C22.3226 23.7324 22.1435 23.9149 21.9147 23.9149H19.0396C18.8208 23.9149 18.6318 23.7216 18.6218 23.4855L18.2438 17.2596C18.2338 17.0449 18.0647 16.8409 17.8757 16.7658C17.617 16.6692 17.3385 16.8302 17.2489 17.1093C17.2191 17.2166 17.2191 17.324 17.2489 17.4313L17.627 23.5499C17.6767 24.3657 18.3035 24.999 19.0595 24.999H21.9346C22.6807 24.999 23.3174 24.3657 23.3671 23.5499L23.7253 17.6889C24.4614 17.3776 24.5908 17.0234 24.6505 16.0895C24.6505 16.0466 24.6604 15.95 24.6604 15.95L24.9986 9.41276V9.32688C24.9788 8.84384 24.73 8.47887 24.3023 8.33932Z" fill="#00682C"/>
<path d="M20.4828 6.78322C21.8457 6.78322 22.95 5.59171 22.95 4.1211C22.95 2.6505 21.8457 1.45898 20.4828 1.45898C19.1199 1.45898 18.0156 2.6505 18.0156 4.1211C18.0156 5.59171 19.1199 6.78322 20.4828 6.78322ZM20.4828 2.54315C21.2886 2.54315 21.9352 3.25162 21.9352 4.11037C21.9352 4.96911 21.2787 5.67758 20.4828 5.67758C19.677 5.67758 19.0303 4.96911 19.0303 4.11037C19.0303 3.25162 19.677 2.54315 20.4828 2.54315Z" fill="#00682C"/>
</svg>
