<svg width="38" height="38" viewBox="0 0 38 38" fill="none" xmlns="http://www.w3.org/2000/svg">
<path d="M20.2031 8.43164C21.6545 8.67768 22.9937 9.36814 24.036 10.4077C25.0783 11.4473 25.7721 12.7848 26.0219 14.2355" stroke="#00682C" stroke-width="1.5" stroke-linecap="round" stroke-linejoin="round"/>
<path d="M11.6822 24.7885C10.2684 23.6892 9.12342 22.2827 8.33388 20.6753C7.54435 19.0679 7.13099 17.3019 7.12513 15.5112C7.09544 9.06896 12.2759 3.71037 18.7181 3.56193C21.2113 3.50283 23.6599 4.2302 25.7166 5.6409C27.7732 7.05159 29.3335 9.07399 30.1761 11.4213C31.0188 13.7686 31.101 16.3216 30.4112 18.7182C29.7214 21.1149 28.2945 23.2335 26.3329 24.7737C25.8996 25.1086 25.5486 25.5382 25.3068 26.0296C25.065 26.521 24.9387 27.0611 24.9376 27.6088V28.4994C24.9376 28.8144 24.8125 29.1164 24.5898 29.3391C24.3671 29.5618 24.0651 29.6869 23.7501 29.6869H14.2501C13.9352 29.6869 13.6331 29.5618 13.4104 29.3391C13.1877 29.1164 13.0626 28.8144 13.0626 28.4994V27.6088C13.0589 27.0652 12.9329 26.5295 12.6939 26.0413C12.4549 25.553 12.1091 25.1249 11.6822 24.7885V24.7885Z" stroke="#00682C" stroke-width="1.5" stroke-linecap="round" stroke-linejoin="round"/>
<path d="M13.0625 34.4375H24.9375" stroke="#00682C" stroke-width="1.5" stroke-linecap="round" stroke-linejoin="round"/>
</svg>
