<svg width="25" height="25" viewBox="0 0 25 25" fill="none" xmlns="http://www.w3.org/2000/svg">
<path d="M18.5677 13.0918C15.0247 13.0918 12.1328 15.7572 12.1328 19.0455C12.1328 22.3339 15.0136 24.9992 18.5677 24.9992C22.1218 24.9992 25.0026 22.3339 25.0026 19.0455C24.9916 15.7674 22.1108 13.102 18.5677 13.0918ZM18.5677 23.9984C15.6096 23.9984 13.2145 21.7722 13.2145 19.0455C13.2145 16.3189 15.6207 14.0926 18.5677 14.0926C21.5147 14.0926 23.9209 16.3189 23.9209 19.0455C23.9209 21.7722 21.5147 23.9984 18.5677 23.9984Z" fill="#00682C"/>
<path d="M21.0609 17.5652L19.0852 18.3107C18.9307 18.2188 18.7541 18.1678 18.5664 18.1678C18.0366 18.1678 17.6172 18.566 17.6172 19.046C17.6172 19.5362 18.0477 19.9243 18.5664 19.9243C19.019 19.9243 19.4053 19.6281 19.4936 19.2298L21.4693 18.4843C21.7452 18.3822 21.8777 18.0861 21.7673 17.8308C21.6569 17.5755 21.3368 17.4529 21.0609 17.5652Z" fill="#00682C"/>
<path d="M5.33965 5.88224C7.09462 5.88224 8.51846 4.56486 8.51846 2.94112C8.51846 1.31738 7.09462 0 5.33965 0C3.58468 0 2.17188 1.31738 2.17188 2.94112C2.17188 4.56486 3.59572 5.88224 5.33965 5.88224ZM5.33965 1.0008C6.49859 1.0008 7.43678 1.86884 7.43678 2.94112C7.43678 4.0134 6.49859 4.88144 5.33965 4.88144C4.18071 4.88144 3.24252 4.0134 3.24252 2.94112C3.24252 1.86884 4.18071 1.0008 5.33965 1.0008Z" fill="#00682C"/>
<path d="M9.13909 10.4471C8.84108 10.4266 8.58721 10.6309 8.56514 10.9066L8.1126 17.0033C8.1126 17.0237 8.10156 17.0442 8.10156 17.0544L7.64902 23.4881C7.62695 23.774 7.37308 23.9885 7.07507 23.9885H3.62032C3.31126 23.9885 3.0574 23.7638 3.03533 23.4881L2.58279 17.0544C2.57175 16.8501 2.41722 16.6663 2.20751 16.6152C1.54526 16.4314 1.54526 16.4314 1.49007 15.7574L1.08168 8.93565V8.86417C1.89846 8.6395 2.7042 8.40462 3.52098 8.15952C3.83003 8.12889 5.62915 8.1391 7.25167 8.16974L12.6049 9.28287C12.6821 9.30329 12.7594 9.30329 12.8367 9.28287L17.649 8.37398C17.936 8.32292 18.1237 8.0574 18.0685 7.78167C18.0133 7.51615 17.7263 7.34255 17.4283 7.39361L12.7153 8.29228L7.42827 7.18936C7.39516 7.17915 7.35101 7.17915 7.31789 7.17915C3.50994 7.11788 3.3223 7.16894 3.22296 7.19957C2.40619 7.44467 1.58941 7.67955 0.761591 7.91443C0.275939 8.0574 0 8.3944 0 8.86417C0 8.90502 0 8.9765 0 8.98671L0.408389 15.7166L0.419427 15.8289C0.49669 16.8501 0.684328 17.1769 1.53422 17.4629L1.96468 23.5596C2.01987 24.3663 2.74835 24.9995 3.62032 24.9995H7.07507C7.94703 24.9995 8.67551 24.3663 8.7307 23.5596L9.18324 17.1769C9.18324 17.1565 9.18324 17.1463 9.19428 17.1259L9.64682 10.9781C9.66889 10.7024 9.4371 10.4675 9.13909 10.4471Z" fill="#00682C"/>
</svg>
