<svg width="25" height="25" viewBox="0 0 25 25" fill="none" xmlns="http://www.w3.org/2000/svg">
<path d="M12.0625 22.4933H4.68752V11.1545H17.0347V12.5611C17.0347 12.7486 17.1006 12.9285 17.2178 13.0611C17.335 13.1938 17.494 13.2683 17.6597 13.2683C17.8255 13.2683 17.9845 13.1938 18.1017 13.0611C18.2189 12.9285 18.2847 12.7486 18.2847 12.5611V10.4473C18.2847 10.2598 18.2189 10.0799 18.1017 9.94725C17.9845 9.81462 17.8255 9.74011 17.6597 9.74011H4.06252C3.89676 9.74011 3.73779 9.81462 3.62058 9.94725C3.50337 10.0799 3.43752 10.2598 3.43752 10.4473V22.5247H2.22919C2.10006 22.5281 1.97173 22.5012 1.85223 22.4457C1.73273 22.3903 1.62464 22.3075 1.53474 22.2026C1.43118 22.0867 1.34947 21.9483 1.29456 21.7957C1.23966 21.643 1.21269 21.4794 1.2153 21.3146V9.36294C1.2125 9.16722 1.25143 8.97361 1.32879 8.79853C1.40616 8.62345 1.51968 8.47204 1.65974 8.35714L10.132 1.61516C10.2864 1.49206 10.4708 1.42599 10.6597 1.42599C10.8487 1.42599 11.033 1.49206 11.1875 1.61516L19.5903 8.13712C19.7345 8.25399 19.8516 8.4087 19.9314 8.58798C20.0112 8.76726 20.0515 8.96577 20.0486 9.1665V12.5689C20.0477 12.6614 20.063 12.7532 20.0937 12.839C20.1243 12.9247 20.1697 13.0027 20.2272 13.0685C20.2846 13.1343 20.3531 13.1865 20.4285 13.2221C20.504 13.2578 20.5849 13.2761 20.6667 13.2761C20.7495 13.2805 20.8322 13.2655 20.9097 13.2321C20.9872 13.1987 21.0578 13.1476 21.1171 13.082C21.1763 13.0164 21.223 12.9377 21.2543 12.8507C21.2855 12.7638 21.3006 12.6706 21.2986 12.5768V9.17435C21.3001 8.74815 21.2098 8.32796 21.0356 7.95009C20.8613 7.57222 20.6084 7.24805 20.2986 7.0056L11.8889 0.444345C11.5261 0.155197 11.0931 0 10.6493 0C10.2055 0 9.77257 0.155197 9.40973 0.444345L0.979186 7.19419C0.675768 7.44202 0.428753 7.76791 0.258509 8.14498C0.0882655 8.52205 -0.000332397 8.93951 2.06051e-05 9.36294V21.3225C-0.0012849 21.6745 0.0594581 22.0233 0.178697 22.3485C0.297936 22.6737 0.473276 22.9687 0.694464 23.2162C0.896102 23.4471 1.13614 23.6306 1.40074 23.756C1.66533 23.8814 1.94925 23.9463 2.23613 23.947H4.09724H12.0695C12.2352 23.947 12.3942 23.8725 12.5114 23.7399C12.6286 23.6072 12.6945 23.4274 12.6945 23.2398C12.6945 23.0522 12.6286 22.8724 12.5114 22.7397C12.3942 22.6071 12.2352 22.5326 12.0695 22.5326L12.0625 22.4933Z" fill="#00682C"/>
<path d="M24.3767 18.6437H22.3837V14.4084C22.3837 14.2208 22.3178 14.0409 22.2006 13.9083C22.0834 13.7757 21.9244 13.7012 21.7587 13.7012H16.5226C16.3568 13.7012 16.1978 13.7757 16.0806 13.9083C15.9634 14.0409 15.8976 14.2208 15.8976 14.4084V18.6437H13.8906C13.7249 18.6437 13.5659 18.7182 13.4487 18.8509C13.3315 18.9835 13.2656 19.1634 13.2656 19.3509V24.2935C13.2656 24.481 13.3315 24.6609 13.4487 24.7935C13.5659 24.9262 13.7249 25.0007 13.8906 25.0007H24.3767C24.5425 25.0007 24.7015 24.9262 24.8187 24.7935C24.9359 24.6609 25.0017 24.481 25.0017 24.2935V19.3431C24.9999 19.1569 24.9332 18.979 24.8162 18.8481C24.6992 18.7171 24.5413 18.6437 24.3767 18.6437ZM17.1476 15.1156H21.1337V18.6437H17.1476V15.1156ZM14.5295 20.0581H18.5156V23.5941H14.5295V20.0581ZM23.7517 23.5941H19.7656V20.0581H23.7517V23.5941Z" fill="#00682C"/>
</svg>
