<svg width="28" height="28" viewBox="0 0 28 28" fill="none" xmlns="http://www.w3.org/2000/svg">
<path d="M11.4607 10.707L3.07165 22.1477C2.94555 22.3155 2.88488 22.5236 2.90098 22.7329C2.91709 22.9422 3.00886 23.1385 3.15915 23.2852L4.71228 24.8383C4.85888 24.9886 5.0552 25.0803 5.26453 25.0964C5.47387 25.1126 5.68191 25.0519 5.84978 24.9258L17.2904 16.5367" stroke="#00682C" stroke-linecap="round" stroke-linejoin="round"/>
<path d="M10.9375 17.0625L9.625 18.375" stroke="#00682C" stroke-linecap="round" stroke-linejoin="round"/>
<path d="M23.3313 14.5793L13.4219 4.66992" stroke="#00682C" stroke-linecap="round" stroke-linejoin="round"/>
<path d="M18.375 16.625C22.241 16.625 25.375 13.491 25.375 9.625C25.375 5.75901 22.241 2.625 18.375 2.625C14.509 2.625 11.375 5.75901 11.375 9.625C11.375 13.491 14.509 16.625 18.375 16.625Z" stroke="#00682C" stroke-linecap="round" stroke-linejoin="round"/>
</svg>
