<svg width="27" height="25" viewBox="0 0 27 25" fill="none" xmlns="http://www.w3.org/2000/svg">
<path d="M0.518283 9.12442L6.0528 7.35915L6.05507 4.77216C6.05539 4.55086 6.16851 4.33467 6.37401 4.20999L13.1363 0.105178C13.347 -0.0281101 13.6254 -0.0395894 13.853 0.0988002L20.5758 4.17938C20.7962 4.28843 20.9475 4.51292 20.9475 4.77216V7.35915L26.4817 9.12442C26.7789 9.19393 27 9.45668 27 9.76981V24.3364C27 24.7028 26.6979 25 26.3255 25C17.7753 25 9.22473 25 0.674514 25C0.302089 25 0 24.7028 0 24.3364V9.76981C0 9.45636 0.221056 9.19393 0.518283 9.12442ZM10.906 11.9391C10.0192 11.9391 10.0192 10.6123 10.906 10.6123H16.094C16.9808 10.6123 16.9808 11.9391 16.094 11.9391H10.906ZM10.906 14.1367C10.0192 14.1367 10.0192 12.8099 10.906 12.8099H16.094C16.9808 12.8099 16.9808 14.1367 16.094 14.1367H10.906ZM11.1222 16.1593H15.8778C16.2502 16.1593 16.552 16.4565 16.552 16.8226V23.6732H19.5988V5.1395L13.5 1.43774L7.40118 5.1395V23.6732H10.448V16.8226C10.448 16.4565 10.7498 16.1593 11.1222 16.1593ZM15.2033 17.4861H11.7967V23.6732H15.2033V17.4861ZM25.6513 10.25L20.9475 8.74974V23.6732H25.6513V10.25ZM6.0528 8.74974L1.3487 10.25V23.6732H6.0528V8.74974Z" fill="#00682C"/>
</svg>
