<svg width="25" height="25" viewBox="0 0 25 25" fill="none" xmlns="http://www.w3.org/2000/svg">
<path d="M9.464 11.3305C9.55301 11.2232 9.61234 11.0837 9.60245 10.9442L9.59256 10.5258V10.515C9.59256 10.2682 9.55301 9.00215 9.43433 8.1867C9.34533 7.61803 9.0091 7.12446 8.52452 6.86695C8.0894 6.6309 7.42682 6.35193 6.8928 6.14807C6.97191 6.00858 7.04114 5.8691 7.10047 5.71888C7.40704 5.55794 7.65427 5.27897 7.78283 4.95708C7.9015 4.72103 7.96084 4.45279 7.96084 4.18455C7.96084 4.01288 7.93117 3.83047 7.88172 3.66953C7.85206 3.53004 7.79272 3.39056 7.71361 3.27253C7.77294 2.53219 7.57516 1.78112 7.14992 1.19099C6.6159 0.450644 5.80498 0.0214592 4.89517 0H4.6875C3.79747 0.0214592 2.98655 0.461373 2.45253 1.19099C2.04707 1.75966 1.84929 2.51073 1.90862 3.2618C1.82951 3.37983 1.78006 3.51931 1.74051 3.6588C1.69106 3.81974 1.66139 4.00215 1.66139 4.17382C1.66139 4.44206 1.72073 4.7103 1.81962 4.91416C1.95807 5.26824 2.2053 5.54721 2.51187 5.70815C2.5712 5.85837 2.64043 6.00858 2.71954 6.13734C2.16574 6.35193 1.51305 6.6309 1.08782 6.85622C0.613133 7.11373 0.267009 7.6073 0.178006 8.17597C0.0494462 9.00215 0.0197785 10.2682 0.00988924 10.515L0 10.9335C0 11.0837 0.0494462 11.2232 0.138449 11.3197C0.227453 11.427 0.356013 11.4807 0.494462 11.4807H9.08821C9.24644 11.4914 9.375 11.4378 9.464 11.3305ZM1.02848 10.4077C1.03837 10.0322 1.07793 9.01287 1.17682 8.3691C1.21638 8.13305 1.35483 7.93991 1.54272 7.83262C2.1163 7.52146 3.22389 7.09227 3.6788 6.9206C3.87658 6.84549 4.01503 6.64163 4.01503 6.40558V6.30901C4.01503 6.14807 3.9557 6.00858 3.84691 5.90129C3.63924 5.70815 3.4909 5.43991 3.41179 5.13948C3.36234 4.95708 3.23378 4.8176 3.06566 4.76395C2.92722 4.72103 2.80854 4.61373 2.72943 4.43133C2.68987 4.34549 2.67009 4.24893 2.67009 4.15236C2.67009 4.08798 2.67998 4.03433 2.69976 3.96996C2.70965 3.9485 2.70965 3.93777 2.70965 3.91631C2.71954 3.87339 2.73932 3.83047 2.76899 3.80901C2.89755 3.68026 2.95688 3.49785 2.92722 3.30472C2.83821 2.77897 2.95688 2.23176 3.26345 1.8133C3.60957 1.33047 4.14359 1.0515 4.71717 1.03004H4.89517C5.48853 1.04077 6.02255 1.33047 6.36867 1.8133C6.66535 2.23176 6.79391 2.77897 6.70491 3.30472C6.67524 3.48712 6.73457 3.68026 6.86313 3.80901C6.8928 3.8412 6.91258 3.87339 6.92247 3.91631C6.92247 3.93777 6.93236 3.95923 6.94225 3.98069C6.96202 4.03433 6.97191 4.09871 6.97191 4.15236C6.97191 4.24893 6.95214 4.34549 6.8928 4.46352C6.83346 4.61373 6.71479 4.72103 6.57634 4.76395C6.40823 4.8176 6.27967 4.95708 6.23022 5.13948C6.15111 5.43991 6.00277 5.69742 5.78521 5.90129C5.67642 6.00858 5.61709 6.14807 5.61709 6.30901V6.40558C5.61709 6.6309 5.75554 6.84549 5.95332 6.9206C6.29945 7.04936 7.48616 7.5 8.0894 7.83262C8.27729 7.93991 8.41574 8.13305 8.4553 8.3691C8.5443 8.90558 8.58386 9.77468 8.60364 10.4077H1.02848Z" fill="#00682C"/>
<path d="M24.9972 10.5258C24.9873 10.2682 24.9577 9.00215 24.8291 8.1867C24.7401 7.61803 24.4039 7.12446 23.9193 6.86695C23.4842 6.6309 22.8216 6.35193 22.2876 6.14807C22.3667 6.00858 22.4359 5.8691 22.4953 5.71888C22.8018 5.55794 23.0491 5.27897 23.1776 4.95708C23.2963 4.72103 23.3556 4.45279 23.3556 4.18455C23.3556 4.01288 23.3259 3.83047 23.2765 3.66953C23.2468 3.53004 23.1875 3.39056 23.1084 3.27253C23.1677 2.53219 22.9699 1.78112 22.5447 1.19099C22.0107 0.450644 21.1998 0.0214592 20.29 0H20.0823C19.1922 0.0214592 18.3813 0.461373 17.8473 1.19099C17.4221 1.78112 17.2243 2.53219 17.2836 3.28326C17.2045 3.40129 17.1551 3.53004 17.1155 3.68026C17.0661 3.8412 17.0364 4.0236 17.0364 4.19528C17.0364 4.46352 17.0957 4.73176 17.1946 4.93562C17.3331 5.2897 17.5803 5.56867 17.8869 5.72961C17.9462 5.87983 18.0154 6.03004 18.0945 6.1588C17.5407 6.37339 16.8881 6.65236 16.4628 6.87768C15.9881 7.13519 15.642 7.62876 15.553 8.19742C15.4244 9.0236 15.3948 10.2897 15.3849 10.5365L15.375 10.9549C15.375 11.1051 15.4244 11.2446 15.5134 11.3412C15.6025 11.4485 15.731 11.5021 15.8695 11.5021H24.4632C24.6017 11.5021 24.7203 11.4485 24.8192 11.3412C24.9082 11.2339 24.9676 11.0944 24.9577 10.9549L24.9972 10.5258ZM16.4134 10.4077C16.4233 10.0322 16.4628 9.0236 16.5617 8.3691C16.6013 8.13305 16.7397 7.93991 16.9276 7.83262C17.5012 7.52146 18.6088 7.09227 19.0637 6.9206C19.2615 6.84549 19.3999 6.64163 19.3999 6.40558V6.30901C19.3999 6.14807 19.3406 6.00858 19.2318 5.90129C19.0241 5.70815 18.8659 5.43991 18.7967 5.13948C18.7472 4.95708 18.6187 4.8176 18.4506 4.76395C18.3121 4.72103 18.1934 4.61373 18.1143 4.43133C18.0748 4.34549 18.055 4.24893 18.055 4.15236C18.055 4.08798 18.0649 4.03433 18.0847 3.96996C18.0945 3.9485 18.0945 3.93777 18.1044 3.91631C18.1143 3.87339 18.1341 3.8412 18.1638 3.80901C18.2923 3.68026 18.3517 3.49785 18.322 3.30472C18.233 2.77897 18.3517 2.23176 18.6582 1.8133C19.0044 1.33047 19.5384 1.0515 20.1119 1.03004H20.29C20.8833 1.04077 21.4173 1.33047 21.7635 1.8133C22.0601 2.23176 22.1887 2.77897 22.0997 3.30472C22.07 3.48712 22.1294 3.68026 22.2579 3.80901C22.2876 3.8412 22.3074 3.87339 22.3172 3.91631C22.3172 3.93777 22.3271 3.95923 22.337 3.98069C22.3568 4.03433 22.3667 4.09871 22.3667 4.15236C22.3667 4.24893 22.3469 4.34549 22.2876 4.46352C22.2282 4.61373 22.1096 4.72103 21.9711 4.76395C21.803 4.8176 21.6744 4.95708 21.625 5.13948C21.5459 5.43991 21.3975 5.69742 21.18 5.90129C21.0712 6.00858 21.0119 6.14807 21.0119 6.30901V6.40558C21.0119 6.6309 21.1503 6.84549 21.3481 6.9206C21.6942 7.04936 22.8809 7.5 23.4842 7.83262C23.6721 7.93991 23.8105 8.13305 23.8501 8.3691C23.9391 8.90558 23.9786 9.77468 23.9984 10.4077H16.4134Z" fill="#00682C"/>
<path d="M17.1377 21.6955C17.0487 21.1268 16.7026 20.6332 16.2279 20.3757C15.8027 20.1504 15.15 19.8714 14.5962 19.6568C14.6753 19.5174 14.7445 19.3779 14.8038 19.2277C15.1104 19.056 15.3576 18.7877 15.4862 18.4659C15.6049 18.2298 15.6642 17.9616 15.6642 17.6933C15.6642 17.5109 15.6345 17.3392 15.5851 17.1676C15.5554 17.0281 15.4961 16.8993 15.417 16.7813C15.4763 16.041 15.2785 15.2899 14.8533 14.689C14.3193 13.9487 13.5084 13.5195 12.5985 13.498H12.3909C11.5008 13.5195 10.6899 13.9594 10.1559 14.689C9.73067 15.2792 9.53288 16.0302 9.59222 16.7813C9.5131 16.8993 9.46366 17.0281 9.4241 17.1783C9.37465 17.35 9.34499 17.5217 9.34499 17.6933C9.34499 17.9616 9.40432 18.2298 9.50321 18.4337C9.64166 18.7877 9.88889 19.0667 10.1955 19.2277C10.2548 19.3779 10.324 19.5281 10.4031 19.6568C9.84934 19.8714 9.19665 20.1504 8.77141 20.3757C8.29673 20.6332 7.96049 21.1268 7.8616 21.6955C7.73304 22.5217 7.70337 23.777 7.69348 24.0345L7.68359 24.453C7.68359 24.6032 7.73304 24.7427 7.82204 24.8392C7.91105 24.9465 8.03961 25.0002 8.17806 25.0002H16.7718C16.9103 25.0002 17.0289 24.9465 17.1278 24.8392C17.2168 24.732 17.2762 24.5925 17.2663 24.453L17.2564 24.0238C17.2959 23.7877 17.2663 22.5217 17.1377 21.6955ZM8.72196 23.9272C8.73185 23.5517 8.77141 22.5324 8.8703 21.8886C8.90986 21.6526 9.04831 21.4594 9.2362 21.3521C9.80978 21.041 10.9174 20.6118 11.3723 20.4401C11.5701 20.365 11.7085 20.1611 11.7085 19.9251V19.8285C11.7085 19.6676 11.6492 19.5281 11.5404 19.4208C11.3327 19.2277 11.1745 18.9594 11.1053 18.659C11.0558 18.4766 10.9273 18.3371 10.7591 18.2835C10.6207 18.2405 10.502 18.1332 10.4229 17.9508C10.3834 17.865 10.3636 17.7684 10.3636 17.6719C10.3636 17.6075 10.3735 17.5538 10.3932 17.4895C10.4031 17.468 10.4031 17.4573 10.4031 17.4358C10.413 17.3929 10.4328 17.35 10.4625 17.3285C10.591 17.1998 10.6504 17.0174 10.6207 16.8242C10.5317 16.2985 10.6504 15.7513 10.9569 15.3328C11.3031 14.85 11.8371 14.571 12.4107 14.5495H12.5887C13.182 14.5603 13.716 14.85 14.0622 15.3328C14.3687 15.7513 14.4874 16.2985 14.3984 16.8242C14.3687 17.0066 14.4281 17.1998 14.5566 17.3285C14.5863 17.3607 14.6061 17.3929 14.616 17.4358C14.616 17.4573 14.6258 17.4787 14.6357 17.5002C14.6555 17.5538 14.6654 17.6182 14.6654 17.6719C14.6654 17.7684 14.6456 17.865 14.5863 17.983C14.5269 18.1332 14.4083 18.2405 14.2698 18.2835C14.1017 18.3371 13.9732 18.4766 13.9237 18.659C13.8446 18.9594 13.6963 19.2169 13.4787 19.4208C13.3699 19.5281 13.3106 19.6676 13.3106 19.8285V19.9251C13.3106 20.1504 13.449 20.365 13.6468 20.4401C14.0918 20.6118 15.2093 21.041 15.7829 21.3521C15.9807 21.4594 16.1092 21.6526 16.1488 21.8886C16.2378 22.4251 16.2773 23.2942 16.2971 23.9272H8.72196Z" fill="#00682C"/>
<path d="M21.0732 12.8762C20.8062 12.8441 20.559 13.0586 20.5293 13.3591C20.3216 15.6123 19.3327 17.6616 17.7504 19.1209C17.5428 19.314 17.5131 19.6574 17.6911 19.8827C17.79 20.0114 17.9284 20.0758 18.0669 20.0758C18.1856 20.0758 18.2943 20.0329 18.3932 19.9471C20.1832 18.2947 21.2908 15.9986 21.5182 13.4664C21.538 13.1659 21.3402 12.8977 21.0732 12.8762Z" fill="#00682C"/>
<path d="M4.49968 13.3591C4.47001 13.0586 4.22278 12.8441 3.95577 12.8762C3.67887 12.9084 3.48109 13.1659 3.51076 13.4664C3.73821 15.9986 4.85569 18.3054 6.63576 19.9471C6.72476 20.0329 6.84343 20.0758 6.9621 20.0758C7.10055 20.0758 7.239 20.0114 7.33789 19.8827C7.5159 19.6574 7.48623 19.314 7.27856 19.1209C5.69628 17.6616 4.70736 15.6123 4.49968 13.3591Z" fill="#00682C"/>
<path d="M9.7009 4.27059C9.76024 4.27059 9.80968 4.25986 9.86902 4.2384C11.5502 3.59462 13.4687 3.59462 15.1499 4.2384C15.407 4.33497 15.6938 4.19548 15.7828 3.90578C15.8718 3.62681 15.7432 3.31565 15.4762 3.21909C13.5775 2.48947 11.4216 2.48947 9.53278 3.21909C9.27566 3.31565 9.13721 3.62681 9.22622 3.90578C9.30533 4.1311 9.50312 4.27059 9.7009 4.27059Z" fill="#00682C"/>
</svg>
