<svg width="25" height="25" viewBox="0 0 25 25" fill="none" xmlns="http://www.w3.org/2000/svg">
<path d="M5.20703 18.25V21.3646" stroke="#00682C" stroke-width="1.5" stroke-miterlimit="10" stroke-linecap="round" stroke-linejoin="round"/>
<path d="M6.76042 19.7715H3.65625" stroke="#00682C" stroke-width="1.5" stroke-miterlimit="10" stroke-linecap="round" stroke-linejoin="round"/>
<path d="M18.4909 7.34437C18.2409 7.3027 17.9805 7.2923 17.7096 7.2923H7.29297C7.0013 7.2923 6.72005 7.31313 6.44922 7.3548C6.59505 7.06313 6.80339 6.79233 7.05339 6.54233L10.4388 3.14648C11.8659 1.72982 14.1784 1.72982 15.6055 3.14648L17.4284 4.99019C18.0951 5.64644 18.4492 6.47978 18.4909 7.34437Z" stroke="#00682C" stroke-width="1.5" stroke-linecap="round" stroke-linejoin="round"/>
<path d="M9.3763 19.7917C9.3763 20.5729 9.15755 21.3125 8.77214 21.9375C8.05339 23.1458 6.73047 23.9583 5.20964 23.9583C3.6888 23.9583 2.36589 23.1458 1.64714 21.9375C1.26172 21.3125 1.04297 20.5729 1.04297 19.7917C1.04297 17.4896 2.90755 15.625 5.20964 15.625C7.51172 15.625 9.3763 17.4896 9.3763 19.7917Z" stroke="#00682C" stroke-width="1.5" stroke-miterlimit="10" stroke-linecap="round" stroke-linejoin="round"/>
<path d="M22.9154 12.4993V17.7077C22.9154 20.8327 20.832 22.916 17.707 22.916H7.94662C8.26953 22.6452 8.55078 22.3118 8.76953 21.9368C9.15495 21.3118 9.3737 20.5723 9.3737 19.791C9.3737 17.4889 7.50912 15.6243 5.20703 15.6243C3.95703 15.6243 2.84245 16.1764 2.08203 17.041V12.4993C2.08203 9.66602 3.79036 7.68685 6.44661 7.35351C6.71745 7.31185 6.9987 7.29102 7.29036 7.29102H17.707C17.9779 7.29102 18.2383 7.30142 18.4883 7.34309C21.1758 7.65559 22.9154 9.64518 22.9154 12.4993Z" stroke="#00682C" stroke-width="1.5" stroke-linecap="round" stroke-linejoin="round"/>
<path d="M22.9154 13.0215H19.7904C18.6445 13.0215 17.707 13.959 17.707 15.1048C17.707 16.2507 18.6445 17.1882 19.7904 17.1882H22.9154" stroke="#00682C" stroke-width="1.5" stroke-linecap="round" stroke-linejoin="round"/>
</svg>
