<svg width="24" height="24" viewBox="0 0 24 24" fill="none" xmlns="http://www.w3.org/2000/svg">
<path d="M14.0156 22.6562H3.51562C3.30078 22.6562 3.125 22.4805 3.125 22.2656V21.875H11.9648C12.1797 21.875 12.3555 21.6992 12.3555 21.4844C12.3555 21.2695 12.1797 21.0938 11.9648 21.0938H1.17188C0.957031 21.0938 0.78125 20.918 0.78125 20.7031V5.46875H5.07812C5.29297 5.46875 5.46875 5.29297 5.46875 5.07812V0.78125H17.5781C17.793 0.78125 17.9688 0.957031 17.9688 1.17188V8.53516C17.9688 8.75 18.1445 8.92578 18.3594 8.92578C18.5742 8.92578 18.75 8.75 18.75 8.53516V2.34375H19.9219C20.1367 2.34375 20.3125 2.51953 20.3125 2.73438V9.42188C20.3125 9.63672 20.4883 9.8125 20.7031 9.8125C20.918 9.8125 21.0938 9.63672 21.0938 9.42188V2.73438C21.0938 2.08984 20.5664 1.5625 19.9219 1.5625H18.75V1.17188C18.75 0.527344 18.2227 0 17.5781 0H5.07812C5.07812 0 5.0625 0.00390625 5.05469 0.00390625C5.01953 0.00390625 4.98438 0.0117187 4.94922 0.0234375C4.9375 0.0273437 4.92578 0.03125 4.91406 0.0351562C4.87109 0.0546875 4.83203 0.078125 4.80078 0.113281L0.113281 4.80078C0.078125 4.83594 0.0546875 4.875 0.0351562 4.91406C0.03125 4.92578 0.0273437 4.9375 0.0234375 4.94922C0.0117187 4.98047 0.00390625 5.01563 0.00390625 5.05078C0.00390625 5.05859 0 5.06641 0 5.07422V20.6992C0 21.3438 0.527344 21.8711 1.17188 21.8711H2.34375V22.2617C2.34375 22.9063 2.87109 23.4336 3.51562 23.4336H14.0156C14.2305 23.4336 14.4063 23.2578 14.4063 23.043C14.4063 22.8281 14.2305 22.6523 14.0156 22.6523V22.6562ZM4.6875 1.33203V4.6875H1.33203L4.6875 1.33203Z" fill="#00682C"/>
<path d="M23.1836 11.6123L17.3242 9.39746C17.2344 9.3623 17.1367 9.3623 17.0469 9.39746L11.1875 11.6123C11.0352 11.6709 10.9336 11.8154 10.9336 11.9795V16.1045C10.9336 18.4795 12.2695 20.71 14.418 21.9287L16.9883 23.3857C17.0469 23.4209 17.1133 23.4365 17.1797 23.4365C17.2461 23.4365 17.3125 23.4209 17.3711 23.3857L19.9414 21.9287C22.0898 20.71 23.4258 18.4795 23.4258 16.1045V11.9795C23.4258 11.8154 23.3242 11.6709 23.1719 11.6123H23.1836ZM22.6563 16.1045C22.6563 18.1982 21.4727 20.167 19.5664 21.249L17.1875 22.5967L14.8086 21.249C12.9023 20.1709 11.7188 18.1982 11.7188 16.1045V12.249L17.1875 10.1826L22.6563 12.249V16.1045Z" fill="#00682C"/>
<path d="M15.5127 15.7393C15.3604 15.5869 15.1143 15.5869 14.9619 15.7393C14.8096 15.8916 14.8096 16.1377 14.9619 16.29L16.1338 17.4619C16.2119 17.54 16.3096 17.5752 16.4111 17.5752C16.5127 17.5752 16.6104 17.5361 16.6885 17.4619L19.0322 15.1182C19.1846 14.9658 19.1846 14.7197 19.0322 14.5674C18.8799 14.415 18.6338 14.415 18.4814 14.5674L16.415 16.6338L15.5205 15.7393H15.5127Z" fill="#00682C"/>
<path d="M13.2812 16.0156C13.2812 18.168 15.0352 19.9219 17.1875 19.9219C19.3398 19.9219 21.0938 18.168 21.0938 16.0156C21.0938 13.8633 19.3398 12.1094 17.1875 12.1094C15.0352 12.1094 13.2812 13.8633 13.2812 16.0156ZM20.3125 16.0156C20.3125 17.7383 18.9102 19.1406 17.1875 19.1406C15.4648 19.1406 14.0625 17.7383 14.0625 16.0156C14.0625 14.293 15.4648 12.8906 17.1875 12.8906C18.9102 12.8906 20.3125 14.293 20.3125 16.0156Z" fill="#00682C"/>
<path d="M9.375 16.4062H3.125C2.91016 16.4062 2.73438 16.582 2.73438 16.7969C2.73438 17.0117 2.91016 17.1875 3.125 17.1875H9.375C9.58984 17.1875 9.76562 17.0117 9.76562 16.7969C9.76562 16.582 9.58984 16.4062 9.375 16.4062Z" fill="#00682C"/>
<path d="M9.375 14.0625H3.125C2.91016 14.0625 2.73438 14.2383 2.73438 14.4531C2.73438 14.668 2.91016 14.8438 3.125 14.8438H9.375C9.58984 14.8438 9.76562 14.668 9.76562 14.4531C9.76562 14.2383 9.58984 14.0625 9.375 14.0625Z" fill="#00682C"/>
<path d="M9.375 11.7188H3.125C2.91016 11.7188 2.73438 11.8945 2.73438 12.1094C2.73438 12.3242 2.91016 12.5 3.125 12.5H9.375C9.58984 12.5 9.76562 12.3242 9.76562 12.1094C9.76562 11.8945 9.58984 11.7188 9.375 11.7188Z" fill="#00682C"/>
<path d="M9.375 9.375H3.125C2.91016 9.375 2.73438 9.55078 2.73438 9.76562C2.73438 9.98047 2.91016 10.1562 3.125 10.1562H9.375C9.58984 10.1562 9.76562 9.98047 9.76562 9.76562C9.76562 9.55078 9.58984 9.375 9.375 9.375Z" fill="#00682C"/>
<path d="M16.0156 7.42188C16.0156 7.20703 15.8398 7.03125 15.625 7.03125H3.125C2.91016 7.03125 2.73438 7.20703 2.73438 7.42188C2.73438 7.63672 2.91016 7.8125 3.125 7.8125H15.625C15.8398 7.8125 16.0156 7.63672 16.0156 7.42188Z" fill="#00682C"/>
<path d="M15.625 11.6875H8.59375C8.37891 11.6875 8.20312 11.8633 8.20312 12.0781C8.20312 12.293 8.37891 12.4688 8.59375 12.4688H15.625C15.8398 12.4688 16.0156 12.293 16.0156 12.0781C16.0156 11.8633 15.8398 11.6875 15.625 11.6875Z" fill="#00682C"/>
</svg>
