<svg width="25" height="25" viewBox="0 0 25 25" fill="none" xmlns="http://www.w3.org/2000/svg">
<g clip-path="url(#clip0_1456_10703)">
<path d="M9.29312 13.7643H18.2098C18.454 13.7645 18.6938 13.6985 18.9035 13.5733C19.1133 13.4481 19.2852 13.2685 19.401 13.0535C19.527 12.8274 19.5904 12.5718 19.5845 12.3131C19.5787 12.0544 19.5038 11.8019 19.3677 11.5818L14.9094 4.41513C14.7883 4.21676 14.6184 4.05284 14.4157 3.9391C14.2131 3.82536 13.9846 3.76562 13.7523 3.76562C13.5199 3.76562 13.2915 3.82536 13.0888 3.9391C12.8862 4.05284 12.7162 4.21676 12.5952 4.41513L8.13478 11.5843C7.99884 11.8043 7.92412 12.0567 7.91833 12.3152C7.91255 12.5738 7.97591 12.8292 8.10187 13.0551C8.21793 13.2699 8.38995 13.4492 8.59968 13.574C8.80941 13.6989 9.04903 13.7646 9.29312 13.7643ZM8.8427 12.0222L13.301 4.85555C13.3474 4.7772 13.4133 4.71228 13.4924 4.66719C13.5714 4.62209 13.6609 4.59837 13.7519 4.59837C13.8429 4.59837 13.9323 4.62209 14.0114 4.66719C14.0904 4.71228 14.1564 4.7772 14.2027 4.85555L18.661 12.0222C18.7194 12.1155 18.7514 12.2228 18.7539 12.3328C18.7563 12.4428 18.729 12.5514 18.6748 12.6472C18.6302 12.7317 18.5636 12.8026 18.4821 12.8524C18.4005 12.9022 18.307 12.9291 18.2114 12.9301H9.29312C9.19756 12.9291 9.10407 12.9022 9.02251 12.8524C8.94096 12.8026 8.87437 12.7317 8.82978 12.6472C8.77553 12.5515 8.74809 12.4429 8.75037 12.3329C8.75264 12.2229 8.78454 12.1156 8.8427 12.0222Z" fill="#00682C"/>
<path d="M24.045 15.1324C23.8782 15.0845 23.7036 15.0701 23.5312 15.0902C23.3589 15.1102 23.1922 15.1642 23.0408 15.2491L22.1617 15.7457C22.1224 15.6367 22.0662 15.5346 21.995 15.4432L20.8412 13.9432C20.999 13.6225 21.1355 13.2918 21.25 12.9532L23.1287 12.7082C23.3606 12.6808 23.5771 12.5785 23.7456 12.4169C23.9141 12.2554 24.0253 12.0433 24.0625 11.8128C24.2019 10.8939 24.2019 9.95922 24.0625 9.04031C24.0266 8.8084 23.916 8.59454 23.7475 8.43125C23.5789 8.26797 23.3617 8.1642 23.1287 8.13573L21.25 7.89031C21.1359 7.55223 21 7.22195 20.8429 6.90156L21.9983 5.40156C22.1407 5.21598 22.2197 4.98966 22.2239 4.75582C22.2281 4.52198 22.1572 4.29296 22.0217 4.10239C21.7454 3.7302 21.443 3.37819 21.1167 3.04906C20.7856 2.72091 20.4315 2.4168 20.0571 2.13906C19.8664 2.00536 19.6381 1.93605 19.4053 1.94122C19.1725 1.94639 18.9474 2.02578 18.7629 2.16781L17.2629 3.32239C16.9429 3.16555 16.6131 3.0297 16.2754 2.91573L16.03 1.03614C16.0017 0.804067 15.8985 0.587537 15.7361 0.419349C15.5737 0.25116 15.3609 0.140476 15.13 0.10406C14.2109 -0.0346868 13.2762 -0.0346868 12.3571 0.10406C12.1261 0.140507 11.9134 0.251339 11.7512 0.419721C11.589 0.588102 11.4861 0.804829 11.4583 1.03698L11.2125 2.91573C10.8741 3.02971 10.5436 3.16569 10.2229 3.32281L8.72292 2.16989C8.53888 2.02559 8.31298 1.9449 8.07917 1.93994C7.84535 1.93498 7.61624 2.00602 7.42625 2.14239C7.05304 2.4186 6.70057 2.72177 6.37167 3.04948C6.04486 3.37963 5.74161 3.7323 5.46417 4.10489C5.32777 4.29505 5.25662 4.52425 5.26135 4.75822C5.26608 4.99218 5.34645 5.21833 5.49042 5.40281L6.645 6.90073C6.48781 7.22099 6.35196 7.5513 6.23833 7.88948L4.35333 8.13489C4.12118 8.16546 3.90508 8.27012 3.73715 8.43332C3.56923 8.59651 3.45844 8.80954 3.42125 9.04073C3.28681 9.96084 3.28681 10.8956 3.42125 11.8157C3.46058 12.0448 3.57255 12.2552 3.74062 12.4157C3.90868 12.5763 4.12394 12.6786 4.35458 12.7074L6.23875 12.9528C6.3522 13.2913 6.48806 13.6219 6.64542 13.9424L5.48958 15.4457C5.40161 15.5629 5.33761 15.6963 5.30125 15.8382L4.96792 15.9816C4.90703 15.7036 4.75316 15.4548 4.53171 15.2762C4.31027 15.0975 4.03451 14.9998 3.75 14.9991H1.25C0.918479 14.9991 0.600537 15.1308 0.366116 15.3652C0.131696 15.5996 0 15.9175 0 16.2491L0 22.0824C0 22.4139 0.131696 22.7319 0.366116 22.9663C0.600537 23.2007 0.918479 23.3324 1.25 23.3324H3.75C4.06678 23.3315 4.37137 23.2102 4.60196 22.993C4.83256 22.7758 4.97188 22.479 4.99167 22.1628C5.07692 22.1602 5.16203 22.1713 5.24375 22.1957L13.7308 24.9107C14.0503 25.0061 14.388 25.0238 14.7157 24.9624C15.0435 24.9009 15.3518 24.7621 15.615 24.5574L24.5 17.4341C24.6554 17.3099 24.781 17.1524 24.8675 16.9733C24.954 16.7942 24.9993 16.598 25 16.3991C24.9987 16.1749 24.9414 15.9546 24.8333 15.7582C24.7495 15.6072 24.6367 15.4742 24.5015 15.3668C24.3662 15.2594 24.2111 15.1798 24.045 15.1324ZM6.60792 12.1607L4.46208 11.882C4.41045 11.8764 4.36184 11.8548 4.32301 11.8203C4.28418 11.7858 4.25706 11.7401 4.24542 11.6895C4.12403 10.8518 4.12403 10.0009 4.24542 9.16323C4.25581 9.1111 4.2824 9.06359 4.32137 9.02745C4.36035 8.99132 4.40974 8.9684 4.4625 8.96198L6.60833 8.68281C6.6878 8.67251 6.7626 8.63952 6.82379 8.58779C6.88498 8.53606 6.92996 8.46779 6.95333 8.39114C7.09186 7.92939 7.2764 7.4827 7.50417 7.05781C7.54261 6.98691 7.55964 6.90637 7.55321 6.82598C7.54677 6.74558 7.51715 6.66878 7.46792 6.60489L6.15208 4.89656C6.11841 4.85621 6.09847 4.80618 6.09517 4.75373C6.09188 4.70128 6.10539 4.64914 6.13375 4.60489C6.38686 4.26457 6.66366 3.94252 6.96208 3.64114C7.26082 3.34297 7.58114 3.06723 7.92042 2.81614C7.96447 2.78776 8.01633 2.77393 8.06867 2.77663C8.12101 2.77932 8.17117 2.79839 8.21208 2.83114L9.92417 4.14781C9.98805 4.19689 10.0648 4.22639 10.1451 4.23275C10.2254 4.23911 10.3059 4.22206 10.3767 4.18364C10.8025 3.95584 11.25 3.77117 11.7125 3.63239C11.7891 3.60905 11.8573 3.56414 11.909 3.50303C11.9608 3.44192 11.9938 3.3672 12.0042 3.28781L12.2833 1.14531C12.2884 1.09306 12.3102 1.04385 12.3455 1.00497C12.3808 0.966094 12.4277 0.93962 12.4792 0.929477C13.3172 0.802603 14.1695 0.802603 15.0075 0.929477C15.0591 0.93947 15.1061 0.965964 15.1413 1.00497C15.1766 1.04397 15.1982 1.09337 15.2029 1.14573L15.4821 3.28739C15.4925 3.36678 15.5255 3.4415 15.5772 3.50261C15.6289 3.56372 15.6972 3.60863 15.7737 3.63198C16.2361 3.77097 16.6834 3.95563 17.1092 4.18323C17.1801 4.22167 17.2606 4.2387 17.341 4.23227C17.4214 4.22584 17.4982 4.19621 17.5621 4.14698L19.2704 2.83114C19.311 2.79788 19.3609 2.77821 19.4133 2.77492C19.4656 2.77163 19.5177 2.78489 19.5621 2.81281C20.2441 3.31469 20.8464 3.9166 21.3487 4.59823C21.3789 4.64264 21.394 4.6956 21.3918 4.74925C21.3895 4.80291 21.3701 4.85441 21.3363 4.89614L20.0196 6.60448C19.9704 6.66836 19.9407 6.74516 19.9343 6.82556C19.9279 6.90596 19.9449 6.98649 19.9833 7.05739C20.2108 7.48248 20.3955 7.92912 20.5346 8.39073C20.5579 8.46731 20.6028 8.53555 20.6639 8.58727C20.7251 8.639 20.7998 8.67202 20.8792 8.68239L23.0208 8.96156C23.0739 8.96654 23.1239 8.98887 23.1631 9.02509C23.2023 9.06131 23.2284 9.10942 23.2375 9.16198C23.3015 9.57962 23.3336 10.0015 23.3333 10.4241C23.3335 10.8478 23.3016 11.271 23.2379 11.6899C23.2268 11.7407 23.1998 11.7867 23.1609 11.8212C23.1219 11.8557 23.073 11.877 23.0212 11.882L20.8796 12.1607C20.8002 12.1711 20.7255 12.2041 20.6644 12.2558C20.6033 12.3076 20.5583 12.3758 20.535 12.4524C20.3962 12.9149 20.2116 13.3624 19.9837 13.7882C19.9453 13.859 19.9283 13.9395 19.9346 14.0198C19.941 14.1001 19.9705 14.1768 20.0196 14.2407L21.3383 15.9574C21.3634 15.99 21.3802 16.0281 21.3874 16.0686C21.3947 16.109 21.3921 16.1506 21.38 16.1899L19.1117 17.4699C19.0406 17.2335 18.9044 17.0218 18.7186 16.8593C18.5328 16.6967 18.305 16.5898 18.0612 16.5507L17.3487 16.4299C17.3392 16.4299 17.3279 16.427 17.3167 16.4261L8.7575 15.0457C8.067 14.9369 7.36024 15.0026 6.70167 15.237L7.46792 14.2407C7.517 14.1768 7.5465 14.1001 7.55286 14.0198C7.55922 13.9395 7.54216 13.859 7.50375 13.7882C7.27603 13.3626 7.0915 12.9152 6.95292 12.4528C6.92961 12.3761 6.88466 12.3077 6.82347 12.2559C6.76227 12.2041 6.68743 12.1711 6.60792 12.1607ZM4.16667 22.0824C4.16667 22.1929 4.12277 22.2989 4.04463 22.377C3.96649 22.4552 3.86051 22.4991 3.75 22.4991H1.25C1.13949 22.4991 1.03351 22.4552 0.955372 22.377C0.877232 22.2989 0.833333 22.1929 0.833333 22.0824V16.2491C0.833333 16.1386 0.877232 16.0326 0.955372 15.9544C1.03351 15.8763 1.13949 15.8324 1.25 15.8324H3.75C3.86051 15.8324 3.96649 15.8763 4.04463 15.9544C4.12277 16.0326 4.16667 16.1386 4.16667 16.2491V22.0824ZM23.9808 16.782L15.0983 23.9032C14.9414 24.0245 14.758 24.1069 14.5631 24.1437C14.3682 24.1804 14.1674 24.1706 13.9771 24.1149L5.49458 21.4016C5.33812 21.3528 5.17515 21.3281 5.01125 21.3282H5V16.877L6.97833 16.0203C7.5058 15.8317 8.07238 15.7795 8.62542 15.8686L17.2046 17.252L17.2312 17.2553L17.9246 17.3728C18.0378 17.3915 18.1409 17.4495 18.2156 17.5366C18.2903 17.6237 18.332 17.7343 18.3333 17.8491C18.3332 17.9117 18.3212 17.9738 18.2979 18.032V18.0366C18.2752 18.093 18.2415 18.1444 18.1987 18.1878C18.1061 18.28 17.9807 18.332 17.85 18.3324H9.9375C9.82699 18.3324 9.72101 18.3763 9.64287 18.4544C9.56473 18.5326 9.52083 18.6386 9.52083 18.7491C9.52083 18.8596 9.56473 18.9655 9.64287 19.0437C9.72101 19.1218 9.82699 19.1657 9.9375 19.1657H11.485L13.91 20.6716C14.0967 20.777 14.3073 20.8326 14.5217 20.8331C14.7361 20.8336 14.947 20.779 15.1342 20.6745L17.805 19.1657H17.85C18.1992 19.1651 18.5341 19.0269 18.7821 18.7811C18.8687 18.6948 18.9426 18.5966 19.0017 18.4895L23.4487 15.9753C23.5605 15.9133 23.6923 15.8979 23.8153 15.9327C23.9383 15.9674 24.0426 16.0494 24.1054 16.1607C24.1452 16.2339 24.1663 16.3158 24.1667 16.3991C24.1664 16.4727 24.1496 16.5454 24.1175 16.6117C24.0853 16.678 24.0386 16.7362 23.9808 16.782ZM16.1108 19.1657L14.7267 19.9474C14.6665 19.981 14.599 19.9991 14.5302 20.0002C14.4613 20.0013 14.3932 19.9853 14.3321 19.9536L13.0642 19.1657H16.1108Z" fill="#00682C"/>
<path d="M2.91797 16.666H2.08464C1.97413 16.666 1.86815 16.7099 1.79001 16.7881C1.71187 16.8662 1.66797 16.9722 1.66797 17.0827C1.66797 17.1932 1.71187 17.2992 1.79001 17.3773C1.86815 17.4555 1.97413 17.4993 2.08464 17.4993H2.91797C3.02848 17.4993 3.13446 17.4555 3.2126 17.3773C3.29074 17.2992 3.33464 17.1932 3.33464 17.0827C3.33464 16.9722 3.29074 16.8662 3.2126 16.7881C3.13446 16.7099 3.02848 16.666 2.91797 16.666Z" fill="#00682C"/>
<path d="M2.91797 20.834H2.08464C1.97413 20.834 1.86815 20.8779 1.79001 20.956C1.71187 21.0342 1.66797 21.1401 1.66797 21.2507C1.66797 21.3612 1.71187 21.4671 1.79001 21.5453C1.86815 21.6234 1.97413 21.6673 2.08464 21.6673H2.91797C3.02848 21.6673 3.13446 21.6234 3.2126 21.5453C3.29074 21.4671 3.33464 21.3612 3.33464 21.2507C3.33464 21.1401 3.29074 21.0342 3.2126 20.956C3.13446 20.8779 3.02848 20.834 2.91797 20.834Z" fill="#00682C"/>
<path d="M13.7487 10.0124C13.8592 10.0124 13.9652 9.96847 14.0433 9.89033C14.1215 9.81219 14.1654 9.70621 14.1654 9.5957V6.26237C14.1654 6.15186 14.1215 6.04588 14.0433 5.96774C13.9652 5.8896 13.8592 5.8457 13.7487 5.8457C13.6382 5.8457 13.5322 5.8896 13.4541 5.96774C13.3759 6.04588 13.332 6.15186 13.332 6.26237V9.5957C13.332 9.70621 13.3759 9.81219 13.4541 9.89033C13.5322 9.96847 13.6382 10.0124 13.7487 10.0124Z" fill="#00682C"/>
<path d="M13.7487 12.0957C13.8592 12.0957 13.9652 12.0518 14.0433 11.9737C14.1215 11.8955 14.1654 11.7895 14.1654 11.679V11.2624C14.1654 11.1519 14.1215 11.0459 14.0433 10.9677C13.9652 10.8896 13.8592 10.8457 13.7487 10.8457C13.6382 10.8457 13.5322 10.8896 13.4541 10.9677C13.3759 11.0459 13.332 11.1519 13.332 11.2624V11.679C13.332 11.7895 13.3759 11.8955 13.4541 11.9737C13.5322 12.0518 13.6382 12.0957 13.7487 12.0957Z" fill="#00682C"/>
</g>
<defs>
<clipPath id="clip0_1456_10703">
<rect width="25" height="25" fill="white"/>
</clipPath>
</defs>
</svg>
